<?xml version="1.0" encoding="UTF-8"?>
<svg xmlns="http://www.w3.org/2000/svg" xmlns:xlink="http://www.w3.org/1999/xlink" version="1.1" viewBox="0 0 150 150">
  <defs>
    <style>
      .cls-1 {
        fill: none;
      }

      .cls-2 {
        fill: #fff;
      }

      .cls-3 {
        fill: #fe0000;
      }

      .cls-4 {
        fill: #c8102e;
      }

      .cls-5 {
        fill: #012169;
      }

      .cls-6 {
        clip-path: url(#clippath);
      }
    </style>
    <clipPath id="clippath">
      <circle class="cls-1" cx="237" cy="74.4" r="71" transform="translate(16.8 189.4) rotate(-45)"/>
    </clipPath>
  </defs>
  <!-- Generator: Adobe Illustrator 28.6.0, SVG Export Plug-In . SVG Version: 1.2.0 Build 709)  -->
  <g>
    <g id="Layer_1">
      <g class="cls-6">
        <g>
          <g>
            <polygon class="cls-5" points="379 3.4 379 145.3 95.1 145.3 95.1 74.4 110.9 74.4 154.3 52.8 154.3 74.4 177.9 74.4 177.9 52.8 221.3 74.4 237 74.4 237 66.4 205.4 50.7 237 50.7 237 27.1 205.4 27.1 237 11.4 237 3.4 379 3.4"/>
            <polygon class="cls-5" points="237 11.4 205.4 27.1 237 27.1 237 50.7 205.4 50.7 237 66.4 237 74.4 221.3 74.4 177.9 52.8 177.9 74.4 154.3 74.4 154.3 52.8 110.9 74.4 95.1 74.4 95.1 27.1 126.7 27.1 95.1 11.4 95.1 3.4 110.9 3.4 154.3 25 154.3 3.4 177.9 3.4 177.9 25 221.3 3.4 237 3.4 237 11.4"/>
            <g>
              <polygon class="cls-2" points="105.7 3.4 153.3 27.1 142.8 27.1 95.1 3.4 105.7 3.4"/>
              <polygon class="cls-2" points="126.7 50.7 95.1 66.4 95.1 50.7 126.7 50.7"/>
              <polygon class="cls-2" points="153.3 50.7 105.7 74.4 95.1 74.4 142.8 50.7 153.3 50.7"/>
              <polygon class="cls-2" points="237 31.8 237 46 173.2 46 173.2 74.4 159 74.4 159 46 95.1 46 95.1 31.8 159 31.8 159 3.4 173.2 3.4 173.2 31.8 237 31.8"/>
              <polygon class="cls-4" points="237 31.8 237 46 173.2 46 173.2 74.4 159 74.4 159 46 152.3 46 152.2 46 152.2 46 95.1 46 95.1 31.8 159 31.8 159 3.4 173.2 3.4 173.2 31.8 237 31.8"/>
              <g>
                <polygon class="cls-5" points="126.7 50.7 95.1 66.4 95.1 50.7 126.7 50.7"/>
                <polygon class="cls-2" points="159 46 159 74.4 154.3 74.4 154.3 52.8 110.9 74.4 105.7 74.4 153.3 50.7 142.8 50.7 95.1 74.4 95.1 66.4 126.7 50.7 95.1 50.7 95.1 46 159 46"/>
                <polygon class="cls-4" points="153.3 50.7 105.7 74.4 95.1 74.4 142.8 50.7 153.3 50.7"/>
              </g>
              <g>
                <polygon class="cls-5" points="126.7 27.1 95.1 27.1 95.1 11.4 126.7 27.1"/>
                <polygon class="cls-5" points="154.3 3.4 154.3 25 110.9 3.4 154.3 3.4"/>
                <polygon class="cls-2" points="159 3.4 159 31.8 95.1 31.8 95.1 27.1 126.7 27.1 95.1 11.4 95.1 3.4 142.8 27.1 153.3 27.1 105.7 3.4 110.9 3.4 154.3 25 154.3 3.4 159 3.4"/>
                <polygon class="cls-4" points="153.3 27.1 142.8 27.1 95.1 3.4 105.7 3.4 153.3 27.1"/>
              </g>
            </g>
          </g>
          <polygon class="cls-2" points="166.1 88.4 170.6 99.8 182.3 96.2 176.2 106.9 186.3 113.8 174.2 115.6 175.1 127.8 166.1 119.5 157.1 127.8 158 115.6 145.9 113.8 156 106.9 149.9 96.2 161.6 99.8 166.1 88.4"/>
        </g>
      </g>
      <g>
        <g>
          <path class="cls-2" d="M117,16.5v114.3c-11.8,8.7-26.4,13.9-42.2,13.9s-30.4-5.2-42.2-13.9V16.5C44.5,7.7,59,2.6,74.8,2.6s30.4,5.2,42.2,13.9Z"/>
          <path class="cls-3" d="M145.8,73.6c0,23.4-11.3,44.2-28.8,57.1V16.5c17.5,12.9,28.8,33.7,28.8,57.1Z"/>
          <path class="cls-3" d="M32.7,16.5v114.3C15.2,117.8,3.8,97,3.8,73.6S15.2,29.4,32.7,16.5Z"/>
        </g>
        <polygon class="cls-3" points="93.8 94 76.6 91.4 76.7 111.5 73 111.5 73.5 91.3 55.8 94 57.2 88.7 40.3 73.7 45 72.1 41.3 59.3 52.2 60.7 53.4 56 63.3 66.3 61.2 44.8 66.7 48.3 74.8 35.7 83 48.3 88.4 44.8 86.3 66.3 96.3 56 97.5 60.7 108.4 59.3 104.7 72.1 109.4 73.7 92.4 88.7 93.8 94"/>
      </g>
    </g>
  </g>
</svg>