<svg width="24" height="24" viewBox="0 0 24 24" fill="none" xmlns="http://www.w3.org/2000/svg">
<path d="M8.40625 3.47656L9.96875 7.22656C10.2422 7.85156 10.0859 8.59375 9.53906 9.02344L7.625 10.625C8.91406 13.3594 11.1406 15.5859 13.875 16.875L15.4766 14.9609C15.9062 14.4141 16.6484 14.2578 17.2734 14.5312L21.0234 16.0938C21.7656 16.3672 22.1172 17.1875 21.9219 17.9297L20.9844 21.3672C20.7891 22.0312 20.2031 22.5 19.5 22.5C9.8125 22.5 2 14.6875 2 5C2 4.29688 2.46875 3.71094 3.13281 3.51562L6.57031 2.57812C7.3125 2.38281 8.13281 2.73438 8.40625 3.47656Z" fill="#A6E191"/>
</svg>
