<svg width="84" height="16" xmlns="http://www.w3.org/2000/svg"><path d="M8 .143L6.145 6.145H.143l4.856 3.71-1.855 6.002L8 12.147l4.856 3.71-1.854-6.002 4.855-3.71H9.855zm17 0l-1.855 6.002h-6.002l4.856 3.71-1.855 6.002L25 12.147l4.856 3.71-1.855-6.002 4.856-3.71h-6.002zm17 0l-1.855 6.002h-6.002l4.856 3.71-1.855 6.002L42 12.147l4.856 3.71-1.855-6.002 4.856-3.71h-6.002zm17 0l-1.855 6.002h-6.002l4.856 3.71-1.855 6.002L59 12.147l4.856 3.71-1.855-6.002 4.856-3.71h-6.002zm17 0l-1.855 6.002h-6.002l4.856 3.71-1.855 6.002L76 12.147l4.856 3.71-1.854-6.002 4.855-3.71h-6.002z" fill="#FFB446" fill-rule="evenodd"/></svg>