<svg width="143" height="70" xmlns="http://www.w3.org/2000/svg"><path d="M14.157 43v.818H9.281l6.578 18.234 6.111-14.434-1.467-3.8h-2.468V43h11.689v.818h-3.935l6.814 18.117 7.342-18.117h-5.521V43H44v.818h-3.114L30.37 70l-7.99-21.215L13.452 70 3.995 43.818H0V43h14.157zm41.91-1c1.823 0 3.35.227 4.582.68 1.228.455 2.219 1.067 2.973 1.837a6.665 6.665 0 011.606 2.604 9.78 9.78 0 01.477 3.051v14.744c0 1.147.18 1.916.535 2.31.357.395.872.592 1.547.592.436 0 .892-.079 1.368-.236a5.031 5.031 0 001.368-.712l.477.65a8.08 8.08 0 01-1.845 1.037c-.714.297-1.587.443-2.617.443-1.904 0-3.282-.403-4.134-1.212-.855-.809-1.44-1.943-1.755-3.405h-.122c-.159.355-.376.798-.654 1.334-.278.532-.703 1.045-1.278 1.538-.576.493-1.338.909-2.293 1.244-.95.337-2.161.501-3.627.501-1.665 0-2.995-.187-3.986-.559-.993-.376-1.765-.84-2.32-1.393-.556-.551-.924-1.173-1.101-1.867A7.687 7.687 0 0145 63.257c0-1.38.278-2.487.833-3.316a6.172 6.172 0 012.173-1.983 14.394 14.394 0 012.974-1.213 134.03 134.03 0 003.302-1.007c1.308-.434 2.388-.81 3.241-1.125.852-.317 1.518-.7 1.995-1.155.474-.455.8-1.026.98-1.717.178-.69.268-1.629.268-2.812 0-.948-.06-1.798-.178-2.547-.12-.75-.337-1.391-.654-1.925a3.038 3.038 0 00-1.37-1.213c-.594-.275-1.387-.416-2.378-.416-1.309 0-2.389.228-3.243.683-.854.453-1.28 1.193-1.28 2.218 0 .673.059 1.335.18 1.983.117.654.178 1.138.178 1.453 0 .554-.2 1.017-.596 1.391-.397.375-.973.563-1.725.563-1.31 0-2.122-.237-2.44-.71-.318-.476-.474-1.086-.474-1.835 0-.87.197-1.699.594-2.488.398-.789.982-1.49 1.754-2.102.775-.612 1.745-1.095 2.917-1.45 1.17-.357 2.506-.534 4.015-.534zm76.99 0c.866 0 1.566.07 2.102.207.531.139.995.275 1.39.415.39.139.746.276 1.066.413.313.14.688.209 1.123.209.433 0 .75-.159.948-.475h.65v6.75h-.65a26.108 26.108 0 00-.948-2.517 10.101 10.101 0 00-1.27-2.16 5.199 5.199 0 00-1.837-1.48c-.73-.356-1.589-.534-2.574-.534-1.895 0-3.365.426-4.41 1.274-1.047.849-1.569 1.984-1.569 3.405 0 1.263.445 2.219 1.33 2.871.889.65 2.2 1.256 3.937 1.806l4.322 1.422c1.853.63 3.375 1.499 4.557 2.603 1.183 1.108 1.776 2.566 1.776 4.383a8.281 8.281 0 01-.623 3.137 7.573 7.573 0 01-1.833 2.695c-.81.769-1.797 1.392-2.962 1.865-1.163.475-2.494.711-3.993.711-.868 0-1.668-.088-2.396-.266a27.97 27.97 0 01-2.014-.562 90.797 90.797 0 01-1.688-.564 4.322 4.322 0 00-1.42-.266c-.435 0-.751.088-.949.266a2.418 2.418 0 00-.472.564H124v-8.29h.65c.275.947.632 1.905 1.067 2.871a10.162 10.162 0 001.746 2.665c.728.81 1.628 1.469 2.693 1.984 1.065.513 2.347.77 3.846.77a5.348 5.348 0 003.375-1.155c.985-.77 1.48-2.023 1.48-3.76 0-1.5-.383-2.556-1.155-3.167-.768-.614-1.666-1.097-2.692-1.452l-4.618-1.598a25.325 25.325 0 01-1.924-.74 7.07 7.07 0 01-1.923-1.244c-.59-.534-1.077-1.214-1.45-2.043-.376-.83-.562-1.895-.562-3.199 0-1.103.215-2.13.651-3.076a7.917 7.917 0 011.775-2.489c.749-.71 1.648-1.263 2.692-1.658 1.046-.394 2.182-.591 3.406-.591zM82.508 26v41.186H87V68H73v-.814h4.492v-40.37H73V26h9.508zm17.174 0v27.846h.656l11.821-10.02h-4.218v-.817h9.208v.817h-3.564l-9.267 7.807 13.127 15.553H120V68h-13.365v-.814h4.217L100.338 54.66h-.656v12.526h3.27V68H90v-.814h4.575v-40.37H90V26h9.682zM60.588 53.665h-.12c-.078.515-.735 1.028-1.962 1.54l-4.463 1.777c-1.27.514-2.24 1.234-2.915 2.161-.676.928-1.01 2.081-1.01 3.465 0 .591.058 1.204.178 1.835a4.63 4.63 0 00.654 1.687c.317.494.762.898 1.338 1.216.574.313 1.317.472 2.233.472 1.308 0 2.368-.276 3.18-.829.813-.553 1.428-1.243 1.846-2.073a8.71 8.71 0 00.832-2.694c.139-.965.21-1.844.21-2.636v-5.921zM126.001 0C135.391 0 143 7.611 143 17c0 9.387-7.61 17-16.999 17C116.611 34 109 26.387 109 17c0-9.389 7.611-17 17.001-17zm.051 3.553c-.037-.037-.073-.037-.114.003-.578.554-1.163 1.103-1.737 1.661-.53.517-1.022 1.067-1.43 1.686-.523.794-.849 1.654-.932 2.602a6.22 6.22 0 00.208 2.16c.205.772.524 1.501.858 2.225.362.79.741 1.573 1.078 2.377.39.923.627 1.886.6 2.9-.007.234-.032.468-.047.703l-.03.002-.033-.08a13.085 13.085 0 00-.773-1.627c-.582-1.024-1.284-1.956-2.21-2.7-1.246-1-2.656-1.468-4.257-1.265-.84.105-1.592.437-2.174 1.058-1.162 1.24-1.437 2.698-.948 4.3a3.24 3.24 0 001.628 1.967c.626.332 1.302.442 2.001.426.013 0 .023-.008.037-.013-.008-.035-.01-.07-.018-.102a3.163 3.163 0 01-.071-1.02c.068-.592.332-1.052.889-1.314.346-.162.714-.206 1.092-.18a3.856 3.856 0 011.57.453c.678.358 1.237.84 1.581 1.54.165.337.243.695.24 1.05-.222.1-.44.178-.634.294-.678.402-.928 1.183-.62 1.906.225.522.624.848 1.159 1.018.102.033.205.052.316.078-.009.07-.016.134-.026.202-.079.444-.329.782-.668 1.06-.241.197-.493.382-.73.582a1.704 1.704 0 00-.58.872c-.018.07-.004.108.053.143.189.13.403.173.624.183.5.026.984-.075 1.462-.213.071-.022.116-.011.165.044.344.388.688.778 1.041 1.159.271.294.572.554.956.69.145.052.305.1.454.088a1.72 1.72 0 00.532-.152c.353-.16.63-.426.888-.71.327-.36.65-.722.971-1.087.042-.045.082-.056.142-.036.403.119.812.207 1.233.219.27.009.538-.002.785-.135.163-.085.165-.095.11-.267-.014-.042-.031-.085-.047-.128-.146-.351-.41-.603-.7-.832-.202-.159-.409-.312-.605-.48-.348-.294-.57-.661-.621-1.124-.01-.069.009-.089.075-.098.475-.088.877-.306 1.17-.694.353-.47.46-.988.246-1.546-.166-.44-.507-.717-.931-.894-.111-.046-.228-.082-.344-.122v-.122c.023-.501.187-.95.478-1.354.492-.68 1.158-1.12 1.943-1.39.539-.186 1.09-.27 1.658-.149.53.11.937.39 1.153.904.163.381.177.783.127 1.19-.018.157-.048.316-.074.482.028.002.057.007.083.007a4.47 4.47 0 001.002-.09c1.06-.229 1.869-.806 2.356-1.78.608-1.214.6-2.457.055-3.689-.47-1.06-1.277-1.762-2.397-2.078-.902-.256-1.808-.21-2.704.037-1.137.316-2.068.965-2.869 1.812-.85.898-1.48 1.939-1.986 3.06-.095.212-.183.43-.28.659a.132.132 0 01-.014-.03 6.063 6.063 0 01.135-2.344c.21-.852.558-1.652.926-2.443.322-.692.654-1.38.957-2.078.367-.847.628-1.726.68-2.656a5.437 5.437 0 00-.38-2.366c-.312-.771-.785-1.438-1.332-2.058-.747-.842-1.607-1.565-2.401-2.356z" fill="#FFF" fill-rule="evenodd"/></svg>