<svg id="Layer_1" data-name="Layer 1" xmlns="http://www.w3.org/2000/svg" viewBox="0 0 498 498"><defs><style>.cls-1{fill:#144350;}</style></defs><path class="cls-1" d="M499,250c0-7.14-12.23-13.69-12.84-20.67s10.31-15.66,9.1-22.57S480.85,195.41,479,188.62s7.42-17.19,5-23.81-16.16-8.63-19.14-15,4.31-18.22.78-24.32-17.42-5.67-21.47-11.45,1.08-18.68-3.46-24.09-18.13-2.56-23.13-7.56-2.14-18.58-7.56-23.13-18.29.61-24.09-3.46-5.31-17.92-11.45-21.46-17.89,3.77-24.32.77-8.34-16.72-15-19.15-16.95,6.85-23.81,5S300.25,6,293.24,4.74s-15.47,9.71-22.57,9.09S257.14,1,250,1s-13.69,12.23-20.67,12.83-15.66-10.3-22.57-9.09S195.41,19.15,188.63,21s-17.2-7.42-23.81-5-8.64,16.17-15,19.15-18.21-4.31-24.32-.77S119.8,51.74,114,55.79,95.35,54.71,90,59.25s-2.57,18.13-7.57,23.12S63.8,84.52,59.25,89.94s.61,18.29-3.45,24.08-17.93,5.32-21.47,11.46,3.77,17.89.77,24.32-16.72,8.34-19.14,15,6.84,16.95,5,23.81S6,199.75,4.74,206.76s9.71,15.47,9.09,22.57S1,242.86,1,250s12.23,13.69,12.83,20.67-10.3,15.66-9.09,22.57S19.15,304.58,21,311.37s-7.42,17.21-5,23.81,16.16,8.64,19.14,15-4.31,18.22-.77,24.32S51.74,380.19,55.8,386s-1.09,18.67,3.45,24.09,18.13,2.56,23.13,7.56,2.14,18.58,7.56,23.13,18.29-.62,24.08,3.46,5.32,17.92,11.46,21.46,17.89-3.77,24.32-.77,8.34,16.72,15,19.14,16.95-6.84,23.81-5,11.13,15,18.14,16.22,15.47-9.7,22.57-9.09S242.86,499,250,499s13.69-12.23,20.67-12.84,15.66,10.31,22.57,9.09,11.34-14.4,18.14-16.22,17.19,7.42,23.81,5,8.63-16.16,15-19.14,18.22,4.31,24.32.77,5.67-17.41,11.45-21.46,18.68,1.09,24.08-3.46,2.58-18.13,7.57-23.13,18.58-2.15,23.12-7.56-.6-18.29,3.46-24.09,17.93-5.32,21.47-11.45-3.77-17.89-.77-24.32,16.71-8.34,19.14-15-6.84-16.94-5-23.81,15-11.12,16.23-18.13-9.71-15.46-9.1-22.57S499,257.14,499,250ZM250,471.9C127.65,471.9,28.1,372.35,28.1,250S127.65,28.1,250,28.1,471.9,127.64,471.9,250,372.35,471.9,250,471.9Z" transform="translate(-1 -1)"/><path class="cls-1" d="M432.86,278a9.5,9.5,0,0,0-6.76,2.81,9.52,9.52,0,0,1,13.41,13.52A9.52,9.52,0,0,0,432.86,278Z" transform="translate(-1 -1)"/><path class="cls-1" d="M75.84,287.6a9.51,9.51,0,0,1-2.77,6.72A9.52,9.52,0,1,0,59.66,280.8a9.51,9.51,0,0,1,16.18,6.8Z" transform="translate(-1 -1)"/><path class="cls-1" d="M202.14,172.5a9.09,9.09,0,0,0-13.25.05,9.83,9.83,0,0,0-2.68,6.15c0,.26,0,.51,0,.77a83.31,83.31,0,0,1-6.63,29c-.09.19-.16.38-.26.57h0a5.66,5.66,0,0,1-7.59,3,5.94,5.94,0,0,1-3.31-4.45l0,0a41.78,41.78,0,0,1-.09-15.41c.18-.94.39-1.89.63-2.82a10,10,0,0,0-2.73-7.72,9.08,9.08,0,0,0-13.25.05,6.88,6.88,0,0,0-.66.77A9.79,9.79,0,0,0,150.3,187a10,10,0,0,0,2.06,7.89c.18.23.38.44.58.66a8.47,8.47,0,0,0,1.11,1A41.32,41.32,0,0,1,165.48,224c0,.88,0,1.75,0,2.63,6.26-5.34,13.09-10.73,20.4-16a80.37,80.37,0,0,1,16.34-24.24l0,0A10.11,10.11,0,0,0,202.14,172.5Z" transform="translate(-1 -1)"/><path class="cls-1" d="M229.7,164.18c-4.84,5.06-6.28,10.18-1.28,13.53a30.42,30.42,0,0,0,6.48,3.18A292.66,292.66,0,0,1,262,169c-8.41-.33-14.82-1.34-14.44-3.75,1-6.61,13.08-17.58,26.4-18.36,5.81-.5,11.15,1.93,15,3.25a8.6,8.6,0,0,0,3.3.52,8.19,8.19,0,0,0-.92-16.35,8.76,8.76,0,0,0-3.22.93c-4.19,2-9.78,5.4-14.5,5.16-3.88-.19-5.76-4.32-1.55-8.81,10.1-10.86,15.78-12.56,19.44-14.26a9.18,9.18,0,0,0,2.82-1.87,8.5,8.5,0,0,0,.15-11.64,7.65,7.65,0,0,0-11.15,0,10.12,10.12,0,0,0-1.83,2.91c-1.74,3.79-3.78,10.54-13.79,20.26-3.84,3.73-8.66,1.17-8.41-3.71.36-6.9,3.93-10.37,6.13-14.11a8.86,8.86,0,0,0,1.16-3.27,8.17,8.17,0,0,0-6.6-9.37,7.94,7.94,0,0,0-8.91,7,8.79,8.79,0,0,0,.22,3.48c1.25,5,2.84,7.21,1.86,15.34S245.74,147.3,229.7,164.18Z" transform="translate(-1 -1)"/><path class="cls-1" d="M333.26,194.8c3.81-.39,5.84-6.07,5.19-13.27s-3.69-12.3-7.51-11.91-6.4,6.13-5.74,13.32S329.45,195.19,333.26,194.8Z" transform="translate(-1 -1)"/><path class="cls-1" d="M224.78,363.94C237,372.8,241,380.07,243.5,384a11,11,0,0,0,2.49,2.92A8.6,8.6,0,0,0,258.36,385a9.5,9.5,0,0,0-2-12.9,10.23,10.23,0,0,0-3.41-1.61c-4.33-1.27-11.67-2.18-24.19-12.25-5.21-4.16-3.81-8.91.35-9.76,5-1,12,.63,16.9,2.46a9.64,9.64,0,0,0,3.68.7,9.2,9.2,0,0,0-.56-18.38,9.47,9.47,0,0,0-3.64.94c-8.79,4-13.64,8.3-28.39,8-6.74-.12-16.62-3.3-23.39-6.79,26.56-4.49,48.33-12.65,58.35-18.72,4.79-2.91,6.7-6.19,6.55-10.52-.12-3.49-2.54-7.05-7-11.11-17.52-15.8-43.34-24.94-66.17-25.69-1.08,0-1.53-.25-1.56-.57s.74-.94,2.39-1.11c20.2-2.15,48.94,5,60.33,14.1,7.23-3.39,13.48-9.73,18.22-17.15a66.93,66.93,0,0,0,10-24.3c.23-1.15.52-1.57,1-1.62s.83.57.92,1.68c1,11.54-1.33,20.75-2.66,29.71-.63,4.22-.29,7.28.75,9.41,1.71,3.55,4.86,4.31,9.1,4.07,15.28-.86,35.27,3.44,45.66,10,7.07,4.47,7.12,7.27,9.89,11.52a8.5,8.5,0,0,0,2.38,2.44,7.67,7.67,0,0,0,10.89-2.46,8.45,8.45,0,0,0-2.46-11.35,8.24,8.24,0,0,0-3.13-1.22c-4.14-.71-9-.16-14.23-4.4-3.69-3-2.39-8.48,2.82-9.07,13.6-1.54,19.82,1.28,23.7,2.38a8.66,8.66,0,0,0,3.3.45,8.12,8.12,0,0,0,7.27-8.82,8,8,0,0,0-8.53-7.5,9,9,0,0,0-3.19,1c-3.63,1.78-8.57,5.15-23,6-6,.39-7.77-3.79-5.37-7,2.92-3.89,9-6.09,13.24-8.08a8.73,8.73,0,0,0,2.77-1.93,8.5,8.5,0,0,0-.09-11.64,7.64,7.64,0,0,0-11.14.21,9.17,9.17,0,0,0-1.78,2.95c-1.56,3.89-3.29,9.7-7.46,14-9.28,10-27.49,12.69-30.57,8.83-5.25-6.6,9.82-34.06,16.93-40.89,37.72-12.3,57.85-29.91,68-38.26C384.38,187,386,184,385.93,180c-.05-3.42-2.16-6.47-5.25-9.31a29.89,29.89,0,0,0-4.74-3.5A62.31,62.31,0,0,0,370,164c-2.14-1-4.32-2-6.5-2.87q-1.68-.69-3.36-1.35l-1.68-.64a1.47,1.47,0,0,1-.94-.8,1.39,1.39,0,0,1-.1-.33c-.11-.69-.3-1.6-.53-2.57a.14.14,0,0,1,0-.06,18.29,18.29,0,0,0-9.81-11.86,17,17,0,0,0-16.41,1.25,18.33,18.33,0,0,0-7.49,10.07c-.1.34-.19.68-.27,1,5.86-.84,12.79-.36,16.34.8a1,1,0,0,1,.64.49,132.9,132.9,0,0,0-16.09,1.11C228.41,171.22,123.45,255.82,129.36,288c1.53,8.35,14.75,17.07,46.65,20.32,11,1.11,29.14.28,38.81-2.13,2.25-.56,3.86-1.32,5.53-1.51,1.46-.17,2.7.36,3,1.71a2.46,2.46,0,0,1-2.39,2.91c-2.34.31-2.58-.09-7,.38-12.21,1.32-44,9.07-57,14.36-5.8,2.35-9.58,5.76-8.81,9.78.62,3.29,4.61,6,16,8.17,15.42,2.91,39.06,8.84,45.48,29.43,2.86,9.22.93,11.64.29,17.37a10,10,0,0,0,.3,3.9,8.79,8.79,0,0,0,11,6.27,9.31,9.31,0,0,0,5.9-11.52,9.66,9.66,0,0,0-1.8-3.44c-3-3.78-7.58-7.27-9-14.66C215.27,364.1,220.09,360.55,224.78,363.94ZM329.3,166.52c8.41,0,15.23,7.1,15.23,15.87s-6.82,15.88-15.23,15.88-15.22-7.11-15.22-15.88S320.89,166.52,329.3,166.52Z" transform="translate(-1 -1)"/><path class="cls-1" d="M234.48,106.91a4.86,4.86,0,1,0,0-9.71l-1.3,0a153.74,153.74,0,0,0-42.94,294.45l2,.81a4.65,4.65,0,0,0,1.82.36,4.85,4.85,0,0,0,1.82-9.35l-1.94-.79a144,144,0,0,1,40-275.8Z" transform="translate(-1 -1)"/><path class="cls-1" d="M403.72,250a153.49,153.49,0,0,0-8.23-49.75,4.86,4.86,0,0,0-9.19,3.15A143.55,143.55,0,0,1,394,250c0,71-52.86,132.2-122.86,142.45l-3.46.45a4.86,4.86,0,0,0,.61,9.67,4.46,4.46,0,0,0,.63-.05l3.54-.45C347.3,391.14,403.72,325.76,403.72,250Z" transform="translate(-1 -1)"/><path class="cls-1" d="M423.33,287.51a9.49,9.49,0,0,1,2.77-6.71,9.52,9.52,0,1,0,13.41,13.52,9.52,9.52,0,0,1-16.18-6.81Z" transform="translate(-1 -1)"/><path class="cls-1" d="M432.76,278.07a9.53,9.53,0,1,0,9.52,9.53A9.5,9.5,0,0,0,432.76,278.07Z" transform="translate(-1 -1)"/><path class="cls-1" d="M66.32,297.13a9.53,9.53,0,0,0,6.75-2.81A9.52,9.52,0,0,1,59.66,280.8a9.52,9.52,0,0,0,6.66,16.33Z" transform="translate(-1 -1)"/><path class="cls-1" d="M66.41,297a9.52,9.52,0,1,0-9.52-9.53A9.49,9.49,0,0,0,66.41,297Z" transform="translate(-1 -1)"/><path class="cls-1" d="M83.18,334.69a13.39,13.39,0,0,0,5.25-1.21c6.69-2.89,8.71-8.31,5.71-15.27l-4.36-10.1c-.23-.51-.43-.58-.61-.58a1.4,1.4,0,0,0-.52.14L58.42,320.73c-.31.14-.49.28-.55.44a.92.92,0,0,0,.1.69l2.63,6.08c.22.52.43.59.61.59a1.4,1.4,0,0,0,.52-.14l9.22-4a1.77,1.77,0,0,1,.71-.18,1.2,1.2,0,0,1,1.06.88l.86,2C75.72,332.06,79,334.69,83.18,334.69Zm-2-15.24,2.26-1a1.77,1.77,0,0,1,.71-.17,1.23,1.23,0,0,1,1.07.87l1.31,3a2.58,2.58,0,0,1,.08,2,2.61,2.61,0,0,1-1.46,1.4,3,3,0,0,1-1.19.27,2.37,2.37,0,0,1-2.21-1.57l-1.32-3.05A1.2,1.2,0,0,1,81.16,319.45Z" transform="translate(-1 -1)"/><path class="cls-1" d="M102,359.41a.94.94,0,0,0-.21-.66l-6-9.07a1.37,1.37,0,0,1-.28-1.06,1.53,1.53,0,0,1,.7-.84l1.55-1a1.64,1.64,0,0,1,.89-.33,1.24,1.24,0,0,1,1,.68l7.43,11.16c.27.41.48.46.61.46a1.16,1.16,0,0,0,.62-.25l5.89-3.91a1.06,1.06,0,0,0,.49-.56.84.84,0,0,0-.2-.66L102.27,335c-.28-.41-.49-.46-.62-.46a1.14,1.14,0,0,0-.61.25L73.69,353a1,1,0,0,0-.49.56.86.86,0,0,0,.21.65l12.21,18.36c.27.41.48.46.61.46a1.16,1.16,0,0,0,.62-.25l5.9-3.92c.57-.38.64-.68.28-1.22L85.6,356.44a1.33,1.33,0,0,1-.28-1,1.39,1.39,0,0,1,.7-.88l1.5-1a1.61,1.61,0,0,1,.89-.33,1.24,1.24,0,0,1,1,.68l6,9.07c.28.41.49.46.62.46a1.16,1.16,0,0,0,.62-.25l4.81-3.2C101.81,359.77,102,359.59,102,359.41Z" transform="translate(-1 -1)"/><path class="cls-1" d="M135.62,382.37a17.89,17.89,0,0,0-17.37-17.49A19.1,19.1,0,0,0,99.94,383a17.82,17.82,0,0,0,17.34,17.49,19.14,19.14,0,0,0,18.34-18.16Zm-11.73,6.43a8.85,8.85,0,0,1-6.29,2.7,8.69,8.69,0,0,1-5.92-14.91,8.81,8.81,0,0,1,6.24-2.68,8.85,8.85,0,0,1,8.64,8.78A8.9,8.9,0,0,1,123.89,388.8Z" transform="translate(-1 -1)"/><path class="cls-1" d="M160.63,408.25c4-6.08,2.75-11.73-3.57-15.92l-9.17-6.06a1.11,1.11,0,0,0-.59-.23c-.13,0-.33,0-.61.47L128.52,414a.94.94,0,0,0-.22.66c0,.17.18.34.47.53l5.52,3.66a1.2,1.2,0,0,0,.59.23c.13,0,.33-.05.61-.48l5.54-8.37a1.28,1.28,0,0,1,1-.7,1.56,1.56,0,0,1,.86.32l1.8,1.19a13.52,13.52,0,0,0,7.36,2.56h0C155.4,413.59,158.28,411.8,160.63,408.25Zm-7.08-4.8a2.51,2.51,0,0,1-2.08,1.25,2.73,2.73,0,0,1-1.48-.48l-2.77-1.84a1.34,1.34,0,0,1-.66-.83,1.44,1.44,0,0,1,.31-1.08l1.35-2.05a1.3,1.3,0,0,1,1-.7,1.51,1.51,0,0,1,.85.32l2.77,1.83A2.44,2.44,0,0,1,153.55,403.45Z" transform="translate(-1 -1)"/><path class="cls-1" d="M179.82,404.86l-6.29-2.9a1.35,1.35,0,0,0-.53-.15c-.18,0-.38.07-.61.57L158.63,432.3c-.28.6-.18.86.42,1.14l11.81,5.42a1.23,1.23,0,0,0,.53.15c.18,0,.38-.07.61-.57l3.46-7.52a1,1,0,0,0,.12-.69.94.94,0,0,0-.54-.45l-3.51-1.61a1.16,1.16,0,0,1-.67-1.79L180.24,406C180.52,405.39,180.42,405.13,179.82,404.86Z" transform="translate(-1 -1)"/><path class="cls-1" d="M215,416.72l-21.23-5.94a1.35,1.35,0,0,0-.41-.07c-.28,0-.5.12-.67.71l-8.84,31.63a1,1,0,0,0,0,.75.92.92,0,0,0,.59.36l21.23,5.94a1.69,1.69,0,0,0,.41.06c.28,0,.5-.12.66-.71l1.91-6.81a1,1,0,0,0,0-.76,1,1,0,0,0-.59-.35l-12.91-3.62a1.39,1.39,0,0,1-.89-.58,1.47,1.47,0,0,1,0-1.13l.49-1.74c.13-.46.39-1.07,1.14-1.07a1.9,1.9,0,0,1,.54.09l10.49,2.93a1.35,1.35,0,0,0,.4.07c.29,0,.51-.13.68-.71l1.56-5.56c.18-.67,0-.94-.59-1.11l-10.49-2.94a1.35,1.35,0,0,1-.89-.59,1.45,1.45,0,0,1,0-1.12l.5-1.79c.13-.46.39-1.07,1.15-1.07a2.2,2.2,0,0,1,.53.08l12.91,3.61a1.35,1.35,0,0,0,.41.07c.28,0,.5-.12.67-.71l1.9-6.82a1,1,0,0,0,0-.75A.92.92,0,0,0,215,416.72Z" transform="translate(-1 -1)"/><path class="cls-1" d="M260.25,447.14a1.56,1.56,0,0,1-.63-1.07,1.34,1.34,0,0,1,.47-.93l5.06-5.08c.49-.5.52-.84.1-1.26L261.47,435a1,1,0,0,0-.69-.33,1.44,1.44,0,0,0-.92.49l-4.36,4.57a1.67,1.67,0,0,1-1.13.63,1.28,1.28,0,0,1-.88-.48l-.76-.86a1.26,1.26,0,0,1-.36-.81,1.1,1.1,0,0,1,.61-.9c3.26-2.17,5-5.12,5-8.3,0-5.63-4.24-9.57-10.32-9.57-7.21,0-10.48,5.21-10.47,10a11.05,11.05,0,0,0,2.48,7,1.13,1.13,0,0,1-.19,1.65c-3,2.39-4.36,4.9-4.36,8.14,0,5.83,4.58,8.87,9.09,8.87h0c3.66,0,6.2-.81,8.53-2.68a2.27,2.27,0,0,1,1.2-.6,1.26,1.26,0,0,1,.88.48l1.06,1.15a2.69,2.69,0,0,0,2.48,1.12l6.82,0a.83.83,0,0,0,.81-.4.81.81,0,0,0-.19-.85Zm-13.89.71a2.59,2.59,0,0,1-2.7-2.6,2.62,2.62,0,0,1,1.08-2.25,1.12,1.12,0,0,1,.75-.26,1.23,1.23,0,0,1,.84.32l2,2.11a1.17,1.17,0,0,1,.33.92C248.72,447.23,247.35,447.84,246.36,447.85ZM249,431.8l-.26.34a2,2,0,0,1-1.12.42,1.8,1.8,0,0,1-1.12-.46,4,4,0,0,1-1.12-2.56,2.24,2.24,0,0,1,2.25-2.36h0a2.2,2.2,0,0,1,2.3,2.35A3.45,3.45,0,0,1,249,431.8Z" transform="translate(-1 -1)"/><path class="cls-1" d="M310.05,410.64c-.16-.59-.38-.71-.67-.71a1.68,1.68,0,0,0-.4.06l-6.19,1.72c-.63.17-.77.44-.59,1.11l3.88,14a1.06,1.06,0,0,1-.12.95.85.85,0,0,1-.69.33,1.29,1.29,0,0,1-.7-.23l-16.28-10.8-.3-.2a2.24,2.24,0,0,0-1.29-.6,2.2,2.2,0,0,0-.65.11l-4,1.1c-.63.17-.77.44-.59,1.11l8.78,31.64c.17.59.39.71.68.71a1.62,1.62,0,0,0,.4-.06l6.19-1.72a1,1,0,0,0,.59-.36,1,1,0,0,0,0-.75l-3.86-13.94a1,1,0,0,1,.12-.94.85.85,0,0,1,.69-.33,1.3,1.3,0,0,1,.7.22l16.57,11a2.28,2.28,0,0,0,1.29.6,2.59,2.59,0,0,0,.65-.11l4-1.1a.92.92,0,0,0,.59-.36,1,1,0,0,0,0-.75Z" transform="translate(-1 -1)"/><path class="cls-1" d="M333.26,399.83a2.24,2.24,0,0,0-1.38-.7,1.33,1.33,0,0,0-.62.16L326.14,402c-.63.33-.82.84-.7,1.95l4,34.17c0,.19.14.82.65.82a1,1,0,0,0,.46-.14l6.71-3.5A1.22,1.22,0,0,0,338,434l-.39-3.26a2.29,2.29,0,0,1,1.37-2.53l6.54-3.42a2.69,2.69,0,0,1,1.25-.36,2.6,2.6,0,0,1,1.62.68l2.44,2.18a1.19,1.19,0,0,0,.81.34,1.67,1.67,0,0,0,.67-.16l6.71-3.51a.78.78,0,0,0,.47-.54,1,1,0,0,0-.39-.77ZM341,418.22a1.3,1.3,0,0,1-.79.92l-2.72,1.42a1.62,1.62,0,0,1-.77.22c-.33,0-.92-.15-1.13-1.18L335,415a1.61,1.61,0,0,1,.26-1.31.84.84,0,0,1,.66-.3,1.74,1.74,0,0,1,1.13.54l3.46,3.13A1.37,1.37,0,0,1,341,418.22Z" transform="translate(-1 -1)"/><path class="cls-1" d="M361.63,391.93a1.17,1.17,0,0,1,.26-1.89l3.17-2.39a.94.94,0,0,0,.44-.55,1,1,0,0,0-.27-.65l-4.53-6c-.29-.39-.49-.44-.61-.44a1.1,1.1,0,0,0-.59.27l-15,11.29c-.53.4-.57.67-.17,1.2l4.52,6c.3.4.5.44.62.44a1.1,1.1,0,0,0,.59-.27l3.17-2.38a1.51,1.51,0,0,1,.89-.37,1.33,1.33,0,0,1,1,.63l13.94,18.54c.3.39.49.44.61.44a1.07,1.07,0,0,0,.59-.27l5.14-3.87c.53-.4.57-.67.17-1.2Z" transform="translate(-1 -1)"/><path class="cls-1" d="M396.23,372.69,382,359.12a1.11,1.11,0,0,0-.68-.33.91.91,0,0,0-.62.35l-4.58,4.79c-.44.48-.43.78.07,1.26l14.31,13.65a6.09,6.09,0,0,1,2.09,3.31,3.35,3.35,0,0,1-1.05,2.87,3.48,3.48,0,0,1-2.54,1.23,5.63,5.63,0,0,1-3.72-1.94L371,370.66a1.09,1.09,0,0,0-.66-.37.86.86,0,0,0-.56.33l-4.64,4.87a.89.89,0,0,0-.32.61,1,1,0,0,0,.39.64l14.23,13.58c3.71,3.54,7.29,5.33,10.64,5.33h0c2.92,0,5.71-1.37,8.29-4.07,2.77-2.91,4-6,3.65-9.13S399.7,376,396.23,372.69Z" transform="translate(-1 -1)"/><path class="cls-1" d="M425.76,353.06l-14.16-4.58a1.38,1.38,0,0,1-.91-.88,12,12,0,0,0-4.73-5.78,11.45,11.45,0,0,0-6.3-2.16c-3.39,0-6.59,2.09-9.23,6l-4,6c-.37.56-.31.82.24,1.2l27.38,18.29a1.15,1.15,0,0,0,.58.24c.14,0,.33,0,.61-.47l3.6-5.39a1,1,0,0,0,.23-.66c0-.17-.18-.34-.47-.53l-9.35-6.25a1,1,0,0,1-.47-.65.85.85,0,0,1,.14-.64.9.9,0,0,1,.78-.37,1.6,1.6,0,0,1,.52.1l10.58,3.62a2.93,2.93,0,0,0,1,.24c.33,0,.6-.13,1.06-.82l3.54-5.31a.76.76,0,0,0,.17-.65A1.12,1.12,0,0,0,425.76,353.06Zm-23-.55-.14.22a1.46,1.46,0,0,1-1.22.77,1.86,1.86,0,0,1-1-.37l-2-1.34a1.7,1.7,0,0,1-.81-1,1.63,1.63,0,0,1,.32-1.23l.14-.21a2.74,2.74,0,0,1,2.26-1.28,3,3,0,0,1,1.67.54,2.83,2.83,0,0,1,1.3,1.8A2.76,2.76,0,0,1,402.78,352.51Z" transform="translate(-1 -1)"/><path class="cls-1" d="M441.41,320.84,434.93,318a1.38,1.38,0,0,0-.55-.15c-.19,0-.41.07-.62.56l-5.41,12.27c-.26.58-.61.86-1.08.86a1.94,1.94,0,0,1-.75-.18l-1.65-.74a1.2,1.2,0,0,1-.74-1.8l4.4-10a.92.92,0,0,0,.09-.68,1,1,0,0,0-.58-.47l-5.28-2.33a1.34,1.34,0,0,0-.55-.14c-.19,0-.41.06-.63.56l-4.4,10a1.18,1.18,0,0,1-1.08.86,1.8,1.8,0,0,1-.74-.19l-1.7-.75a1.42,1.42,0,0,1-.85-.74,1.37,1.37,0,0,1,.11-1.06l5.41-12.27a.87.87,0,0,0,.09-.68,1,1,0,0,0-.58-.47l-6.47-2.86a1.34,1.34,0,0,0-.55-.14c-.19,0-.41.07-.63.56l-8.9,20.17c-.26.6-.14.88.49,1.15l30.05,13.25a1.38,1.38,0,0,0,.54.15c.19,0,.41-.07.63-.56L441.9,322C442.16,321.4,442,321.12,441.41,320.84Z" transform="translate(-1 -1)"/><path class="cls-1" d="M79.8,258.44V252a.91.91,0,0,0-.18-.68.94.94,0,0,0-.68-.18l-11.24,0a.92.92,0,0,1-1-.9,1.1,1.1,0,0,1,.94-.94l10.8-2.84c1.18-.28,1.37-.5,1.38-1.62v-6.37a.82.82,0,0,0-.18-.59.66.66,0,0,0-.49-.16,1.69,1.69,0,0,0-.52.08l-14.33,4a1.44,1.44,0,0,1-.4.06,1.47,1.47,0,0,1-.84-.29,12,12,0,0,0-7.17-2.19c-6.91,0-10.72,4.2-10.74,11.83l0,7.17c0,.67.2.87.86.87l32.93.06C79.6,259.29,79.8,259.1,79.8,258.44Zm-22.23-6.58H55.16a1.44,1.44,0,0,1-1.64-1.6V250a2.67,2.67,0,0,1,2.85-2.79h0a2.87,2.87,0,0,1,2.07.77,3,3,0,0,1,.78,2.28A1.44,1.44,0,0,1,57.57,251.86Z" transform="translate(-1 -1)"/><path class="cls-1" d="M49.63,214.5l29.09,18.35a1.17,1.17,0,0,0,.61.21c.41,0,.57-.35.63-.65L81.44,225a1.27,1.27,0,0,0-.58-1.39l-2.8-1.74a2.29,2.29,0,0,1-1.1-2.65L78.41,212a2.29,2.29,0,0,1,2-2l3.22-.53a1.23,1.23,0,0,0,1.07-1L86.24,201a.83.83,0,0,0-.1-.68.78.78,0,0,0-.61-.22,1.18,1.18,0,0,0-.26,0l-33.91,5.76c-1.1.21-1.53.53-1.67,1.23l-1.13,5.66C48.42,213.43,48.7,213.9,49.63,214.5Zm15.07-2.77,4.61-.72.23,0h0a1.24,1.24,0,0,1,1,.4,1.32,1.32,0,0,1,.19,1.17l-.59,3c-.19,1-.78,1.12-1.11,1.12a1.8,1.8,0,0,1-.84-.25l-4-2.43c-.63-.38-.95-.88-.85-1.35S64,211.84,64.7,211.73Z" transform="translate(-1 -1)"/><path class="cls-1" d="M57.9,181.26,88.66,193a1.47,1.47,0,0,0,.5.12c.2,0,.4-.07.61-.61l2.59-6.75a1,1,0,0,0,.07-.7.92.92,0,0,0-.57-.41L61.1,172.9a1.34,1.34,0,0,0-.5-.11c-.19,0-.4.07-.61.61l-2.58,6.75a1,1,0,0,0-.08.7A.92.92,0,0,0,57.9,181.26Z" transform="translate(-1 -1)"/><path class="cls-1" d="M67,158.78l28.26,16.73a1.26,1.26,0,0,0,.61.22c.15,0,.36-.06.61-.49l3.28-5.53a1,1,0,0,0,.18-.67,1,1,0,0,0-.53-.54L87,161.14a1,1,0,0,1-.56-1,1.06,1.06,0,0,1,.92-.82l19.18-3.52.37-.06c.94-.15,1.26-.2,1.73-1l2.1-3.54c.33-.56.25-.85-.35-1.2L82.1,133.28a1.14,1.14,0,0,0-.59-.21c-.16,0-.37.05-.63.49l-3.27,5.53a.94.94,0,0,0-.18.66,1,1,0,0,0,.52.54l12.49,7.39a1,1,0,0,1,.56,1,1.07,1.07,0,0,1-.92.82L70.5,153c-1,.15-1.27.2-1.74,1l-2.1,3.54C66.33,158.14,66.42,158.43,67,158.78Z" transform="translate(-1 -1)"/><path class="cls-1" d="M116.48,142.66a1.06,1.06,0,0,0,.64.33.89.89,0,0,0,.61-.38l4.39-5c.42-.48.4-.79-.12-1.24l-8.06-7.11a1.37,1.37,0,0,1-.55-.92,1.35,1.35,0,0,1,.44-1l3.74-4.26a.88.88,0,0,0,.3-.64,1.05,1.05,0,0,0-.41-.61l-4.85-4.28a1.11,1.11,0,0,0-.65-.33.87.87,0,0,0-.61.37l-3.75,4.26a1.33,1.33,0,0,1-1,.56,1.46,1.46,0,0,1-.93-.44l-1-.93a1.18,1.18,0,0,1-.12-1.91l4.55-5.16a.93.93,0,0,0,.3-.62,1,1,0,0,0-.41-.62l-5.57-4.92a1.11,1.11,0,0,0-.65-.33.86.86,0,0,0-.6.38l-10.4,11.78a.93.93,0,0,0-.3.62,1,1,0,0,0,.42.63Z" transform="translate(-1 -1)"/><path class="cls-1" d="M136,119.14a17.31,17.31,0,0,0,10.59-3.75c8-6.11,9.16-16.51,2.85-24.73a17.74,17.74,0,0,0-13.95-7.29,17.37,17.37,0,0,0-10.62,3.76,17.09,17.09,0,0,0-6.77,11.55,18.06,18.06,0,0,0,3.9,13.13A17.75,17.75,0,0,0,136,119.14Zm-9-19a8.51,8.51,0,0,1,3.37-5.8,8.63,8.63,0,0,1,5.26-1.84A8.76,8.76,0,0,1,142.54,96a8.68,8.68,0,0,1-6.71,14h0a9.13,9.13,0,0,1-8.84-10Z" transform="translate(-1 -1)"/><path class="cls-1" d="M166.13,100.52c.24.5.44.56.61.56a1.27,1.27,0,0,0,.54-.16l5.82-2.83c.6-.28.69-.54.4-1.14l-4.91-10.11a1,1,0,0,1-.08-.8.81.81,0,0,1,.45-.49l.27-.08h.06a1.2,1.2,0,0,1,.92.51l7.29,8.46c.51.61.79.81,1.13.81a2.3,2.3,0,0,0,.93-.29l5.73-2.79c.28-.13.44-.29.47-.48a1.11,1.11,0,0,0-.39-.88l-9.92-11.1a1.41,1.41,0,0,1-.33-1.22A12,12,0,0,0,174,71.12c-2-4.13-5-6.22-8.8-6.22a15.12,15.12,0,0,0-6.56,1.73l-6.46,3.13c-.6.29-.68.55-.4,1.15Zm-3.92-25.9a1.56,1.56,0,0,1,.89-.9l.23-.11a3,3,0,0,1,1.31-.32,2.89,2.89,0,0,1,1.18,5.45l-.23.11a1.91,1.91,0,0,1-.83.22,1.54,1.54,0,0,1-1.32-1l-1.05-2.16A1.7,1.7,0,0,1,162.21,74.62Z" transform="translate(-1 -1)"/><path class="cls-1" d="M192.8,88.31c.16.59.38.71.67.71a1.68,1.68,0,0,0,.4-.06L215.09,83c.63-.18.77-.45.58-1.11l-1.9-6.81c-.17-.59-.39-.71-.68-.71a1.62,1.62,0,0,0-.4.06l-12.9,3.61a1.86,1.86,0,0,1-.54.08c-.76,0-1-.61-1.14-1.07l-.49-1.74a1.21,1.21,0,0,1,.92-1.71L209,70.69c.62-.17.76-.44.58-1.11L208.06,64c-.16-.59-.38-.71-.67-.71a1.62,1.62,0,0,0-.4.06L196.5,66.31a1.84,1.84,0,0,1-.53.09c-.85,0-1.07-.81-1.15-1.07l-.5-1.79a1.2,1.2,0,0,1,.93-1.71l12.91-3.61a.9.9,0,0,0,.59-.37,1,1,0,0,0,0-.74l-1.91-6.81c-.16-.59-.39-.71-.67-.71a1.62,1.62,0,0,0-.4.06l-21.22,5.94c-.63.17-.77.44-.59,1.1Z" transform="translate(-1 -1)"/><path class="cls-1" d="M232.89,67.41a2.32,2.32,0,0,1,2.55,2.27,2.24,2.24,0,0,1-2.14,2.47l-.3,0c-.92,0-2.05-.43-2.24-2.45-.06-.68-.31-.82-.89-.82l-6.15.57c-.61.06-1,.2-.92,1.51.62,6.6,4,10.1,9.85,10.1.5,0,1,0,1.54-.08,6.67-.63,10.26-5.15,9.6-12.1-.59-6.28-4.47-9.75-10.93-9.77-1.64,0-3.18-.29-3.36-2.25a2.2,2.2,0,0,1,.48-1.64,2.39,2.39,0,0,1,1.65-.82l.28,0a2.27,2.27,0,0,1,2.3,2.29c.06.67.31.82.88.82l6.16-.57a1,1,0,0,0,.7-.27,1.68,1.68,0,0,0,.17-1.18c-.59-6.29-4.36-10-10.09-10q-.63,0-1.29.06a10.07,10.07,0,0,0-7.2,3.51c-1.67,2.1-2.34,5-2,8.56C222.17,64.31,225.57,67.25,232.89,67.41Z" transform="translate(-1 -1)"/><path class="cls-1" d="M253.3,54.14l4,.26a1.4,1.4,0,0,1,1,.39,1.34,1.34,0,0,1,.25,1.05L257,79a.93.93,0,0,0,.14.69.94.94,0,0,0,.67.22l6.58.43c.47,0,.7-.12.75-.81l1.52-23.15c.05-.87.43-1.26,1.41-1.26l4.14.27c.48,0,.71-.12.75-.81l.5-7.52a1,1,0,0,0-.14-.69.91.91,0,0,0-.66-.22l-18.91-1.23c-.47,0-.7.12-.75.8l-.49,7.52a.93.93,0,0,0,.13.69A1,1,0,0,0,253.3,54.14Z" transform="translate(-1 -1)"/><path class="cls-1" d="M290.8,84,298,86.48a1.74,1.74,0,0,0,.52.08,1.14,1.14,0,0,0,.93-.46l2.11-2.52a2.33,2.33,0,0,1,1.78-.92,3,3,0,0,1,1,.19l7,2.43A2.31,2.31,0,0,1,313,87.6l.08,3.27a1.22,1.22,0,0,0,.88,1.2l7.16,2.51a1.33,1.33,0,0,0,.37.07.57.57,0,0,0,.41-.16,1,1,0,0,0,.22-.75l-1-34.4c-.05-1.11-.31-1.59-1-1.83l-5.45-1.9a1.49,1.49,0,0,0-.48-.09c-.46,0-.87.26-1.43.91L290.54,82.7a1,1,0,0,0-.28.81A.83.83,0,0,0,290.8,84Zm17.47-9.42,3-3.59a1.62,1.62,0,0,1,1.17-.71c.47,0,1,.38,1,1.47l.07,4.67c0,.85-.44,1.33-1.12,1.33a2.14,2.14,0,0,1-.62-.11l-2.89-1a1.33,1.33,0,0,1-.91-.8A1.42,1.42,0,0,1,308.27,74.57Z" transform="translate(-1 -1)"/><path class="cls-1" d="M327.17,98.24l11.37,6.3a1.19,1.19,0,0,0,.56.19c.15,0,.35-.06.6-.52l4-7.25c.33-.58.25-.84-.33-1.16L340,93.92a1.15,1.15,0,0,1-.53-1.83l10.88-19.63c.32-.58.25-.84-.33-1.17L344,67.94a1.19,1.19,0,0,0-.56-.19c-.16,0-.36.06-.61.52l-16,28.8a.7.7,0,0,0,.34,1.17Z" transform="translate(-1 -1)"/><path class="cls-1" d="M346.48,109.73l10.45,7.74a1.07,1.07,0,0,0,.59.26c.12,0,.32,0,.61-.44l4.93-6.66a.93.93,0,0,0,.26-.65c0-.17-.16-.35-.44-.55l-3.1-2.3a1.17,1.17,0,0,1-.29-1.89l13.36-18a.93.93,0,0,0,.26-.65c0-.17-.16-.35-.44-.55l-5.57-4.13a1.12,1.12,0,0,0-.59-.26c-.12,0-.31,0-.61.45l-19.6,26.47C345.9,109.06,345.94,109.33,346.48,109.73Z" transform="translate(-1 -1)"/><path class="cls-1" d="M363.86,123.25a.89.89,0,0,0,.37.6l5.26,5a1,1,0,0,0,.6.34.93.93,0,0,0,.61-.37l22.61-24c.46-.48.45-.75,0-1.21l-5.25-5a1,1,0,0,0-.61-.34,1,1,0,0,0-.61.37l-22.6,24A.93.93,0,0,0,363.86,123.25Z" transform="translate(-1 -1)"/><path class="cls-1" d="M375.14,133.12a.8.8,0,0,0,.19.69l4.59,6a1.29,1.29,0,0,0,1,.54,1.65,1.65,0,0,0,.43-.06l3.15-1a3.47,3.47,0,0,1,.85-.12,2.22,2.22,0,0,1,1.87,1.05l4.48,5.86a2.31,2.31,0,0,1,.17,2.88l-1.74,2.77a1.24,1.24,0,0,0,.08,1.49l4.6,6a.84.84,0,0,0,.59.36.9.9,0,0,0,.71-.51l18.07-29.28c.57-1,.62-1.5.18-2.07l-3.5-4.58a1.23,1.23,0,0,0-1.07-.53,3.72,3.72,0,0,0-1,.16l-33,9.73A.94.94,0,0,0,375.14,133.12Zm19.95,2.43,4.45-1.38a2.4,2.4,0,0,1,.71-.12,1,1,0,0,1,.94.48A1.46,1.46,0,0,1,401,136l-2.51,4a1.38,1.38,0,0,1-1.08.68,1.32,1.32,0,0,1-1-.62l-1.86-2.44a1.32,1.32,0,0,1-.33-1.17A1.38,1.38,0,0,1,395.09,135.55Z" transform="translate(-1 -1)"/><path class="cls-1" d="M398.67,165.68a.86.86,0,0,0,.1.67l2.67,5.85c.22.5.45.56.63.56a1.38,1.38,0,0,0,.55-.15l13.16-6a1.39,1.39,0,0,1,.54-.12.82.82,0,0,1,.71.37,1.13,1.13,0,0,1,0,1.08L409,185.69l-.15.33c-.43.86-.57,1.16-.19,2l1.71,3.75c.23.49.45.56.63.56a1.46,1.46,0,0,0,.56-.15l29.88-13.64a1,1,0,0,0,.57-.48.89.89,0,0,0-.1-.68l-2.67-5.85c-.23-.49-.44-.56-.63-.56a1.27,1.27,0,0,0-.55.16l-13.21,6a1.22,1.22,0,0,1-.54.13.86.86,0,0,1-.71-.37,1.14,1.14,0,0,1,0-1.08L431.68,158l.16-.33c.42-.86.56-1.15.18-2L430.31,152c-.23-.48-.45-.55-.63-.55a1.42,1.42,0,0,0-.56.15L399.24,165.2C398.92,165.35,398.73,165.5,398.67,165.68Z" transform="translate(-1 -1)"/><path class="cls-1" d="M429.57,194.1a18.19,18.19,0,0,0-11.46,7.51,17,17,0,0,0-2.27,13.18c1.43,6.6,6,11.56,11.93,13a3.22,3.22,0,0,0,.73.1c.52,0,.8-.24.94-.81l1.43-6.17c.18-.81.06-1.06-.68-1.39a8.7,8.7,0,0,1-5.5-6.56,8.5,8.5,0,0,1,1.18-6.58,8.84,8.84,0,0,1,5.56-3.73,9.91,9.91,0,0,1,2-.22,8.45,8.45,0,0,1,8.4,6.78,8.71,8.71,0,0,1-2.26,8.25c-.54.62-.55.9,0,1.55l3.87,5a1,1,0,0,0,.75.45,1.92,1.92,0,0,0,1.06-.5c4.8-3.74,6.89-10.16,5.45-16.75A16.64,16.64,0,0,0,434,193.62,20.87,20.87,0,0,0,429.57,194.1Z" transform="translate(-1 -1)"/><path class="cls-1" d="M419.84,236.37l.36,22c0,.64.23.85.89.85l7.11-.12c.69,0,.9-.23.89-.88l-.21-13.4c0-.92.42-1.35,1.38-1.37l1.85,0c.92,0,1.36.42,1.37,1.33l.18,10.89c0,.64.23.85.92.85l5.78-.1a1.06,1.06,0,0,0,.72-.21.92.92,0,0,0,.17-.66l-.18-10.9c0-.92.42-1.35,1.38-1.37l1.91,0c.92,0,1.36.42,1.37,1.33L446,258c0,.64.22.84.92.84l7.08-.11a1.05,1.05,0,0,0,.71-.2.94.94,0,0,0,.19-.68l-.37-22c0-.64-.22-.85-.92-.85l-32.83.54C420.05,235.51,419.83,235.73,419.84,236.37Z" transform="translate(-1 -1)"/></svg>