<?xml version="1.0" encoding="utf-8"?>
<!-- Generator: Adobe Illustrator 24.1.3, SVG Export Plug-In . SVG Version: 6.00 Build 0)  -->
<svg class="logo" version="1.1" xmlns="http://www.w3.org/2000/svg" xmlns:xlink="http://www.w3.org/1999/xlink" x="0px" y="0px"
	 viewBox="0 0 286.4 88.7" style="enable-background:new 0 0 286.4 88.7;" xml:space="preserve">
<style type="text/css">
	.frog{fill:#FFFFFF;}
	.word{fill:#FFFFFF;}
</style>
<g class="frog">
	<path d="M30.8,19.8c4.9-4.9,6.9-9.9,7.2-12.2c0.3-2.4-0.2-3-0.6-4.5c-0.1-0.3-0.1-0.7-0.1-1c0.2-1.3,1.4-2.2,2.7-2
		c1.3,0.2,2.2,1.4,2,2.7c-0.1,0.4-0.2,0.7-0.4,1c-0.7,1.1-1.8,2.1-1.9,4.1c-0.1,1.4,1.4,2.2,2.6,1.1C45.4,6.1,46,4.1,46.6,3
		c0.1-0.3,0.3-0.6,0.6-0.9c1-0.9,2.5-0.9,3.4,0c0.9,0.9,0.9,2.5,0,3.4c-0.3,0.2-0.6,0.4-0.9,0.5c-1.1,0.5-2.9,1-5.9,4.2
		c-1.3,1.3-0.7,2.5,0.5,2.6c1.4,0.1,3.2-0.9,4.4-1.5c0.3-0.1,0.6-0.2,1-0.3c1.3-0.1,2.5,0.9,2.6,2.3c0.1,1.3-0.9,2.5-2.3,2.5
		c-0.4,0-0.7,0-1-0.2c-1.2-0.4-2.8-1.1-4.6-0.9c-4.1,0.2-7.8,3.4-8.1,5.4c-0.1,0.7,1.8,1,4.4,1.1c-2.8,1-5.6,2.2-8.3,3.5
		c-0.7-0.2-1.4-0.5-2-0.9C28.8,22.8,29.3,21.3,30.8,19.8 M7.1,28.8c-0.6-0.7-0.8-1.5-0.6-2.3c0.1-0.5,0.3-0.9,0.6-1.3
		C7.1,25.1,7.2,25,7.3,25c1.1-1.1,2.9-1.1,4.1,0c0.6,0.6,0.9,1.5,0.8,2.3C12.1,27.5,12,27.8,12,28c-0.3,1.5-0.3,3,0,4.5l0,0
		c0.1,0.6,0.5,1.1,1,1.3c0.9,0.4,1.9,0,2.3-0.9l0,0c0-0.1,0.1-0.1,0.1-0.2c1.2-2.8,1.9-5.6,2-8.5c0-0.1,0-0.1,0-0.2
		c0-0.7,0.3-1.3,0.8-1.8c1.1-1.1,2.9-1.1,4.1,0c1.1,1.1,1.1,2.9,0,4.1l0,0c-2,2-3.7,4.4-5,7.1c-2.2,1.5-4.3,3.1-6.2,4.7
		c0-0.3,0-0.5,0-0.8c-0.1-3-1.3-5.9-3.5-8c-0.1-0.1-0.2-0.2-0.3-0.3C7.2,29,7.2,28.9,7.1,28.8 M64.7,28.8c-0.7,1-1.7,1.6-3,1.9
		c-3,0.6-6.1-0.8-6.8-3.8C54.1,24,56,20.6,59,19.8c1.2-0.3,2.5-0.2,3.4,0.2c0.3,0.1,0.4,0.3,0.4,0.4c0,0.1-0.2,0.2-0.6,0.1
		c-0.7-0.2-1.4-0.1-2.1,0c-2.5,0.6-3.8,3.1-3.3,5.6c0.5,2.5,3,4,5.4,3.4c0.8-0.2,1.5-0.6,2-1.1c0.4-0.4,0.5-0.4,0.6-0.3
		C65,28.2,65,28.4,64.7,28.8 M64.1,24.7c0.2,2.1-0.6,3.9-1.7,4c-1.2,0.1-2.3-1.5-2.5-3.6c-0.2-2.1,0.6-3.9,1.7-4
		C62.8,21,63.9,22.6,64.1,24.7 M76.9,21.7c-0.4-0.4-0.9-0.7-1.5-1c-0.6-0.3-1.2-0.6-1.8-0.9c-0.7-0.3-1.3-0.6-2-0.8
		c-0.3-0.1-0.7-0.3-1-0.4c-0.2-0.1-0.3-0.1-0.5-0.2c-0.1,0-0.2-0.1-0.3-0.2c0,0,0-0.1,0-0.1c0-0.2-0.1-0.5-0.2-0.7c0,0,0,0,0,0
		c-0.4-1.5-1.5-2.8-3-3.5c-1.6-0.7-3.5-0.6-5,0.4c-0.7,0.4-1.3,1-1.7,1.7c-0.2,0.4-0.4,0.8-0.6,1.2c0,0.1-0.1,0.2-0.1,0.3
		c1.8-0.2,3.9-0.1,5,0.2c0.1,0,0.2,0.1,0.2,0.1c-1.5,0-3.2,0.1-4.9,0.3c-29.2,3.8-61.3,28.6-59.5,38c0.5,2.4,4.5,5,14.3,5.9
		c3.4,0.3,8.9,0.1,11.9-0.6c0.7-0.2,1.2-0.4,1.7-0.4c0.4,0,0.8,0.1,0.9,0.5c0.1,0.4-0.2,0.8-0.7,0.9c-0.7,0.1-0.8,0-2.1,0.1
		c-3.7,0.4-13.4,2.7-17.4,4.2c-1.8,0.7-2.9,1.7-2.7,2.9c0.2,1,1.4,1.8,4.9,2.4c4.7,0.9,11.9,2.6,13.9,8.6c0.9,2.7,0.3,3.4,0.1,5.1
		c0,0.4,0,0.8,0.1,1.1c0.4,1.4,1.9,2.3,3.4,1.8c1.4-0.4,2.2-1.9,1.8-3.4c-0.1-0.4-0.3-0.7-0.5-1c-0.9-1.1-2.3-2.1-2.8-4.3
		c-0.3-1.5,1.2-2.6,2.6-1.6c3.7,2.6,5,4.7,5.7,5.9c0.2,0.3,0.4,0.6,0.8,0.9c1.2,0.9,2.9,0.6,3.8-0.6c0.9-1.2,0.6-2.9-0.6-3.8
		c-0.3-0.2-0.7-0.4-1-0.5c-1.3-0.4-3.6-0.6-7.4-3.6c-1.6-1.2-1.2-2.6,0.1-2.9c1.5-0.3,3.7,0.2,5.2,0.7c0.4,0.1,0.7,0.2,1.1,0.2
		c1.5,0,2.7-1.3,2.6-2.8c0-1.5-1.3-2.7-2.8-2.6c-0.4,0-0.8,0.1-1.1,0.3c-2.7,1.2-4.2,2.4-8.7,2.4c-2.1,0-5.1-1-7.2-2
		c8.1-1.3,14.8-3.7,17.8-5.5c1.5-0.9,2.1-1.8,2-3.1c0-1-0.8-2.1-2.2-3.3c-5.4-4.6-13.3-7.3-20.2-7.5c-0.3,0-0.5-0.1-0.5-0.2
		c0-0.1,0.2-0.3,0.7-0.3c5-0.5,11.9,0.8,16.1,2.8c2.3-0.5,4.7-1.9,6.5-3.7c2.4-2.3,3.6-4.2,4.6-6.3c0.1-0.3,0.2-0.4,0.3-0.4
		c0.2,0,0.1,0.2,0.2,0.5c0,0.1,0,0.2,0,0.2c0.1,2.8-0.5,5.2-0.9,7.5c-0.2,1.2-0.1,2.1,0.2,2.8c0.5,1,1.5,1.3,2.8,1.2
		c4.7-0.3,10.8,1,14,2.9c2.2,1.3,2.2,2.1,3,3.4c0.2,0.3,0.4,0.5,0.7,0.7c1.1,0.7,2.6,0.4,3.3-0.7c0.7-1.1,0.4-2.6-0.8-3.3
		c-0.3-0.2-0.6-0.3-1-0.4c-1.3-0.2-2.8,0-4.4-1.3c-1.1-0.9-0.7-2.5,0.9-2.7c4.2-0.5,6.1,0.4,7.2,0.7c0.3,0.1,0.7,0.2,1,0.1
		c1.3-0.1,2.3-1.3,2.2-2.6c-0.1-1.3-1.3-2.3-2.6-2.2c-0.4,0-0.7,0.2-1,0.3c-1.1,0.5-2.6,1.5-7,1.8c-1.8,0.1-2.4-1.1-1.6-2
		c0.9-1.1,2.8-1.8,4-2.4c0.3-0.1,0.6-0.3,0.8-0.6c0.9-1,0.9-2.5,0-3.4c-0.9-0.9-2.5-0.9-3.4,0.1c-0.2,0.3-0.4,0.6-0.5,0.9
		c-0.5,1.1-1,2.8-2.3,4.1c-2.8,2.9-8.4,3.7-9.3,2.6c-1.6-1.9,3-10,5.2-12c11.5-3.6,17.7-8.8,20.8-11.2c1.4-1.1,1.9-2,1.9-3.1
		C78.5,23.5,77.9,22.6,76.9,21.7"/>
</g>
<g class="words">
	<g id="rainforest" class="word">
		<path d="M106.4,36.2l-5-8.5c-0.5-0.8-0.5-1.3,0-1.9c2-1.9,2.9-3.9,2.9-6.7c0-5.4-3.1-8.3-8.9-8.3h-8.1
			c-0.6,0-0.8,0.2-0.8,0.8v24.8c0,0.6,0.2,0.8,0.8,0.8h4.1c0.6,0,0.8-0.2,0.8-0.8v-7.1c0,0,0,0,0,0V29c0-0.8,0.3-1.3,0.7-1.4
			c0.4-0.2,1,0.1,1.4,0.9l2.4,4.1v0l1.2,2.1l1.1,2c0.5,0.6,0.7,0.6,1.3,0.6h5.4C106.4,37.3,106.8,36.6,106.4,36.2z M96.3,21.6h-3.5
			c-0.6,0-0.8-0.3-0.8-0.9v-2.8c0-0.6,0.2-0.9,0.8-0.9h3.5c1.3,0,2.2,0.8,2.2,2.3C98.5,20.8,97.6,21.6,96.3,21.6z"/>
		<path d="M173.2,36.5c0,0.6-0.2,0.9-0.8,0.9h-4.2c-0.6,0-0.8-0.3-0.8-0.9V11.7c0-0.6,0.2-0.9,0.8-0.9H180
			c0.6,0,0.8,0.3,0.8,0.9v5c0,0.6-0.2,0.9-0.8,0.9h-6c-0.6,0-0.8,0.2-0.8,0.8v1.8c0,0.6,0.2,0.8,0.8,0.8h5.1c0.6,0,0.8,0.3,0.8,0.9
			v4.2c0,0.6-0.2,0.9-0.8,0.9H174c-0.6,0-0.8,0.2-0.8,0.8V36.5z"/>
		<path d="M275.3,18.3c0-0.6-0.2-0.8-0.8-0.8h-3.2c-0.6,0-0.8-0.2-0.8-0.8v-5c0-0.6,0.2-0.8,0.8-0.8h13.8
			c0.6,0,0.8,0.2,0.8,0.8v5c0,0.6-0.2,0.8-0.8,0.8h-3.2c-0.6,0-0.8,0.2-0.8,0.8v18.2c0,0.6-0.2,0.8-0.8,0.8h-4.1
			c-0.6,0-0.8-0.2-0.8-0.8V18.3z"/>
		<path d="M126.7,36.2l-6.3-24.5c-0.2-0.7-0.5-0.9-1.1-0.9h-3.9c-0.6,0-0.9,0.2-1.1,0.9L108,36.2c0,0.2-0.1,0.3-0.1,0.5
			c0,0.4,0.2,0.6,0.7,0.6h3.7c1.1,0,1.4-0.1,1.6-1.1l0.6-2.4c0.2-0.7,0.5-0.9,1.1-0.9h3.2c0.6,0,0.9,0.2,1.1,0.9l0.6,2.4
			c0.2,0.9,0.6,1.1,1.6,1.1h3.8c0.5,0,0.7-0.2,0.7-0.6C126.8,36.5,126.7,36.4,126.7,36.2z M118.4,28c-0.7,0-1.3,0-2,0
			c-0.4,0-0.7-0.1-0.7-0.4c0-0.2,0-0.4,0.1-0.7c0.3-1.4,0.7-2.8,1-4.2c0.1-0.5,0.2-0.8,0.6-0.8c0.4,0,0.5,0.5,0.6,0.8
			c0.3,1.4,0.6,2.8,1,4.2c0.1,0.3,0.1,0.6,0.1,0.7C119,27.9,118.8,28,118.4,28z"/>
		<path d="M238.2,26.8c-0.6,0-0.8,0.3-0.8,0.9v2.5c0,0.6,0.2,0.9,0.8,0.9h10.6c0.6,0,0.8,0.3,0.8,0.9v4.6
			c0,0.6-0.2,0.9-0.8,0.9h-16.3c-0.6,0-0.8-0.3-0.8-0.9V11.7c0-0.6,0.2-0.9,0.8-0.9h16.3c0.6,0,0.8,0.3,0.8,0.9v4.6
			c0,0.6-0.2,0.9-0.8,0.9h-10.6c-0.6,0-0.8,0.3-0.8,0.9v2.6c0,0.6,0.2,0.9,0.8,0.9h8.6c0.6,0,0.8,0.3,0.8,0.9v3.6
			c0,0.6-0.2,0.9-0.8,0.9H238.2z"/>
		<path d="M228.5,36.2l-3.1-10.9c-0.1-0.3,0-0.5,0.2-0.8c0.8-1.3,1.8-2.9,1.8-5.5c0-5.6-3-8.2-8.7-8.2h-5.4
			c-0.6,0-0.8,0.2-0.8,0.8v24.8c0,0.6,0.2,0.8,0.8,0.8h4.2c0.5,0,0.7-0.2,0.8-0.5c0-2.7,0-5.4,0-8.1c0-0.4,0-0.5,0-0.9
			c0-0.8,1.1-0.7,1.4-0.5c0.4,0.2,0.6,0.6,0.7,1l2.1,8.2c0.2,0.7,0.5,0.9,1.3,0.9h3.7h0.4C228.6,37.3,228.7,36.7,228.5,36.2z
			 M219.2,21.6h-0.3c0,0-0.1,0-0.1,0c0,0,0,0-0.1,0h-0.2c-0.6,0-0.8-0.3-0.8-0.9v-0.3v-0.9v-0.7V18v-0.3c0-0.6,0.2-0.9,0.8-0.9h0.2
			c0,0,0,0,0.1,0c0,0,0.1,0,0.1,0h0.3c1.4,0,2.5,0.9,2.5,2.4C221.7,20.8,220.6,21.6,219.2,21.6z"/>
		<path d="M196.1,10.4c-7.7,0-13.3,5.7-13.3,13.7s5.6,13.7,13.3,13.7c7.7,0,13.3-5.8,13.3-13.7
			C209.3,16.1,203.8,10.4,196.1,10.4z M196.1,31.3c-4.1,0-7.1-3.1-7.1-7.3c0-4.1,3.1-7.2,7.1-7.2c4,0,7.1,3.1,7.1,7.2
			C203.2,28.2,200.1,31.3,196.1,31.3z"/>
		<path d="M161.9,10.8c0.6,0,0.9,0.3,0.9,0.9v21.1v3.6c0,0.6-0.2,0.9-0.9,0.9c-0.8,0-1.7,0-2.5,0c-0.5,0-0.8-0.1-1.1-0.3
			c-0.1-0.1-0.2-0.2-0.3-0.3c-1.5-1.7-3-3.4-4.4-5.1c-1.6-1.9-3.3-3.8-4.9-5.6c-0.6-0.7-1.2-1.4-1.8-2.1c-0.4-0.5-1-0.3-1,0.4
			c0,4.1,0,8.2,0,12.3c0,0.6-0.2,0.9-0.9,0.9h-4c-0.6,0-0.9-0.3-0.9-0.9V11.7c0-0.6,0.2-0.9,0.9-0.9h2.5c0.5,0,0.8,0.1,1.1,0.3
			c0.1,0.1,0.2,0.2,0.3,0.3L156,24.3c0.4,0.5,1,0.3,1-0.4c0,0,0-4.3,0-4.3c0-2.7,0-5.3,0-8c0-0.6,0.2-0.9,0.9-0.9H161.9"/>
		<path d="M130.4,37.3h4.6c0.6,0,0.9-0.3,0.9-0.9V11.7c0-0.6-0.2-0.9-0.9-0.9h-4.6c-0.6,0-0.9,0.3-0.9,0.9v24.7
			C129.5,37,129.8,37.3,130.4,37.3"/>
		<path d="M261.4,21.2c3.4,0.3,7.5,2,7.5,8.1c0,5.3-3,8.4-8.1,8.4c0,0,0,0,0,0c-1.9,0-3.9-0.4-5.4-1.7
			c-1.8-1.5-2.5-4.1-2.4-6.4c0-0.2,0-0.5,0.1-0.7c0.1-0.1,0.2-0.2,0.3-0.3c0.1-0.1,0.3-0.1,0.4-0.1h4.1c0.4,0,0.6,0.1,0.7,0.5
			c0.1,0.2,0,0.4,0.1,0.6c0.1,0.6,0.4,1.1,0.9,1.4C261,32,263,31,263,29.3c0-0.9-0.4-2.1-2.1-2.3c-5.6-0.7-7.9-3-7.9-8.2
			c0-5.4,2.8-8.4,7.8-8.4c3.1,0,5.9,1.5,7.1,4.4c0.4,1,0.7,2.3,0.7,3.4c0,1-0.4,1.2-1,1.2h-3.8c-0.6,0-0.8-0.2-0.8-0.7
			c-0.1-1.2-0.9-2-2.2-2c-1.3,0-2.2,0.9-2.2,2.1C258.6,20.7,260.1,21.1,261.4,21.2"/>
	</g>
	<g id="alliance" class="word">
		<path d="M208.7,66.7c0-0.1-0.1-0.2-0.2-0.3c0,0,0-0.1-0.1-0.1c-0.1-0.1-0.3-0.2-0.4-0.2c-0.4,0-0.6,0.3-0.6,0.7v11.9
			c0,0.9-0.3,1.2-1.2,1.2h-5.4c-0.9,0-1.2-0.4-1.2-1.2V45.2c0-0.9,0.3-1.2,1.2-1.2h3.2c0.8,0,1.6,0.1,2,0.9c0.3,0.5,0.5,1.1,0.8,1.7
			c1.3,2.8,2.6,5.7,3.8,8.5c0.3,0.7,0.6,1.4,0.9,2.1c0.1,0.2,0.1,0.3,0.3,0.5c0.1,0.1,0.2,0.2,0.4,0.2c0.4,0,0.6-0.3,0.6-0.7V45.2
			c0-0.9,0.3-1.2,1.2-1.2h5.4c0.9,0,1.2,0.4,1.2,1.2v33.4c0,0.9-0.3,1.2-1.2,1.2h-3.2c-1.2,0-1.8-0.2-2.3-1.4c0,0,0-0.1-0.1-0.1
			C212.2,74.4,210.4,70.6,208.7,66.7"/>
		<path d="M133.9,71.5c0-0.9-0.3-1.2-1.2-1.2h-5.1c-0.8,0-1.1-0.3-1.2-1.1l0-24c0-0.9-0.3-1.2-1.2-1.2c-2,0-3.9,0-5.9,0
			c0,0,0,0-0.1,0c-0.9,0-1.2,0.4-1.2,1.2v33.5c0,0.9,0.3,1.2,1.2,1.2c1.5,0,3,0,4.5,0c3,0,5.9,0,8.9,0c0.9,0,1.2-0.4,1.2-1.2
			C133.9,76.3,133.9,73.9,133.9,71.5"/>
		<path d="M282.6,65.6c0.8,0,1.1-0.4,1.1-1.2v-4.8c0-0.8-0.3-1.2-1.1-1.2h-11.7c-0.8,0-1.1-0.4-1.1-1.2v-3.5
			c0-0.8,0.3-1.2,1.1-1.2h14.3c0.8,0,1.1-0.4,1.1-1.2v-6.2c0-0.8-0.3-1.2-1.1-1.2h-22.1c-0.8,0-1.1,0.4-1.1,1.2v33.5
			c0,0.8,0.3,1.2,1.1,1.2h22.1c0.8,0,1.1-0.4,1.1-1.2v-6.2c0-0.8-0.3-1.2-1.1-1.2h-14.3c-0.8,0-1.1-0.4-1.1-1.2v-3.4
			c0-0.8,0.3-1.2,1.1-1.2H282.6z"/>
		<path d="M152.9,70.2h-5.1c-0.8,0-1.1-0.3-1.2-1.1l0-24c0-0.9-0.3-1.2-1.2-1.2c-2,0-4,0-5.9,0c-0.9,0-1.2,0.4-1.2,1.2
			v33.5c0,0.9,0.3,1.2,1.2,1.2c1.9,0,3.9,0,5.8,0c2.5,0,5,0,7.5,0c0.9,0,1.2-0.4,1.2-1.2c0-2.4,0-4.8,0-7.2
			C154.1,70.6,153.8,70.2,152.9,70.2"/>
		<path d="M166.1,44h-6.3c-0.9,0-1.2,0.4-1.2,1.2v33.4c0,0.9,0.3,1.2,1.2,1.2h6.3c0.9,0,1.2-0.4,1.2-1.2V45.2
			C167.3,44.4,166.9,44,166.1,44"/>
		<path d="M196.1,78.4l-8.5-33.1c-0.3-1-0.7-1.2-1.5-1.2h-5.2c-0.9,0-1.3,0.3-1.5,1.2l-8.4,33.1
			c-0.1,0.3-0.1,0.4-0.1,0.6c0,0.5,0.3,0.9,1,0.9h5.1c1.4,0,1.9-0.2,2.2-1.4l0.8-3.3c0.2-1,0.6-1.2,1.5-1.2h4.3
			c0.9,0,1.2,0.2,1.5,1.2l0.8,3.3c0.3,1.3,0.7,1.4,2.2,1.4h5.1c0.7,0,1-0.3,1-0.9C196.2,78.8,196.2,78.7,196.1,78.4z M184.8,67.3
			c-0.9,0-1.8,0-2.6,0c-0.6,0-1-0.2-1-0.6c0-0.2,0.1-0.6,0.2-1c0.5-1.9,0.9-3.8,1.3-5.6c0.2-0.7,0.3-1.1,0.7-1.1
			c0.6,0,0.7,0.7,0.8,1.1c0.4,1.9,0.9,3.8,1.3,5.6c0.1,0.4,0.2,0.8,0.2,1C185.7,67.1,185.4,67.3,184.8,67.3z"/>
		<path d="M114.6,78.4l-2.1-5.4l-10.5-27.4c-0.4-1-0.9-1.6-1.8-1.6h-5.3c-0.9,0-1.4,0.6-1.8,1.6L80.6,78.4
			c-0.3,0.8,0,1.5,0.9,1.5h6.8c0.8-0.1,1.2-0.4,1.5-1l1.2-3.1c0.5-1.1,1.1-1.5,2.2-1.5h8.8c1.1,0,1.7,0.4,2.2,1.5l1.2,3.1
			c0.3,0.7,0.7,1,1.5,1h6.8C114.6,79.9,114.9,79.2,114.6,78.4z M100.2,66.9h-5c-1,0-1.3-0.6-1-1.4l2-5.5c0.4-1.3,1.2-1.4,1.5-1.4
			c0.3,0,1.1,0.1,1.5,1.4l2,5.5C101.5,66.4,101.2,66.9,100.2,66.9z"/>
		<path d="M252.2,67.3c-0.3-0.1-0.5-0.2-0.8-0.2c-0.5,0-0.8,0.4-1.1,0.8c-1.9,2.5-4.8,3.9-8,3.9c-5.5,0-9.6-4.2-9.6-9.8
			c0-5.6,4.1-9.8,9.6-9.8c1.1,0,2.3,0.2,3.3,0.5c1.8,0.6,3.3,1.8,4.6,3.2c0.3,0.3,0.5,0.7,0.9,0.8c0.1,0,0.2,0.1,0.4,0
			c0.1,0,0.3,0,0.4-0.1c1-0.4,4.5-2.1,5.1-2.4c0.5-0.2,0.9-0.5,1-1.1c0-0.5-0.2-1-0.4-1.4c-1.4-2.7-3.8-4.8-6.5-6.3
			c-2.7-1.4-5.8-2.1-8.8-2.1c-10.4,0-17.9,7.8-17.9,18.5c0,10.7,7.5,18.5,17.9,18.5c2.3,0,4.6-0.4,6.7-1.2c2-0.7,3.8-1.8,5.4-3.2
			c0.8-0.8,1.5-1.4,2-2.2c0.6-0.8,1.3-1.7,1.5-2.6c0-0.2,0.1-0.4,0.1-0.5c0-0.4-0.3-0.8-0.7-0.9C256.3,69.2,252.9,67.5,252.2,67.3z"
			/>
	</g>
</g>
</svg>
