<?xml version="1.0" encoding="utf-8"?>
<!-- Generator: Adobe Illustrator 18.1.0, SVG Export Plug-In . SVG Version: 6.00 Build 0)  -->
<svg version="1.1" id="Layer_1" xmlns="http://www.w3.org/2000/svg" xmlns:xlink="http://www.w3.org/1999/xlink" x="0px" y="0px"
	 viewBox="0 0 11 11" enable-background="new 0 0 11 11" xml:space="preserve">
<path fill="#3498DB" d="M7.4,5.5l3.1-3.1C11,1.9,11,1,10.5,0.5C10,0,9.1,0,8.6,0.5L5.5,3.6L2.4,0.5C1.9,0,1,0,0.5,0.5
	C0,1,0,1.9,0.5,2.4l3.1,3.1L0.5,8.6C0,9.1,0,10,0.5,10.5C1,11,1.9,11,2.4,10.5l3.1-3.1l3.1,3.1c0.5,0.5,1.4,0.5,1.9,0
	c0.5-0.5,0.5-1.4,0-1.9L7.4,5.5z"/>
</svg>
