<svg xmlns="http://www.w3.org/2000/svg" width="24" height="24" viewBox="0 0 24 24">
    <g fill="none" fill-rule="evenodd">
        <g>
            <g>
                <path d="M0 0H24V24H0z" transform="translate(-1179 -920) translate(1179 920)"/>
                <g fill="#EEE" fill-rule="nonzero">
                    <path d="M15.646 1.633l.02.132c-.193-.692-.715-1.226-1.379-1.42l-.014-.003C13.026 0 8.007 0 8.007 0S3-.007 1.74.342C1.064.539.542 1.073.352 1.75l-.004.014c-.466 2.454-.47 5.403.02 8.031l-.02-.133c.194.692.716 1.226 1.379 1.42l.014.003c1.246.343 6.266.343 6.266.343s5.006 0 6.267-.343c.677-.197 1.2-.731 1.39-1.409l.003-.014c.212-1.141.333-2.455.333-3.797v-.148-.155c0-1.342-.121-2.656-.354-3.93zm-9.24 6.536V3.266l4.177 2.455-4.178 2.448z" transform="translate(-1179 -920) translate(1179 920) translate(4 6.4)"/>
                </g>
            </g>
        </g>
    </g>
</svg>
