<?xml version="1.0" encoding="utf-8"?>
<!-- Generator: Adobe Illustrator 27.4.1, SVG Export Plug-In . SVG Version: 6.00 Build 0)  -->
<svg version="1.1" id="Layer_1" xmlns="http://www.w3.org/2000/svg" xmlns:xlink="http://www.w3.org/1999/xlink" x="0px" y="0px"
	 viewBox="0 0 195.6 53.4" style="enable-background:new 0 0 195.6 53.4;" xml:space="preserve">
<style type="text/css">
	.st0{clip-path:url(#SVGID_00000002360643523314226390000003923213692854531464_);fill:#1D9A8D;}
	.st1{fill:#1D9A8D;}
</style>
<g>
	<g>
		<defs>
			<rect id="SVGID_1_" x="0" y="0.1" width="195.6" height="53.2"/>
		</defs>
		<clipPath id="SVGID_00000160886152160580284680000003304725754025032589_">
			<use xlink:href="#SVGID_1_"  style="overflow:visible;"/>
		</clipPath>
		<polygon style="clip-path:url(#SVGID_00000160886152160580284680000003304725754025032589_);fill:#1D9A8D;" points="17.7,24.1 
			3.8,37.3 3.8,24.1 0,24.1 0,52.7 3.8,52.7 3.8,42.4 7.3,39.1 18.1,52.7 23.1,52.7 10.1,36.4 23,24.1 17.7,24.1 		"/>
	</g>
	<path class="st1" d="M27.6,24.6c-1.5,0-2.6,1.2-2.6,2.6c0,1.5,1.1,2.6,2.6,2.6c1.4,0,2.6-1.1,2.6-2.6C30.2,25.8,29,24.6,27.6,24.6"
		/>
	<polygon class="st1" points="25.7,52.7 29.5,52.7 29.5,33 25.7,33 25.7,52.7 	"/>
	<path class="st1" d="M49.1,35.7c-1.6-2.1-3.9-3.3-6.9-3.3c-5.4,0-9.3,4.6-9.3,10.5c0,5.8,3.9,10.5,9.3,10.5c3,0,5.3-1.2,6.9-3.3
		v2.7H53V24.1h-3.9V35.7L49.1,35.7z M47.4,47.7c-1.1,1.3-2.6,1.9-4.4,1.9c-1.8,0-3.3-0.6-4.5-1.9c-1.1-1.3-1.7-2.9-1.7-4.9
		c0-2,0.6-3.6,1.7-4.8c1.2-1.3,2.7-1.9,4.5-1.9c3.6,0,6.1,2.9,6.1,6.7C49.1,44.8,48.5,46.4,47.4,47.7"/>
	<path class="st1" d="M65.1,40.4c-2.9-0.3-3.8-1.1-3.8-2.4c0-1.3,1.3-2,3.3-2c2.1,0,3.6,1.3,4.1,3.4l3.4-1.1c-0.9-3.6-3.9-6-7.5-6
		c-4.1,0-7.2,2.4-7.2,5.7c0,3.5,2.4,5.6,7.1,6.1c3.4,0.4,4.6,1.3,4.6,2.8c0,1.6-1.6,2.7-4.2,2.7c-2.9,0-4.8-1.9-5.2-4.7l-3.7,0.7
		c0.4,2.2,1.4,4.1,3,5.5c1.6,1.4,3.6,2.1,5.9,2.1c2.4,0,4.3-0.6,5.8-1.8c1.5-1.2,2.2-2.8,2.2-4.7C73,43.1,70.4,41,65.1,40.4"/>
	<polygon class="st1" points="96.4,24.1 96.4,36.2 80.7,36.2 80.7,24.1 76.8,24.1 76.8,52.7 80.7,52.7 80.7,40 96.4,40 96.4,52.7 
		100.3,52.7 100.3,24.1 96.4,24.1 	"/>
	<path class="st1" d="M113.9,49.8c-3.5,0-6-2.5-6.3-6.2h14.9v-1.9c0-5.4-3.5-9.3-8.8-9.3c-5.8,0-9.7,4.5-9.7,10.5
		c0,6,4,10.4,9.9,10.4c4.7,0,8.5-3,9.2-7.4l-3.7-0.7C119,48,116.7,49.8,113.9,49.8 M113.6,35.8c3.1,0,5.1,2,5.3,4.7h-11.1
		C108.5,37.7,110.7,35.8,113.6,35.8"/>
	<path class="st1" d="M133.7,32.4c-4.5,0-8.1,2.7-7.9,7.7l3.7,0.3l0-0.6c0-2.5,1.6-4.1,4.3-4.1c2.8,0,4.3,1.4,4.3,3.5V40l-4.9,0.8
		c-4.9,0.8-7.4,2.8-7.4,6.6c0,2.9,2.2,5.9,6.7,5.9c2.7,0,4.5-1.2,5.6-3.1v2.5h3.6V39.4C141.8,35,138.9,32.4,133.7,32.4 M138.1,44.3
		c0,3.3-2,5.5-4.9,5.5c-2.3,0-3.8-1.1-3.8-2.8c0-1.8,1.7-2.7,4.3-3.1l4.3-0.7V44.3L138.1,44.3z"/>
	<polygon class="st1" points="146.2,52.7 150.1,52.7 150.1,24.1 146.2,24.1 146.2,52.7 	"/>
	<path class="st1" d="M167.2,45.2c0.2,2.8-1.1,4.6-3.4,4.6c-2.2,0-3.6-1.3-3.6-3.8v-9.5h10V33h-10v-5.9h-3.9V33h-3.6v3.4h3.6v9.4
		c0,4.6,2.9,7.5,7.6,7.5c4.1,0,7.2-3.1,7-7.8L167.2,45.2L167.2,45.2z"/>
	<path class="st1" d="M184.2,32.4c-2.7,0-4.8,1.1-6.3,2.9V24.1h-3.9v28.6h3.9V42.1c0-3.8,2-6.2,5.1-6.2c2.8,0,4.2,1.6,4.2,4.8v12
		h3.9V40C191.1,35.3,188.5,32.4,184.2,32.4"/>
	<path class="st1" d="M58.6,11.4V1.9c0-0.9-0.8-1.7-1.7-1.7c-0.9,0-1.7,0.8-1.7,1.7v4.8l-4.3-5.6c-0.4-0.5-0.8-0.9-1.7-0.9H49
		c-1,0-1.7,0.8-1.7,1.7v9.4c0,0.9,0.8,1.7,1.7,1.7c0.9,0,1.7-0.8,1.7-1.7V6.3l4.5,5.8c0.4,0.5,0.8,0.9,1.8,0.9
		C57.9,13.1,58.6,12.3,58.6,11.4"/>
	<path class="st1" d="M63.8,13h6.7c0.9,0,1.6-0.7,1.6-1.6c0-0.9-0.7-1.6-1.6-1.6h-4.9V8.2h4.1c0.9,0,1.6-0.7,1.6-1.6
		c0-0.9-0.7-1.6-1.6-1.6h-4.1V3.5h4.9c0.9,0,1.6-0.7,1.6-1.6c0-0.9-0.7-1.6-1.6-1.6h-6.6c-1,0-1.7,0.8-1.7,1.7v9.2
		C62.1,12.3,62.9,13,63.8,13"/>
	<path class="st1" d="M78.4,11.4V7l1.5,2.3c0.8,1.1,2.1,1.1,2.9,0l1.5-2.3v4.5c0,1,0.8,1.7,1.7,1.7c1,0,1.7-0.8,1.7-1.7V2
		c0-1-0.8-1.7-1.7-1.7h-0.3c-0.7,0-1.2,0.3-1.5,0.9l-2.8,4.6l-2.8-4.5c-0.3-0.6-0.9-0.9-1.6-0.9h-0.3C75.7,0.3,75,1,75,2v9.4
		c0,0.9,0.7,1.7,1.7,1.7C77.6,13.1,78.4,12.4,78.4,11.4"/>
	<path class="st1" d="M97.4,0.1c-3.8,0-6.7,2.9-6.7,6.6v0c0,3.7,2.9,6.5,6.7,6.5c3.8,0,6.7-2.9,6.7-6.6
		C104.1,2.9,101.2,0.1,97.4,0.1 M100.5,6.7L100.5,6.7c0,1.9-1.3,3.3-3.1,3.3c-1.8,0-3.2-1.4-3.2-3.3c0-1.9,1.3-3.3,3.1-3.3
		C99.1,3.4,100.5,4.8,100.5,6.7"/>
	<path class="st1" d="M112.4,13.2c3.6,0,5.6-2.1,5.6-5.8V2c0-1-0.8-1.7-1.7-1.7c-1,0-1.7,0.8-1.7,1.7v5.6c0,1.1-0.4,2.4-2.1,2.4
		c-1.8,0-2.1-1.4-2.1-2.5V2c0-1-0.8-1.7-1.7-1.7c-1,0-1.7,0.8-1.7,1.7v5.6C106.8,11.1,108.9,13.2,112.4,13.2"/>
	<path class="st1" d="M128.6,12.3c0.4,0.6,1,0.8,1.6,0.8c0.8,0,1.7-0.6,1.7-1.6c0-0.6-0.3-0.9-0.5-1.3l-1.5-1.8
		c1.4-0.8,2.1-2.1,2.1-3.8c0-1.2-0.4-2.3-1.1-3c-0.9-0.9-2.2-1.3-3.8-1.3H123c-1,0-1.7,0.8-1.7,1.7v9.3c0,1,0.8,1.7,1.7,1.7
		c1,0,1.7-0.8,1.7-1.7V9.2h1.5L128.6,12.3L128.6,12.3z M127,6.1h-2.2V3.5h2.2c1.1,0,1.6,0.4,1.6,1.3C128.6,5.6,128,6.1,127,6.1"/>
	<path class="st1" d="M140.4,5.1c-2.1-0.6-2.2-0.7-2.2-1.2c0-0.4,0.4-0.6,1.1-0.6c0.7,0,1.4,0.2,2.3,0.7c0.3,0.2,0.6,0.2,0.9,0.2
		c0.9,0,1.6-0.7,1.6-1.6c0-0.6-0.3-1.1-0.8-1.4c-1.2-0.7-2.5-1.1-4-1.1c-2.7,0-4.6,1.6-4.6,4c0,2.7,1.9,3.4,4.2,4
		c2.1,0.5,2.1,0.8,2.1,1.1c0,0.6-1,0.7-1.3,0.7c-1,0-1.9-0.3-2.8-1c-0.3-0.2-0.6-0.3-1-0.3c-0.9,0-1.6,0.7-1.6,1.6
		c0,0.5,0.3,1,0.7,1.3c1.4,1,3,1.5,4.7,1.5c2.9,0,4.8-1.6,4.8-4.1C144.5,6.5,142.5,5.7,140.4,5.1"/>
	<path class="st1" d="M147.8,11.2c0-0.3-0.2-0.6-0.6-0.6h-0.8v1.9h0.3v-0.8h0.5l0.4,0.8h0.3l-0.4-0.8
		C147.7,11.7,147.8,11.5,147.8,11.2 M147.2,11.5h-0.6v-0.6h0.6c0.2,0,0.3,0.1,0.3,0.3C147.5,11.4,147.4,11.5,147.2,11.5"/>
	<path class="st1" d="M147,9.9c-0.9,0-1.7,0.8-1.7,1.7c0,0.9,0.8,1.7,1.7,1.7c0.9,0,1.7-0.8,1.7-1.7C148.8,10.7,148,9.9,147,9.9
		 M147,13c-0.8,0-1.5-0.7-1.4-1.4c0-0.8,0.7-1.5,1.4-1.4c0.8,0,1.5,0.7,1.4,1.4C148.5,12.4,147.8,13.1,147,13"/>
	<g>
		<path class="st1" d="M194.6,50.6c0-0.3-0.2-0.6-0.6-0.6h-0.8v1.9h0.3v-0.8h0.5l0.4,0.8h0.3l-0.4-0.8
			C194.5,51.1,194.6,50.9,194.6,50.6 M194.1,50.9h-0.6v-0.6h0.6c0.2,0,0.3,0.1,0.3,0.3C194.4,50.8,194.3,50.9,194.1,50.9"/>
		<path class="st1" d="M193.9,49.3c-0.9,0-1.7,0.8-1.7,1.7c0,0.9,0.8,1.7,1.7,1.7c0.9,0,1.7-0.8,1.7-1.7
			C195.6,50.1,194.8,49.3,193.9,49.3 M193.9,52.4c-0.8,0-1.5-0.7-1.4-1.4c0-0.8,0.7-1.5,1.4-1.4c0.8,0,1.5,0.7,1.4,1.4
			C195.3,51.8,194.7,52.5,193.9,52.4"/>
	</g>
</g>
</svg>
