<svg id="a4c4bf2c-0d88-4a09-8f1d-dbc7cdab338f" data-name="eb4f2f59-febf-4b3c-8852-0b23d4a17d7f" xmlns="http://www.w3.org/2000/svg" viewBox="0 0 200 200"><path d="M121.961,53.993c.064-.036.064-.106.064-.177a.261.261,0,0,0,.07.212A.187.187,0,0,1,121.961,53.993Z" style="fill:#ff5764"/><path d="M95.27,101.57h0a.244.244,0,0,1,.141.071v.1a.736.736,0,0,1-.2-.17Z" style="fill:#ff5764"/><path d="M78.451,118.432v.1l-.212.106v-.106A.531.531,0,0,1,78.451,118.432Z" style="fill:#ff5764"/><path d="M66.447,142.5a.355.355,0,0,1-.134-.035v-.205l.07.135A.1.1,0,0,1,66.447,142.5Z" style="fill:#ff5764"/><path d="M67.344,151.874c-.2.105-.2.07-.276.035a.217.217,0,0,1,.071-.141v-.036c0-.028,0-.028.141-.063,0-.035.134-.035.134-.106.071.106.071.141.141.205Z" style="fill:#ff5764"/><path d="M67.69,152.29h0v-.282c.07,0,.07.035.07.035.071.035.071.071.071.071Z" style="fill:#ff5764"/><path d="M68.036,149.635a.069.069,0,0,1,.07-.07c0,.035.134.07.205.07a.065.065,0,0,0-.071.064Z" style="fill:#ff5764"/><path d="M72.244,136.05h-.071l.276-.276.07-.07h.071Z" style="fill:#ff5764"/><path d="M73.07,154.769a.479.479,0,0,1-.2.346c-.07.035-.07.07-.07.07a.21.21,0,0,1-.141.036c0-.071.07-.177.211-.276.064-.106.2-.176.2-.212Z" style="fill:#ff5764"/><path d="M74.376,156.562a.931.931,0,0,1-.275.035.13.13,0,0,1,.071-.105.111.111,0,0,1,.07-.1l.071.028c0,.035.063.035.063.106Z" style="fill:#ff5764"/><path d="M116.03,169.491v.106l-.071-.035S115.959,169.526,116.03,169.491Z" style="fill:#ff5764"/><path d="M117.061,173.975a.309.309,0,0,0-.134-.106c.07-.035.07-.035.134-.071h0v.177Z" style="fill:#ff5764"/><path d="M117.612,171.454v.035a1.257,1.257,0,0,0-.276-.035h-.063s0-.028.063-.028c0-.036,0-.071.071-.106l.07-.106h0a.319.319,0,0,1,.135.035Z" style="fill:#ff5764"/><path d="M129.891,159.838a.941.941,0,0,0-.212-.176s0-.028.071-.028h0a.258.258,0,0,1,.141.063v.141Z" style="fill:#ff5764"/><path d="M132.094,162.8l-.134-.106v-.07s0-.029.07-.064a.187.187,0,0,1,.064.17Z" style="fill:#ff5764"/><path d="M136.027,167.839c-.071-.036-.071-.071-.141-.071a.507.507,0,0,1,.07-.205s.071.036.071.064Z" style="fill:#ff5764"/><path d="M144.712,132.009c-1.767-8.161-9.665-22.3-19.772-28.874V35.165a24.822,24.822,0,1,0-49.644,0V93.309H89.338V35.165a10.777,10.777,0,1,1,21.553,0v76.554a31.584,31.584,0,1,1-21.553,0V92.206H75.3v10.929a45.767,45.767,0,0,0-20.738,38.273,27.126,27.126,0,0,0,.144,3.417.779.779,0,0,0,.525-.182c.076-.038.076-.114.076-.191.069-.038.145-.068.145-.038.3.038.449.335.594.564.076.068.076.106.152.144a.659.659,0,0,0-.221.373v.076a1.98,1.98,0,0,0-.966-.228c-.153,0-.153-.069-.3-.069a47.358,47.358,0,0,0,3.349,13.745,8.13,8.13,0,0,0,.593.632c-.076.038-.144.114-.22.152.373.776.738,1.56,1.111,2.306a.524.524,0,0,0,.373.038,1.142,1.142,0,0,1,.152.479,1.6,1.6,0,0,0,.594.853c.738.525,1.484,1,1.7,1.674-.593.114-.89-.259-1.408-.852a6.473,6.473,0,0,0-.449-.594v-.038l-.144-.038a45.467,45.467,0,0,0,69.263,12.481c-1.035-.662-2.153-1.37-3.12-2.077V174l-.221-.115a.959.959,0,0,0-.228-.144l.3-.746-.745.449a3.8,3.8,0,0,1-.449-.373,3.811,3.811,0,0,1,.3-.67,7.428,7.428,0,0,1,.746-1.377l.3-.4-.449-.039c.076-.038.076-.076.076-.076.891-.114,1.416-.038,1.713.487v.031c-.221.411-.449,1-.153,1.377-.068.076-.068.153,0,.259,0,.114.076.19.229.228l.068.038c.152-.038.152,0,.152,0s.145.145-.152.891l-.144.145.144.152a2.108,2.108,0,0,0,2.009.67,3.023,3.023,0,0,1,.594,0c.076.144.076.22.152.365a46.7,46.7,0,0,0,13.745-23.113S146.479,140.17,144.712,132.009ZM120.632,24.5h.145a.723.723,0,0,1-.145.738Zm-1.864,2.968h.9a1.123,1.123,0,0,1,.3,1.3c0,.114,0,.19-.076.259a2.781,2.781,0,0,1-.373-.069,1.8,1.8,0,0,1-.442-.076v-.114c-.076-.221-.3-.221-.449-.221a1.333,1.333,0,0,0-.3.038.451.451,0,0,1-.22-.372C118.106,28,118.326,27.691,118.768,27.471Zm-4.825-4.536a.661.661,0,0,1-.076.525c0,.145-.077.335-.077.556a.987.987,0,0,0-.372-.039h-.145c0-.076,0-.076-.076-.144a.431.431,0,0,0-.373-.152l.152-.076V23.5a2.186,2.186,0,0,0-.449-1.636,3.4,3.4,0,0,1-.3-.929c.076-.152.3-.22.594-.373.152.076.228.153.373.221a1.146,1.146,0,0,0,.67.335h.144v-.038a1.048,1.048,0,0,0,.6-.442,1.012,1.012,0,0,1,.662-.449c.67.335.6.784.526,1.416v.776a.47.47,0,0,0-.221-.038H115.5a.782.782,0,0,0-.3.038l-.076-.182-.221.076c-.152.068-.3.144-.3.258h-.228a.558.558,0,0,0-.517.3V22.9Zm.22,1.712v-.114h.221a2.806,2.806,0,0,0,.89-.107,3.48,3.48,0,0,1,.526-.076,1.368,1.368,0,0,1,.373.076s0,.039.068.077c0,.182.152.517.746.517h.152l.145-.152a1.8,1.8,0,0,0,.373-.738v.038a1.31,1.31,0,0,1,0,.776l-.373.3h-.145l-.076.152a1.669,1.669,0,0,0-.373.814c-.152.221-.221.449-.373.67a1.3,1.3,0,0,0-1.111-.632h-.152a.884.884,0,0,0-.373-.669,3.508,3.508,0,0,0-.365-.556A.655.655,0,0,0,114.163,24.647Zm.449,13.638a1.138,1.138,0,0,1,.594-1.08s0,.076.068.076a2.665,2.665,0,0,1,.45.19l-.518.365.3.038a1.946,1.946,0,0,0-.525.822A.5.5,0,0,1,114.612,38.285Zm1.408,17.877-.517.518h.3a2.57,2.57,0,0,1-.526.594,3.054,3.054,0,0,1,0-1.112,1.027,1.027,0,0,1,.526-.745C116.173,55.866,116.241,56.01,116.02,56.162Zm-.076-24.308c-.593-.144-.966-.441-1.035-.776-.152-.67.594-1.75,1.187-2.268a.66.66,0,0,1,.594.259c.3.411.076,1.263,0,1.674a2.524,2.524,0,0,1-.076.335l-.076.3h.373c.228,0,.3.038.373.114,0,.069.076.221.076.3,0,0,.076.03.076.068h-.152c-.145,0-.221-.038-.3-.038a.527.527,0,0,0-.461.188Zm2.679,15.13a.128.128,0,0,0-.076.107,1.386,1.386,0,0,0-.441.152v.038a1.685,1.685,0,0,0-.525-.86c-.145-.3-.3-.441-.3-.662h.449a.715.715,0,0,0,.593.365s.145-.038.145-.068c.076.03.152.068.152.106C118.768,46.352,118.623,46.687,118.623,46.984Zm2.306-6.583a.9.9,0,0,1-.525.411l-.145.038V41a1.345,1.345,0,0,1-1.187,1.073c-.152-.114-.3-.182-.373-.3-.076-.183.069-.48.221-.777a1.519,1.519,0,0,0,.152-1.118,1.291,1.291,0,0,0-.6-.411v-.259a2.274,2.274,0,0,0-.221-1.187l-.076-.221-.3.068c-.144,0-.144.038-.3.038a1.482,1.482,0,0,1-.815-.258h-.076a.963.963,0,0,0,.221-.594c.076-.152.076-.3.152-.373l.076.038a1.57,1.57,0,0,1,.365.335,2.309,2.309,0,0,0,1.865.67,3.286,3.286,0,0,1,.221.89,1.651,1.651,0,0,0,.814,1.416l.076.03h.373C121,40.18,121,40.332,120.929,40.4Zm1.111,5.951c-.144-.076-.3-.152-.441-.228l.068-.038c.076-.068.076-.183.229-.3h.22a2.642,2.642,0,0,0,.3.373c.076.19.221.259.221.411A1.66,1.66,0,0,1,122.04,46.352Zm-39.986,55.07c.153-.182.373-.479.3-.707a.231.231,0,0,0-.144-.183l-.153-.152a1.63,1.63,0,0,1,1.492-.069,1.143,1.143,0,0,1,.365.556,1.942,1.942,0,0,0-.89.335l-.076.038v.03a.922.922,0,0,0-.069.746v.259c-.228.114-.372.114-.449.038-.22-.076-.449-.518-.517-.738C81.91,101.537,81.978,101.46,82.054,101.422Zm-11.59,56.3a.451.451,0,0,1,.144-.031c-.068-.076-.144-.152-.144-.228.076-.038.144-.107.144-.145.076-.076.152-.114.152-.152a1.37,1.37,0,0,0,.3-.479c.3-.115.449.038.594.4,0,0,.076-.03.076-.069a.429.429,0,0,1,.076.3,1.515,1.515,0,0,0,.221.373c-.076.069-.076.145-.152.221a.96.96,0,0,1-.069.411c-.076-.038-.152.03-.3.03-.152.153-.228.305-.3.373-.069,0-.145-.068-.221-.144v.076a.664.664,0,0,1-.221.22c0,.077-.076.107-.22.221v.038a.554.554,0,0,1-.229-.038C70.167,158.981,70.091,158.684,70.464,157.718Zm-2.976-16.2h.076a1.989,1.989,0,0,1,.373.069c0,.038-.152.152-.3.411h-.076a.152.152,0,0,0-.076-.152Zm-9.955.031c.145.038.3.038.442.076a1.113,1.113,0,0,1,.525.076,2.448,2.448,0,0,1-.6.3c-.145.076-.3.114-.442.182v-.068a.5.5,0,0,1-.076-.335Zm-1.042.822c.076,0,.076-.038.144-.076a.541.541,0,0,1,.3.076.975.975,0,0,1,.3.631v.259l.3-.038c.145,0,.3-.038.442-.038a2.28,2.28,0,0,1,.593-.068c0,.144-.144.22-.144.327-.373.373-.891.563-1.043.487l-.145-.114-.076.038-.076-.3a1.131,1.131,0,0,0-.449-.746c-.068-.106-.144-.221-.22-.335Zm-.518,1.705a2.032,2.032,0,0,0-.67-.442,4.5,4.5,0,0,0,1.484.259h.373l-.076.076a.457.457,0,0,0-.152.107.5.5,0,0,0-.145.3C56.338,144.529,56.194,144.384,55.973,144.08Zm2.595,11.377c.076.031.076.069,0,.107v-.038a1.227,1.227,0,0,0-.373,0,.353.353,0,0,0-.144-.442l-.076-.038v-.335c0-.038,0-.076.076-.114l.517-.258c0,.152-.068.334.076.517A.952.952,0,0,0,58.568,155.457Zm.153-5.358c-1.188.229-2.086-.555-2.976-1.293v-.076a1.239,1.239,0,0,1,.593.258,2.192,2.192,0,0,0,1.34.183c.076-.03.152,0,.221-.03a2.077,2.077,0,0,0,.372.3C58.644,149.734,58.8,149.879,58.721,150.1Zm1.78,2.6c.594,0,.746.076.746.335v.708l.145-.183a1.3,1.3,0,0,1,.152.777,2.2,2.2,0,0,1-.89-.777A1.145,1.145,0,0,1,60.5,152.7ZM62.884,162a3,3,0,0,0-.229.373c-.068-.038-.068-.076-.144-.076h-.3a2.044,2.044,0,0,0-.822-.746c-.365-.221-.738-.442-.738-.7a1.294,1.294,0,0,1,.3-.746,5.187,5.187,0,0,0,.891.593,4.136,4.136,0,0,1,1.339,1C63.028,161.843,62.952,161.919,62.884,162Zm0-13.38a1.414,1.414,0,0,0-.45.373c-.076.114-.144.153-.144.221v.038l-.076-.038c0,.114-.076.228-.076.335l-.145-.221c0-.076-.076-.182-.076-.259-.076-.038-.076-.076-.076-.114a2.877,2.877,0,0,0-1.187-.335c-.3-.038-.746-.076-.822-.22-.069-.038-.069-.076-.069-.153a1.255,1.255,0,0,1-.6-.738,1.008,1.008,0,0,1,.3-.966c.449-.335.746-.152,1.2.068a1.558,1.558,0,0,0,.738.335,1.821,1.821,0,0,0,.67-.068.671.671,0,0,1,.372-.038,2.444,2.444,0,0,1,.3,1v.038a.42.42,0,0,1,.373.069c.076,0,.076.152.076.487C63.028,148.509,63.028,148.539,62.884,148.615Zm2.077-7.321a3.815,3.815,0,0,1,1.416-.776c.068.106.22.22.22.373.153.068.153.182.221.3a2.621,2.621,0,0,0-1.187.22,2.916,2.916,0,0,1-.891.259A4.187,4.187,0,0,1,64.961,141.294Zm2.009,4.277a.41.41,0,0,1-.373.076c0-.076,0-.152.153-.335,0,0,0,.031.068.069S66.894,145.5,66.97,145.571Zm-.375,4.678a2.1,2.1,0,0,0-.515-.446c.221-.183.365-.145.365-.145C66.518,149.658,66.588,149.993,66.6,150.249Zm0,7.918a1.083,1.083,0,0,1-1.042-.183.228.228,0,0,0,.152-.038s.145-.114.145-.152a.57.57,0,0,0,.076-.738c.152-.039.3-.077.517-.115a1.179,1.179,0,0,0,.6-.152v.076l.3.152c.069.039,0,.183,0,.183v.259a1.8,1.8,0,0,0-.373.3l-.076.114-.076.038A1.229,1.229,0,0,1,66.6,158.167Zm1.043,6.354a1.763,1.763,0,0,1-.746.3v-.038c.3-.335.746-.411.746-.335Zm1.332-15.533a.138.138,0,0,1-.069.114,2.3,2.3,0,0,1-.745-.563,3.41,3.41,0,0,0-.67-.517,3.024,3.024,0,0,1,1.636.746C69.048,148.836,68.972,148.912,68.972,148.988Zm3.866,14.118c0,.038-.068.076-.068.076a2.189,2.189,0,0,1-.9-.738,2.878,2.878,0,0,0-.967-.822c-.068-.442-.518-.632-.814-.746-.373-.145-.518-.183-.449-.365a1.269,1.269,0,0,1,.966.22,1.442,1.442,0,0,0,.594.259l.228.038.076-.152.069-.03a.675.675,0,0,1,.228-.191s.069.076.145.153l-.076.068-.069.076-.076.076c-.076.152-.373.373-.221.594l.145.19H71.8a.962.962,0,0,1,.738.259l.076.708.373-.487v.22C73.066,162.7,73.066,162.809,72.838,163.106Zm1.119-1c-.076-.038-.076-.076-.076-.076a.527.527,0,0,0-.3-.259.619.619,0,0,0,.144-.411.135.135,0,0,1,.077-.114l.076-.038a1.411,1.411,0,0,1,.152.86C73.957,162.071,73.957,162.071,73.957,162.109Zm22.816,14.673c.145-.038.221-.068.373-.107a1.191,1.191,0,0,0,.67-.334h.068l.077-.115v-.707a1.554,1.554,0,0,1,.076-.815c.745-.258.966.077,1.408.518a1.979,1.979,0,0,0,.6.555l-.152.077a.075.075,0,0,1-.077.076c-.076.114-.076.182-.144.258l-.228-.076-.069.267a.383.383,0,0,0,0,.4l-.152.152a.422.422,0,0,0-.076.556v.038l.076.038c.152.076.221.183.373.373a2.194,2.194,0,0,0,.3.441.808.808,0,0,0-.221.191c-.076.038-.076.068-.076.144a.379.379,0,0,0-.152-.038c-.145,0-.3,0-.366.19H99c.076,0,.076,0,.076-.076v-.076L99,178.609c-.3-.487-.966-.632-1.492-.784-.441-.076-.814-.183-.89-.373C96.553,177.307,96.621,177.079,96.773,176.782Zm4.757,8.843c0,.077-.076.077-.152.115-.739.335-1.264-.221-1.933-1.111a2.871,2.871,0,0,0-.967-1.043l-.221-.114-.144.19v.038a.92.92,0,0,1-.229.145,2.068,2.068,0,0,0-.22.22h-.076v.076a.656.656,0,0,0-.077.373.859.859,0,0,1-.441.221,2.382,2.382,0,0,0-.594.228,1.043,1.043,0,0,0-.3-1.042,1.752,1.752,0,0,1-.229-.525l-.517-.031a3.1,3.1,0,0,1-.221.366c-.076.038-.076.114-.228.19-.891-.076-1.484-.3-1.629-.632a1.318,1.318,0,0,1,0-1.081c.069,0,.069-.038.145-.076,0-.068.076-.068.152-.068.068-.076.221-.114.373-.3.068,0,.068-.076.068-.152a1.475,1.475,0,0,0-.22-2.078c-.221-.335-.518-.563-.449-.966H93.5v-.115a1.229,1.229,0,0,0,1.484.335h.076v-.076a.679.679,0,0,0,.228-.517v-.153l.069-.038c.373-.106.593.191.89.632a2.463,2.463,0,0,0,.373.525,1.019,1.019,0,0,0-.373.221v.038l-.221.183.153.152a.461.461,0,0,1-.153.258c-.144.259-.441.632-.144.967h.068a12.243,12.243,0,0,0,2.9,1.933c0,.594.594.746.966.853.229.076.526.152.594.3a.4.4,0,0,1,.076.3c0,.229,0,.525.3.67a.4.4,0,0,0,.373.076.524.524,0,0,0,.221.411,1.344,1.344,0,0,0,.228.038Zm2.374-3.79c-.144-.182-.3-.441-.144-.662a.538.538,0,0,1,.144.366,4.09,4.09,0,0,0,.229.411C104.057,181.912,103.9,181.874,103.9,181.835Zm5.054-2.412v1c-.069.076-.145.144-.221.22-.076.114-.145.19-.221.3v.076a.984.984,0,0,0-1.263-.183c-.076.031-.228.069-.3.107l-.228.076v.183a1.378,1.378,0,0,1-.145.746,1.7,1.7,0,0,1-1.042-1.819,2.554,2.554,0,0,1,1.042-.3,2.89,2.89,0,0,0,1.043-.3l.068-.076.077-.152a1.952,1.952,0,0,0-.077-.7.859.859,0,0,1,.077-.708c.076,0,.076-.038.152-.076a1.092,1.092,0,0,0,.593.114c.221,0,.3,0,.3.068A2.1,2.1,0,0,1,108.958,179.423Zm1.042,4.5c0,.076-.144.144-.144.22-.152,0-.152-.076-.152-.076-.077-.106-.077-.4.152-.738a.638.638,0,0,1,.3.038.451.451,0,0,1,.144.031A.764.764,0,0,1,110,183.921Zm2.23-10.259a1.4,1.4,0,0,1-.669.038,1.689,1.689,0,0,1-.373-.48l.3-.3.229-.228a.651.651,0,0,0,.669.114v.038A.731.731,0,0,1,112.23,173.662Zm2.679-3.121a.275.275,0,0,1-.228-.152c-.069-.106,0-.327.228-.555,0-.076.069-.107.145-.145C115.206,169.91,115.274,170.092,114.909,170.541Zm3.417,3.714c-.076,0-.076.076-.152.114-.144.115-.144.077-.144.077-.077-.038-.077-.259,0-.564a.615.615,0,0,0,.3.229Zm1.637,7.284a1.622,1.622,0,0,1-.746-.335h.449c.3,0,.441,0,.593.114A3,3,0,0,0,119.963,181.539Z" style="fill:#ff5764"/><path d="M96.324,66.155V77.343m0,7.5V119.52A21.917,21.917,0,0,0,85.472,157.5v-.259a2.587,2.587,0,0,0,.152-.814c0-1.264-1.043-1.713-1.933-2.162-.815-.365-1.637-.738-1.857-1.56a1.84,1.84,0,0,1,.373-.3,5.433,5.433,0,0,0,.738-.631.545.545,0,0,1,.152-.145h0c.3-.038.373-.038.449.107l.3.631.145-.479c.745.708,1.484,1.408,2.229,2.154a2.174,2.174,0,0,0-.593.814c-.152.708.449,1.195.966,1.6a3.144,3.144,0,0,1,.518.449v.076a.328.328,0,0,0-.145.335l.076.076.662.594.526-.563a2.233,2.233,0,0,1,.441.19,1.935,1.935,0,0,0,1.56.259c.525.517,1.119,1.042,1.636,1.522a7.388,7.388,0,0,0,.822.746,3.359,3.359,0,0,1,.373.373.231.231,0,0,1-.076.182,2.61,2.61,0,0,1-2.306-1.339l-.144-.259-.305.152c-.144.069-.3.183-.441.259a.764.764,0,0,1-.3.259c-.3-.221-.449-.449-.746-.632a5.812,5.812,0,0,0-1.263-1,2.249,2.249,0,0,0-1.187-.076h-.153a21.45,21.45,0,0,0,7.58,4.094L93.8,162v-.114a1.811,1.811,0,0,1,.966.228,1.983,1.983,0,0,1-.221.259v.038a21.4,21.4,0,0,0,5.571.814,23.839,23.839,0,0,0,4.384-.441.86.86,0,0,0-.365-.967c-.3-.335-.525-.525.068-1.2a3.8,3.8,0,0,0,.6.259,2.105,2.105,0,0,0,2.527,0,1.563,1.563,0,0,0,.518.114.816.816,0,0,1,.449.152.86.86,0,0,0-.229.556A22,22,0,0,0,103.9,119.52V35.165a3.79,3.79,0,0,0-7.58,0V58.651M87.039,153l-.076-.145h0a.2.2,0,0,0,.145-.038v.145Zm.662,2.824a5.205,5.205,0,0,1-.593-.663.265.265,0,0,0,.152-.076,7.231,7.231,0,0,1,.594.518C87.778,155.678,87.778,155.754,87.7,155.823Zm3.791-14.194c.076-.076.076-.145.228-.221.3.038.441.3.593.746a3.066,3.066,0,0,0,.594.967h0a1.479,1.479,0,0,0-.373.479,2.353,2.353,0,0,0-1.111.373.744.744,0,0,0-.594-.038v-.411A2.275,2.275,0,0,1,91.492,141.629Zm2.6,12.633a4.469,4.469,0,0,0-.966.229c-.738.22-.967.22-1.035,0l-.152-.373a1.091,1.091,0,0,0-.221-.822.959.959,0,0,0-1.187,0,2.045,2.045,0,0,0-.67-.7.7.7,0,0,0-.152-.708h0a4.037,4.037,0,0,0,1.484-.114c.6-.107,1.263-.221,1.491,0a2.252,2.252,0,0,1,.069.746l-.069.114.069.144a12.064,12.064,0,0,0,.9.967,1.678,1.678,0,0,1,.441.335Zm.449-12.671a.856.856,0,0,1,.145-.107,2.169,2.169,0,0,1,.152.259l-.221.3-.228-.221C94.391,141.743,94.467,141.667,94.543,141.591Zm.518,17.763c-.145-.038-.3-.259-.442-.632-.076-.144-.152-.3-.228-.441l.076-.038a.934.934,0,0,0,.518-.3C95.358,158.167,95.358,158.578,95.061,159.354Zm.67-3.235c-.3-.106-.442-.517-.594-.776a1.169,1.169,0,0,1,.89.708A.38.38,0,0,1,95.731,156.119Zm13.9-3.79c.077.038.077.076.077.076.152.153.3.3.3.449,0,0-.144,0-.144.077l-.3-.3C109.559,152.482,109.559,152.405,109.627,152.329Zm-5.57,2.459v.068a2.227,2.227,0,0,1-.518-.662v-.076c.145,0,.221.144.365.3.076.076.153.114.153.144Zm3.044,4.383h0c.076,0,.076,0,.076.038a.86.86,0,0,1,.221.221C107.329,159.354,107.177,159.247,107.1,159.171Zm-.145-4.277.069-.038c0-.03,0-.068.076-.068a.51.51,0,0,0,.228-.191s0-.038.069-.038v-.068a.9.9,0,0,0,.076-.746.165.165,0,0,0-.076-.152c.228.114.3.373.449.784a3.431,3.431,0,0,0,.3.783,3.9,3.9,0,0,0-1.118-.228h-.069Zm-.449-.038a.6.6,0,0,1-.441-.145h.068c.229,0,.3,0,.373.145Zm-.144-3.417c0,.152-.077.259-.077.373a14.7,14.7,0,0,0-1.042-1.225c-.442-.449-.891-.853-1.264-1.3A7.143,7.143,0,0,1,106.363,151.439Zm-3.349-4.011.221.114.152-.228s0-.038.076-.038h0a.223.223,0,0,0,.145-.069c.152.069.3.145.449.221.593.3.89.518.89.891a4.115,4.115,0,0,1-2.078-.967S102.938,147.39,103.014,147.428Zm-2.154-1.3a2.217,2.217,0,0,0,.3-.259c.076-.152.221-.3.3-.449.076.038.152.076.3.152a.769.769,0,0,1,.22.145,1.029,1.029,0,0,0,0,.928v.487h0a.9.9,0,0,0-.441.076l-.221.145.069.221a8.6,8.6,0,0,0,.449.86c0,.038-.076,0-.076,0-.221-.038-.518-.487-.67-.822-.076-.069-.145-.145-.145-.183a.8.8,0,0,0,.069-.555v-.267l-.145-.068a.839.839,0,0,1-.221-.191Zm-.89,5.609a2.249,2.249,0,0,1-.076-.259c-.153-.183-.153-.373-.3-.518a1.851,1.851,0,0,1,.449-.114l.441-.114.3-.106-.145-.3a1.959,1.959,0,0,0-.525-.594c-.144-.152-.3-.335-.517-.593l.076-.039c.068-.076.068-.152.144-.19a4.474,4.474,0,0,0,.822.449,6.642,6.642,0,0,1,.739.411,1.467,1.467,0,0,0,.373,1.667c.076.152.22.3.3.449a1.072,1.072,0,0,0-1.111.145v.114a3.089,3.089,0,0,0-.449,1.263,13.036,13.036,0,0,1-1.042-.966,3.389,3.389,0,0,0,.525-.259l.22-.221Zm-3.417,2.123.068-.114a1.153,1.153,0,0,1,.594.076c0,.076.152.107.152.107,0,.114-.152.19-.152.266-.069.068-.145.145-.145.221a.737.737,0,0,1-.594-.221A.65.65,0,0,1,96.553,153.859Z" style="fill:#ff5764"/><path d="M22.043,117.015a3.854,3.854,0,0,1-1-.748c.435.29.711.595,1,.809C15.238,103.585,21.9,94.4,21.9,94.4a14.871,14.871,0,0,0,2.119,8.51,32.205,32.205,0,0,1,3.976-9.106s0,.076-.145.152h0a3.416,3.416,0,0,1-1.422-.672h.711a2.251,2.251,0,0,1,1.132.153,47.171,47.171,0,0,1,9.069-10.3S33.522,93.729,45,99.474a14.674,14.674,0,0,0-1.277-4.767s9.215,5.44,5.239,19.023c-.711,2.46-1.422,4.019-2.264,4.844,3.12-1.864,13.6-8.572,15.731-16.792,2.684-9.611-.566-20.735-7.517-27.977-9.2-9.611-8.214-14.088-2.83-19.91,0,0-7.938,2.827-10.347,10.589.421-7.762.145-21.788-8.082-30.146,0,0,8.5,22.17-9.767,38.061,2.685-11.8-9.925-20.75-9.925-20.75.565,1.651,8.924,7.762-2.975,21.193C1.771,83.507,1.205,95.517,7.866,104.99,11.261,109.773,18.067,114.846,22.043,117.015Zm33.3-24.478a4.505,4.505,0,0,1,2.54,2.231,3.15,3.15,0,0,1,.145,2.017l-.145-.076-.276.229a1.893,1.893,0,0,1-1.843.519,2.528,2.528,0,0,0-.987.153h-.145v.077c-.29-.077-.29-.23-.566-.306a4.791,4.791,0,0,0,.987-.443l.29-.229-.145-.291a5.661,5.661,0,0,0-.421-1.787c-.145-.459-.29-.825-.435-1.192C54.912,93.057,55.2,92.843,55.347,92.537Zm-5.4-14.775.145.153v.519c-.145-.076-.276-.076-.276-.152A1.955,1.955,0,0,1,49.949,77.762Zm-2.54,6.188c.711.535,1.408,1.055,2.119,1.574l.29-.153a.926.926,0,0,1,.421-.366c.145-.077.145-.153.29-.23a3.747,3.747,0,0,0,1.7,1.5,2.766,2.766,0,0,0-.145,1.039,23.618,23.618,0,0,1,1.988,1.344,1.529,1.529,0,0,1-1.422-.366,2.146,2.146,0,0,1-.566-.978c-.856-.6-1.7-1.192-2.554-1.788l-.276.229-.29-.535a1.673,1.673,0,0,0-.276-.213s-.145,0-.435.29l-.711.672-.276-.886a1.025,1.025,0,0,1,.145-.672h0l-.145-.23ZM41.735,67.173l.145-.152a.542.542,0,0,0,.146.3l-.146.138-.145-.138ZM37.063,60.68V60.6c.275.153.275.153.275.306.146,0,.146.076.146.214v-.077c-.146-.061-.421-.137-.421-.29ZM24.017,78.511a6.577,6.577,0,0,0,.711.519c0,.077-.145.229-.145.229v.291a2.055,2.055,0,0,1-.566.153Z" style="fill:#ff5764"/><path d="M172.578,75.615v.036s-.07.134-.141.134v-.1S172.437,75.651,172.578,75.615Z" style="fill:#103824"/><path d="M155.076,59.94c.141,0,.275,0,.275.071h0c-.134,0-.2.07-.409.07H154.8v-.07C154.8,59.976,154.942,59.94,155.076,59.94Z" style="fill:#103824"/><path d="M154.872,61.8h.07v.169h0c-.141-.035-.141-.1-.211-.169Z" style="fill:#103824"/><path d="M182.2,143.054l.043.021a2.182,2.182,0,0,0,.236-.042,7.882,7.882,0,0,0,.145-1.061,8.387,8.387,0,0,0-.193-1.474h-.091a.236.236,0,0,0-.1-.353v-.022h-.091a.508.508,0,0,1-.376-.166v-.187a.65.65,0,0,1,.467-.085c-1.03-3.954-4.42-9.338-7.848-13.875h0a.238.238,0,0,1-.236-.145.387.387,0,0,1-.048-.247,64.87,64.87,0,0,0-4.983-5.844,70.213,70.213,0,0,0-5.316,6.321.5.5,0,0,0,.144.29.947.947,0,0,0,.843.166h.048l-.048.043c-.043.042-.043.085-.043.166h0v.043a1.832,1.832,0,0,0-.52-.124.323.323,0,0,1-.14-.021,2.571,2.571,0,0,1-.327-.145,1.278,1.278,0,0,0-.236-.107c-4.045,5.41-7.9,11.941-7.9,15.766,0,4.452,3.385,8.8,10.723,9.674a1.714,1.714,0,0,0-.188-.272.625.625,0,0,1-.284-.52v.021l.048-.059a.837.837,0,0,0,.891.183v-.039a.346.346,0,0,0,.145-.294s0-.021.043-.059v-.022c.236-.042.376.1.52.354a1.122,1.122,0,0,0,.236.247.225.225,0,0,0-.188.128h0l-.144.123.1.043c-.048.06-.048.124-.1.145a.08.08,0,0,0-.048.081c.568.042,1.131.128,1.743.128a16.728,16.728,0,0,0,8.792-2.143,1.85,1.85,0,0,1-.516-.4,1.1,1.1,0,0,0-.568-.418c-.043-.247-.327-.332-.515-.392s-.284-.106-.236-.208a.87.87,0,0,1,.564.123,1.4,1.4,0,0,0,.375.145l.145.021.043-.081s0-.021.048-.021c0-.064.1-.085.1-.085a.158.158,0,0,1,.092.042.043.043,0,0,1-.044.043l-.048.06v.042c-.1.064-.236.188-.144.311l.048.107.1-.022a.541.541,0,0,1,.424.145l.043.354.188-.23a.082.082,0,0,1,.048.085c.048.124.048.187-.091.332h0c.139-.081.327-.166.467-.247v-.128c-.14-.374-.467-.541-.843-.728a.161.161,0,0,0-.1-.021c0-.5-.472-.665-.8-.788a1.221,1.221,0,0,1-.424-.188l-.14-.123-.048.038c.048-.06.048-.124.1-.2a1.53,1.53,0,0,0,.28-.107,1.053,1.053,0,0,1,.1-.311.88.88,0,0,0,.7-.354h.048a.654.654,0,0,1,.048.665l-.1.021c-.048.043-.048.086-.091.145l-.145.251.332-.063h0c.048.021.048.063.092.085a.441.441,0,0,0,.375.375l.145.017.139-.145a4.309,4.309,0,0,0,1.551.315v-.209h.048v-.064s0,.022.048.022v.081l.048-.039a.5.5,0,0,0,.092-.251c-.048-.081-.092-.124-.14-.124h.048c.231-.021.376-.042.467.081l.1.086a3.77,3.77,0,0,1,.279-.311.625.625,0,0,0-.188-.605l-.188-.166a.622.622,0,0,1,.188.085,1.333,1.333,0,0,0,.563.2,5.737,5.737,0,0,0,.381-.664,1.32,1.32,0,0,0-.284-.064.342.342,0,0,1-.1-.017v.038c-.043.021-.043.043-.091.064a1.266,1.266,0,0,0-.472-.123l-.091-.022-.1.081a.47.47,0,0,0-.187.418c-.049.085-.092.1-.092.166h-.048c-.188-.166-.236-.5-.284-.959v-.038h0c.048-.021.048-.043.048-.043a.941.941,0,0,0,.188-.106v-.017l.188-.23-.28-.022c0-.021-.048-.1-.048-.144,0-.064-.048-.166-.048-.23a.965.965,0,0,1,.284-.247v-.064l.231-.022h.048a2.967,2.967,0,0,1,.376.043h0a.248.248,0,0,1-.043.166c0,.021-.049.043-.049.043a1.465,1.465,0,0,0,.467.434.6.6,0,0,0,.236.085l.145-.064s0-.021.043-.042a.374.374,0,0,0,.1-.166c0-.022.049-.043.049-.043,0-.038.043-.059.043-.059a.43.43,0,0,1,.284.166c.1-.209.14-.439.236-.648a.45.45,0,0,1-.236-.017.582.582,0,0,1-.236-.583.266.266,0,0,1,.1-.022c.049-.042.188-.085.236-.123l-.048.332.14-.107a1.075,1.075,0,0,0,.1.354,6.483,6.483,0,0,0,.231-.933.339.339,0,0,0-.139-.23c-.049-.085-.092-.123-.092-.187l-.048.021v.123h0a.237.237,0,0,1,0,.333,1.541,1.541,0,0,1-.751-.456v-.23l.279.064C181.865,142.994,182.053,143.033,182.2,143.054Zm-6.3-1.205c-.048.021-.048.042-.139.085a1.9,1.9,0,0,1-1.035-1.4v-.1a.829.829,0,0,1,.091-.1,1.08,1.08,0,0,0,.568,1A1.889,1.889,0,0,1,175.894,141.849Zm-.8-7.7a.539.539,0,0,0-.14.106c-.048.022-.048.043-.048.043a.751.751,0,0,1-.611-.52.244.244,0,0,0,.1-.064h.043c0,.022.049.043.1.064a.891.891,0,0,0,.375-.042v.021a.676.676,0,0,0,.284.332C175.143,134.113,175.1,134.134,175.1,134.151ZM175,130.3a.529.529,0,0,1-.467-.1.153.153,0,0,1-.048-.23.723.723,0,0,1,.375.081A.314.314,0,0,1,175,130.3Zm-.564-3.621a.628.628,0,0,0,.1.209.623.623,0,0,1-.188-.081.314.314,0,0,1-.048-.353A1.525,1.525,0,0,1,174.435,126.683Zm-4.983,0h.1s0,.022-.048.043c0,0-.048-.021-.048-.043Zm-.376-3.16v-.039c.14.124.188.226.285.311-.049-.021-.1-.021-.1-.042-.139-.064-.188-.1-.284-.145C169.028,123.565,169.028,123.523,169.076,123.523Zm-.471-2.952a.661.661,0,0,1,.375.021h0c-.043.042-.091.06-.188.145h0a1.23,1.23,0,0,1-.419-.188A.675.675,0,0,0,168.605,120.571Zm0,15.557c-.044,0-.092-.039-.188-.081,0-.064-.044-.145-.044-.23.14-.064.232-.086.328-.022C168.749,135.88,168.749,136,168.605,136.128Zm-1.642-10.586c-.048.064-.145.081-.188.1,0-.038-.048-.06-.048-.06A.559.559,0,0,1,166.963,125.542Zm-3.39,2.287a.327.327,0,0,0,.1.086.066.066,0,0,1,.048.059l.188.085.092-.085c0-.021.048-.042.048-.042a.763.763,0,0,1,.139-.167h0c.1,0,.1.043.188.15.048.059.1.123.145.187v.017l-.048.021c0,.022-.049.043-.1.086-.091-.022-.188-.043-.279-.064-.376-.06-.563-.1-.563-.29A.042.042,0,0,1,163.573,127.829Zm-1.079,1,.092-.059c.376.1.568.413.568.932v.188l.188-.038a.225.225,0,0,1,.091-.022v.124a.125.125,0,0,0,.049.085.535.535,0,0,1-.236.017c-.092,0-.188-.124-.236-.247a.923.923,0,0,0-.424-.4v-.064c0-.038,0-.038.048-.081l-.14-.085a.324.324,0,0,0,.049-.29C162.494,128.869,162.494,128.847,162.494,128.826Zm-1.974,6.637a.321.321,0,0,1,.092.166.431.431,0,0,1-.188-.145C160.424,135.463,160.52,135.442,160.52,135.463Zm-4.14,7.157c.1.038.187.08.187.123,0,.021.048.043,0,.085A1.2,1.2,0,0,1,156.38,142.62Zm0-1.227c.048-.022.1,0,.187.021a.836.836,0,0,1,.236.332C156.567,141.64,156.428,141.559,156.38,141.393Zm1.882-4.328a.326.326,0,0,0-.188.145c-.048-.022-.048-.043-.1-.043-.091-.038-.188.043-.231.064l-.048.021c-.048.064-.048.1-.1.166a.387.387,0,0,1-.236-.085.44.44,0,0,1-.044-.5l.328-.333a.625.625,0,0,1,.7.294c0,.06.048.081.1.124A.408.408,0,0,0,158.262,137.065Zm.284-2.352a.2.2,0,0,0-.048-.145c.048-.021.048-.042.048-.042.044.021.092.042.092.106Zm8.369,7.178a.493.493,0,0,1-.333-.085.246.246,0,0,1-.043-.124C166.727,141.746,166.915,141.827,166.915,141.891Zm-.66-4.537h0c-.424-.1-.66-.166-.751-.434a1.65,1.65,0,0,0,.939-.46.668.668,0,0,1,.187.541Zm.472-9.048c-2.822,5.432-4.42,10.152-4.42,12.6a8.615,8.615,0,0,0,2.162,5.93,8.954,8.954,0,0,0,3.105,2.019,11.356,11.356,0,0,1-6.442-2.206,6.048,6.048,0,0,1-2.21-4.682c0-1.934,1.69-5.678,4.42-9.964.655-1,1.411-2.036,2.114-3.054-.236-.145-.284-.315-.188-.648a.52.52,0,0,1,.284-.038c.091.017.14.1.231.205.847-1.163,1.791-2.326,2.634-3.408C167.853,126.147,167.242,127.224,166.727,128.306Zm1.223,13.9c0-.021,0-.021-.048-.043a1.367,1.367,0,0,1,.423.128.849.849,0,0,0,.848.081c.091.064.139.107.188.145.279.166.375.251.279.375A2.163,2.163,0,0,1,167.95,142.2Zm2.773-18.76a.507.507,0,0,0-.332-.311.587.587,0,0,1-.231-.23v-.209l.091-.1a2.014,2.014,0,0,1,.333.145,2.059,2.059,0,0,0,.515.187c-.048.021-.048.021-.048.06a.47.47,0,0,0-.049.353l.049.107.187-.022V123.4l-.048.166.236-.042c.188,0,.236.042.376.208a1.38,1.38,0,0,0,.38.375,1.17,1.17,0,0,1-.236.124.161.161,0,0,0-.1.021,1.074,1.074,0,0,1-.564-.413A1.1,1.1,0,0,0,170.723,123.442Zm.751,10.168a.6.6,0,0,1,.472.187.282.282,0,0,1,.043.418c-.187.085-.375.085-.467-.043A.421.421,0,0,1,171.474,133.61Zm2.682,12.92a.7.7,0,0,1-.472.209,2.6,2.6,0,0,0-.423.123c-.049-.042-.049-.123-.14-.144v-.167c0-.021.048-.064.048-.106a.368.368,0,0,0,.14-.043.182.182,0,0,1,.091-.038h.1l.048-.128a.163.163,0,0,1,.048-.123s.043-.022.043-.043c.048,0,.048-.021.048-.043.048-.017.1-.038.1-.081a.869.869,0,0,1,.467.456C174.248,146.445,174.2,146.487,174.156,146.53Zm-.659-1.393a.423.423,0,0,1,.471-.021c.092.038.092.145.044.268a.289.289,0,0,0-.231.107c-.049-.043-.049-.086-.1-.107A.839.839,0,0,0,173.5,145.137Zm2.821-1.4-.1.042c-.467.188-.751-.1-1.127-.562a2,2,0,0,0-.563-.541l-.14-.038-.1.081v.021h-.048c0,.085.048.166.048.23h0a.932.932,0,0,0-.14-.145c-.048.017-.1.039-.188.081v.064a.141.141,0,0,0,0,.188.935.935,0,0,1-.284.123,1.073,1.073,0,0,0-.375.124c.048-.333,0-.435-.14-.563a.382.382,0,0,1-.144-.268H172.7c-.048.064-.048.123-.139.166,0,.043-.049.085-.1.1a1.427,1.427,0,0,1-1.035-.332.637.637,0,0,1,.1-.541v-.038a.154.154,0,0,1,.092-.043.488.488,0,0,0,.236-.145c.048-.021.048-.042.1-.085h0v-.021a.8.8,0,0,0-.144-1.082.569.569,0,0,1-.28-.5h0l.092-.042a.742.742,0,0,0,.847.166v-.017l.048-.021a.406.406,0,0,0,.092-.273c0-.043,0-.043.048-.081h0c.236-.064.376.081.563.332,0,.081.1.166.188.247a.306.306,0,0,0-.188.128v.021l-.139.1.1.064a.242.242,0,0,0-.1.144c-.14.124-.279.333-.092.5h.044a7.455,7.455,0,0,0,1.695,1c0,.315.327.4.563.46a.547.547,0,0,1,.327.123.225.225,0,0,1,.048.166c0,.124,0,.29.188.354a.213.213,0,0,0,.188.043.462.462,0,0,0,.188.208c0,.022.048.022.1.022Zm1.5.46c-.279.23-.419.145-.654-.021a.264.264,0,0,0-.1-.022,1.129,1.129,0,0,1-.188-.289c0-.086,0-.166-.091-.209,0-.043-.1-.085-.188-.124a.141.141,0,0,1,.092-.149.341.341,0,0,1,.1-.081,1.324,1.324,0,0,1,1.03.852Zm.52-3.476a.577.577,0,0,1,.328-.145c.332.043.611.418.751.6.048.06.1.1.1.145l.14.1.144-.123c.092-.081.14-.1.188-.145.092.064.092.081.188.1h0s0,.064-.048.064c-.048.042-.048.064-.1.1-.139.149-.139.251-.043.315v.039h.092l-.092.149c-.048.017-.1.038-.1.059v.043c0-.021-.048-.043-.048-.043l.048-.311-.28.188a.853.853,0,0,1-.755.1A1.592,1.592,0,0,1,178.34,140.724Zm2.162,3.08-.048.021-.091.1c-.1.086-.1.086-.284.23h0l.1.1a.3.3,0,0,1-.1.106.137.137,0,0,1-.049.124l-.043.144-.188.064a.351.351,0,0,0-.188.086.111.111,0,0,0-.048-.107l-.048-.021h-.048a.832.832,0,0,0-.236,0c0-.081-.091-.124-.091-.166,0-.06.048-.06.091-.043a.48.48,0,0,0,.424-.187l.048-.017.048-.064-.048-.064a.373.373,0,0,0-.188-.29c-.048-.085-.1-.123-.1-.166v-.021c.1-.064.1-.124.144-.145a.126.126,0,0,0,.048-.085.893.893,0,0,0,.376-.247s0-.022.043-.043l.049.123.187-.059h0a1.738,1.738,0,0,0,.1.145,1.269,1.269,0,0,0,.187.247A.435.435,0,0,0,180.5,143.8Z" style="fill:#ff5764"/><path d="M181.98,88.62l.073.044a3.35,3.35,0,0,0,.4-.087,19.255,19.255,0,0,0,.246-2.153,20.286,20.286,0,0,0-.328-2.993h-.155a.532.532,0,0,0-.164-.718V82.67H181.9a.8.8,0,0,1-.638-.337v-.381a.963.963,0,0,1,.793-.173c-1.751-8.026-7.511-18.958-13.336-28.169h0a.4.4,0,0,1-.4-.294.916.916,0,0,1-.082-.5,128.643,128.643,0,0,0-8.468-11.866,139.674,139.674,0,0,0-9.033,12.835,1.088,1.088,0,0,0,.245.588,1.409,1.409,0,0,0,1.432.337h.082l-.082.087c-.074.086-.074.173-.074.337h0v.087a2.733,2.733,0,0,0-.883-.251.463.463,0,0,1-.237-.043,3.838,3.838,0,0,1-.557-.294,1.952,1.952,0,0,0-.4-.217c-6.873,10.984-13.426,24.243-13.426,32.01,0,9.038,5.752,17.868,18.221,19.641a3.781,3.781,0,0,0-.319-.553,1.343,1.343,0,0,1-.483-1.056v.044l.082-.121c.4.337.875.717,1.513.371v-.077a.77.77,0,0,0,.246-.6s0-.043.074-.121v-.043c.4-.087.638.207.883.717a2.132,2.132,0,0,0,.4.5.388.388,0,0,0-.319.259h0l-.245.251.163.087c-.082.121-.082.251-.163.294a.17.17,0,0,0-.082.164c.965.087,1.923.26,2.962.26,6.472,0,11.266-1.73,14.94-4.351a3.3,3.3,0,0,1-.876-.8,1.94,1.94,0,0,0-.965-.848c-.074-.5-.557-.674-.876-.8s-.482-.217-.4-.424a1.285,1.285,0,0,1,.958.251,2.21,2.21,0,0,0,.638.294l.245.043.074-.164s0-.044.082-.044c0-.129.164-.173.164-.173a.251.251,0,0,1,.155.087.077.077,0,0,1-.074.086l-.081.122v.086c-.164.13-.4.381-.246.631l.082.217.164-.044a.841.841,0,0,1,.72.294l.073.718.319-.467a.176.176,0,0,1,.082.173.581.581,0,0,1-.155.675h0c.237-.165.556-.338.793-.5v-.259a2.655,2.655,0,0,0-1.432-1.479.234.234,0,0,0-.163-.043c0-1.012-.8-1.35-1.358-1.6a1.913,1.913,0,0,1-.72-.38l-.238-.251-.082.078a4.184,4.184,0,0,0,.164-.415,2.325,2.325,0,0,0,.475-.216,2.428,2.428,0,0,1,.163-.632,1.426,1.426,0,0,0,1.2-.718h.082a1.555,1.555,0,0,1,.082,1.35l-.164.043c-.082.086-.082.173-.156.294l-.245.51.565-.13h0c.081.044.081.13.155.173a.852.852,0,0,0,.638.762l.246.034.237-.294a6.3,6.3,0,0,0,2.634.64v-.424h.082V98.42s0,.043.082.043v.164l.082-.078a1.148,1.148,0,0,0,.155-.51c-.081-.164-.155-.251-.237-.251h.082c.393-.043.638-.086.794.164l.163.173c.156-.25.319-.423.475-.631a1.425,1.425,0,0,0-.319-1.228l-.319-.337a1,1,0,0,1,.319.173,2.05,2.05,0,0,0,.957.415,12.763,12.763,0,0,0,.646-1.349,1.963,1.963,0,0,0-.482-.13.481.481,0,0,1-.164-.035v.078c-.074.043-.074.087-.155.13a1.888,1.888,0,0,0-.8-.251l-.156-.043-.163.164a1.045,1.045,0,0,0-.32.848c-.081.173-.155.207-.155.337h-.082a3.523,3.523,0,0,1-.483-1.946v-.078h0c.082-.043.082-.086.082-.086a1.584,1.584,0,0,0,.319-.217v-.034l.319-.467-.474-.043a2.727,2.727,0,0,1-.082-.294c0-.13-.082-.338-.082-.468a1.8,1.8,0,0,1,.483-.5V92l.393-.043h.082a4.208,4.208,0,0,1,.638.086h0a.579.579,0,0,1-.074.338c0,.043-.082.086-.082.086a2.738,2.738,0,0,0,.794.882.918.918,0,0,0,.4.173l.245-.129s0-.044.074-.087a.8.8,0,0,0,.164-.337c0-.043.081-.087.081-.087a.154.154,0,0,1,.074-.121.724.724,0,0,1,.483.338c.163-.424.237-.891.4-1.315a.641.641,0,0,1-.4-.035,1.293,1.293,0,0,1-.4-1.185.409.409,0,0,1,.164-.043c.081-.086.319-.173.4-.251l-.081.675.237-.216a2.513,2.513,0,0,0,.164.718,15.559,15.559,0,0,0,.392-1.895.712.712,0,0,0-.237-.467c-.082-.173-.155-.25-.155-.38l-.082.043V89h0a.548.548,0,0,1,0,.675,2.584,2.584,0,0,1-1.277-.926v-.467l.475.13C181.415,88.5,181.734,88.577,181.98,88.62Zm-10.711-2.447c-.081.043-.081.086-.237.173-.8-.381-1.358-1.228-1.759-2.837V83.3a1.73,1.73,0,0,1,.155-.207,2.289,2.289,0,0,0,.966,2.024A3.634,3.634,0,0,1,171.269,86.173Zm-1.358-15.629a.932.932,0,0,0-.237.217c-.082.043-.082.086-.082.086a1.375,1.375,0,0,1-1.039-1.055.426.426,0,0,0,.164-.13h.073c0,.043.082.087.164.13a1.263,1.263,0,0,0,.638-.087v.044a1.353,1.353,0,0,0,.483.674C169.993,70.467,169.911,70.51,169.911,70.544Zm-.163-7.81a.792.792,0,0,1-.794-.207.348.348,0,0,1-.082-.467,1.074,1.074,0,0,1,.638.164A.677.677,0,0,1,169.748,62.734Zm-.958-7.351a1.4,1.4,0,0,0,.164.424,1,1,0,0,1-.319-.165.732.732,0,0,1-.082-.717A3.191,3.191,0,0,1,168.79,55.383Zm-8.468,0h.164s0,.043-.082.086c0,0-.082-.043-.082-.086Zm-.638-6.417v-.078c.237.251.319.458.483.631-.082-.043-.164-.043-.164-.086-.237-.13-.319-.208-.483-.294C159.6,49.052,159.6,48.966,159.684,48.966Zm-.8-5.994a.971.971,0,0,1,.638.043h0c-.073.087-.155.121-.319.294h0a1.91,1.91,0,0,1-.712-.38A1,1,0,0,0,158.882,42.972Zm0,31.585c-.074,0-.155-.077-.319-.164,0-.13-.074-.294-.074-.467.238-.13.393-.173.557-.043A.582.582,0,0,1,158.882,74.557Zm-2.79-21.492c-.082.13-.246.164-.319.208a.155.155,0,0,0-.082-.121A.8.8,0,0,1,156.092,53.065Zm-5.76,4.645a.6.6,0,0,0,.164.173.137.137,0,0,1,.081.121l.319.173.156-.173c0-.044.082-.087.082-.087a1.461,1.461,0,0,1,.237-.337h0c.164,0,.164.086.319.3.082.121.164.25.246.38V58.3l-.082.043c0,.043-.082.086-.164.173l-.474-.13c-.639-.121-.958-.207-.958-.588A.077.077,0,0,1,150.332,57.71ZM148.5,59.733l.156-.121c.638.208.965.839.965,1.894v.381l.319-.078a.347.347,0,0,1,.156-.043v.251a.278.278,0,0,0,.081.173.766.766,0,0,1-.4.034c-.155,0-.319-.251-.4-.5a1.728,1.728,0,0,0-.72-.8v-.129c0-.078,0-.078.081-.165l-.237-.173a.761.761,0,0,0,.082-.588A.122.122,0,0,1,148.5,59.733Zm-3.354,13.475a.7.7,0,0,1,.155.338.79.79,0,0,1-.319-.3C144.981,73.208,145.145,73.165,145.145,73.208Zm-7.037,14.53c.164.078.319.165.319.251,0,.043.082.087,0,.173A2.314,2.314,0,0,1,138.108,87.738Zm0-2.491c.082-.043.164,0,.319.044a1.742,1.742,0,0,1,.4.674C138.427,85.749,138.19,85.585,138.108,85.247Zm3.2-8.787c-.163.043-.237.173-.319.294-.082-.043-.082-.086-.164-.086-.155-.078-.319.086-.392.129l-.082.044c-.082.129-.082.207-.164.337a.6.6,0,0,1-.4-.173,1.035,1.035,0,0,1-.073-1.012l.556-.674c.72-.087.876.129,1.195.6,0,.121.081.165.163.251A.739.739,0,0,0,141.307,76.46Zm.483-4.774a.464.464,0,0,0-.082-.294c.082-.043.082-.087.082-.087.074.044.155.087.155.217Zm14.22,14.573a.725.725,0,0,1-.564-.173.55.55,0,0,1-.074-.251C155.691,85.965,156.01,86.13,156.01,86.259Zm-1.121-9.211h0c-.72-.207-1.121-.337-1.276-.882a2.64,2.64,0,0,0,1.595-.934,1.511,1.511,0,0,1,.319,1.1Zm.8-18.37c-4.8,11.027-7.511,20.61-7.511,25.592a19.6,19.6,0,0,0,3.674,12.039,15.293,15.293,0,0,0,5.277,4.1c-4.639-.424-8.4-1.946-10.947-4.48a13.334,13.334,0,0,1-3.756-9.5c0-3.927,2.872-11.529,7.511-20.23,1.113-2.024,2.4-4.134,3.592-6.2-.4-.294-.483-.64-.319-1.315.237-.078.319-.121.483-.078s.237.208.392.416c1.44-2.362,3.044-4.723,4.476-6.92C157.606,54.293,156.566,56.481,155.691,58.678Zm2.078,28.213c0-.044,0-.044-.082-.087a2.051,2.051,0,0,1,.72.26,1.253,1.253,0,0,0,1.44.164c.156.13.238.216.32.294.474.337.638.51.474.761C159.52,88.5,158.563,87.7,157.769,86.891Zm4.713-38.09a.946.946,0,0,0-.565-.631,1.124,1.124,0,0,1-.392-.467v-.424l.155-.208a3.234,3.234,0,0,1,.565.3,3.1,3.1,0,0,0,.875.38c-.082.043-.082.043-.082.121a1.131,1.131,0,0,0-.081.718l.081.216.319-.043v-.043l-.081.337.4-.086c.319,0,.4.086.638.423a2.65,2.65,0,0,0,.646.761,1.875,1.875,0,0,1-.4.251.23.23,0,0,0-.163.044,1.888,1.888,0,0,1-.958-.839A1.929,1.929,0,0,0,162.482,48.8Zm1.276,20.645a.934.934,0,0,1,.8.381.645.645,0,0,1,.074.847c-.319.173-.638.173-.794-.086A.976.976,0,0,1,163.758,69.446Zm4.558,26.232a1.121,1.121,0,0,1-.8.424,3.95,3.95,0,0,0-.72.25c-.082-.086-.082-.25-.237-.294v-.337c0-.043.081-.13.081-.216a.56.56,0,0,0,.238-.087.29.29,0,0,1,.155-.077h.164l.082-.26a.375.375,0,0,1,.081-.251s.074-.043.074-.086c.082,0,.082-.043.082-.087.082-.034.164-.078.164-.164a1.632,1.632,0,0,1,.793.925C168.471,95.505,168.389,95.591,168.316,95.678ZM167.2,92.85c.319-.217.638-.217.8-.044.155.078.155.3.073.545a.465.465,0,0,0-.392.217c-.082-.087-.082-.173-.164-.217A1.729,1.729,0,0,0,167.2,92.85Zm4.794-2.837-.163.086c-.794.381-1.277-.207-1.915-1.141a3.759,3.759,0,0,0-.957-1.1l-.237-.078-.164.165v.043h-.082c0,.173.082.337.082.467h0a1.844,1.844,0,0,0-.237-.294,3.46,3.46,0,0,0-.319.164v.13a.326.326,0,0,0,0,.381c-.164.164-.319.164-.483.25a1.615,1.615,0,0,0-.638.251c.082-.674,0-.882-.238-1.141a.83.83,0,0,1-.245-.545h-.556c-.082.129-.082.251-.238.337a.259.259,0,0,1-.163.208,2.191,2.191,0,0,1-1.759-.675,1.5,1.5,0,0,1,.163-1.1v-.078a.238.238,0,0,1,.156-.087.815.815,0,0,0,.4-.294c.081-.043.081-.086.163-.173h0v-.043a1.848,1.848,0,0,0-.245-2.2,1.218,1.218,0,0,1-.475-1.012h0l.156-.086a1.121,1.121,0,0,0,1.44.337v-.034l.082-.044a.941.941,0,0,0,.155-.553c0-.087,0-.087.082-.165h0c.4-.129.638.165.957.675,0,.164.164.337.319.5a.517.517,0,0,0-.319.259v.043l-.237.208.163.13a.513.513,0,0,0-.163.294c-.237.251-.475.674-.156,1.012h.074a12.3,12.3,0,0,0,2.88,2.023c0,.64.556.8.957.935a.865.865,0,0,1,.557.25.525.525,0,0,1,.081.338c0,.25,0,.588.32.718a.317.317,0,0,0,.319.086.9.9,0,0,0,.319.424c0,.043.082.043.163.043Zm2.553.934c-.474.467-.712.294-1.113-.043a.38.38,0,0,0-.163-.044,2.286,2.286,0,0,1-.319-.588c0-.173,0-.337-.156-.423,0-.087-.163-.173-.319-.251a.3.3,0,0,1,.156-.3.594.594,0,0,1,.163-.164c1.039.337,1.277.674,1.751,1.729Zm.884-7.057a.9.9,0,0,1,.556-.3c.565.087,1.039.848,1.277,1.229.081.121.163.207.163.294l.237.207.246-.251c.155-.164.237-.207.319-.294.155.13.155.165.319.208h0s0,.13-.082.13c-.082.086-.082.129-.163.207-.238.3-.238.51-.074.64v.078h.155l-.155.3c-.082.034-.164.078-.164.121v.086c0-.043-.081-.086-.081-.086l.081-.632-.474.381a1.253,1.253,0,0,1-1.285.208A3.571,3.571,0,0,1,175.426,83.89Zm3.673,6.253-.081.043-.156.207a6.471,6.471,0,0,1-.483.467h0l.164.208a.6.6,0,0,1-.164.216.313.313,0,0,1-.081.251l-.074.294-.319.13a.543.543,0,0,0-.319.173.244.244,0,0,0-.082-.216l-.082-.044h-.082a1.232,1.232,0,0,0-.4,0c0-.164-.155-.25-.155-.337,0-.121.082-.121.155-.086a.759.759,0,0,0,.72-.381l.082-.035.082-.129-.082-.13a.776.776,0,0,0-.319-.588c-.082-.173-.163-.251-.163-.337v-.044c.163-.129.163-.251.245-.294a.274.274,0,0,0,.082-.173,1.524,1.524,0,0,0,.638-.5s0-.044.074-.087l.081.251.32-.121h0s.081.164.163.294a2.616,2.616,0,0,0,.319.5A1.028,1.028,0,0,0,179.1,90.143Z" style="fill:#ff5764"/><path d="M69.124,54.505s-.3.108-.815.333v.571C68.573,55.11,68.843,54.809,69.124,54.505Z" style="fill:#ff5764"/></svg>