<svg id="afa0eead-1aee-4ded-86e0-9d4ae0369d37" data-name="Layer 1" xmlns="http://www.w3.org/2000/svg" viewBox="0 0 29 23"><path d="M28.692,15.59c-.361-2.165-2.285-7.367-3.668-10.915A4.579,4.579,0,0,0,22.408,2.06c-.06-.181-.151-.361-.211-.542A2.354,2.354,0,0,0,19.611.045l-.42.06A2.347,2.347,0,0,0,17.236,2.36c0,.271-.03.572-.03.872A4.723,4.723,0,0,0,16,6.089,3.217,3.217,0,0,0,14.47,5.7a3.309,3.309,0,0,0-1.533.391,4.485,4.485,0,0,0-1.2-2.857,8.192,8.192,0,0,0-.03-.872A2.347,2.347,0,0,0,9.749.105l-.36-.06A2.335,2.335,0,0,0,6.8,1.518c-.06.181-.151.361-.211.542A4.666,4.666,0,0,0,3.976,4.675,89.278,89.278,0,0,0,.308,15.59a6.331,6.331,0,0,0,12.448,2.315,3.473,3.473,0,0,0,1.744.511,3.2,3.2,0,0,0,1.744-.511A6.331,6.331,0,0,0,28.692,15.59ZM6.532,20.611a3.939,3.939,0,1,1,3.939-3.939A3.952,3.952,0,0,1,6.532,20.611ZM14.5,16.552a1.534,1.534,0,1,1,1.533-1.533A1.539,1.539,0,0,1,14.5,16.552Zm7.968,4.059a3.939,3.939,0,1,1,3.939-3.939A3.952,3.952,0,0,1,22.468,20.611Z"/></svg>