<svg id="f3d64c79-6232-4d4c-ac70-74c7a817b834" data-name="Layer 1" xmlns="http://www.w3.org/2000/svg" viewBox="0 0 200 200"><path d="M83.941,189.076c-.472-.153-.936-.153-1.408-.313-1.408-1.088,1.328-2.344,2.5-1.56H86.75a5.916,5.916,0,0,1,.784.312c4.377-3.44,8.753-4.841,12.658-4.841a20.458,20.458,0,0,1,13.21,5.153c1.329,1.1,2.729,2.033,4.057,2.969a152.926,152.926,0,0,0,14.931-3.441c-4.457-.312-9.066-2.344-13.6-6.089a28.994,28.994,0,0,0-18.6-7.033,28.341,28.341,0,0,0-9.378,1.72h0a.336.336,0,0,1-.312.312c-.152,0-.08-.16-.152-.16a29.942,29.942,0,0,0-8.753,5.161A31.659,31.659,0,0,1,78.78,183.3c-.072,0,0,0-.072.152V183.3a21.245,21.245,0,0,1-11.018,4.056A122.121,122.121,0,0,0,82.845,190.8a23.338,23.338,0,0,0,2.5-1.72Z" style="fill:#00bde1"/><path d="M46.983,170.64c6.409,5.153,13.362,7.97,20,7.97s13.435-2.817,19.764-7.97a21.794,21.794,0,0,1,13.29-5.313,21.477,21.477,0,0,1,12.658,4.841,6.34,6.34,0,0,1,.776-.16,1.991,1.991,0,0,1,1.329,0h.16l.152-.152a1.254,1.254,0,0,0,.392-2.032c-.08-.152-.152-.312-.232-.472l-.08-.312H114.8c-1.873,0-3.2-.464-3.825-1.4a2.728,2.728,0,0,1-.472-2.344l.16-.472h1.328c.152.16.232.312.232.784a2.716,2.716,0,0,0,.624,1.56,4.3,4.3,0,0,0,2.425.784h1.168a5.976,5.976,0,0,0,1.176,2.185c1.016,1.56,1.48,2.344.08,3.28a5.669,5.669,0,0,1-1.408.312,5.239,5.239,0,0,1-1.408.161c5.865,4.376,12.034,6.721,18.131,6.721,6.561,0,13.594-2.817,20-7.97,6.481-5.473,13.123-5.945,18.435-4.689,2.345-2.032,4.769-4.064,7.034-6.409a29.138,29.138,0,0,0-30.942,4.529c-4.841,3.913-9.841,5.937-14.53,6.1a23.287,23.287,0,0,1-11.57-4.064h0a31.127,31.127,0,0,1-2.809-2.033,33.626,33.626,0,0,0-8.833-5.313c-.072.16,0,.312-.072.312-.24,0-.32-.152-.392-.312v-.152a32.828,32.828,0,0,0-9.3-1.72,29.388,29.388,0,0,0-18.675,7.185c-4.769,3.913-9.618,5.937-14.379,6.1-4.689-.16-9.769-2.184-14.538-6.1a29.253,29.253,0,0,0-31.022-4.529c2.345,2.185,4.689,4.377,7.194,6.409C33.852,164.7,40.494,165.167,46.983,170.64Z" style="fill:#00bde1"/><path d="M185.831,147.036a29.293,29.293,0,0,0-38.287,0,34.289,34.289,0,0,1-6.249,3.913,2.5,2.5,0,0,1,.544,1.56c-.08.16-.152.472-.392.624a2.764,2.764,0,0,1-.384-2.032c-1.176.472-2.272.936-3.36,1.248.776.944,1.56,1.88,1.168,2.977-.08,0-.08.152-.152.152a3.509,3.509,0,0,1-1.328-.152h-.633a3.031,3.031,0,0,0-.072-2.345.47.47,0,0,1-.08-.312c-1.248.152-2.424.312-3.592.464-4.769-.152-9.61-2.184-14.379-6.1a4.3,4.3,0,0,0-1.016-.776h.08c0,.312,0,.624-.16.776-.08,0-.152-.152-.152-.152a1.935,1.935,0,0,1-.16-.936,30.09,30.09,0,0,0-17.187-6.1,29.388,29.388,0,0,0-18.675,7.185c-4.769,3.913-9.618,5.945-14.379,6.1-4.689-.152-9.769-2.184-14.538-6.1a29.4,29.4,0,0,0-38.367,0c-.7.632-1.4,1.256-2.024,1.72,1.712,2.193,3.512,4.377,5.465,6.57.7-.632,1.488-1.257,2.264-1.881,4.537-4.064,16.019-9.217,27.2.16,6.409,5.153,13.362,7.97,20,7.97s13.435-2.817,19.764-7.97a21.794,21.794,0,0,1,13.29-5.313,13.455,13.455,0,0,1,3.433.464l.08-.152c.232,0,.544,0,.544.152v.161a20.754,20.754,0,0,1,5.633,2.184.968.968,0,0,1,.152-.624c.16.16.312.16.472.312s.152.472.152.936a11.779,11.779,0,0,1,2.656,1.88c6.409,5.153,13.211,7.97,19.852,7.97,6.561,0,13.594-2.817,20-7.97,11.17-9.377,22.66-4.224,27.189-.16.784.624,1.56,1.249,2.264,1.881,1.953-2.193,3.753-4.377,5.473-6.57C187.239,148.292,186.615,147.668,185.831,147.036Zm-66.42,4.537c-.072.152-.152.464-.232.624h0l-.152-.16h-.24c-.936,0-1.56-.464-1.64-1.088s.7-1.568,2.264-2.032C119.963,149.541,119.731,150.325,119.411,151.573Z" style="fill:#00bde1"/><path d="M195.681,135.322h0c-.784-.16-4.689-.632-9.85-5.321a29.293,29.293,0,0,0-38.287,0,27.856,27.856,0,0,1-10.394,5.473h0a3.809,3.809,0,0,1-.232,2.033l-.16.472.472.152c.625.16.857.784,1.1,1.56a3.763,3.763,0,0,0,1.408,2.192,2.187,2.187,0,0,0-.472,1.1c-.08.465-.16.625-.936.777l-.472.16a1.926,1.926,0,0,0,.312-1.569l-.152-.464-.472.152h-.393c-.232,0-.392-.152-.7,0h-.312l-.152.16h-.16a2.528,2.528,0,0,0-.312.624c-.08.16-.152.313-.152.313h.072l-.7.624a.968.968,0,0,1,.152.624v.16a34.9,34.9,0,0,0,18.131-7.97c11.17-9.377,22.66-4.224,27.189-.16a28.728,28.728,0,0,0,11.8,6.722c1.64-2.5,3.2-5,4.761-7.658A2.516,2.516,0,0,0,195.681,135.322Z" style="fill:#00bde1"/><path d="M46.983,136.57c6.409,5.153,13.362,7.97,20,7.97s13.435-2.817,19.764-7.97a21.794,21.794,0,0,1,13.29-5.313,22.882,22.882,0,0,1,7.969,2.033c0-.16-.08-.312-.16-.312-.08-.312-.152-.472,0-.632h.472a.827.827,0,0,1,.08.32c0,.312,0,.624.545.776h.312c.152,0,.312,0,.392-.152h.08a3.831,3.831,0,0,0,.624.464c.392.312.776.472.936.784h-.312l-.16-.16-.152.16h-.16c.784.624,1.568,1.1,2.424,1.72h0c.08.152.152.152.232.312,6.409,5.153,13.211,7.97,19.852,7.97h.232c-.16-.16-.232-.472-.392-.624a2.889,2.889,0,0,0-2.657-2.193l-.152-.152-.16.152a.54.54,0,0,0-.392.312l-.856-.312c.312-.312.232-.776.232-1.248a.494.494,0,0,1,0-.472l.08-.464h.152l2.112-.312.08-.312c.08-.16.08-.312.152-.472-.152,0-.232-.152-.464-.152l-.232-.16-.08.312a.336.336,0,0,1-.312.312h-.16a.816.816,0,0,0-.624-.312h-.16l-.072.16c-.08,0-.08,0-.16.152-.08,0-.08.16-.152.312h-1.016l-.24.16.16.312c.08,0,.08.152-.08.312h0a2.3,2.3,0,0,1-1.1-.16,3.419,3.419,0,0,0-1.873-.152h-.08a1.577,1.577,0,0,0-.544.624c-.16.312-.312.472-.936.624-.16,0-.16-.152-.16-.464v-.472c.08.152.16.152.312.152l.16.16.152-.16c0-.152.16-.152.24-.152s.232-.16.232-.16h.152v-.152a1.844,1.844,0,0,0,.16-.624,3.558,3.558,0,0,1,.312-.784.157.157,0,0,1,.16.16c.072,0,.072,0,0,.152a1.011,1.011,0,0,0,.312.784h1.017c.072,0,.152,0,.232-.16h.152v-.152c.16-.312,0-.472-.152-.784,0,0-.08-.152-.16-.312a1.58,1.58,0,0,0,.784-.472c.16,0,.232-.153.472-.153h0a1.237,1.237,0,0,0,.624.785h.776c0,.312.16.464.472.312h.232c0-.16.08-.16.16-.16h.7v-.152c.08-.16.152-.16.152-.312h0c-.152,0-.312-.16-.464-.32l-.624-.777v.152a4.987,4.987,0,0,1-.08-1.088,24.748,24.748,0,0,1-10.626-5.473c0,.16.072.312.072.624a3.5,3.5,0,0,0,.552,2.193c-.16.152-.24.152-.392.312-.16,0-.232,0-.312-.16a1.508,1.508,0,0,0-.936-.312s.072,0,.072.16a1.823,1.823,0,0,0,.552,1.088,1.2,1.2,0,0,1,.152.624.572.572,0,0,1,.16.472h-.312a1.105,1.105,0,0,0-.16-.472,5.426,5.426,0,0,0-.624-1.712l-.08-.16-.384.16a.583.583,0,0,1,.152-.632c-.152-.152-.392-.312-.544-.464h-.24c.24-.16.472-.16.632-.312l.152-.313a3.275,3.275,0,0,0-1.016-.784c-.392-.312-.856-.784-.856-.936h.312l.312-.16.08-.152a1.413,1.413,0,0,0,.7.312c.152.152.384.152.544.312a1.2,1.2,0,0,0,.152-.624,30.16,30.16,0,0,0-6.169-3.753.774.774,0,0,0-.08.312c.08.161.08.313-.08.313h-.384a3.048,3.048,0,0,0,.384-.625,30.34,30.34,0,0,0-11.4-2.656,30.75,30.75,0,0,0-5.313.624,3.55,3.55,0,0,1,1.248,3.281h-.784a11.713,11.713,0,0,0-3.36.944,7.053,7.053,0,0,1,2.424-.784c0-.16.08-.16.152-.16h.24l.08-.152c.464-.624.856-1.249.624-1.881a1.671,1.671,0,0,0-.864-1.088h-.152l-.7.152A28.642,28.642,0,0,0,81.365,130c-4.769,3.913-9.618,5.945-14.379,6.1-4.689-.152-9.769-2.184-14.538-6.1a29.4,29.4,0,0,0-38.367,0c-5.153,4.689-9.058,5.161-9.842,5.321h0a2.025,2.025,0,0,0-.936.152,76.938,76.938,0,0,0,4.689,7.658,29.72,29.72,0,0,0,11.794-6.722C24.323,132.346,35.805,127.193,46.983,136.57Z" style="fill:#00bde1"/><path d="M88.862,128.913a5.558,5.558,0,0,0,2.577-1.1h.16a1.794,1.794,0,0,0-.7.624,1.377,1.377,0,0,0-.152,1.1c.072.464.072.624-.32.936a2.578,2.578,0,0,0-1.168-1.248c-.16-.16-.312-.312-.472-.312Z" style="fill:#00bde1"/><path d="M52.376,39.673c16.4-11.089,33.75-20,52.353-22.027H95.271c-3.2,0-6.329.152-9.457.312-2.1.152-4.217.312-6.25.312-13.442.936-28.132.152-40.319-9.066a26.577,26.577,0,0,1,2.425,2.657C48.855,20.3,52.528,30.928,52.376,39.673Z" style="fill:#00bde1"/><path d="M82.381,109.222h.152a10.355,10.355,0,0,0,7.737-2.657c.08-.472.152-.784.392-.936.152,0,.152.152.312.312a21.273,21.273,0,0,0,3.753-7.033c1.872-6.721-3.441-10.474-7.977-9.85-.7.16-1.4.312-2.105.472,0,0-.08,0-.08.152v.16h-.312V89.53c-2.112.624-4.216,1.248-6.249,1.873l.152,1.256h.784c.232,0,.464.152.784.152a1.788,1.788,0,0,1,.313.472c.936,1.712,1.4,2.656-.161,3.905-.544-.161-.624-.625-.784-1.249-.072-.624-.232-1.72-1.48-1.88h-1.1a2.294,2.294,0,0,0-1.64.936,1.968,1.968,0,0,0-.152.784,3.674,3.674,0,0,1-.392-2.808h.232a1.15,1.15,0,0,0,1.016-.784,57.4,57.4,0,0,1-6.8,1.872,1.347,1.347,0,0,1-.7.624c-.152-.152-.232-.312-.384-.464A15.842,15.842,0,0,1,54.56,91.09c5,6.722,12.89,5.161,20.316,6.882,2.968.776,5.625,4.216,3.44,7.5a4.866,4.866,0,0,0-.624.784,6.092,6.092,0,0,0,1.4,1.408,3.709,3.709,0,0,1-1.48.624A13.237,13.237,0,0,0,82.381,109.222Zm3.745-1.249c-.072-.16,0-.312.08-.632h.08v.32C86.286,107.813,86.206,107.813,86.126,107.973ZM93.239,92.5s.08,0,.08-.16h.624a2.319,2.319,0,0,0-.312.632.679.679,0,0,1-.232.464.3.3,0,0,1-.24-.152C93.007,93.123,93.159,92.811,93.239,92.5Zm-1.953.936c.08.16.153,0,.233,0h.392c.08,0,.16.16.16.16v.152h0v.472c-.16,0-.24,0-.32.152-.625-.152-.857-.312-.937-.464C90.814,93.747,90.974,93.747,91.286,93.435Zm0,6.249a2.521,2.521,0,0,1,.785,1.568c-.08,0-.16.152-.16.152H91.6c-.313,0-.473-.152-.7-.464-.08,0-.08,0-.152-.16a1.757,1.757,0,0,0-.08-1.408c0-.152-.16-.464-.08-.624A3.774,3.774,0,0,0,91.286,99.684Zm-4.064-9.37c.16-.32.472-.472,1.016-.472h.232c.24.152.392.312.312.472a.688.688,0,0,1-.7.624H87.07C87.07,90.626,87.07,90.314,87.222,90.314ZM85.5,101.564a4.832,4.832,0,0,0,.7-2.344,1.205,1.205,0,0,0-.232-.784c-.16-.464-.232-.624.152-.936a2.753,2.753,0,0,1,1.256,1.872c-.24,1.408.776,1.88,1.48,2.344.16,0,.392.16.544.16a5.5,5.5,0,0,0,.944,4.065h0c-.08,0-.16.152-.24.152a4.311,4.311,0,0,1-1.712.624h-.16a2.685,2.685,0,0,1-.16-.776c-.152-1.1-.312-2.5-2.416-2.656l-.313-.16-.16.312-.152-.152C84.877,102.973,85.189,102.188,85.5,101.564Zm-1.872,2.5h.776c.16,0,.24,0,.32-.152h.232c-.08.312-.16.624-.232.936a2.216,2.216,0,0,1-.32,1.1c-.936-.16-1.088-.784-1.088-1.88Zm-.624,1.256c.152.152.312.152.312.312.152.152.152.312,0,.776h-.312c-.08,0-.08-.152-.16-.152-.08-.16-.312-.472-.232-.624S82.765,105.469,83.005,105.317Zm-2.816-7.033a1.691,1.691,0,0,1,1.1.936.982.982,0,0,1-.312,1.1,2.308,2.308,0,0,1-.784-.632A2.193,2.193,0,0,1,80.189,98.284Zm-9.3-1.721c-.08,0-.08,0-.08-.16h-.152c.152,0,.232,0,.232.16Z" style="fill:#00bde1"/><path d="M160.363,54.524a8.079,8.079,0,0,0,3.432-6.1,3.774,3.774,0,0,0-1.248-3.593c-4.217-4.688-12.658-.16-11.33,5.785A5.934,5.934,0,0,0,160.363,54.524Zm-.313-7.505a2.084,2.084,0,0,1,.625,1.72,3.876,3.876,0,0,1-1.721,2.969,2.817,2.817,0,0,1-4.376-1.873C153.953,47.019,158.018,44.834,160.05,47.019Z" style="fill:#00bde1"/><path d="M111.522,75.624a30.663,30.663,0,0,0,7.889,10.154c.08-.153.16-.313.24-.465l4.841-.784v.152h-.312v1.1h.392a1.422,1.422,0,0,0-.472,1.1.767.767,0,0,1,.08.312h-.464l-.08.472a3.715,3.715,0,0,0-.08,1.088,12.771,12.771,0,0,0,2.264,1.248.469.469,0,0,0,.161-.312c.08-.152.152-.152.152-.152.16-.16.16-.16.312-.16a2.674,2.674,0,0,0,1.72-.776l.472-.472a5.739,5.739,0,0,1,.152,3.281,29.356,29.356,0,0,0,5.081,1.568,4.337,4.337,0,0,0-.152-1.721,1.852,1.852,0,0,1-.24-.784,2.088,2.088,0,0,1,1.408.937l.232.312.392-.152c.16-.16.312-.16.552-.313.232,0,.464-.16.7-.16a2.983,2.983,0,0,0,1.569.937l.08.16.072-.16h1.176c0,.16.08.312.08.472.152.472.232.624,0,.936a2.644,2.644,0,0,1-.864.624c11.954,1.88,25.4,0,36.806-3.433a56.629,56.629,0,0,0,8.906-3.6,58.662,58.662,0,0,0,8.281-4.841,60.406,60.406,0,0,0,5.553-5.313,19.5,19.5,0,0,1-4.305,1.248c-7.889,1.56-14.69-.152-15.314-3.752-.464-3.745,5.473-7.97,13.29-9.69a35.233,35.233,0,0,1,7.889-.464c-7.425-9.69-15.554-21.252-25.788-28.285a37.573,37.573,0,0,0-6.641-3.913A31.365,31.365,0,0,0,156.3,28.9a13.026,13.026,0,0,0-10.546,3.592C130.589,42.962,101.44,53.9,111.522,75.624Zm5.865-14.539h0a.567.567,0,0,1-.552-.312,3.574,3.574,0,0,1,.392-.312,1.21,1.21,0,0,1,1.248.312A4.6,4.6,0,0,1,117.387,61.085Zm3.281-10.626c-.16,0-.24-.152-.312-.312,0-.16.072-.312.232-.312.232,0,.232.152.312.312C120.9,50.307,120.82,50.307,120.668,50.459Zm1.088,16.875H121.6a.329.329,0,0,1-.312-.312V66.87h.624a.518.518,0,0,0,.392.152C122.148,67.182,122,67.182,121.756,67.334Zm.864,3.289c-.16,0-.232,0-.312-.16a1.007,1.007,0,0,1,.312-.312c.08,0,.152.16.152.312A.154.154,0,0,1,122.62,70.623Zm6.329-3.129a1.511,1.511,0,0,1-.16-1.248.78.78,0,0,1,.624.312A1.342,1.342,0,0,1,128.949,67.494Zm1.248-14.53a2.133,2.133,0,0,1-2.112-.632c-.072-.152.08-.312.24-.464.624-.16.776,0,1.016.312a1.783,1.783,0,0,0,1.016.784Zm4.217,31.253a1.313,1.313,0,0,1-.072-.936c.152.464.392.464.776.624a3.141,3.141,0,0,0,.392,1.088c.08,0,.16.16.24.32A2.905,2.905,0,0,1,134.414,84.217Zm3.441-27.036a.824.824,0,0,0-.625-.16c-.152-.313-.312-.465-.312-.777a1.669,1.669,0,0,1,.785-.16,1.118,1.118,0,0,1,1.088.16,1.315,1.315,0,0,1,.16.937Zm9.065,5.152a2.275,2.275,0,0,1,.16-.936,1.365,1.365,0,0,1,.7-.624.763.763,0,0,1,.24.624A1.514,1.514,0,0,1,146.92,62.333Zm1.408,23.757a2.629,2.629,0,0,1,1.089-1.409,1.335,1.335,0,0,1,.16.944,1.859,1.859,0,0,1-.937.777C148.328,86.25,148.328,86.09,148.328,86.09Zm6.089,5.313a6.115,6.115,0,0,0-1.712,1.408h-2.192l-.152.16a1.1,1.1,0,0,0-.472.936s0,.152-.08.152c-.544-.152-.856-.312-.856-.624-.16-.312.392-1.1.856-1.72a16.326,16.326,0,0,0,1.016-1.561h1.016a4.7,4.7,0,0,0,1.408-.312,3.22,3.22,0,0,1,1.168-.312h.321a1.626,1.626,0,0,0,.776,1.1A13.085,13.085,0,0,1,154.417,91.4Zm13.291-28.285h-.472a2.932,2.932,0,0,1,1.176-.785c.232.16.384.16.384.32A1.418,1.418,0,0,1,167.708,63.118Zm-9.3-28.909a1.251,1.251,0,0,1,.624.152s.072,0,.072.16l-1.328.152h-.072C157.706,34.521,157.938,34.361,158.41,34.209Zm7.89,7.5a7.177,7.177,0,0,1,2.264,6.409,15.005,15.005,0,0,1-1.8,5.937c.08,0,.16.16.16.16,0,.152-.232.464-.856.776a12.033,12.033,0,0,1-3.673,3.753,10.335,10.335,0,0,1-16.019-6.873C144.1,41.706,158.954,33.584,166.3,41.706Z" style="fill:#00bde1"/><path d="M29.788,77.024a31.328,31.328,0,0,0-2.265,2.192A17.4,17.4,0,0,0,24.4,83.745c12.346-10.466,25.4.936,39.231,5.625l.464.312a8.618,8.618,0,0,0,5.945.312c-.08,0-.16,0-.16-.152-.152-.16,0-.472.232-.784.552-.152.7,0,.7,0,.16.16.312.312.472.312h0a.822.822,0,0,0,.624.16h0a5.71,5.71,0,0,0,1.408-.624c.544-1.248-.24-2.344-.936-3.128a4.333,4.333,0,0,1-.784-1.409h.152l.16-.312v-.152a1.2,1.2,0,0,0,.16-.624,2.392,2.392,0,0,0,1.088-.784,1.684,1.684,0,0,1,.552.472c.232.312.072,1.088-.08,1.56a1.074,1.074,0,0,0-.16.464l-.152.632h.857c.16.153.392.153.784.153h0a3.838,3.838,0,0,1,.624,1.88c0,.152,0,.312.08.312a36.962,36.962,0,0,1,5.7-2.032c-.08-.313-.08-.625-.24-.785v-.312c0-.16-.072-.472-.072-.624a.983.983,0,0,1-.08-.472v-.312c.08-.152.152-.464.232-.624a1.158,1.158,0,0,1,1.016.472,2.32,2.32,0,0,1,.392,1.088v.16a3.28,3.28,0,0,1,0,1.249h0c.152,0,.312-.153.464-.153,6.489-1.256,12.346.465,15,4.689,2.032,3.281,1.72,7.658-.312,11.714l-.072.16a4.837,4.837,0,0,1-.785,1.561,2.524,2.524,0,0,1-.392.624s-.08,0-.08-.152a4.876,4.876,0,0,1-.776,1.248,19.784,19.784,0,0,0,4.377,0c.152,0,.312-.152.464-.312s.392-.312.472-.472h0a.749.749,0,0,0,.08.312,1.1,1.1,0,0,1,.072.472,6.031,6.031,0,0,1,1.64-.152l.08-.16h.161a6.9,6.9,0,0,0,1.72-.312h.312a20.172,20.172,0,0,0,2.576-.784c-.08,0-.08,0-.08-.152-.152-.472.312-1.249.936-2.033a5.535,5.535,0,0,1,.313,1.721c.16,0,.16,0,.312-.16,0-.152.08-.464.08-.777h.552l.152-.16c.472-.472.472-.784.312-1.1h0a1.8,1.8,0,0,1,1.016.16c.08,0,.08,0,.16.152.152,0,.312.16.384.472h0c.784-.472,1.488-1.1,2.192-1.56a1.578,1.578,0,0,1-.784-.632,1.176,1.176,0,0,1-.152-.776h.312a.309.309,0,0,0,.312-.16h.312l.312-.152v-.16a6.032,6.032,0,0,0,0-2.345c.313,0,.625-.152,1.017-.152a4.48,4.48,0,0,1,1.408-.16h.544v-.624c-.152-.784.392-1.56.936-2.5a3.9,3.9,0,0,0,.784-1.408h0a31.692,31.692,0,0,1-14.218-15c-10.474-23.284,19.683-34.854,35.39-46.1a14.853,14.853,0,0,1,7.969-3.753,32.119,32.119,0,0,0-8.2-3.592,91.706,91.706,0,0,0-13.2-2.5C94.959,16.077,66.434,33.424,40.262,53.9a15.52,15.52,0,0,1-8.674,2.808c-7.505-2.032-17.347-7.5-26.877-20.939,0,0,16.715,27.037-4.688,56.89C.023,92.659,9.864,81.561,29.788,77.024ZM96.6,105.317a.58.58,0,0,1-.16-.472h.16v.472Zm13.907-18.6a2.626,2.626,0,0,1,.472.472v.152h-.392c-.312-.152-.544-.312-.544-.624ZM68.779,80.625c-.625-.16-.625-.632-.625-1.409a.983.983,0,0,0,.08-.472c.473-.152,1.1,0,1.169.472A1.355,1.355,0,0,1,68.779,80.625Zm3.752-1.409.08-.624a.521.521,0,0,1,.08.464A.157.157,0,0,1,72.531,79.216Zm5.785,2.809h-.16a3.538,3.538,0,0,0-.392-.776c-.152-.312-.384-.624-.312-.784,0-.152.08-.152.08-.152.864.312.936.776,1.016,1.712ZM86.678,56.4c.072-.152.072-.152.232-.152,0,0,.08,0,.16.152h-.392Zm7.033.785h-.552c.08-.16.16-.16.312-.313.16.153.24.153.312.313Zm2.5-13.131a1.676,1.676,0,0,1-.312-.776,4.111,4.111,0,0,1,.856.464C96.6,43.9,96.439,43.9,96.207,44.05Zm1.8,43.608h-.472c-.08-.16-.08-.32-.152-.32v-.624a2.115,2.115,0,0,0,1.016-.776A4.662,4.662,0,0,1,98.008,87.658Zm.624-2.5h0v-.16h.232c.08.16.08.16,0,.32C98.784,85.153,98.784,85.153,98.632,85.153Zm.776-45.167a1.316,1.316,0,0,1-.072-.937c.856,0,1.408.312,1.56.785.08.152.16.472-.08.624C100.112,40.458,99.568,40.306,99.408,39.986Zm1.1,57.674h-.392c-.072,0-.152-.16-.232-.32-.232-.313-.472-.625-.312-.937h.856A1.749,1.749,0,0,1,100.5,97.66Zm1.488-16.883-.08-.312h.392c.08,0,.08.16.08.312Zm-.552-2.969v-.152a3.154,3.154,0,0,1,.784-.16.427.427,0,0,0,.392-.16h.393a1.1,1.1,0,0,1,.072.472c-.072,0-.072.16-.385.312h-.16a.151.151,0,0,0-.152.16A1.04,1.04,0,0,1,101.44,77.808Zm1.328,5.937c.08,0,.08.16,0,.16,0,.152-.072.152-.072.312l-.16-.16C102.536,83.905,102.536,83.905,102.768,83.745Zm3.361,17.035c-.312-.152-.312-.152-.384-.624a.983.983,0,0,1-.08-.472c.392,0,.856.312.856.632C106.6,100.468,106.369,100.628,106.129,100.78Zm-1.088-18.755c.312.16.624.472.936.632a4.783,4.783,0,0,0,.776.624h.08a.66.66,0,0,1,.24.464.968.968,0,0,0,.624-.152h.384c.08,0,.08.152.08.152q0,.468-.936.936h-.856c-.08-.152,0-.152,0-.312h-.08c-.16.16-.232.16-.312.16a1.51,1.51,0,0,1-1.408-1.248A1.181,1.181,0,0,1,105.041,82.025Zm-2.273,10.314-.072-.152h-.16V91.25h.232c.241.153.553.625.393.777C103.161,92.187,103.009,92.187,102.768,92.339Zm.313-16.4c-.072,0-.152,0-.233.152a2.8,2.8,0,0,0-.776.624c-.784,0-1.256,0-1.488-.312s-.08-.936.08-1.408a10.777,10.777,0,0,0,1.328.472A4.843,4.843,0,0,1,103.081,75.936Zm11.57-29.693h-.313c.073-.16.313-.312.393-.472.152-.152.312-.313.384-.313.552-.152.7,0,.7.161S115.507,46.243,114.651,46.243Zm4.92-4.065a1.237,1.237,0,0,1-.392-.624c-.08-.16,0-.16.08-.312.232,0,.624,0,.624.312A.519.519,0,0,1,119.571,42.178Zm1.1-6.873c-.16-.16-.312-.16-.312-.32a.669.669,0,0,1,.624-.312v.16C120.98,34.985,120.82,35.145,120.668,35.305Zm1.088-3.441c-.312,0-.464-.16-.464-.312s.232-.312.7-.472c.232.16.232.312.232.624A.564.564,0,0,1,121.756,31.864Zm2.272-8.593c.152,0,.232-.16.384-.16h.16a1.474,1.474,0,0,1,.936,1.408,1.072,1.072,0,0,1-.856.936,4.115,4.115,0,0,1-.552-1.72c-.072-.152-.072-.312-.152-.464Zm2.729,4.216s-7.186,1.249-18.123,4.217a2.728,2.728,0,0,1,.232.624,1.31,1.31,0,0,1,0,.784,1.266,1.266,0,0,1-.857.784,8.42,8.42,0,0,1,.152-1.408,1.953,1.953,0,0,0,.16-.784c-17.507,4.849-44.383,14.227-67.2,30.949C41.118,62.653,93.943,16.7,126.757,27.487Z" style="fill:#00bde1"/></svg>