<svg id="e88ea736-1a0a-42e3-95cd-954e6ca8f337" data-name="af5c916e-dab2-4e36-be97-54b40ee3ce6d" xmlns="http://www.w3.org/2000/svg" viewBox="0 0 200 200"><path d="M54.952,187.755c14.424,4.32,30.387,7.908,47.207,7.908,36.707,0,69.4-17.051,90.575-34.768a67.726,67.726,0,0,0-29.364-4.425c-27.933-3.407-36.148-3.407-62.706-3.407-22.791,0-38.884-14.763-50.065-2.727-16.907-1.477-31.253,1.93-42,7.832,1.617,1.477,3.243,2.954,4.948,4.32A41.865,41.865,0,0,1,42.4,154.08c-.77-.11-15.028.227-25.352,10.9,6.74,5,14.424,11.5,22.965,15.137Zm-.992-15.091-.087.111-.341.232a5.149,5.149,0,0,1-3.41.681,1.538,1.538,0,0,1-1.022-1.367h.166a6.041,6.041,0,0,1,.594-.226c.088-.111.262-.227.175-.454a1.1,1.1,0,0,0-.769-1.023c-.254-.227-.341-.227-.341-.454.253,0,.516-.227.856-.337.079-.116.167-.116.167-.227a1.9,1.9,0,0,0,1.363-.227s0-.116.088-.116l.175-.227c.253.227.507.454.769.681C53.366,170.618,54.563,171.531,53.96,172.664Zm91.052,3.221h-2.474a.415.415,0,0,1,.087-.227c1.023-.681,1.364-.454,1.88-.111l.507.338Zm5.979-8.176a.806.806,0,0,1-.594-.226.985.985,0,0,1,.078-1.251.972.972,0,0,1,.682.681A.58.58,0,0,1,150.991,167.709Zm1.539,4.088c-.088,0-.175,0-.175.116a1.18,1.18,0,0,1,.175-1.023h.166C152.871,170.89,152.871,171.46,152.53,171.8Zm12.116-6.361a2.614,2.614,0,0,1-1.276.343,1,1,0,0,1-.77-.454,4.764,4.764,0,0,1,1.023-.569,4.506,4.506,0,0,0,.682-.338,2.05,2.05,0,0,1,.944.454C165.074,165.1,164.821,165.209,164.646,165.436Zm21.689-5.565c.087.117.166.233,0,.343a.882.882,0,0,1-.516-.11.139.139,0,0,1-.079-.233C185.994,159.761,186.16,159.871,186.335,159.871Zm-11.863,3.408a3.231,3.231,0,0,1,2.474-.681c.253,0,.341.227.341.454a1.529,1.529,0,0,1-1.364.227,3.725,3.725,0,0,0-1.539.116S174.384,163.279,174.472,163.279Z" style="fill:#00d25b"/><path d="M132.491,69.751c.4-2.39-1.991-3.984-3.585-4.581a4.881,4.881,0,0,0-3.984-4.383,5.433,5.433,0,0,0-6.773-1.992,5.551,5.551,0,0,0-7.968,1.2c-2.191-.2-5.976.8-5.976,3.984a5.058,5.058,0,0,0-5.976,6.574c-3.983,1.394-3.585,8.167,1.395,7.769,1.2,2.988,7.769,3.386,9.761,1.394a5.053,5.053,0,0,0,2.589,1c-25.7,21.115-26.095.6-29.88-20.916,4.383.4,10.558-.4,14.143-3.386,3.785,1.2,9.96.6,13.745-1.2,13.745.4,15.338-15.936,5.777-20.518,1.992-5.976-5.378-9.561-8.964-10.756-.2-6.176-6.175-9.562-10.558-10.558C92.254,7.6,83.688,6.605,78.11,9.2,72.135,4.414,61.577,5.012,56.8,11.585c-4.382-.4-16.732,1.594-15.537,9.96-6.574-2.191-19.721,5.379-16.135,15.339-5.777,3.187-4.781,16.732,3.785,16.732,4.78,7.171,20.119,5.777,25.7,3.386,3.187,2.789,11.155,2.789,15.139,1.793,2.191,5.379,24.3,44.621,3.187,30.079-6.573-1.593-21.115-1.593-31.672-7.769,2.191.2,5.378,0,7.37-1.2,1.793.6,5.179.8,6.972-.4,7.57,1,10.358-6.773,3.187-8.167.6-2.391-3.187-3.586-4.581-3.984-.4-2.59-3.785-3.586-5.578-3.984-2.191-2.191-6.573-2.391-9.362-1.594-2.988-1.593-8.167-1.593-10.956,1-1.594-.2-7.968.2-7.968,3.586-2.589-.4-9.761,1.394-8.565,5.777-4.582,1-4.582,7.171,2.39,6.772C15.562,81.7,25.124,81.7,27.315,80.109c1.992,1.2,7.769,1.2,9.96,0,8.565,10.16,59.361,12.749,31.872,34.262-18.127,13.745-14.741,25.9-20.119,44.422l-2.182.168c.109.537.205,1.075.3,1.614,7.033-.543,15.43-1.141,23.4-1.2.263-.468.523-.938.8-1.4-.467.008-.93.011-1.4.024-.4-15.139,2.59-32.47,9.363-38.645,10.358-9.76,13.346-15.537,16.533-22.31,12.55-6.573,16.932-14.143,18.525-16.334a6.658,6.658,0,0,0,2.391-1,6.877,6.877,0,0,0,8.167-.2,4.945,4.945,0,0,0,5.179-.6C135.479,79.91,137.671,71.544,132.491,69.751ZM97.5,39.277c.185.081.185.161.185.161.369.322.721.628.721.95,0,0-.352,0-.352.161l-.72-.628C97.336,39.6,97.336,39.438,97.5,39.277ZM60.877,16.571a2.2,2.2,0,0,1,.351-.226,4.507,4.507,0,0,1,.37.547l-.536.628-.554-.467C60.508,16.892,60.693,16.732,60.877,16.571Zm-7.41.08c.185-.161.185-.306.555-.467.72.081,1.071.628,1.441,1.577A6.377,6.377,0,0,0,56.9,19.805,3.263,3.263,0,0,0,56,20.819a6.3,6.3,0,0,0-2.7.789,2.043,2.043,0,0,0-1.441-.081v-.869A4.433,4.433,0,0,1,53.467,16.651ZM42.472,40.388a.54.54,0,0,0,.352-.081v.306l-.167.08Zm1.793,6.276a11.632,11.632,0,0,1-1.441-1.4.679.679,0,0,0,.369-.161A16.928,16.928,0,0,1,44.635,46.2C44.45,46.358,44.45,46.519,44.265,46.664Zm15.522-3.3a12.165,12.165,0,0,0-2.347.483c-1.792.466-2.347.466-2.513,0l-.369-.789a2.094,2.094,0,0,0-.536-1.738,2.6,2.6,0,0,0-2.883,0,4.68,4.68,0,0,0-1.626-1.481,1.335,1.335,0,0,0-.37-1.5,11.18,11.18,0,0,0,3.6-.242c1.459-.225,3.067-.466,3.621,0a4.194,4.194,0,0,1,.167,1.578l-.167.241.167.306a27.239,27.239,0,0,0,2.18,2.043,4.115,4.115,0,0,1,1.072.709Zm2.347,10.766c-.351-.081-.721-.547-1.072-1.336-.185-.306-.369-.628-.554-.933l.185-.081a2.368,2.368,0,0,0,1.256-.627C62.855,51.62,62.855,52.489,62.134,54.131Zm1.626-6.84c-.721-.225-1.072-1.094-1.441-1.641a2.794,2.794,0,0,1,2.162,1.5A1.036,1.036,0,0,1,63.76,47.291Zm3.6-4.071c-.166.145-.351.306-.351.467a1.937,1.937,0,0,1-1.441-.467,1.237,1.237,0,0,1,.185-.708l.166-.242a3.181,3.181,0,0,1,1.441.161c0,.161.37.226.37.226C67.733,42.9,67.363,43.059,67.363,43.22ZM42.509,71.742l.162-.081-.123.544c-.112-.054-.112-.054-.274.027Zm-18.471,5.82-.285.339c-.286.022-.548-.262-.748-.675a.455.455,0,0,0-.051-.468c.185-.387.532-.539.656-.8a2.192,2.192,0,0,0,.57-.647c.435.208.535.573.513,1.165A5.367,5.367,0,0,1,24.038,77.562Zm4.484-4.042c-.6-.444-.428-1.917-.159-3.025.385-.26.546-.024.546-.024C29.172,71.04,28.718,72.536,28.522,73.52Zm2.109,4.074c-.017-.122-.318-.2-.318-.2.487-.433,1.161-.779,1.79-1.232.3.082.584.042.856.128A22.738,22.738,0,0,1,30.631,77.594Zm37.04,50.695c.246-.516.531-.824.716-1.211-.231,1.6-.338,3.232-.457,4.888-.08,1.832-.075,3.516-.256,5.3A25.292,25.292,0,0,1,67.671,128.289Zm-3.336-5.622a4.363,4.363,0,0,1,.293-1.731.249.249,0,0,0,.335-.157c-.023.623-.045,1.215-.045,1.215a3.113,3.113,0,0,1-.6.985A.478.478,0,0,1,64.335,122.667Zm.353,17.2A6.965,6.965,0,0,1,66.17,144.6s-.039-.177-.089-.359l-.139-.542-.593.667s-.062.129-.174.076c0,0-.111-.053-.323.131-.112-.339-.2-.7-.3-1.064A4.623,4.623,0,0,1,64.688,139.867Zm4.526,5.113a2.166,2.166,0,0,1-.084.721,6.753,6.753,0,0,0-1,1.837l-.123.258-.308.645.1.334a2.811,2.811,0,0,1,.015.8l-.682.594a7.8,7.8,0,0,0-.855.67c-.358.463-.8.852-1.163,1.315-.05-.183-.1-.365-.189-.725a1.931,1.931,0,0,1-.09-.645,8.53,8.53,0,0,0,1.506-3.15l.79-1.652a.792.792,0,0,0,.771.051l.558-.335.258-.8c.258-.828.477-2.119.735-3.232.062-.13.112.053.112.053C69.826,142.006,69.533,143.737,69.214,144.98ZM72.4,116.152l-.162.081c-.05.1-.111.233-.223.179a1.585,1.585,0,0,0-.643.485s-.062.129-.163.081l-.049.1-.062.129a7.513,7.513,0,0,0-1.321,2.476,1.133,1.133,0,0,0-.139.5c0,.019,0,.047,0,.065,0,0,0-.026,0-.065a8.07,8.07,0,0,1,.616-2.909,25.393,25.393,0,0,0,.836-2.867,3.534,3.534,0,0,0,1.271,1.559l.1.048Zm.91,1.2c-.335-.16-.436-.208-.313-.752a.786.786,0,0,1,.413.8Zm2.969,3.576-.123.258c-.213-.1-.09-.645-.055-1.263a2.722,2.722,0,0,1,.011-.6l.37-.775.111-.232A11.014,11.014,0,0,1,76.281,120.924Zm2.794-19.565a3.4,3.4,0,0,1,.034-.9c-.023.306.028.774.016,1.086C79.014,101.488,79.014,101.488,79.075,101.359Zm4.9-56.884v.145a4.858,4.858,0,0,1-1.257-1.4v-.161c.351,0,.536.306.887.628.185.161.37.241.37.3Zm7.391,9.269c.185,0,.185,0,.185.081a1.9,1.9,0,0,1,.536.467C91.922,54.131,91.552,53.905,91.367,53.744ZM91.016,44.7l.166-.08c0-.064,0-.145.185-.145a1.213,1.213,0,0,0,.555-.4s0-.081.166-.081v-.144c.554-.709.185-1.256.185-1.578a.342.342,0,0,0-.138-.289c.511.253.686.785,1.043,1.625a6.711,6.711,0,0,0,.721,1.658,10.7,10.7,0,0,0-2.717-.483h-.166Zm-1.09-.08a1.6,1.6,0,0,1-1.072-.306h.166C89.575,44.314,89.741,44.314,89.926,44.62Zm-.351-7.226c0,.322-.185.548-.185.789a33.065,33.065,0,0,0-2.532-2.591c-1.071-.949-2.162-1.8-3.067-2.752A16.691,16.691,0,0,1,89.575,37.394ZM76.215,26.162a5.352,5.352,0,0,0,.72-.547c.185-.322.536-.628.721-.95.185.081.369.161.721.322a2,2,0,0,1,.536.306,1.919,1.919,0,0,0,0,1.963v1.03a2.487,2.487,0,0,0-1.072.161l-.536.306.166.466a17.9,17.9,0,0,0,1.09,1.819c0,.08-.184,0-.184,0-.536-.081-1.257-1.03-1.626-1.738-.185-.145-.352-.306-.352-.386a1.506,1.506,0,0,0,.167-1.175v-.563l-.351-.145a2,2,0,0,1-.536-.4ZM76.4,38.65v.241a6.022,6.022,0,0,0-1.09,2.671,30.338,30.338,0,0,1-2.531-2.043,8.5,8.5,0,0,0,1.275-.548l.535-.466-.535-.483c0-.08-.185-.386-.185-.547-.37-.386-.37-.789-.721-1.094a5.024,5.024,0,0,1,1.09-.242c.351-.08.721-.161,1.072-.241l.721-.226-.351-.627A4.421,4.421,0,0,0,74.4,33.79c-.351-.322-.721-.708-1.257-1.256l.185-.08c.166-.161.166-.322.351-.4a11.32,11.32,0,0,0,2,.949,16.616,16.616,0,0,1,1.792.869,2.842,2.842,0,0,0,.906,3.524c.184.322.536.628.72.95A2.928,2.928,0,0,0,76.4,38.65Zm4.694-9.9s.166.08.351.161l.536.241.37-.483s0-.08.184-.08a.583.583,0,0,0,.351-.145c.37.145.721.306,1.091.467,1.441.627,2.162,1.094,2.162,1.882A10.658,10.658,0,0,1,81.093,28.753Z" style="fill:#00d25b"/><path d="M182.178,88.046c-.993-.4-3.3,1.079-4.2,2.493-1.008,1.492-1.12,3.149-1.816,2.986a15.4,15.4,0,0,0-2.69-.178,16.305,16.305,0,0,0-2.692.137c-.7.153-.786-1.506-1.771-3.013s-3.167-3.024-4.167-2.558c-1,.387-1.114,2.36-.533,4.574a10.645,10.645,0,0,0,2.557,4.44c.4.319.289,1.344.38,2.529s.774,3.084.762,4.663a8.262,8.262,0,0,1-1.629,4.408c-.806,1.178-2.311,2.508-7.395,2.627-7.677.258-10.776,1.576-19.74.8,0,0-8.564-1.013-11.95-1.354s-6.67-1-12.066.776c0,0-2.3.693-4.4,1.545-2,.853-5.3,2.88-2.152,7.719,1.281,1.9,2.068,3.331,2.856,4.521.887,1.27,1.477,2.38.872,3.243-1.109,1.729-3.827,5.26-6.132,6.821-1.8,1.249-4.208,2.967-4.224,5.02a62.727,62.727,0,0,0,.147,6.868,47.948,47.948,0,0,0,1.337,7.588,11.741,11.741,0,0,0,1.772,2.934l3.687.028c.014-1.736-1.578-2.143-2.262-3.885a2.625,2.625,0,0,1-.293-.791,26.347,26.347,0,0,1-.949-6.243c.114-1.973.735-4.889,2.343-6.692,1.71-2.039,4.623-4.938,4.623-4.938a31.7,31.7,0,0,0,3.113-3.133,7.738,7.738,0,0,0,2.018-3.221,4.255,4.255,0,0,1-.828,4.019c-1.105,1.176-1.708,1.8-2.914,3.056s-2.209,2.194-3.315,3.448A3.081,3.081,0,0,0,110,142.2a25.975,25.975,0,0,0,1.571,3.169c.392.872.979,2.3,1.568,3.485,1.081,2.061,1.863,3.961,1.863,3.961.488,1.346,1.873,2.777,3.053,4.918l3.787.029a3.066,3.066,0,0,0-1.379-2.142,9.787,9.787,0,0,1-1.88-1.83,60.686,60.686,0,0,1-2.544-6.176c-.388-1.424-1.654-5.3.156-7.419,1.811-2.2,8.028-7.2,9.333-8.3,3.711-3.129,3.259-9.132,3.259-9.132a9.5,9.5,0,0,1,.859,4.98,5.891,5.891,0,0,1-.918,2.677,16.077,16.077,0,0,1,7.278-.261,85.577,85.577,0,0,0,13.145,1.443s.168,4.106.549,6.4,1.835,7.749,2.018,9.882c.186,1.659.163,4.737.163,4.737l0,.237a8.86,8.86,0,0,0,.282,2.212,18.639,18.639,0,0,0,.974,2.929l3.788.028a5.141,5.141,0,0,0-1.274-2.851,3.039,3.039,0,0,1-.682-2.058v-.157a46.784,46.784,0,0,1,.139-5.13c.31-1.5.321-2.918.352-6.944.054-7.1.563-8.521.563-8.521a8.122,8.122,0,0,1,.611-1.652,8.709,8.709,0,0,1,5.514-4.3,27.969,27.969,0,0,0-2.408,2.192,10.642,10.642,0,0,0-1.311,1.963,7.1,7.1,0,0,0-.817,2.52c-.107,1.025-.517,2.443,1.149,6.166.883,1.9,2.349,5.622,3.527,8,.883,1.9.967,3.954,1.742,6.8.389,1.345,1.481,1.906,2.76,4.047l3.688.028a4.236,4.236,0,0,0-1.281-1.983c-1.088-1.035-1.883-1.357-2.077-2.147a24.57,24.57,0,0,1-1.35-5.931,42.734,42.734,0,0,0-.935-8.058c-.484-1.82-1.76-4.434,1.265-8.989s4.24-7.072,4.57-11.174c0,0,3.413-3.132,3.939-6.838a38.47,38.47,0,0,1,1.742-6.222c.2-.63.41-1.418.615-2.127a22.429,22.429,0,0,1-3.391.211,13.036,13.036,0,0,0,3.4-1.632,2.7,2.7,0,0,0,.808-1.335,15.91,15.91,0,0,1,2.23-4.877,13.458,13.458,0,0,0,2.625-4.4C183.257,90.422,183.272,88.449,182.178,88.046Zm-44.3,38.359c-.409.479-.818.95-1.227,1.429s-.724.788-1.029,1.1c-.2.163-.3.325-.409.325a3.621,3.621,0,0,0-2.046-.479,8.624,8.624,0,0,0,.514-1.43,7.3,7.3,0,0,0,.714-2.7,8.522,8.522,0,0,0,1.028-.634c.2-.162.609-.316,1.228-.8l.2-.154.1-.163a2.681,2.681,0,0,0-.3-1.267l-.21-.162a2.059,2.059,0,0,1,1.637-.155c.619.155.619,1.268.724,2.218a12.43,12.43,0,0,0,.3,2.064C138.7,125.925,138.288,126.088,137.879,126.405Zm4.921-13.014h.409c.514-.317.714-.155,1.427.479.21.162.409.317.829.633h-.21l-.619.48A2.576,2.576,0,0,1,142.8,113.391Zm3.169,16.19a2.142,2.142,0,0,1-1.018-.642,1.434,1.434,0,0,1,.409-1.421.686.686,0,0,1,.609,0C146.284,127.834,146.284,128.622,145.969,129.581Zm17.522-10a4.466,4.466,0,0,0-1.427-.634.9.9,0,0,1-.619-.162,7.6,7.6,0,0,1,2.665,0,2.041,2.041,0,0,1,.923.8A1.768,1.768,0,0,0,163.491,119.581Z" style="fill:#00d25b"/><path d="M179.654,58.612a13.61,13.61,0,0,0-10.2,2.654c-1.936-2.9-6.483-4.362-9.647-3.943a.482.482,0,0,0,0,.964,8.945,8.945,0,0,1,5.282,2.016c1.243,1.081,1.84,2.569,2.86,3.814a1.325,1.325,0,0,0,1.309.346,1.231,1.231,0,0,0,.321-.136,1.481,1.481,0,0,0,.295-.257,1.075,1.075,0,0,0,.174-.119,15.783,15.783,0,0,1,3.755-2.9,1.671,1.671,0,0,1,.282-1.185,1.266,1.266,0,0,1,.721.686,12.213,12.213,0,0,1,4.849-1.08C180.222,59.466,180.189,58.678,179.654,58.612Z" style="fill:#00d25b"/><path d="M154.777,49.4a19.272,19.272,0,0,0-4.961.038,1.159,1.159,0,0,1-.1.141c-.1,0-.206,0-.206.159a1.31,1.31,0,0,1-.052-.247,16.2,16.2,0,0,0-7.543,3.257c-2.44-3.66-8.174-5.5-12.164-4.973a.608.608,0,0,0,0,1.215,11.29,11.29,0,0,1,6.66,2.542,12.792,12.792,0,0,1,2.289,2.919c.71-.35,1.066-.088,1.543.281l.6.463h-1.657a13.908,13.908,0,0,0,.833,1.145,1.661,1.661,0,0,0,1.649.437,1.591,1.591,0,0,0,.405-.171,1.865,1.865,0,0,0,.373-.324,1.445,1.445,0,0,0,.219-.15,16.99,16.99,0,0,1,12.113-5.646A.543.543,0,0,0,154.777,49.4Z" style="fill:#00d25b"/><path d="M186.487,34.62a27.444,27.444,0,0,0-20.571,5.354c-3.9-5.855-13.074-8.8-19.456-7.954a.973.973,0,0,0,0,1.944,18.05,18.05,0,0,1,10.653,4.065c2.5,2.18,3.709,5.18,5.767,7.692a2.664,2.664,0,0,0,2.639.7,2.472,2.472,0,0,0,.648-.274,2.952,2.952,0,0,0,.6-.518,2.328,2.328,0,0,0,.351-.24,30.032,30.032,0,0,1,10.942-7.432,1.825,1.825,0,0,1-.725-.082,3.811,3.811,0,0,0-1.816.16s0-.16.1-.16c.9-.775,2.312-1.246,2.921-.934.3,0,.4.311.4.623-.124.082-.223.132-.325.187a24.518,24.518,0,0,1,7.871-1.392A.869.869,0,0,0,186.487,34.62Zm-22.468,6.218a2.754,2.754,0,0,1-1.507.471,1.171,1.171,0,0,1-.908-.623,5.43,5.43,0,0,1,1.208-.783,5.079,5.079,0,0,0,.8-.464,2.3,2.3,0,0,1,1.114.624C164.525,40.374,164.225,40.526,164.019,40.838Z" style="fill:#00d25b"/></svg>