<svg id="efb0810c-1a94-4cab-bff6-b7fdf8a6852b" data-name="b967e16a-00ba-45be-a2d5-dcea42af4928" xmlns="http://www.w3.org/2000/svg" viewBox="0 0 200 200"><path d="M53.589,138.127c-.074-.2,0-.385.082-.779h.083v.394C53.754,137.93,53.671,137.93,53.589,138.127Zm7.336-19.087s.083,0,.083-.2h.643a3.117,3.117,0,0,0-.321.779.913.913,0,0,1-.24.573.311.311,0,0,1-.247-.188C60.686,119.809,60.843,119.424,60.925,119.04ZM58.911,120.2c.082.2.158,0,.24,0h.4c.082,0,.165.2.165.2v.188h0v.582c-.165,0-.248,0-.33.187-.645-.187-.884-.385-.967-.572,0-.2.165-.2.487-.584Zm0,7.708a3.367,3.367,0,0,1,.81,1.935c-.083,0-.165.187-.165.187h-.321c-.323,0-.488-.187-.722-.572-.083,0-.083,0-.157-.2a2.554,2.554,0,0,0-.082-1.737c0-.187-.165-.572-.083-.769a4.673,4.673,0,0,0,.72,1.153Zm-4.192-11.558a.986.986,0,0,1,1.048-.583h.239c.248.188.405.385.322.583a.768.768,0,0,1-.722.769H54.562c0-.386,0-.771.157-.771Zm-1.776,13.876a6.831,6.831,0,0,0,.722-2.891,1.7,1.7,0,0,0-.239-.967c-.165-.573-.239-.77.157-1.155a3.48,3.48,0,0,1,1.3,2.309c-.247,1.737.8,2.319,1.527,2.892.165,0,.4.2.561.2a7.849,7.849,0,0,0,.973,5.015h0c-.082,0-.165.187-.247.187a4.015,4.015,0,0,1-1.766.77h-.165a3.892,3.892,0,0,1-.165-.957c-.157-1.357-.322-3.084-2.492-3.277l-.323-.2-.165.385-.157-.188A4.1,4.1,0,0,1,52.943,130.221Zm-1.931,3.084h.8c.165,0,.247,0,.33-.187h.239c-.082.385-.165.77-.239,1.154a3.154,3.154,0,0,1-.33,1.357c-.966-.2-1.122-.967-1.122-2.319Zm-.643,1.55c.156.187.322.187.322.385.156.187.156.384,0,.957h-.322c-.083,0-.083-.188-.165-.188-.083-.2-.322-.582-.24-.769s.158-.2.406-.389Zm-2.905-8.676a1.869,1.869,0,0,1,1.135,1.154,1.366,1.366,0,0,1-.322,1.357,2.52,2.52,0,0,1-.809-.779,3.219,3.219,0,0,1,0-1.736Zm-9.592-2.123c-.083,0-.083,0-.083-.2h-.156C37.789,123.858,37.872,123.858,37.872,124.056Z" style="fill:#ffc84f"/><path d="M85.832,80.287h0a.575.575,0,0,1-.569-.385,3.85,3.85,0,0,1,.4-.385,1.112,1.112,0,0,1,1.287.385A4.179,4.179,0,0,1,85.832,80.287Zm3.384-13.108c-.165,0-.247-.188-.321-.385,0-.2.074-.385.239-.385.239,0,.239.187.322.385C89.456,66.991,89.373,66.991,89.216,67.179ZM90.339,88h-.161a.376.376,0,0,1-.322-.384v-.188H90.5a.5.5,0,0,0,.405.188C90.743,87.808,90.59,87.808,90.339,88Zm.891,4.058c-.165,0-.24,0-.322-.2a1.154,1.154,0,0,1,.322-.384c.082,0,.156.2.156.384a.179.179,0,0,1-.152.2Zm6.528-3.86a2.18,2.18,0,0,1-.165-1.54.769.769,0,0,1,.643.385,1.789,1.789,0,0,1-.478,1.155Zm1.287-17.924a1.984,1.984,0,0,1-2.179-.78c-.074-.187.083-.385.248-.572.644-.2.8,0,1.048.385a1.928,1.928,0,0,0,1.048.967Zm7.9,5.2a.75.75,0,0,0-.644-.2,2.317,2.317,0,0,1-.322-.958,1.487,1.487,0,0,1,.81-.2,1,1,0,0,1,1.122.2,1.9,1.9,0,0,1,.165,1.156Zm9.35,6.355a3.318,3.318,0,0,1,.165-1.154,1.529,1.529,0,0,1,.722-.77,1.043,1.043,0,0,1,.248.77,1.673,1.673,0,0,1-1.135,1.154Zm1.453,29.307a3.228,3.228,0,0,1,1.123-1.738,1.93,1.93,0,0,1,.165,1.164,2.047,2.047,0,0,1-.967.959c-.321-.188-.321-.385-.321-.385Zm6.28,6.554a6.7,6.7,0,0,0-1.766,1.737H120l-.156.2a1.452,1.452,0,0,0-.487,1.155s0,.187-.083.187c-.561-.187-.883-.385-.883-.77-.165-.384.405-1.357.883-2.121a20.848,20.848,0,0,0,1.048-1.926h1.048a4.173,4.173,0,0,0,1.452-.385,2.909,2.909,0,0,1,1.2-.385h.331a2.032,2.032,0,0,0,.8,1.357,13.64,13.64,0,0,1-1.131.95ZM137.735,82.8h-.487a3.045,3.045,0,0,1,1.213-.969c.239.2.4.2.4.4A1.362,1.362,0,0,1,137.735,82.8Zm-9.593-35.662a1.124,1.124,0,0,1,.644.187s.074,0,.074.2l-1.369.187h-.075c0-.187.242-.385.728-.572Z" style="fill:#ffc84f"/><path d="M40.938,129.519c0,.173,0,.353,0,.533,0,.905-.4.885-.4,2.39a8.456,8.456,0,0,0,.217,1.457c0,1.518-1.769,1.039-1.769,2.184,0,.565,1.234,1.125,1.234,1.69a6.933,6.933,0,0,0-.429,1.744c0,3.1,2.243,3.655,5.277,3.741.5-1.4-1.269-15.3-2.936-20.6A60,60,0,0,0,40.938,129.519Z" style="fill:#ffc84f"/><path d="M161.56,142.423l-.064-.326a1.111,1.111,0,0,1-.288.008c-.141.191-.277.385-.418.576a1.139,1.139,0,0,0-.038.949c.153-.193.3-.378.451-.572A1.589,1.589,0,0,1,161.56,142.423Z" style="fill:#ffc84f"/><path d="M161.055,150.8l-.026-.089A.08.08,0,0,0,161.055,150.8Z" style="fill:#ffc84f"/><path d="M161,150.477l-.15-.4.178.629a.472.472,0,0,1,.077-.159Z" style="fill:#ffc84f"/><path d="M170.749,178.85l.1-.131Z" style="fill:#ffc84f"/><path d="M170.749,178.85l-.012.015Z" style="fill:#ffc84f"/><path d="M170.852,178.719l.038-.048Z" style="fill:#ffc84f"/><path d="M181.028,168.987l.1.071.048-.265-.2-.134C181.076,168.723,181.028,168.987,181.028,168.987Z" style="fill:#ffc84f"/><path d="M160.839,141.934l.1.071a.555.555,0,0,0,.265.1A157.346,157.346,0,0,0,191.059,66.78l-9.893-.967c-3.883,34.151-19.945,65.972-45.154,90.654-.017.17-.031.347-.067.559l-.1-.07a1.738,1.738,0,0,0-.652.42.342.342,0,0,0,0-.1,165.89,165.89,0,0,1-23.118,18.608c-3.71,2.477-7.583,4.844-11.544,7.055-.278-.155-.558-.305-.835-.461s-.524-.3-.785-.448q-1.374-.786-2.731-1.595l-.658-.393q-1.44-.868-2.857-1.762c-.166-.1-.334-.208-.5-.313q-1.665-1.056-3.294-2.144l-.014-.009a166.4,166.4,0,0,1-17.582-13.595l-.146.141c-.974-.917-1.99-1.9-3.083-3l-7.3,6.27c8.314,8.315,12.988,11.442,22.293,17.663l.006,0c4.6,3.084,9.426,5.982,14.336,8.635.2.109.4.224.6.332h0l.048.027,2.49,1.333,2.489-1.337c5.116-2.747,10.121-5.749,14.874-8.922a172.423,172.423,0,0,0,42.911-40.686c.021-.052.037-.1.064-.157C160.75,142.454,160.79,142.2,160.839,141.934Zm-25.714,22.093a1.045,1.045,0,0,1-1.169-.51l.04-.255a2.134,2.134,0,0,1,1.109-.409l.209.142C135.576,163.455,135.477,163.968,135.125,164.027Zm3.367-9.052a4.866,4.866,0,0,1-1.057.161,3.056,3.056,0,0,1,1.355-.539Zm27.75-21.278.2.134a.365.365,0,0,1-.449-.021C166.138,133.626,166.242,133.7,166.242,133.7Zm-2.2,1.992a.258.258,0,0,1,.351-.06l-.152.194c-.65.438-1.053.745-1.565.4A1.461,1.461,0,0,1,164.046,135.689Zm-1.143-5.713c.257-.123.362-.052.561.083a.541.541,0,0,1-.347.642c-.257.123-.512-.347-.617-.418l-.094-.063C162.559,130.026,162.8,129.905,162.9,129.976Zm-8.909,11.1a1.719,1.719,0,0,0,.094-1.1c.145-.184.239-.12.392-.314a2.036,2.036,0,0,1-.043.848c-.041.255-.339.634-.084,1.1l-.2-.135-.1-.071-.209-.141Zm-6.911,9.55c-.048-.032-.022-.014,0,0Zm-2.552-2.309c.064,0,.132.009.2.014.337-.216.542-.143.909-.423a.7.7,0,0,1-.1.512s-.411-.058-.81-.089c-.033.021-.06.03-.095.056Zm.556,3.872-.314-.213c-.094-.063.059-.257.059-.257a1.964,1.964,0,0,1,1-.48,6.609,6.609,0,0,0,1.261-.6A5.37,5.37,0,0,1,145.087,152.186Zm5.759-.752c-.1-.071-.257.123-.456-.012.048-.265.194-.449.3-.378l.3.2Zm1.367-7.493c-.3.378-.245.7-.4.891.1.071.063.326-.089.52a5.986,5.986,0,0,1-1.428-.387l-.094-.064a.822.822,0,0,1-.451.572l-.512-.347a.31.31,0,0,1-.15-.4c-.105-.071-.064-.326-.215-.725a.329.329,0,0,1-.161-.406l-.407-.277.459.029a.477.477,0,0,1,.456.011,4.2,4.2,0,0,0,1.238-1.184c.3-.378.655-1.013.853-.879l.1.071a2.753,2.753,0,0,1,1.564-.4c.449.021.712.482.977.959.11.654-.293.962-.953,1.392A3.091,3.091,0,0,0,152.213,143.941Zm2.572,2.9a3.1,3.1,0,0,1-1.239-1.42c.048-.265-.046-.329-.046-.329l-.273-.467-.239.12-.1-.071s-.1-.071-.063-.326c-.046-.328.1-.512.6-.756.555-.5,1.156-.673.9-1.727l.1.071.606.411c.271,1.061.126,1.245-.325,1.817a1.774,1.774,0,0,0-.446,1.155l-.145.184.209.142c.046.329.5.34.815.553a1.255,1.255,0,0,1,.559.676C155.346,146.927,155.088,147.05,154.785,146.845Zm1.056-8.3c-.105-.071-.105-.071.145-.185l.2.135C156.08,138.426,155.935,138.61,155.841,138.547Zm3.445.594a3.7,3.7,0,0,0,1-.479,6.272,6.272,0,0,0-1.345,1.706l-.041.255-.209-.142.041-.255-.3-.205-.1-.071C158.428,139.437,158.685,139.314,159.286,139.141Zm.633,2.169-.3-.205-.193.449a1.4,1.4,0,0,0-.346.642,1.727,1.727,0,0,1-.253.707c-.1-.071-.15-.4-.255-.47-.214-.725-.219-1.309.038-1.432l.146-.184.456.011a5.636,5.636,0,0,0,1.154-.08c.362-.052.507-.236.706-.1l.1.071c.1.071-.04.255-.04.255l-.153.194A.965.965,0,0,1,159.919,141.31Z" style="fill:#ffc84f"/><path d="M64.385,31.026c.926-.253,1.852-.506,2.773-.773.8-.232,1.592-.476,2.387-.718.912-.278,1.825-.556,2.733-.848.794-.255,1.584-.521,2.374-.787.9-.3,1.8-.606,2.694-.922.787-.278,1.569-.566,2.352-.854q1.335-.49,2.662-1c.777-.3,1.551-.608,2.323-.918q1.32-.53,2.633-1.077,1.148-.481,2.289-.981,1.3-.567,2.6-1.154,1.129-.513,2.253-1.043,1.291-.608,2.573-1.234,1.109-.543,2.208-1.1c.409-.207.823-.4,1.229-.613A186.1,186.1,0,0,0,154.7,35.057l1.8-9.07A175.523,175.523,0,0,1,102.959,7.711l-2.49-1.335-2.49,1.335A178.37,178.37,0,0,1,14.764,28.584l-4.949.023v4.416A155.39,155.39,0,0,0,8.95,49.278q0,2.028.055,4.077c.111,4.094.389,8.233.829,12.353l0,.024c1.853,17.389,3.779,27.508,10.3,41.608.395.9.763,1.708,1.148,2.42.065.135.124.265.19.4l.031-.013a4.739,4.739,0,0,0,4.5,2.728v-4.611l4.534-1.9c-.408-.84-.793-1.657-1.168-2.465-2.262-5.123-7.456-18.659-9.639-39.1A146.919,146.919,0,0,1,18.9,49.278c0-3.8.156-7.674.465-11.546q2.711-.077,5.415-.231c.59-.034,1.177-.085,1.765-.124,1.213-.08,2.426-.157,3.636-.26.7-.06,1.4-.139,2.1-.206,1.092-.105,2.185-.2,3.274-.329.753-.086,1.5-.19,2.254-.284,1.034-.13,2.068-.255,3.1-.4.779-.111,1.555-.24,2.333-.36,1-.154,1.995-.3,2.989-.474.794-.136,1.584-.289,2.375-.434.974-.18,1.947-.355,2.917-.549.8-.16,1.594-.336,2.39-.506.956-.2,1.912-.405,2.864-.624.8-.184,1.6-.383,2.4-.577.939-.229,1.879-.456,2.815-.7C62.79,31.466,63.587,31.245,64.385,31.026Z" style="fill:#ffc84f"/><path d="M100.832,55.985l0-.015a1.649,1.649,0,0,0,.3.174c.04-.181.085-.37.133-.562-.2.1-.5.109-.691.217Z" style="fill:#ffc84f"/><path d="M118.469,46.319l0-.017a.477.477,0,0,0,.107.065c-.062-.213-.13-.427-.2-.64-.007.006-.018.009-.023.015A.382.382,0,0,0,118.469,46.319Z" style="fill:#ffc84f"/><path d="M114.268,41.262a1.039,1.039,0,0,0,.446-.1A1.269,1.269,0,0,0,114.268,41.262Z" style="fill:#ffc84f"/><path d="M185.053,40.064c-2.627-3.5-7.6-9.645-12.7-9.538-8.241.166-12.216,6.077-12.523,15.043-.234,6.77,3.256,13.186,3.524,18.372.018.352.018.669.01.97a.674.674,0,0,1,.238-.086l-.021-.017a.647.647,0,0,1,.844.365c.081.265-.171.634-.768,1.093a.9.9,0,0,1-.382-.306c-.375,2.33-1.788,2.628-3.177,2.973-3.162.792-5.57-2.982-5.938-5.319-.458-2.862-1.523-6.5-2.772-7.288-7.376-4.7-7.856-11.323-14.246-14.225-.97-3.7-3.323-6.27-6.568-6.55-1.606-.146-2.576.666-3.875,1.445a7.339,7.339,0,0,0-3.457-.733,10.033,10.033,0,0,0-7.829,4.334,1.694,1.694,0,0,1-.7.565c1.413-.087,2.859,2.2,3.662,4.565.136-.129.445-.143.933-.025.055.293-.071.44-.329.741a.544.544,0,0,1-.4-.076c.113.391.208.779.279,1.152-.812-2.169-3.417-3.527-5.231-2.6-4.323,2.2-7.553-4.365-11.67,8.257-.286.9-.51,1.69-.686,2.405l.017-.005a1.384,1.384,0,0,1,.569-.074c.572.181.565.416.432.572a1.07,1.07,0,0,1-1.151.069c-1.308,5.84.93,5.744.027,9.734a6.223,6.223,0,0,0-.161,2.5c0,7.8,12.987,16.12,19.108,18.9.524.47,3.113-.8,2.353-3.355-1.486-4.782-6.044-3.085-1.989-10.93,2.319-4.435,2.674-6.909,2.674-8.541,0-2.872-.472-3.6-.1-6.209.066,1.7.844,2.3,1.583,3.481,3.265,5.115-3.129,13.389-3.529,16.355-.13.959,3.051,2.8,3.31,3.208,3.49,5.577-2.566,8.677-5.072,7.808C93.225,78.962,97.35,63.8,97.35,63.8c-.886-3.59-.635-4.879-.468-5.9,3.513-18.615,14.16-15.213,17.386-16.635-10.433-.459-20.252-5.591-30.439-6.2-6.378-.386-7.17,1.69-14.107,3.84-2.537.786-3.964-.619-9.886,1.618C50.224,44.14,40.528,50.523,35.324,61.064A5.688,5.688,0,0,1,36,60.18a1.615,1.615,0,0,0,.455-.409.766.766,0,0,1,.554,1.151,2.063,2.063,0,0,1-1.67.991.691.691,0,0,1-.073-.722A38.935,38.935,0,0,0,31.45,77.6a50.984,50.984,0,0,0,1.823,15.855c.357,1.152.881,1.944,1.255,2.982.089.244.164.493.233.744-.059,1.283-.119,3.11-.046,4.048.119,1.535.119,7.854.119,8.889a18.215,18.215,0,0,1-.076,4.641c-.4,1.642-.821,4.641-1.269,6.283s-1.346,3.142-1.615,4.035-1.466,5.533.449,8.282a1.433,1.433,0,0,0,1.405-.25c.748-.554,3.26-5.676,2.721-10.1a48.44,48.44,0,0,1,.718-5.534c.389-1.392.807-4.141.927-4.784s-.11-4.59-.015-5.783a10.963,10.963,0,0,0,0-1.416c.534,1.136,1.075,2.271,1.618,3.422.351.746.708,1.438,1.065,2.263s.278,1.791.68,2.71c.334.765,1.121,1.244,1.478,2.123.758,1.864,1.432,3.727,2.023,5.6.067.206.134.412.2.619A72.471,72.471,0,0,1,48.3,141.894c.011.472.016.925,0,1.371,0,.093-.006.186-.012.279a14.157,14.157,0,0,1-.172,1.877,11.123,11.123,0,0,0-.369,2.17,2.663,2.663,0,0,0,.826,2.177c.49.493,1.243.366,1.979.639a13.615,13.615,0,0,0,2.621,1.158c.652.08,1.561-.372,2.113-.359.742.02,1.84.453,2.308.453s.932-.06,1-.06a3.1,3.1,0,0,0,1.706-.533,1.462,1.462,0,0,1,1.283-.153c.474.113.719.359,1.249.266a4.2,4.2,0,0,0,3.54-2.815,3.431,3.431,0,0,0-.752-2.563,4.482,4.482,0,0,1-.709-1.451c-.423-1.292-.34-2.044-1.706-2.936-.34-.226-1.5-2.536-1.265-3.494a3.554,3.554,0,0,0,0-.473,8.206,8.206,0,0,1,.63-2.2c.05-.879-.876-1.764-.92-2.157-.006-.047-.006-.08-.011-.107-.006-.253.005-.419.005-.612-.039-3.089-.346-6.41-.362-9.412a20.988,20.988,0,0,1,.384-3.621c-.011-.706-.251-1.425-.239-2.15.016-1.125.423-2.217.479-3.282.017-.333-.033-.679-.017-.892a1.828,1.828,0,0,1,.452-1.165.747.747,0,0,1,.647-.379c.937.053,1.879.08,2.816.08,2.313-.007,3.308-.208,5.622-.221-1.962-7.422-4.765-19.887-.008-19.089-.133,11.029.915,12.267,3.92,20.541,1.695,4.879,3.719,10.191,3.424,15.4-.641,11.25-6.423,5.785-7.344,14.951a3.538,3.538,0,0,0,0,.406v.033c0-.007,0-.027-.006-.027-.435.959-.825.726-.691,2.257.184,2.117.836,2.862,2.827,4.952.435.46,2.33,4.533,4.968,3.455a15.585,15.585,0,0,1,2.113-.32,8.381,8.381,0,0,0,5.286-2.942,11.131,11.131,0,0,0,1.723-3.295c.925-2.4,1.951-2.9,3.435-5,1.21-1.724,2.063-2.5,2.074-5.811.011-2.143-.6-4.213-.5-8.094.128-4.866,1.6-14.038,1.644-19.716,13.483-.9,21.428-7.981,24.133-11.469,3.4,3.785-6.256,8.753-10.316,11.289.212.912.407,1.837.569,2.769.2,1.1.184,2.2.312,3.315a69.718,69.718,0,0,1,.608,7.316c.006,1.577.106,3.128,0,4.692-.111,1.731-.814,4.087-1.015,5.678-.384,3.016-.591,5.625-1.171,8.414-.145.712-.546,1.331-.663,1.81a23.939,23.939,0,0,0-.513,3.142,13.856,13.856,0,0,1-.653,2.45,3.288,3.288,0,0,0,.82,3.288c.006.007.011.007.022.013.641.413,1.166.187,1.913.426a15.506,15.506,0,0,0,2.47,1.105,25.468,25.468,0,0,0,2.6-.133c.5.014,1.138.36,1.517.366.585.014,1.277-.006,1.684-.02a14.984,14.984,0,0,0,2.676-.612c.759-.14,1.483.073,2.03-.2,1.405-.692,2.492-1.684,2.4-3.534-.156-3.1-2.225-4.7-2.532-7.981a32.645,32.645,0,0,1,.447-3.608c.095-.6.886-2.277,1.037-3.408.117-.832-.184-2.363-.039-3.481.273-2.071.457-4.919.786-6.936.217-1.358.9-3.561,1.093-4.533,1.037-5.186,3.173-14.4,3.39-18.365.29-5.412-.508-5.8-.4-10.218,2.253,2.969,8.386,2.936,10.544,2.942,3.117.02,3.624,2.19,5.52,1.731,2.325-.566,1.338-4.593,1.36-5.019.026-.511.164-2.217.256-3.321,2.042,3.259,6.346,7.32,14.477,7.32a10.6,10.6,0,0,0,4.395-1.4,16.006,16.006,0,0,0,4.207.477c2.394,0,4.95-.381,6.053-1.361a1.873,1.873,0,0,0,.671-1.43c0-2.048-1.716-2.248-3.7-2.479a13.42,13.42,0,0,1-5.207-1.4c5.171-2.649,8.244-8.644,8.666-16.288a18.566,18.566,0,0,0-.223-3.341c-.936-7.056-3.379-12.82-4.594-19.969-.4-2.3.474-3.735,2.186-4.4,4.722-1.837,5.453,7.834,8.062,8.407,3.145.685,3.212-3.874,5.615-3.987,1.3-.06,1.846,1.218,2.855.938.73-.2,1.8.014,1.182-2.023C189.474,44.863,186.842,42.46,185.053,40.064ZM162.2,47.5c-.338.089-.91.24-1.077-.3A.962.962,0,0,1,161.263,46l-.017-.019a2.483,2.483,0,0,1,.906.937C162.355,47.169,162.238,47.2,162.2,47.5Zm1.007,12.116-.086-.279a1.8,1.8,0,0,1,.223-.926l-.021-.017c.319.217.541.159.626.438A.921.921,0,0,1,163.21,59.612Zm-54.841-5.465c.067-.2.132-.154.322-.254.188.138.5.371.246.673a.76.76,0,0,1-.764.4l0,.016A1.54,1.54,0,0,1,108.369,54.147Zm4.092,17.189c-1.333.905-1.149,3.055-1.154,3.062a.927.927,0,0,1-1.338-.679c-1.684-5.3-3.719-5.591-4.656-9.026a7.123,7.123,0,0,1,1.812-6.976,1.848,1.848,0,0,1,1.2-1.251c.535-.213,2.832-.866,3.139.246s-2.264,1.231-1.584,3.707c.341,1.232,1.244,1.172,1.69,2.769.658,2.417-1.126,3.162-.859,4.154s1.734,1.265,2.1,2.6A1.244,1.244,0,0,1,112.461,71.336Zm2.925-22.609a1.458,1.458,0,0,1-.64.252l0,.018c0-.25-.12-.34.013-.495a.7.7,0,0,1,.762.07Zm-78,53.583a.823.823,0,0,1,.261-.551l.129.095Zm2.412-39.587a.2.2,0,0,1-.257.063l-.005,0,.581-.555A.787.787,0,0,1,39.794,62.723Zm2.275,6.351-.187-.138-.13-.1a4.7,4.7,0,0,0,.326-.983c.135-.392.206-.831.4-.943.126-.147.191-.1.191-.1C43.1,67.631,42.779,68.122,42.069,69.074Zm4.8,28.158v.015l-.316-.233c-.058-.043.009-.245.077-.447.072-.441.136-.885.523-1.091l.692.509A2.773,2.773,0,0,1,46.867,97.232Zm2.665,6.159c-.06.181-.379.2-.7.2l0,.013c-.126-.333-.126-.333.206-.831a1.5,1.5,0,0,1,.326-.5A.84.84,0,0,1,49.532,103.391Zm4.15-10.015c-.137.15-.26.06-.578.063l-.005.013,0-.013h0l.063-.177-.129-.095.782-.914.188.138C54.076,92.682,53.937,93.324,53.682,93.376Zm-.553-7.289v0l-.381-.28c.067-.2.2-.357.142-.4l.516-.6a2.514,2.514,0,0,0,1.462-.145A7.6,7.6,0,0,1,53.129,86.087Zm2.626-1.747c.072-.21.072-.213-.047-.3l-.008.009,0-.011,0,0,.125-.146.187.138C55.952,84.233,55.952,84.233,55.755,84.34Zm4.322.964c-.126.147-.184.1-.316.258l0-.249c.127-.16.127-.16.447-.177l0,.013C60.274,85.2,60.142,85.351,60.077,85.3Zm2.154-3.833.317.233c.065.048-.068.2-.193.349l-.317-.233ZM64,93.346l-.126.147-.317-.233a.821.821,0,0,1,.077-.927l.375.276A2.763,2.763,0,0,1,64,93.346Zm.571-4.99a1.767,1.767,0,0,1-1.531.348l-.691-.509c.061-.195.126-.147.258-.3l-.065-.047c-.261.059-.319.016-.384-.031a1.544,1.544,0,0,1-.1-2.043,1.824,1.824,0,0,1,1.422-.946l0,.013c.12.34.114.827.234,1.167a4.7,4.7,0,0,0,.11,1.064l.065.048a.866.866,0,0,1-.19.591.869.869,0,0,0,.63.224l.31.228C64.692,88.209,64.566,88.356,64.566,88.356Zm.808-8.757c-.058-.043-.191.112-.569.073l-.129-.095a.19.19,0,0,0-.247.054l-.009.01a.911.911,0,0,1-.371-1.018h0l0-.013v.012l.125-.146a2.751,2.751,0,0,1,.766.311.424.424,0,0,0,.449.079l.317.233A1.693,1.693,0,0,1,65.374,79.6Zm1.546-1.805c-.058-.043-.123-.091-.314.008a3.423,3.423,0,0,0-1.143.141c-.633-.466-1.015-.746-.944-1.186s.71-.952,1.23-1.313a8.621,8.621,0,0,0,.682,1.246,3.991,3.991,0,0,1,.493,1.088Zm3.233-28.411-.317-.233c.184-.1.184-.1.313-.009C70.149,49.141,70.214,49.189,70.153,49.383Zm4.78,4.262c0,.243.067.291-.007.488l-.058-.043-.446-.328C74.619,53.655,74.684,53.7,74.933,53.645ZM73.542,69.223c-.263-.132-.2-.563-.112-.991l-.02-.007c.553-.072.553-.072,1.233.516a2.367,2.367,0,0,1,.688.58A1.487,1.487,0,0,1,73.542,69.223Zm5.781-15.266-.6-.653a1.355,1.355,0,0,1,.781.508Zm4.56,13.484-.024,0,.454-.356c.083-.066.378.083.672.232.664.223,1.336.437,1.545,1.014l-.991.777A4.171,4.171,0,0,1,83.883,67.441Zm2.239,24.227a5.062,5.062,0,0,1-1.142-.225l-.192-.21.453-.356a1.453,1.453,0,0,1,1.418.37Zm1.629-48.777v-.007h0a2.345,2.345,0,0,1,.388-.929,3.593,3.593,0,0,1,.308.958c-.256.06-.386-.035-.7-.029Zm1.594,35.486c-.472.007-1.429-.363-1.436-.719-.193-.227-.019-.365.068-.791l-.018-.009.019.006v0l.257.136.185-.146,1.2,1.31Zm4.349-37.5,0-.011v0a2.065,2.065,0,0,1,.712-.939,1.329,1.329,0,0,1,.611,1.686c-.061.194-.261.551-.581.555-.563-.429-.876-.9-.742-1.3ZM98.353,93.2c-.563.062-1.318-.087-1.882-.025a8.562,8.562,0,0,0-1.685-.16l-.093.073a1.482,1.482,0,0,1-.864-.424,1.124,1.124,0,0,0-.53.776l-.444.349c-.093.072-.285-.138-.285-.138q-.591-.648-.1-2.145l.991-.777c.285.138.192.211.394.432l.093-.072c-.017-.367.066-.432.159-.505a2.742,2.742,0,0,1,3.2.449A2.414,2.414,0,0,1,98.372,93.2Zm.477-4.437-.019-.006c-.093.072-.3-.149-.2-.222-.192-.21-.109-.276-.311-.5l.387.076C98.9,88.326,98.9,88.326,98.83,88.758Zm2.277-7a10.41,10.41,0,0,1-1.71-2.734l-.008,0,.546-.428c.3.149.5.37.58.305l.788.864A2.985,2.985,0,0,0,101.107,81.756Zm.65,1.722c-.294-.149-.294-.149-.4-.443.307.157.311.157.482.023l-.011-.012.015.009,0,0,.191.209Zm1.733,9.392c-.093.073-.3-.149-.487-.359l.454-.356.486.359Zm3.842,4.037a.528.528,0,0,0-.252.577l-.455.356a2.631,2.631,0,0,1-.679-.587c.083-.066-.119-.287.051-.782l.186-.145a.235.235,0,0,0-.013-.345l-.014-.014a1.592,1.592,0,0,1,1.69-.2h0l.019.006-.018-.005.191.21A3.6,3.6,0,0,1,107.332,96.907Zm2.83,2.6a7.021,7.021,0,0,1-1.833.346l-.023-.011c.083-.065.176-.138.078-.422a4.016,4.016,0,0,0,.11-1.567c.907-.712,1.453-1.14,2.116-.919s1.274,1.223,1.685,2.021A15.121,15.121,0,0,0,110.162,99.5ZM162.8,77.1a8.891,8.891,0,0,1,1.727,2.786c.186.237.272.516.47.75l-.117.031c-.221.058-.252.368-.474.427l-.233.061a2.871,2.871,0,0,1-2.119-2.094A1.762,1.762,0,0,1,162.8,77.1Zm-35.22-35.643a1.409,1.409,0,0,1-1.466.395,5.968,5.968,0,0,1,.977-1.99c.068-.189.2-.344.261-.538l.065.047c.123.091.32-.016.442.074l.13.095A1.782,1.782,0,0,1,127.577,41.454Zm4.79,29.151c-1.394.352-2.063-.225-3.337-1.448l.268-.21.185-.146a8.114,8.114,0,0,0,1.434.719c.57.294,1.232.515,1.351.8C132.46,70.532,132.367,70.605,132.367,70.605Zm12.819-7.861a5.764,5.764,0,0,1-.289,1.346,2.47,2.47,0,0,0,.211.248,1.4,1.4,0,0,1-.527.522,7.722,7.722,0,0,1-3.282,3.3,7.862,7.862,0,0,1-2.579.812c-3.656.5-7.139-1.416-7.779-4.284-1.5-5.282,8.056-9.306,12.831-5.14A2.978,2.978,0,0,1,145.186,62.744Zm14.463,29.967a14.429,14.429,0,0,1-9.34-2.975c-3.686-2.68-4.725-5.279-4.593-6.469.118-1.064,1.894-1.7,3.754-.929a5.3,5.3,0,0,1,1.806,1.332,17.366,17.366,0,0,0,10.947,5.346C168.932,89.611,161.905,92.711,159.649,92.711Zm11.13-3.23c1.985.231,2.821.255,2.821,1.059s-1.807,1.207-4.425,1.207a24.719,24.719,0,0,1-3.56-.232,2.748,2.748,0,0,0,.578-1.656c0-1.555-1.354-1.857-3.271-2.065a13.329,13.329,0,0,0,1.533-.436A13.408,13.408,0,0,0,170.779,89.481Zm-4.4-51.625c-.14.324-.287.666-.392.694-.723.478-1.02.27-1.107-.011s.132-1.188,1.379-1.518L166.24,37l.456-.121C166.675,37.189,166.407,37.547,166.376,37.856Z" style="fill:#ffc84f"/><path d="M142.1,62.229a1.217,1.217,0,0,1,.96.013,2.806,2.806,0,0,0-.9-1.456c-3.178-3.031-9.535,0-8.557,3.908a3.678,3.678,0,0,0,.718,1.59,4.719,4.719,0,0,0,5.153,1.441.188.188,0,0,1,.055-.135l.007-.006.076.1a4.536,4.536,0,0,0,.834-.395,5.48,5.48,0,0,0,2.417-2.85A2.553,2.553,0,0,1,142.1,62.229Zm-2.964,2.3c-.865,0-3.305-.9-3.305-1.192,0-.046.006-.891.022-.931.162-.406,1.831-1.032,3.125-1.032a4.431,4.431,0,0,1,2.9,2.11C141.881,64.359,139.874,64.526,139.138,64.526Z" style="fill:#ffc84f"/><path d="M139.557,67.951a1.227,1.227,0,0,0,.678.569l-.619-.833c-.045.017-.092.023-.138.038A.283.283,0,0,0,139.557,67.951Z" style="fill:#ffc84f"/><path d="M143.062,62.242a2.579,2.579,0,0,1,.08.931,4.811,4.811,0,0,1-.275,1.269,3.205,3.205,0,0,0,.292.3,1.187,1.187,0,0,0,1.422.115,6.02,6.02,0,0,0,.316-.77,2.159,2.159,0,0,1-.292-.478A5.451,5.451,0,0,0,143.062,62.242Z" style="fill:#ffc84f"/><polygon points="194.309 33.735 194.315 33.742 194.317 33.741 194.309 33.735" style="fill:#ffc84f"/><path d="M162.988,65.267a2.386,2.386,0,0,0,.29.693,8.145,8.145,0,0,0,.089-1.049A.729.729,0,0,0,162.988,65.267Z" style="fill:#ffc84f"/></svg>