<?xml version="1.0" encoding="UTF-8"?><svg id="a4c4bf2c-0d88-4a09-8f1d-dbc7cdab338f" xmlns="http://www.w3.org/2000/svg" viewBox="0 0 171.38326 160.64925"><path d="M65.40007,31.30125H20.16626l-14.38608,27.78306h36.82783l22.79206-27.78306ZM49.67285,35.50284c.97886.69841,1.9826.79732,2.77852.79732.46967,0,.94678-.04196,1.42389-.08415.44503-.03824.89239-.07776,1.33498-.07776.30649,0,.6131.01848.9147.07531-.07915.03963-.17062.07915-.25965.12239-.90971.44248-1.80454.91459-2.67961,1.41901-.29661.17178-.57102.38436-.93702.67121l-.26198.20142-.33624-.39308c-.74153-.86647-1.45341-1.69586-2.12335-2.5499.04696-.06055.10135-.12611.14575-.18178ZM44.39268,50.30792c.13343,0,.37576.13843.57102.25093.01232.00616-.79604,1.74142-.79604,1.74142-.08903-.18282-.16074-.33857-.15818-.40912.01244-.20886-.01232-.43876-.03952-.67098-.09159-.76396-.05195-.84927.42272-.91226ZM21.54367,55.53498c-.49454-.12855-.47967-.27929-.3388-.95294.07415-.351.16074-.74896.06439-1.13333-.09403-.37332-.09159-.65017.00976-.77756.06671-.08531.27697-.22862.93202-.22862.20026,0,.41784.01232.65273.0358.01964.02848.03696.05683.05672.08775.1855.28929.43759.68481.55126,1.08405-.09391.33624-1.45353,1.73038-1.92808,1.88485ZM34.59476,47.56195c-.39738-.24745-.83346-.40575-.82486-.53418.03185-.47758.21002-.9455.33311-1.41704.23745.13552.66807.25977.67702.40877.02789.47328-.10135.95596-.18527,1.54244ZM36.14104,37.37165c-.24721.36356-.66993.66761-1.15704,1.02105-.10135.07287-.20514.14703-.31137.2249-.04463-.07287-.08915-.14203-.1311-.21002-.10635-.1719-.2521-.40668-.27185-.48583.30893-.53894.78604-1.18656,1.31511-1.65751.04696.01116.12355.00128.23489.00128.12111,0,.23478.01104.32137.02348.12855.60438.08392.95794,0,1.08265Z" style="fill:tomato; stroke-width:0px;"/><path d="M139.67463,31.77138c.10147.05811.2077.11983.32137.18422l-.56846.47572c-.81824.69225-1.38182,1.1668-1.94808,1.57231-.15574-.10135-.35345-.26453-.4054-.34973.04207-.45247.1311-1.3065.48711-2.00375.05811-.11146.28336-.25721.51384-.34891h-25.71156c.12181.07543.23117.13575.366.22292.15086.09763.30905.20026.47711.30533l-.2299.21746c-.71433.68725-1.34474,1.29174-2.00724,1.82069-.29417-.25337-.77372-.73664-.94179-1.07045-.08159-.16562-.01-.59822.28417-1.07521.0981-.1583.21258-.29591.33043-.42074h-7.06751l22.79206,27.78306h36.79029l-14.59447-27.78306h-9.87427c.29092.09228.59357.24326.9863.47014ZM115.27074,40.39134l.06183-.12239c.0494.18166.08647.35844.09891.5315l-.16074-.40912ZM124.68685,35.97635c-.01987.01848-.03719.03696-.05695.05556,0,0-.00244-.00116-.00244-.00256-.23489-.24838-.47967-.50547-.52662-.71793-.05928-.26221-.00988-.59589.06439-1.00873.4004.46467.72665.84543.93435,1.23119-.10135.12727-.28917.31753-.41272.44248ZM142.92549,46.83727c.70933-.42899,1.60172-.63913,2.47435-.80731.12866.14842.3166.45375.34612.62681.08159.43492.06439.90227.04707,1.39542l-.01743.65261c.08171.29905.1533.55986.21514.78976-.13099.13726-.18538.33752-.21258.48827-.01232-.00244-.13343.00256-.1755.00256l-.03708-.00256-.45735-.27069c-.46723-.26081-1.33242-.74525-1.47085-.94795.17794-.47223-.32381-.95434-.68969-1.30778-.11623-.11123-.30905-.29533-.34357-.38192.01476-.00116.08392-.09275.32137-.23722Z" style="fill:tomato; stroke-width:0px;"/><path d="M94.53695,114.28503h-17.964v15.03613c.02859.00058.05335.00779.08217.00779.13354,0,.26941-.00616.4104-.01732.08147.00616.34113.18166.52895.31021.06683.04451.13599.09147.2077.1397-.08891.11623-.17806.2299-.26209.33996-.33613.4391-.63867.8008-.96712,1.0443v13.52542h17.964v-30.38619Z" style="fill:tomato; stroke-width:0px;"/><path d="M127.58543,144.67122h29.50078v-24.96003c-.10763-.043-.21967-.08589-.32485-.1282-.06915-.07415-.22002-.53522-.18282-.73176.03324-.05579.25477-.19863.50768-.31253v-51.76308h-29.50078v77.89561ZM143.92667,138.89336c-.005-.005-.2027-.21514-.28185-.30905.2299-.41528.52651-.80847.84044-1.22119l.49687.66981-1.05545.86043ZM155.41173,85.16233c.04196.06055.07659.11867.08392.15086.02975.46839-.06416.62425-.10611.66865-.06439.06799-.2077.10007-.43771.10007-.14831,0-.30161-.01232-.4548-.02476-.13343-.00976-.26697-.01976-.39552-.02464l1.31022-.87019ZM150.06914,72.49397c.12994.23513.25988.47037.38506.69713l-.38506.38506c-.12018-.24047-.28162-.47176-.33834-.72642-.01976-.08903.21816-.23548.33834-.35577ZM150.22535,123.51308l.38506.38506c-.24059.12029-.472.28162-.72665.33834-.08891.01987-.23548-.21804-.35577-.33834.23524-.12994.47037-.25977.69736-.38506ZM149.30704,99.59037c.08392.58648.21328,1.06917.18538,1.54244-.00872.149-.43945.27325-.67702.40877-.1232-.47153-.30126-.93946-.33299-1.41704-.00872-.12843.42737-.28662.82463-.53418ZM138.43775,84.0913v-3.84571h7.69142v9.00071h-7.69142v-5.155ZM138.43775,105.0686v-3.84571h7.69142v9.00071h-7.69142v-5.155ZM144.91158,117.89631c-.56323-.04556-1.03918-.06299-1.50095-.15365-.04649-.00918-.02476-.67411-.0036-.67586.47176-.04091.95027-.0537,1.41913.00081.05067.00593.04998.45607.08543.8287ZM138.43775,126.04589v-3.84571h7.69142v9.00071h-7.69142v-5.155ZM133.20046,77.35562c.0494.02964-.14831.11135-.14831.11135l-.01732-.0408c.06671-.03475.13343-.06555.16562-.07055Z" style="fill:tomato; stroke-width:0px;"/><path d="M48.81115,144.67122h20.06898v-34.23283c0-2.11998,1.7183-3.84571,3.84571-3.84571h25.65612c2.11986,0,3.84559,1.7183,3.84559,3.84571v10.5578c.29324-.26314.61158-.44666,1.00199-.44666.13587,0,.28417.01976.43504.05939.21514.05556.42272.13471.62786.22118-.04196.03824-.08159.07043-.12111.09519-.62379.38029-1.2757.74792-1.94378,1.12682v22.61911h17.66634l.00035-17.58405c-.01453-.01023-.05184-.00628-.06265-.01883-.0716-.07915-.1755-.31149-.09135-.97282.02464-.20026.07415-.3968.12855-.59206l.02545.02162.00035-23.74314c-.11297.08461-.22629.17271-.33485.21374-.14087-.11611-.38564-.42028-.53883-.61182-.01162-.01511.76663-.3202.87368-.36193l.0007-37.73486-31.69642-38.64317V3.84559c0-2.11986-1.72573-3.84559-3.84559-3.84559-2.11998,0-3.84571,1.71818-3.84571,3.84559v21.1335l-31.69642,38.6355v81.05662ZM117.89363,116.32236c.3782.05928.74896.20886.82567.28801.06915.28917.05184.73792.0272,1.3065-.01244.28917-.0272.60554-.0272.95782l-.10391.28185c-.29905-.1805-.63518-.38448-.71433-.57114-.25465-.60798-.26209-1.38542-.27197-2.13694-.00744-.00384.18782-.11495.26453-.12611ZM104.46305,92.51169c.19282-.03835.3832-.06671.56358-.06671.32881,0,.44503.09519.50431.1669.11379.13587.27441.52163.07915,1.58208-.05439.15935-.22246.44736-.35112.49559l-.09135.01488c-.25221,0-.71689-.22618-1.11984-.65749-.30905-.3338-.49931-.712-.48211-.96422.05439-.12355.55382-.50059.89739-.57102ZM74.16833,98.8908c-.63041-.25093-1.20144-.50315-1.69586-.83428-.1855-.12239-.22002-.19294-.22246-.19294.05439.00128.24222-.14087.34357-.21862.09891-.07415.19282-.14586.26941-.21641.1311-.11739.46967-.24965.57602-.25326.19526.27557.5365.72049.85531,1.13461l.13343.1669s-.23222.3696-.25942.414ZM79.47327,88.07195c-.53883-.29533-1.05813-.64029-1.5772-.98386l-.07415-.0494c.03464-.04451.06915-.08775.10635-.1311.13831-.17306.351-.43504.49187-.57718.4054.20026.79848.53139,1.24339.90843.09891.08403.20026.16946.30417.25465-.08415.09763-.41528.48827-.49443.57846ZM89.91763,96.66227c-.005-.0086-.01-.01732-.01743-.02603-.20258-.32253-.39552-.62658-.44492-.91343-.20026-1.10241.53894-1.75386,1.35974-1.91077.05184.05556,1.0307,1.21364,1.20376,1.40774l-2.10115,1.44249ZM102.89829,60.04039c.0494.02964-.14831.11239-.14831.11239l-.01732-.04207c.06671-.03452.13343-.06544.16562-.07032ZM99.41765,103.3009c.79848.39308,1.50793.97154,2.26189,1.58336.20526.1669.41284.33369.62053.49803-.11379.1619-.21025.29801-.32636.41412-.4054.40412-1.17424.64645-2.05431.64645-1.34718,0-2.57326-.53034-2.91706-1.26071-.0172-.10007.11379-.52279.371-.89611.28173-.41656.8552-1.11252,1.53756-1.11252.16806,0,.33369.04219.50675.12738ZM85.37398,41.77816c0-.00116,1.76502.79476,1.76502.79476-.1705.09031-.32137.16562-.38552.16562h-.06195c-.26686,0-.44492.01976-.62786.04196-.15563.01987-.31637.03963-.46723.03963-.25465,0-.39052-.01976-.46223-.44875-.01732-.11111.13599-.4004.23978-.59322ZM85.55006,53.84749c1.39263,0,2.73284.2242,3.99215.62948-.04614-.07101-.09019-.15888-.13145-.27557.22501-.72804.50442-.84055.87763-.84055.26453,0,.53883.05811.8108.11123.33125.06555.65761.12611.95922.12611.51163,0,.99374.30533,1.45597.60066.19538.12367.3882.24605.57846.3524.05439.02952.10635.06544.16074.10751-.29173.01976-.57602.02592-.86287.02592l-1.23595-.01232-.33857.01604c-.21025-.04707-.37832-.06799-.56626-.06799-.21502,0-.43748.02964-.66238.05928-.1311.01755-.26163.02848-.39145.03684,1.73155.66214,3.29259,1.66913,4.57782,2.95425,2.36545,2.35812,3.82339,5.62375,3.82339,9.22387,0,3.60035-1.46539,6.86586-3.82339,9.22387-1.9726,1.97864-4.58433,3.30874-7.49162,3.69531.01848.202.04544.41237.07915.62565.06183.39308.13854.88263.01,1.04453-.05939.07287-.21025.12227-.42527.13726l-.23234.00976c-.29917,0-.51419-.05195-.58834-.14203-.13599-.16318-.04451-.67865.02964-1.09149.02941-.1626.0566-.3266.07915-.49013-.22804.01186-.45328.03452-.68423.03452-3.60035,0-6.86586-1.46539-9.22387-3.82339-2.36545-2.35801-3.82339-5.62363-3.82339-9.22387s1.46539-6.86574,3.82339-9.22387c2.35801-2.36533,5.62363-3.82328,9.22387-3.82328ZM72.13622,46.41816c.15574.03708.31649.08275.37332.13843.28429.27685.52151.63285.73176.94678l.08891.13238c-.02708.07776-.07171.21502-.07171.21862-.04696.00628-.08891.01116-.12355.01116l-.0272-.00256c-.23234-.29161-.69713-.79592-1.03081-1.36694.0222.00488.04196-.03092.05928-.07787ZM71.10843,59.54329c.47328-.02801.95596.10147,1.54233.18527-.24756.39738-.40563.83346-.53406.82486-.47769-.03185-.94562-.20991-1.41704-.33311.13552-.23745.25965-.66807.40877-.67702ZM69.92373,73.4153c.04951-.05567.09891-.11007.14831-.16434.04696.0394.09647.07776.14342.11727.29429.23989.69469.5687.72432.77256-.03708.07171-.39808.42388-.68969.70701-.1755.17178-.37076.36216-.57846.5759-.01476-.02464-.03208-.05056-.04696-.07531-.18306-.28057-.45735-.70573-.42771-.86403.06439-.33613.40052-.70933.72677-1.06905ZM67.63465,140.48404c.00256-.00128.35112.94678.35112.94678l-.26697.50931c-.3338-.37088-.64529-.72188-.71944-1.06185.11379.00744.43504-.24105.6353-.39424ZM59.1408,61.27135c.23478-1.08265.48443-1.23096.48687-1.23235.34124-.00116.76152.19526,1.15704.61182.33125.34496.53639.74164.52407,1.00989-.00244.08903-.15086.26709-.44015.52534-.29661.05067-.54382.06427-.76872.06427h-.00256c-.63274,0-.8552-.11367-.93435-.21014-.09635-.12122-.10379-.39424-.0222-.76884ZM58.47331,118.36296c.01976-.0408.04207-.08275.06427-.12611.07415.07299.45735.43887.54627.53162-.13343.2471-.34357.49931-.59822.71816-.15818-.10019-.35345-.25837-.40296-.34124.02975-.08647.1805-.3782.39064-.78244ZM58.34476,136.86009c.4054.0272.8108.05428,1.21376.05428.85287,0,1.93076-.10751,2.93682-.87995.29661.26081.54382.47711.65261.70689.00244.06299-.08891.3646-.16074.44503l-.78604.33008c-1.34974.59822-2.744,1.2162-4.15046,1.47085l-.06939.00616c-.58078,0-1.57452-.88379-2.05163-1.30778.07659-.02476.2521-.71805.37576-.87379.04196.00988.10367.01232.18027.01232.17562,0,.42771-.01488.71944-.01488.3782,0,.75896.02603,1.1396.05079ZM53.98905,87.2314c.00244-.00116,1.76502.7936,1.76502.7936-.16818.09019-.32125.16562-.3832.16562h-.06172c-.26709,0-.44747.01976-.62786.04196-.1583.01976-.3166.03952-.46967.03952-.25465,0-.39075-.01976-.45991-.44736-.01976-.11367.13599-.40168.23733-.59334ZM52.73822,107.45752c.09635-.40028.23978-1.00594.44003-1.13205.36088-.22374.58346-.5859.79848-.9369.25953-.424.4326-.67981.66238-.67981.10135,0,.28441.03835.58102.22501.25965.1619.56602.2199.83811.27058.12843.02476.32613.06055.38053.09519.3388.62425.54638,1.34358.51674,1.91216-.04951.0186-.49931.30033-1.04081.48211-.11111.0358-.24466.05312-.42516.05312-.15075,0-.30393-.01116-.45724-.02232-.1755-.01244-.351-.02464-.52407-.02464l-.93202.0222c-.18782,0-.37332-.00744-.55382-.03963-.06671-.0136-.20014-.08775-.29905-.15946l.01488-.06555ZM51.13882,130.40311c.70945-.26465,1.37938-.5143,2.06907-.62181-.05683.03336.16063.29917.30405.47467-.0716.04451-.15075.08275-.22746.11995-.65261.31137-1.27303.60682-1.90344.76384-.12367-.1397-.31137-.42644-.4326-.61054.04451-.07171.11623-.09891.19038-.12611Z" style="fill:tomato; stroke-width:0px;"/><path d="M85.55006,72.2356c1.47282,0,2.81187-.59508,3.77876-1.56953.96701-.96701,1.56953-2.30594,1.56953-3.77888,0-1.47282-.59508-2.81176-1.56953-3.77876-.96701-.96701-2.30582-1.56953-3.77876-1.56953-1.47282,0-2.81187.59508-3.77888,1.56953-.96689.96701-1.56953,2.30582-1.56953,3.77876,0,1.47282.59508,2.81187,1.56953,3.77888.96701.96701,2.30594,1.56953,3.77888,1.56953Z" style="fill:tomato; stroke-width:0px;"/><path d="M0,160.64925h171.38326v-8.2865H0v8.2865ZM168.57034,158.22953c-.07659-.0494-.10635-.11379-.11379-.14714.03219-.0494.11379.14714.11379.14714ZM155.56492,154.38673c.19282-.20758.81335-.23478,1.33498-.23478.33125,0,.71677.01232,1.1618.0308.30161.17422.5859.35228.70701.56498-.03219.01848-.20026.4054-.46467.75396-.47467.62774-.92214,1.07289-1.36473,1.36206-.32381.21246-.76628.3696-1.26803.45491-.08647-.22746-.19038-.57986-.21014-.81091-.07915-1.05069-.12355-1.87509.10379-2.12102ZM99.03945,156.37664c.58578.1719,1.13461.5229,1.71806.89506.10635.06788.21502.13715.32381.20502-.01488.0222-.0272.0408-.03719.05079-.0272-.02359-.12599-.0272-.24466-.0272-.05928,0-1.09265-.01976-1.09265-.01976-.17306,0-.35844.0172-.54382.03452-.15075.01488-.30405.02964-.44736.02964-.18306,0-.26953-.0272-.30905-.05056-.10879-.08915-.29917-.54022-.29917-.69352.24965-.14575.73909-.424.93202-.424ZM71.78278,155.77354c.04207-.0358.08403-.0716.12599-.10763l.51674.62797-.50931.79848c-.0272-.02092-.05195-.04196-.07915-.06311-.22746-.18527-.65494-.53139-.66737-.68341.03963-.08647.40052-.39064.6131-.5723ZM68.96463,157.72638c.04451.0186-.03208.20026-.03208.20026-.01976-.03452-.03475-.06671-.04207-.09635.01232,0,.04207-.04696.07415-.10391ZM17.32882,156.15802c.41028-.52046,1.06289-.84427,1.83917-.91343,1.58696,0,3.03317.74036,3.13208,1.07893.01964.16806-.20026.76152-.88495,1.60567-.82823,1.02094-1.74038,1.68587-2.1087,1.71795l-.21758.01c-1.13228,0-2.00235-.76396-2.16798-1.901-.08891-.59694.05439-1.1496.40796-1.59812Z" style="fill:tomato; stroke-width:0px;"/><path d="M22.18501,144.12135c.25465.05683.48606.21827.72665.33845l-.21142.21142h18.41264v-77.89561H11.61209v77.89561h.94748c-.15644-.07264-.31253-.14796-.47002-.21142.27348-.18073.54685-.36147.94899-.62728.36158.18654.78848.40691,1.2155.62728-.08949.05893-.18085.13517-.2722.21142h8.23036c-.12773-.07055-.25372-.14017-.38285-.21142.12018-.12029.26662-.35809.35565-.33845ZM28.91023,134.45838c-.52895.14215-.87263.23373-1.22363.29917-.15574.02964-.29661.04451-.42272.04451-.36832,0-.46967-.12483-.50431-.16574-.15086-.18654-.1755-.59566-.06427-1.12473.04451-.21502.28173-.47583.51175-.72804.01732-.01848.03464-.03824.05184-.05683l1.9604,1.65135-.30905.08031ZM30.05135,131.19903h-7.69153v-9.00071h7.69153v9.00071ZM39.74512,71.15085c.04451.01848-.03208.20026-.03208.20026-.01976-.03464-.03452-.06671-.04207-.09647.01244,0,.04207-.04696.07415-.10379ZM37.6069,85.29588l.10879.14703c.32381.43376.6525.86775.90715,1.33858l-.43248-.16434c-.46479-.17178-.85287-.31149-1.20144-.51663-.03464-.02975-.09391-.13354-.14354-.23245.23989-.20758.49943-.38936.76152-.57218ZM32.94713,97.28396c.03952-.0408.11111-.09147.19026-.1397.72932,1.17052,1.43389,2.35347,2.1359,3.53132l.06427.10879c-.01244.02848-.02476.05567-.03719.08403-.0494.11379-.12355.28545-.16806.32625-.05184.02731-.23478.07915-.40784.07915l-.07659-.00488c-.83811-1.10625-1.64135-2.21621-2.33848-3.30258.17295-.21142.49687-.53906.63774-.68237ZM33.35253,113.40786c.20758.09263.41528.33497.65749.61554.03963.0444.07915.09019.11878.13599-.08915.09008-.17806.1841-.26709.27674-.24721.25709-.70457.73548-.87995.74536-1.40169-.14947-2.84779-.60322-4.07398-1.27803-.01-.08647.00744-.71689.01976-1.09381.00244-.15574.00744-.31021.00744-.45991.04696-.00616.09391-.01232.13843-.01848.2471-.03591.49199-.07171.72677-.07171.12855,0,.23733.01116.33624.03464,1.05801.25709,2.14078.63158,3.21611,1.11368ZM22.35981,110.22162v-9.0006h7.69153v9.0006h-7.69153ZM29.26379,69.8691c.25698.21874.46723.47211.60066.72177-.08903.09275-.46979.45735-.54627.53034-.02232-.04207-.04207-.08287-.06427-.12355-.2077-.40679-.35844-.69957-.36088-.92458.0494.00116.2249-.11739.37076-.20398ZM22.4335,76.77599c.05928-.00744.11867-.01116.17806-.01116.61798.14714,1.13705.3474,1.65623.60682-.07671.03336-.1533.03103-.23001.02731-.59822-.02476-1.1618-.04823-1.65611-.1941.12111.00244.07915-.26081.05184-.42888ZM22.35981,84.08933v-3.84559h7.69153v9.0006h-7.69153v-5.155ZM20.17126,127.64947c-.47746-.03185-.94527-.21002-1.41692-.33311.13564-.23757.25977-.6683.40877-.67702.47339-.02801.95608.10135,1.54233.18527-.24756.39726-.40551.83335-.53418.82486ZM21.77844,99.91673c-.89483-.34856-1.91088-.74292-2.74899-1.32138.03719-.05939.14354-.67737.2077-1.04685.02476-.15202.05195-.30289.07415-.44991.04951.00256.09891.00372.14831.00488.35112.00988.74908.02232.91226.14714.73909.56986,1.41401,1.28675,2.06419,1.98015l.58078.61182c.03719.04068.07415.09263.11135.15319l-.56126.23373c-.25198-.10391-.51663-.20653-.78848-.31277Z" style="fill:tomato; stroke-width:0px;"/></svg>