<svg id="b5a612fc-9150-48dd-a49d-871e125a6875" data-name="bc5224f1-3c5c-4095-bbee-dfbbf53d1289" xmlns="http://www.w3.org/2000/svg" viewBox="0 0 200 200"><path d="M109.984,122.732c2.613,1.97,6.24,3.374,8.384,5.65a68.951,68.951,0,0,1-3.535-8.783A25.172,25.172,0,0,1,109.984,122.732Z" style="fill:#999"/><path d="M85.053,120.26c-1.218,4.612-.929,10.2-2.561,14.67,2.442-4,5.571-7.737,8.363-11.432A23.707,23.707,0,0,1,85.053,120.26Z" style="fill:#999"/><path d="M93.947,124.483c.713,3.517,2.8,7.259,3.037,10.743a85.67,85.67,0,0,1,2.753-10.074A23.444,23.444,0,0,1,93.947,124.483Z" style="fill:#999"/><path d="M117.134,117.4c3.971,1.515,8.651,2.438,12.248,4.351-3.318-2.559-6.313-5.547-9.321-8.3A23,23,0,0,1,117.134,117.4Z" style="fill:#999"/><path d="M108.291,133.407a86.662,86.662,0,0,1-.109-9.881,22.947,22.947,0,0,1-4.8,1.312C104.906,127.685,107.3,130.456,108.291,133.407Z" style="fill:#999"/><path d="M89.248,77.268c-2.613-1.97-6.241-3.374-8.385-5.65A68.956,68.956,0,0,1,84.4,80.4,25.172,25.172,0,0,1,89.248,77.268Z" style="fill:#999"/><path d="M114.179,79.74c1.218-4.612.929-10.2,2.561-14.67-2.442,4-5.572,7.737-8.363,11.432A23.707,23.707,0,0,1,114.179,79.74Z" style="fill:#999"/><path d="M105.285,75.517c-.713-3.517-2.8-7.259-3.037-10.743a85.481,85.481,0,0,1-2.754,10.074A23.452,23.452,0,0,1,105.285,75.517Z" style="fill:#999"/><path d="M82.1,82.6c-3.97-1.515-8.65-2.438-12.247-4.351,3.318,2.559,6.313,5.547,9.321,8.3A23.046,23.046,0,0,1,82.1,82.6Z" style="fill:#999"/><path d="M90.941,66.593a86.892,86.892,0,0,1,.109,9.881,22.938,22.938,0,0,1,4.8-1.312C94.326,72.315,91.935,69.544,90.941,66.593Z" style="fill:#999"/><path d="M77.963,88.883c-5.91-.651-11.9.912-17.9.092,2.277.315,15.275,5.722,16.085,5.976A24.04,24.04,0,0,1,77.963,88.883Z" style="fill:#999"/><path d="M120.661,95.839a19.522,19.522,0,0,0-.809-3.178,21.387,21.387,0,0,0-41.074,11.677,19.5,19.5,0,0,0,.809,3.176,21.387,21.387,0,0,0,41.074-11.675Zm-27.231-14a18.444,18.444,0,0,1,4.7-1A35.186,35.186,0,0,0,81.385,102.27c-.147.024-.293.05-.44.073A18.881,18.881,0,0,1,93.43,81.843Zm-.9,21.568h0a.576.576,0,0,1-.57-.385,3.763,3.763,0,0,1,.405-.385,1.112,1.112,0,0,1,1.287.385A4.2,4.2,0,0,1,92.53,103.411ZM95.914,90.3c-.165,0-.248-.188-.322-.385,0-.2.074-.385.239-.385.239,0,.239.187.322.385C96.153,90.115,96.07,90.115,95.914,90.3Zm1.122,20.816h-.161a.376.376,0,0,1-.322-.384v-.188H97.2a.492.492,0,0,0,.4.188C97.44,110.932,97.288,110.932,97.036,111.119Zm.891,4.058c-.165,0-.239,0-.322-.2a1.168,1.168,0,0,1,.322-.385c.083,0,.157.2.157.385a.181.181,0,0,1-.153.2Zm6.528-3.86a2.18,2.18,0,0,1-.165-1.54.771.771,0,0,1,.644.385,1.8,1.8,0,0,1-.479,1.155Zm1.287-17.924a1.983,1.983,0,0,1-2.178-.78c-.074-.187.082-.385.247-.572.644-.2.8,0,1.048.385a1.931,1.931,0,0,0,1.048.967Zm7.9,5.2a.752.752,0,0,0-.645-.2,2.317,2.317,0,0,1-.322-.958,1.481,1.481,0,0,1,.81-.2,1,1,0,0,1,1.122.2,1.889,1.889,0,0,1,.165,1.156Z" style="fill:#999"/><path d="M79.761,114.172c-1.405,2.955-2.053,6.79-3.852,9.347a68.968,68.968,0,0,1,7.894-5.226A25.186,25.186,0,0,1,79.761,114.172Z" style="fill:#999"/><path d="M74.827,98.812c-3.3,1.405-6.551,4.2-9.915,5.131a85.827,85.827,0,0,1,10.422.676A23.4,23.4,0,0,1,74.827,98.812Z" style="fill:#999"/><path d="M68.963,114.655a87.134,87.134,0,0,1,9.658-2.09,22.913,22.913,0,0,1-2.249-4.441C73.889,110.191,71.654,113.089,68.963,114.655Z" style="fill:#999"/><path d="M123.627,96.156c2.6-1.985,4.932-5.1,7.7-6.549a68.986,68.986,0,0,1-9.411,1.035A25.19,25.19,0,0,1,123.627,96.156Z" style="fill:#999"/><path d="M121.7,110.428c3.579.262,7.744-.733,11.164-.026a85.6,85.6,0,0,1-8.958-5.369A23.491,23.491,0,0,1,121.7,110.428Z" style="fill:#999"/><path d="M133.45,100.666a86.807,86.807,0,0,1-9.544-2.56,22.928,22.928,0,0,1-.033,4.978C127.027,102.382,130.34,100.827,133.45,100.666Z" style="fill:#999"/><path d="M121.038,87.633c1.692-2.8,2.717-6.553,4.761-8.919a68.99,68.99,0,0,1-8.374,4.417A25.158,25.158,0,0,1,121.038,87.633Z" style="fill:#999"/><path d="M133.974,54.5a.984.984,0,1,0-.986.986A.985.985,0,0,0,133.974,54.5Z" style="fill:#999"/><path d="M134.026,45.324a1.34,1.34,0,1,0-1.339,1.335A1.341,1.341,0,0,0,134.026,45.324Z" style="fill:#999"/><path d="M128.144,62.858a.633.633,0,1,0,.628.635A.633.633,0,0,0,128.144,62.858Z" style="fill:#999"/><path d="M123.387,50.13a.635.635,0,1,0,.635.632A.635.635,0,0,0,123.387,50.13Z" style="fill:#999"/><path d="M132.988,41.792a12.258,12.258,0,1,0,12.256,12.256A12.256,12.256,0,0,0,132.988,41.792Zm-9.6,10.243a1.268,1.268,0,1,1,1.27-1.273A1.273,1.273,0,0,1,123.387,52.035Zm6.624-6.711A2.674,2.674,0,1,1,132.687,48,2.678,2.678,0,0,1,130.011,45.324Zm1.013,9.178a1.966,1.966,0,1,1,1.964,1.968A1.967,1.967,0,0,1,131.024,54.5Zm7.159-6.5A1.817,1.817,0,1,1,140,46.181,1.82,1.82,0,0,1,138.183,48Zm-15.844,18.25h0v-.216h.313c.108.216.108.216,0,.432-.112-.228-.112-.228-.317-.228Zm4.542-5.909-.108-.421h.529c.108,0,.108.216.108.421Zm-.746-4.009v-.205a4.305,4.305,0,0,1,1.059-.216.574.574,0,0,0,.529-.216h.531a1.474,1.474,0,0,1,.1.637c-.1,0-.1.216-.52.422h-.216a.2.2,0,0,0-.2.2v.014a1.4,1.4,0,0,1-1.284-.65Zm1.794,8.017c.108,0,.108.216,0,.216,0,.205-.1.205-.1.421l-.216-.216c-.009-.217-.009-.217.3-.433ZM131,63.025c.421.216.842.638,1.263.854a6.479,6.479,0,0,0,1.048.842h.108a.89.89,0,0,1,.324.627,1.308,1.308,0,0,0,.843-.206h.518c.108,0,.108.206.108.206q0,.632-1.263,1.263h-1.156c-.108-.2,0-.2,0-.421h-.108c-.216.216-.314.216-.422.216a2.039,2.039,0,0,1-1.9-1.685,1.6,1.6,0,0,1,.628-1.708Zm-2.647-9.217c-.1,0-.205,0-.314.2a3.764,3.764,0,0,0-1.048.843c-1.059,0-1.7,0-2.009-.422s-.108-1.263.108-1.9a14.42,14.42,0,0,0,1.793.638,6.532,6.532,0,0,1,1.461.621Z" style="fill:#999"/><path d="M138.183,45.272a.91.91,0,1,0,.913.909A.912.912,0,0,0,138.183,45.272Z" style="fill:#999"/><path d="M134.956,59.5a1.614,1.614,0,1,0,1.617,1.614A1.611,1.611,0,0,0,134.956,59.5Z" style="fill:#999"/><path d="M150.039,60.284a22.2,22.2,0,0,1-5.5,5.7,40.547,40.547,0,0,1,12.1,20.107,39.194,39.194,0,0,1,.948,12.875,2.241,2.241,0,0,1,.787-.125,1.507,1.507,0,0,1,1.469.216,1.778,1.778,0,0,1,.216,1.265h-1.48a1.11,1.11,0,0,0-.844-.216c-.076-.158-.151-.283-.219-.4-2.244,20.776-20.508,40.066-46.151,46.387a71.111,71.111,0,0,1-12.189,1.893,3.133,3.133,0,0,0-.309.664.917.917,0,0,1-.313.627.406.406,0,0,1-.324-.205c-.2-.214-.007-.626.1-1.04-26.248,1.449-49.524-12.249-54.9-34.092-6.254-25.438,14.045-52.31,45.251-60a71.416,71.416,0,0,1,14.488-2,2.119,2.119,0,0,1-.178-1.074,2.251,2.251,0,0,1,1.082.013,1.509,1.509,0,0,1,1.389.523,1.728,1.728,0,0,1,.085.5c2.236,0,4.447.1,6.621.307a16.975,16.975,0,0,1,3.018-6.695,78.833,78.833,0,0,0-28.112,1.8,81.582,81.582,0,0,0-10.859,3.5,1.629,1.629,0,0,1,1.144.752,6.243,6.243,0,0,1-1.525.1.76.76,0,0,1-.592-.458,74.81,74.81,0,0,0-23.453,15.28,6.532,6.532,0,0,1,.92.684l.006.017a.3.3,0,0,0-.351.134,3.777,3.777,0,0,0-1.2.6c-.247-.054-.467-.1-.667-.151-13.12,13.446-19.4,31.1-15.217,48.158,5.492,22.3,27.32,37.211,53.3,38.96.042-.041.088-.084.145-.13.071.045.129.1.2.154a78.784,78.784,0,0,0,18-.956.718.718,0,0,1-.032-.667h1.156a2.366,2.366,0,0,1,.143.436c1.6-.3,3.2-.622,4.806-1.018,35.707-8.811,58.927-39.578,51.771-68.641A46.571,46.571,0,0,0,150.039,60.284ZM50.01,69.18l.043-.2a4.244,4.244,0,0,1,1.08.013.579.579,0,0,0,.564-.1l.518.112a1.491,1.491,0,0,1-.04.644c-.095-.021-.141.19-.6.3l-.211-.045a.2.2,0,0,0-.244.154l0,.013a1.4,1.4,0,0,1-1.11-.893h0L50,69.167Zm.38,3.754c.106.023.06.234.016.434l-.517-.112-.016-.434Zm-.332,4.447.006.014c.106.023.06.234-.045.211-.044.2-.139.18-.185.391l-.165-.257C49.706,77.526,49.706,77.526,50.058,77.381Zm-5.857.676.043-.2.306.066c.06.234.06.234-.091.422-.061-.244-.062-.247-.258-.289l0,.012,0-.013Zm-8.452,26.026a.788.788,0,0,1-.076-.669l.211.046Zm6.179-23.494.179-.824a2.854,2.854,0,0,0,1.562-.733,6.277,6.277,0,0,1-1.012,2.151l0,.006-.623-.135C41.978,80.82,42.023,80.609,41.928,80.589Zm.294,12.594,1.129.245a2.358,2.358,0,0,1-.266,1.666l.012.015L42.58,95c-.095-.02-.155-.254-.214-.488C42.149,94.029,41.921,93.549,42.222,93.183ZM96.756,149.69v.638c-.216,0-.324,0-.432.2-.844-.2-1.157-.422-1.265-.627,0-.217.216-.217.637-.638h0c.108.216.206,0,.314,0h.53c.108,0,.216.216.216.216Zm14.983-2.324c-.009.216-.214.217-.537.42l.007.014-.01-.012,0,0-.091-.191H110.9v-1.278h.314C111.534,146.524,111.955,147.161,111.739,147.366Z" style="fill:#999"/><path d="M196.748,76.2a66.627,66.627,0,0,0-4.4-12.42,7.416,7.416,0,0,0,1.325,3.547c-.108,0-.216.2-.324.2a5.813,5.813,0,0,1-2.312.842h-.216a3.637,3.637,0,0,1-.216-1.047c-.205-1.485-.421-3.376-3.262-3.586l-.423-.217-.216.422-.2-.2c-.208-.422.214-1.482.633-2.324a6.529,6.529,0,0,0,.946-3.165,1.627,1.627,0,0,0-.314-1.059c-.216-.626-.313-.842.206-1.263.024.015.043.037.068.053a76.452,76.452,0,0,0-23.359-22.943c-.044.033-.076.076-.123.105a.933.933,0,0,1-.742-.653c-22.216-13.842-52.493-18.8-83.192-11.254C27.314,34.374-7.4,80.39,3.289,123.79,11.8,158.408,46.6,181.1,87.362,182.239c.017-.01.027-.023.046-.033.014.01.023.024.037.035q4.014.109,8.1-.067v-1.153h.313c.326.206.747.843.531,1.049a.191.191,0,0,1-.019.057,121.751,121.751,0,0,0,42.663-10.044,3.9,3.9,0,0,1-.455-.559,1.773,1.773,0,0,1-.1-1.263c.206.626.53.626,1.048.842a4.247,4.247,0,0,0,.176.678,113.636,113.636,0,0,0,25.79-15.863,22.17,22.17,0,0,1-6.5-3.869,107.554,107.554,0,0,1-41.233,20.08A110.03,110.03,0,0,1,89.72,175.32a6.172,6.172,0,0,1-.3.851l0,0h-.638c-.108-.216-.108-.432-.2-.432v-.456a96.626,96.626,0,0,1-38.39-8.813,1.829,1.829,0,0,1-.237.2.934.934,0,0,1-.748-.682c-18.872-9.163-32.939-24.586-37.768-44.2C2.808,86.715,26.517,49.772,65.785,33.319h-.069c-.108-.205,0-.205,0-.421h-.108c-.216.216-.314.216-.422.216a2.039,2.039,0,0,1-1.9-1.685,1.6,1.6,0,0,1,.628-1.708l.01.012c.421.216.842.637,1.263.853a6.442,6.442,0,0,0,1.048.843h.108a.888.888,0,0,1,.324.626,1.308,1.308,0,0,0,.843-.2h.518c.108,0,.108.2.108.2a.726.726,0,0,1-.107.353,111.96,111.96,0,0,1,14.223-4.522c40.107-9.877,79.41,3.581,97.634,30.7A2.962,2.962,0,0,1,179.956,57h0v0a2.283,2.283,0,0,1,1.485,1.264,1.325,1.325,0,0,1-.421,1.485,3.117,3.117,0,0,1-.706-.5,61.288,61.288,0,0,1,8.3,18.976,63.506,63.506,0,0,1-2.8,38.215,24.435,24.435,0,0,1,7.351,2.776C198.72,105.435,200.3,90.684,196.748,76.2ZM106.3,174.9a3.524,3.524,0,0,1,.637.637v.206h-.529c-.421-.206-.734-.422-.734-.843Zm-31.44,4.857h0c.216-.432.638-.637,1.372-.637h.313c.324.2.53.421.422.637a.931.931,0,0,1-.946.843H74.654C74.654,180.178,74.654,179.757,74.859,179.757Zm-4.558-.746a1.055,1.055,0,0,1,.032.942,1.816,1.816,0,0,1-1.41.053A2.044,2.044,0,0,1,70.3,179.011Zm-9.182-4.969a1.355,1.355,0,0,1,.572.169c.051.095-.092.283-.273.381a.208.208,0,0,1-.285-.072l0-.005C61.027,174.325,60.981,174.24,61.119,174.042Zm-26.65-12.765a1.594,1.594,0,0,1,1.8-.264l-.006.014c.011.473-.158,1.044-.147,1.518a6.515,6.515,0,0,0-.24,1.323l.052.094a.89.89,0,0,1-.4.584,1.309,1.309,0,0,0,.583.643l.248.455c.051.095-.129.193-.129.193q-.555.3-1.714-.507l-.552-1.015c.129-.193.18-.1.37-.2l-.051-.095c-.293-.087-.34-.172-.391-.267A2.038,2.038,0,0,1,34.469,161.277Zm-2.231-1.912c.186-.112.186-.112.526.06l-.006.014c.051.095-.139.2-.19.1-.181.1-.227.013-.417.116Zm-3.81-3.935-.01.006.009-.01v0l.18-.1.149.275c-.138.2-.138.2-.379.206C28.523,155.608,28.524,155.606,28.428,155.43Zm-3.4-.069.74-.4a2.857,2.857,0,0,0,1.576.7,6.273,6.273,0,0,1-2.29.638l0,.006-.3-.559C24.884,155.549,25.073,155.446,25.027,155.361Zm-10.08-10.143h0c.483-.017.864.256,1.215.9l.15.275c-.026.383-.118.666-.359.675a.929.929,0,0,1-1.192-.429l-.652-1.2C14.479,145.239,14.849,145.038,14.947,145.218ZM31.42,54.427a3.12,3.12,0,0,1-1.058-.853,2.965,2.965,0,0,1-.006-1.9h0v0a2.283,2.283,0,0,1,1.485,1.264A1.325,1.325,0,0,1,31.42,54.427ZM41.96,40.914a.928.928,0,0,1-.945.842H39.648c0-.422,0-.843.206-.843h0c.216-.432.637-.637,1.371-.637h.314C41.863,40.482,42.068,40.7,41.96,40.914Zm12.461-3.582h-.637c-.108-.216-.108-.432-.206-.432v-.843a2.847,2.847,0,0,0,1.372-1.048,6.3,6.3,0,0,1-.533,2.317Zm1.156-3.16c-.111-.226-.113-.228-.313-.228v.012l-.005-.012h.005v-.2h.313C55.685,33.956,55.685,33.956,55.577,34.172Zm5.276-1.9c0,.2-.1.2-.1.421l-.216-.216c-.009-.217-.009-.217.3-.433l.009.012C60.961,32.055,60.961,32.271,60.853,32.271ZM186.081,65.854a3.007,3.007,0,0,1-.432,1.485c-1.264-.216-1.469-1.058-1.469-2.538l.421-.006h1.048c.216,0,.324,0,.432-.2h.313C186.286,65.011,186.178,65.433,186.081,65.854Zm2.109,3.8c0,.2-.108.2-.216.421-.1-.216,0-.421.108-.853h.108Z" style="fill:#999"/><path d="M194.669,133.121a1.11,1.11,0,0,0-.844-.216c-.2-.423-.421-.628-.421-1.049a2.253,2.253,0,0,1,1.06-.216c.026-.01.054-.011.081-.02a19.313,19.313,0,1,0,.324,1.5Zm-7.751-8.866c.362-.336,1.318.1,1.987,0s1.564,1.117,1.871,1.73,0,1.62-.511,1.719-1.009-.608-1.418-.708-.915-.912-1.421-1.016S186.47,124.669,186.918,124.255Zm-21.23,19.77-.108-.421h.529c.108,0,.108.216.108.421Zm1.047,4.223c0,.206-.1.206-.1.422l-.216-.217c-.009-.217-.009-.217.3-.433l.009.012C166.843,148.032,166.843,148.248,166.735,148.248Zm-.1-7.811h-.216a.2.2,0,0,0-.206.2v.014a1.4,1.4,0,0,1-1.275-.638h0l-.009-.012.009.011v-.2A4.215,4.215,0,0,1,166,139.6a.579.579,0,0,0,.529-.216h.531a1.487,1.487,0,0,1,.1.637C167.061,140.016,167.061,140.232,166.638,140.437Zm.2-2.739a3.789,3.789,0,0,0-1.047.842c-1.059,0-1.7,0-2.01-.421s-.108-1.264.109-1.9a14.578,14.578,0,0,0,1.793.637,6.579,6.579,0,0,1,1.461.621l.009.016C167.061,137.492,166.953,137.492,166.843,137.7Zm4.755,11.6c-.109-.2,0-.2,0-.421h-.109c-.216.216-.313.216-.421.216a2.039,2.039,0,0,1-1.9-1.685,1.593,1.593,0,0,1,.628-1.708l.009.012c.422.216.843.637,1.264.853a6.442,6.442,0,0,0,1.048.843h.108a.888.888,0,0,1,.324.626,1.308,1.308,0,0,0,.843-.205h.518c.108,0,.108.205.108.205q0,.633-1.264,1.264Zm2.506,1.974H174.1c-.216,0-.313,0-.421-.216a1.386,1.386,0,0,1,.421-.421c.109,0,.206.216.206.421A.208.208,0,0,1,174.1,151.27Zm-.059-31.482c.469-.65,2.231-.98,3.022-1.116.451-.079,1.809-.116,1.725.608s-1.824,1.725-2.215,1.824a11.875,11.875,0,0,1-1.947,0A.809.809,0,0,1,174.045,119.788Zm3.768,33.087h-.53c-.421-.205-.734-.421-.734-.842h.626a3.562,3.562,0,0,1,.638.637Zm4.831-5.829a2.04,2.04,0,0,1-.216-1.685,1.052,1.052,0,0,1,.842.421A1.812,1.812,0,0,1,182.644,147.046Zm1.532-11.62c-.406,0-.509-1.326-.815-1.981s-1.117.047-1.725,0-.755-1.222-.912-1.673c-.181-.519-1.009-1.252-1.02-1.934a3.208,3.208,0,0,1,.328-.8c-.734.55-3.014-.116-3.455-.215-.5-.1-1.132-1.216-1.237-1.106a13.331,13.331,0,0,1,0-3.471c.207-.309,1.727-.194,2.335,0s.905-1.457,1.421-1.509c.467-.058,1.017,1.315,1.12,1.509s1.119.724,1.321,1.227c.055.138.134.323.224.517.014-.014.026-.028.04-.041.843-.216,1.048,0,1.372.421a2.357,2.357,0,0,0,.21.283c.525-.336,1.121-.728,1.3-.666a1.9,1.9,0,0,1,.707,1.315c0,.4,1.015.818,1.526.818s1.014.813,1.153,1.72-.849,1.63-1.153,1.934-1.321,0-1.827.4c-.509.414.506,1.929.506,2.542S184.579,135.426,184.176,135.426Zm4.265,2.637c-.231.3-1.319.713-1.523,0s-.881-1.347-.511-1.788a2.6,2.6,0,0,1,2.034-.387C188.946,136.05,188.774,137.638,188.441,138.063Zm4.159-3.858c-.1,1.012-1.113,3.858-1.7,3.858s.123-1.646,0-2.175a3.14,3.14,0,0,0-1.994-1.579c-.651-.1-.362-.6-.464-.817a6.827,6.827,0,0,1-.024-3.25c.176-.3.139-1.28.488-1.421,1.059-.42,2.883,1.73,3.695,2.647S192.7,133.193,192.6,134.205Zm.509-4.118a1.378,1.378,0,0,1,.421-.422c.108,0,.206.216.206.422a.208.208,0,0,1-.2.215h-.006C193.314,130.3,193.217,130.3,193.109,130.087Z" style="fill:#999"/></svg>