<?xml version="1.0" encoding="UTF-8"?>
<svg width="263px" height="20px" viewBox="0 0 263 20" version="1.1" xmlns="http://www.w3.org/2000/svg" xmlns:xlink="http://www.w3.org/1999/xlink">
    <!-- Generator: Sketch 54.1 (76490) - https://sketchapp.com -->
    <title>cooking-classy-logo</title>
    <desc>Created with Sketch.</desc>
    <g id="Symbols" stroke="none" stroke-width="1" fill="none" fill-rule="evenodd">
        <g id="original-logo" transform="translate(-58.000000, -55.000000)" fill="#2A3741">
            <g id="cooking-classy-logo" transform="translate(58.000000, 55.000000)">
                <path d="M160.146154,6.53386454 L159.827428,6.56042497 C159.597237,5.71048712 159.251955,4.91368234 158.791572,4.16998672 C158.331189,3.4262911 157.786706,2.77999389 157.158106,2.2310757 C156.529506,1.6821575 155.821235,1.24834157 155.033272,0.929614874 C154.245309,0.610888181 153.408663,0.451527224 152.523312,0.451527224 C151.301526,0.451527224 150.212559,0.725982205 149.256379,1.2749004 C148.300199,1.82381859 147.498968,2.54979628 146.852661,3.45285525 C146.206354,4.35591421 145.710564,5.37848035 145.365277,6.52058433 C145.01999,7.66268831 144.847349,8.83576202 144.847349,10.0398406 C144.847349,11.3147474 145.028843,12.5099546 145.391837,13.625498 C145.754832,14.7410414 146.272755,15.7104873 146.945622,16.5338645 C147.61849,17.3572418 148.433001,18.0079657 149.389181,18.4860558 C150.345361,18.9641458 151.407768,19.2031873 152.576432,19.2031873 C153.497198,19.2031873 154.360404,19.0349729 155.166074,18.6985392 C155.971744,18.3621054 156.688868,17.9194361 157.317468,17.3705179 C157.946068,16.8215997 158.477271,16.1885826 158.911094,15.4714475 C159.344916,14.7543125 159.641505,14.0150547 159.800868,13.2536521 L160.119593,13.2536521 L160.039912,19.0969456 L159.721187,19.0969456 C159.508702,18.7959259 159.287368,18.5214709 159.057176,18.2735724 C158.826985,18.0256738 158.667624,17.9017264 158.579088,17.9017264 C158.543674,17.9017264 158.384313,17.994687 158.101001,18.1806109 C157.817688,18.3665348 157.410432,18.5701627 156.879221,18.7915007 C156.34801,19.0128386 155.701713,19.2076131 154.94031,19.37583 C154.178908,19.5440469 153.302422,19.6281541 152.310828,19.6281541 C150.664074,19.6281541 149.176705,19.3935393 147.848677,18.9243028 C146.520649,18.4550663 145.391842,17.7910623 144.462223,16.9322709 C143.532603,16.0734795 142.819905,15.0464867 142.324108,13.8512616 C141.828311,12.6560365 141.580416,11.3413086 141.580416,9.90703851 C141.580416,9.58831182 141.60255,9.22532297 141.646818,8.81806109 C141.691085,8.4107992 141.770766,7.97698327 141.885861,7.51660027 C142.000957,7.05621726 142.160318,6.5737077 142.363949,6.0690571 C142.56758,5.56440651 142.828755,5.05533679 143.147482,4.54183267 C143.519329,3.93979336 143.979705,3.36432324 144.528624,2.81540505 C145.077542,2.26648685 145.723839,1.78397729 146.467535,1.36786189 C147.21123,0.951746481 148.052302,0.619744489 148.990775,0.37184595 C149.929248,0.12394741 150.982801,4.79616347e-14 152.151466,4.79616347e-14 C153.213888,4.79616347e-14 154.143493,0.097387251 154.94031,0.292164675 C155.737127,0.486942098 156.401131,0.699423373 156.932342,0.929614874 C157.463553,1.15980637 157.870809,1.37228765 158.154122,1.56706507 C158.437434,1.7618425 158.596795,1.85922975 158.632209,1.85922975 C158.667623,1.85922975 158.734024,1.81938951 158.831412,1.73970784 C158.928801,1.66002616 159.035042,1.56263891 159.150138,1.44754316 C159.265233,1.33244741 159.384754,1.19964661 159.508703,1.04913679 C159.632653,0.898626959 159.747747,0.743692696 159.853989,0.584329349 L160.146154,0.584329349 L160.146154,6.53386454 Z M181.270545,14.0504648 L180.287809,19.5219124 L163.236016,19.5219124 L163.236016,19.2563081 C163.678692,19.1854799 164.116935,19.0703859 164.550757,18.9110226 C164.98458,18.7516592 165.325435,18.5303246 165.573334,18.247012 C165.661869,18.1407697 165.737123,17.9858355 165.799097,17.7822045 C165.861072,17.5785736 165.909766,17.3439588 165.94518,17.0783533 C165.980594,16.8127477 166.011581,16.533866 166.038141,16.2416999 C166.064702,15.9495337 166.077982,15.6617987 166.077982,15.3784861 C166.077982,15.1305875 166.082408,14.7941588 166.091262,14.3691899 C166.100115,13.944221 166.108969,13.4794182 166.117822,12.9747676 C166.126676,12.470117 166.131103,11.9521939 166.131103,11.4209827 L166.131103,3.79814077 C166.131103,3.47941408 166.117823,3.18282563 166.091262,2.90836653 C166.064701,2.63390744 166.024861,2.39043931 165.97174,2.17795485 C165.918619,1.96547039 165.838938,1.79725604 165.732696,1.67330677 C165.484798,1.37228712 165.152796,1.14209907 164.73668,0.982735724 C164.320565,0.823372377 163.882322,0.71713174 163.421939,0.664010624 L163.421939,0.398406375 L171.894715,0.398406375 L171.894715,0.664010624 C171.664523,0.699424701 171.390068,0.75254502 171.071342,0.823373174 C170.752615,0.894201328 170.4516,1.00929535 170.168287,1.1686587 C169.884975,1.32802205 169.641506,1.5537834 169.437876,1.84594954 C169.234245,2.13811567 169.123577,2.52323798 169.10587,3.00132802 C169.088163,3.62107437 169.074883,4.1876911 169.06603,4.70119522 C169.057176,5.21469934 169.048323,5.71934236 169.039469,6.21513944 C169.030616,6.71093652 169.026189,7.22443293 169.026189,7.75564409 L169.026189,12.5896414 C169.026189,13.0500244 169.030616,13.5236806 169.039469,14.0106242 C169.048323,14.4975677 169.052749,15.042051 169.052749,15.6440903 C169.070456,16.2107155 169.09259,16.7507721 169.11915,17.2642762 C169.145711,17.7777803 169.238672,18.158476 169.398035,18.4063745 C169.468863,18.4949097 169.610517,18.5834436 169.823002,18.6719788 C170.035486,18.7605139 170.292234,18.8357677 170.593254,18.8977424 C170.894274,18.959717 171.221849,19.0128373 171.57599,19.0571049 C171.930131,19.1013725 172.284266,19.123506 172.638407,19.123506 C172.780063,19.123506 173.005824,19.1190793 173.315698,19.1102258 C173.625571,19.1013722 173.966426,19.0836655 174.338274,19.0571049 C174.710122,19.0305444 175.090817,18.9907041 175.480372,18.937583 C175.869927,18.8844619 176.215209,18.8136348 176.516229,18.7250996 C177.22451,18.5303222 177.813261,18.273574 178.282497,17.9548473 C178.751734,17.6361206 179.154563,17.268705 179.490996,16.8525896 C179.82743,16.4364742 180.110738,15.9849515 180.34093,15.498008 C180.571121,15.0110644 180.792456,14.5019947 181.004941,13.9707835 L181.270545,14.0504648 Z M193.815919,19.5219124 L193.815919,19.2563081 C193.86904,19.2563081 193.997414,19.2386013 194.201045,19.2031873 C194.404676,19.1677732 194.617157,19.1057995 194.838495,19.0172643 C195.059833,18.9287291 195.254608,18.8047817 195.422825,18.6454183 C195.591041,18.486055 195.675149,18.2824271 195.675149,18.0345286 C195.675149,17.8751652 195.626455,17.6139903 195.529066,17.250996 C195.431678,16.8880017 195.29445,16.4453324 195.11738,15.9229748 C194.940309,15.4006171 194.736681,14.8207203 194.50649,14.1832669 C194.276298,13.5458135 194.028404,12.8818096 193.762798,12.1912351 L186.697725,12.1912351 C186.432119,12.8641025 186.175371,13.505973 185.927473,14.1168659 C185.679574,14.7277587 185.431679,15.3430691 185.183781,15.9628154 C184.811933,16.9189955 184.626012,17.5918529 184.626012,17.9814077 C184.626012,18.2115992 184.696839,18.401947 184.838495,18.5524568 C184.980152,18.7029667 185.161646,18.8269141 185.382984,18.9243028 C185.604322,19.0216915 185.843363,19.0925186 186.100115,19.1367862 C186.356868,19.1810538 186.600336,19.220894 186.830527,19.2563081 L186.830527,19.5219124 L181.173157,19.5219124 L181.173157,19.2297477 C181.63354,19.1766266 182.027515,19.0526792 182.355096,18.8579017 C182.682676,18.6631243 182.873024,18.5303235 182.926145,18.4594954 C183.050094,18.3355461 183.253722,18.0433843 183.537034,17.5830013 C183.820347,17.1226183 184.165629,16.4409076 184.572891,15.5378486 C184.944739,14.7056178 185.360848,13.7583054 185.821231,12.6958831 C186.281614,11.6334608 186.75527,10.5400676 187.242214,9.41567065 C187.729157,8.29127371 188.211667,7.15804024 188.689757,6.01593625 C189.167847,4.87383227 189.61937,3.8069992 190.044339,2.81540505 L189.778734,2.2310757 C190.097461,2.08941939 190.385196,1.92120505 190.641948,1.72642762 C190.8987,1.5316502 191.124462,1.32802231 191.319239,1.11553785 C191.514016,0.903053386 191.677804,0.699425498 191.810607,0.504648074 C191.94341,0.309870651 192.045224,0.150509695 192.116052,0.026560425 L192.328535,0.026560425 C192.877453,1.49624462 193.399803,2.89065299 193.8956,4.20982736 C194.391397,5.52900173 194.865053,6.79946268 195.316583,8.02124834 C195.768112,9.243034 196.206355,10.4249611 196.631324,11.5670651 C197.056293,12.7091691 197.481255,13.8379758 197.906224,14.9535193 C198.101002,15.5024375 198.282496,15.9583869 198.450713,16.3213811 C198.61893,16.6843754 198.809278,17.0960579 199.021762,17.5564409 C199.057176,17.6272691 199.136857,17.7512165 199.260806,17.9282869 C199.384755,18.1053572 199.548543,18.2868517 199.752174,18.4727756 C199.955805,18.6586995 200.208126,18.8224871 200.509146,18.9641434 C200.810166,19.1057997 201.164301,19.1854802 201.571563,19.2031873 L201.571563,19.5219124 L193.815919,19.5219124 Z M190.336503,3.42629482 C190.230261,3.65648632 190.075327,4.01947517 189.871696,4.51527224 C189.668065,5.01106932 189.415743,5.6130996 189.114724,6.32138114 C188.813704,7.02966268 188.481702,7.83089416 188.118708,8.7250996 C187.755713,9.61930505 187.361738,10.5887509 186.936769,11.6334661 L193.550315,11.6334661 C193.249295,10.8366494 192.943853,10.0398446 192.63398,9.24302789 C192.324107,8.44621116 192.023092,7.68039323 191.730926,6.94555113 C191.438759,6.21070903 191.173158,5.53785166 190.934113,4.92695883 C190.695068,4.316066 190.495867,3.81584967 190.336503,3.42629482 Z M216.427694,14.2895086 C216.427694,15.1394465 216.255053,15.9008377 215.909766,16.5737052 C215.564478,17.2465726 215.086396,17.8220428 214.475503,18.3001328 C213.86461,18.7782228 213.134206,19.1323583 212.284268,19.3625498 C211.43433,19.5927413 210.504724,19.7078353 209.495423,19.7078353 C208.627778,19.7078353 207.884094,19.654715 207.264347,19.5484728 C206.644601,19.4422305 206.131105,19.3138564 205.723843,19.1633466 C205.316581,19.0128368 205.011139,18.8756093 204.807508,18.75166 C204.603877,18.6277108 204.475503,18.5657371 204.422382,18.5657371 C204.369261,18.5657371 204.254167,18.6719777 204.077096,18.8844622 C203.900026,19.0969466 203.740665,19.3005745 203.599009,19.4953519 L203.359965,19.4953519 L203.280284,14.2098274 L203.545888,14.2098274 C203.705251,14.6879174 203.908879,15.1527202 204.156778,15.6042497 C204.404676,16.0557792 204.674705,16.4807417 204.966871,16.8791501 C205.259037,17.2775584 205.568905,17.6272672 205.896486,17.9282869 C206.224066,18.2293065 206.538361,18.4594946 206.839381,18.6188579 C207.1404,18.7782212 207.538803,18.9375822 208.0346,19.0969456 C208.530397,19.2563089 209.00848,19.3359894 209.468863,19.3359894 C210.779184,19.3359894 211.84159,18.9774272 212.656114,18.2602922 C213.470637,17.5431571 213.877893,16.5737113 213.877893,15.3519256 C213.877893,14.8561286 213.798213,14.4223126 213.638849,14.0504648 C213.479486,13.678617 213.262578,13.3554684 212.988119,13.0810093 C212.71366,12.8065502 212.390511,12.5719355 212.018663,12.377158 C211.646816,12.1823806 211.248413,12.0053129 210.823444,11.8459495 C210.398475,11.6865862 210.026633,11.5537854 209.707907,11.4475432 C209.38918,11.3413009 209.092591,11.239487 208.818132,11.1420983 C208.543673,11.0447096 208.260365,10.9473223 207.968199,10.8499336 C207.676033,10.7525449 207.326324,10.6241708 206.919062,10.4648074 C206.458679,10.2877371 206.01601,10.0442689 205.591041,9.73439575 C205.166072,9.42452258 204.794229,9.06153373 204.475503,8.64541833 C204.156776,8.22930292 203.900028,7.76892683 203.70525,7.26427623 C203.510473,6.75962563 203.413086,6.22399575 203.413086,5.65737052 C203.413086,4.70119044 203.585727,3.8778255 203.931014,3.187251 C204.276301,2.49667649 204.741104,1.92120637 205.325436,1.46082337 C205.909769,1.00044037 206.587053,0.659584993 207.357309,0.438247012 C208.127565,0.216909031 208.93765,0.1062417 209.787588,0.1062417 C210.584405,0.1062417 211.266115,0.172642098 211.832741,0.305444887 C212.399366,0.438247676 212.864169,0.584328552 213.227163,0.743691899 C213.590157,0.903055246 213.864612,1.04913612 214.050536,1.18193891 C214.23646,1.3147417 214.338274,1.3811421 214.355981,1.3811421 C214.409102,1.3811421 214.519769,1.27490146 214.687986,1.062417 C214.856203,0.849932537 215.011137,0.637451262 215.152794,0.424966799 L215.444958,0.424966799 L215.444958,5.33864542 L215.152794,5.33864542 C214.940309,4.75431315 214.665854,4.17441633 214.32942,3.59893758 C213.992987,3.02345883 213.603438,2.50996242 213.160762,2.05843293 C212.718086,1.60690345 212.213443,1.23948792 211.646818,0.956175299 C211.080192,0.672862683 210.451602,0.531208499 209.761027,0.531208499 C209.212109,0.531208499 208.694186,0.610888977 208.207243,0.770252324 C207.720299,0.929615671 207.295336,1.1686571 206.932342,1.4873838 C206.569348,1.80611049 206.286039,2.20008619 206.082409,2.66932271 C205.878778,3.13855923 205.776964,3.67418911 205.776964,4.27622842 C205.776964,5.21470146 206.060272,5.96723931 206.626897,6.53386454 C207.193522,7.10048977 207.928354,7.55201248 208.831412,7.88844622 C209.185553,8.03010252 209.517555,8.15404993 209.827428,8.26029216 C210.137302,8.3665344 210.442743,8.46834834 210.743763,8.56573705 C211.044783,8.66312576 211.350225,8.76493971 211.660098,8.87118194 C211.969971,8.97742417 212.29312,9.09251819 212.629553,9.21646746 C213.833632,9.65914343 214.767664,10.3010139 215.431678,11.1420983 C216.095692,11.9831826 216.427694,13.0323089 216.427694,14.2895086 Z M233.382099,14.2895086 C233.382099,15.1394465 233.209458,15.9008377 232.86417,16.5737052 C232.518883,17.2465726 232.0408,17.8220428 231.429907,18.3001328 C230.819015,18.7782228 230.08861,19.1323583 229.238672,19.3625498 C228.388734,19.5927413 227.459129,19.7078353 226.449828,19.7078353 C225.582183,19.7078353 224.838498,19.654715 224.218752,19.5484728 C223.599006,19.4422305 223.085509,19.3138564 222.678247,19.1633466 C222.270985,19.0128368 221.965544,18.8756093 221.761913,18.75166 C221.558282,18.6277108 221.429908,18.5657371 221.376787,18.5657371 C221.323665,18.5657371 221.208571,18.6719777 221.031501,18.8844622 C220.854431,19.0969466 220.69507,19.3005745 220.553413,19.4953519 L220.31437,19.4953519 L220.234688,14.2098274 L220.500293,14.2098274 C220.659656,14.6879174 220.863284,15.1527202 221.111182,15.6042497 C221.359081,16.0557792 221.629109,16.4807417 221.921275,16.8791501 C222.213441,17.2775584 222.52331,17.6272672 222.85089,17.9282869 C223.17847,18.2293065 223.492766,18.4594946 223.793785,18.6188579 C224.094805,18.7782212 224.493207,18.9375822 224.989004,19.0969456 C225.484801,19.2563089 225.962884,19.3359894 226.423267,19.3359894 C227.733588,19.3359894 228.795995,18.9774272 229.610518,18.2602922 C230.425042,17.5431571 230.832298,16.5737113 230.832298,15.3519256 C230.832298,14.8561286 230.752617,14.4223126 230.593254,14.0504648 C230.433891,13.678617 230.216983,13.3554684 229.942524,13.0810093 C229.668065,12.8065502 229.344916,12.5719355 228.973068,12.377158 C228.60122,12.1823806 228.202818,12.0053129 227.777849,11.8459495 C227.35288,11.6865862 226.981038,11.5537854 226.662311,11.4475432 C226.343584,11.3413009 226.046996,11.239487 225.772537,11.1420983 C225.498078,11.0447096 225.214769,10.9473223 224.922603,10.8499336 C224.630437,10.7525449 224.280728,10.6241708 223.873466,10.4648074 C223.413083,10.2877371 222.970414,10.0442689 222.545445,9.73439575 C222.120476,9.42452258 221.748634,9.06153373 221.429907,8.64541833 C221.111181,8.22930292 220.854432,7.76892683 220.659655,7.26427623 C220.464878,6.75962563 220.36749,6.22399575 220.36749,5.65737052 C220.36749,4.70119044 220.540131,3.8778255 220.885419,3.187251 C221.230706,2.49667649 221.695509,1.92120637 222.279841,1.46082337 C222.864173,1.00044037 223.541457,0.659584993 224.311714,0.438247012 C225.08197,0.216909031 225.892055,0.1062417 226.741992,0.1062417 C227.538809,0.1062417 228.22052,0.172642098 228.787145,0.305444887 C229.35377,0.438247676 229.818573,0.584328552 230.181567,0.743691899 C230.544562,0.903055246 230.819017,1.04913612 231.004941,1.18193891 C231.190865,1.3147417 231.292678,1.3811421 231.310385,1.3811421 C231.363507,1.3811421 231.474174,1.27490146 231.642391,1.062417 C231.810608,0.849932537 231.965542,0.637451262 232.107198,0.424966799 L232.399363,0.424966799 L232.399363,5.33864542 L232.107198,5.33864542 C231.894714,4.75431315 231.620259,4.17441633 231.283825,3.59893758 C230.947391,3.02345883 230.557842,2.50996242 230.115166,2.05843293 C229.67249,1.60690345 229.167847,1.23948792 228.601222,0.956175299 C228.034597,0.672862683 227.406006,0.531208499 226.715432,0.531208499 C226.166514,0.531208499 225.648591,0.610888977 225.161647,0.770252324 C224.674704,0.929615671 224.249741,1.1686571 223.886747,1.4873838 C223.523752,1.80611049 223.240444,2.20008619 223.036813,2.66932271 C222.833182,3.13855923 222.731368,3.67418911 222.731368,4.27622842 C222.731368,5.21470146 223.014677,5.96723931 223.581302,6.53386454 C224.147927,7.10048977 224.882758,7.55201248 225.785817,7.88844622 C226.139958,8.03010252 226.47196,8.15404993 226.781833,8.26029216 C227.091706,8.3665344 227.397148,8.46834834 227.698168,8.56573705 C227.999187,8.66312576 228.304629,8.76493971 228.614502,8.87118194 C228.924376,8.97742417 229.247524,9.09251819 229.583958,9.21646746 C230.788036,9.65914343 231.722069,10.3010139 232.386083,11.1420983 C233.050097,11.9831826 233.382099,13.0323089 233.382099,14.2895086 Z M253.629996,0.664010624 C253.134199,0.734838778 252.709236,0.858786189 252.355096,1.03585657 C252.000955,1.21292696 251.673379,1.44311501 251.37236,1.72642762 C251.07134,2.00974024 250.783605,2.34616892 250.509146,2.73572377 C250.234687,3.12527862 249.938098,3.56794794 249.619372,4.06374502 C249.406887,4.40017875 249.110299,4.85612815 248.729598,5.43160691 C248.348896,6.00708566 247.959347,6.60468924 247.560939,7.22443559 C247.16253,7.84418194 246.777408,8.43735883 246.40556,9.00398406 C246.033713,9.5706093 245.741551,10.0132786 245.529066,10.3320053 L245.529066,15.6706507 C245.529066,16.1841548 245.542346,16.6843712 245.568907,17.1713147 C245.595468,17.6582583 245.679575,17.9991137 245.821231,18.1938911 C246.086837,18.5834459 246.432119,18.8401942 246.857088,18.9641434 C247.282056,19.0880927 247.689312,19.1854799 248.078867,19.2563081 L248.078867,19.5219124 L239.898256,19.5219124 L239.898256,19.2563081 C240.358639,19.203187 240.761468,19.1190798 241.106756,19.0039841 C241.452043,18.8888883 241.819458,18.6100066 242.209013,18.1673307 C242.297548,18.0787955 242.363949,17.9282879 242.408216,17.7158035 C242.452484,17.503319 242.487898,17.2642776 242.514458,16.998672 C242.541019,16.7330664 242.558725,16.449758 242.567579,16.1487384 C242.576432,15.8477187 242.580859,15.555557 242.580859,15.2722444 C242.598566,14.7764473 242.611846,14.1876971 242.6207,13.5059761 C242.629553,12.8242551 242.63398,11.9964635 242.63398,11.0225764 C242.598566,10.9694552 242.492325,10.8012409 242.315255,10.5179283 C242.138185,10.2346157 241.921277,9.88490691 241.664524,9.4687915 C241.407772,9.0526761 241.124464,8.58787331 240.814591,8.07436919 C240.504718,7.56086507 240.199276,7.06064874 239.898256,6.57370518 C239.597237,6.08676162 239.313928,5.63081222 239.048323,5.20584329 C238.782717,4.78087437 238.561382,4.4355923 238.384312,4.16998672 C238.047878,3.6564826 237.742436,3.18725312 237.467977,2.7622842 C237.193518,2.33731527 236.914637,1.97432643 236.631324,1.67330677 C236.348011,1.37228712 236.06913,1.13324568 235.794671,0.956175299 C235.520211,0.779104914 235.205916,0.681717663 234.851775,0.664010624 L234.851775,0.398406375 L242.899584,0.398406375 L242.899584,0.664010624 C242.633979,0.681717663 242.368377,0.708277822 242.102771,0.743691899 C241.837166,0.779105976 241.589271,0.836652988 241.35908,0.916334661 C241.128888,0.996016335 240.942967,1.10225697 240.801311,1.23505976 C240.659654,1.36786255 240.588827,1.54935697 240.588827,1.77954847 C240.588827,2.00973997 240.717201,2.35944874 240.973953,2.82868526 C241.230705,3.29792178 241.500734,3.77157795 241.784046,4.24966799 C241.978824,4.56839469 242.209012,4.953517 242.474617,5.40504648 C242.740223,5.85657596 243.032385,6.33465883 243.351111,6.83930943 C243.669838,7.34396003 243.992987,7.86188313 244.320567,8.39309429 C244.648147,8.92430544 244.953589,9.42894847 245.236902,9.90703851 C245.467093,9.57060478 245.750402,9.14121554 246.086835,8.6188579 C246.423269,8.09650027 246.764124,7.56529708 247.109412,7.0252324 C247.454699,6.48516773 247.782274,5.96724462 248.092147,5.47144754 C248.402021,4.97565046 248.636635,4.58610146 248.795999,4.30278884 C248.884534,4.16113254 248.981921,3.99734489 249.088163,3.81142098 C249.194405,3.62549708 249.296219,3.43072258 249.393608,3.22709163 C249.490997,3.02346069 249.575104,2.81540611 249.645932,2.60292165 C249.71676,2.39043718 249.752174,2.19566268 249.752174,2.0185923 C249.752174,1.73527968 249.681347,1.51394502 249.53969,1.35458167 C249.398034,1.19521833 249.21654,1.07127092 248.995202,0.982735724 C248.773864,0.894200531 248.530396,0.827800133 248.26479,0.783532537 C247.999185,0.73926494 247.742436,0.699424701 247.494538,0.664010624 L247.494538,0.398406375 L253.629996,0.398406375 L253.629996,0.664010624 Z" id="COOKING-CLASSY"></path>
                <path d="M13.3067729,5.60424967 C12.899511,5.10845259 12.3992947,4.72775697 11.8061089,4.46215139 C11.2129231,4.19654582 10.5267857,4.06374502 9.74767596,4.06374502 C8.96856627,4.06374502 8.24701527,4.21425259 7.58300133,4.51527224 C6.91898738,4.8162919 6.34351726,5.23682776 5.85657371,5.77689243 C5.36963015,6.3169571 4.98893453,6.95882762 4.71447543,7.70252324 C4.44001633,8.44621886 4.30278884,9.25187703 4.30278884,10.1195219 C4.30278884,11.0048738 4.44001633,11.8149587 4.71447543,12.5498008 C4.98893453,13.2846429 5.36520345,13.9220867 5.84329349,14.4621514 C6.32138353,15.0022161 6.88357357,15.4227519 7.52988048,15.7237716 C8.17618738,16.0247912 8.87117822,16.1752988 9.61487384,16.1752988 C10.4648117,16.1752988 11.2173495,15.9982311 11.87251,15.6440903 C12.5276704,15.2899495 13.067727,14.7941599 13.4926959,14.1567065 L16.9455511,16.7330677 C16.1487344,17.8486112 15.1394483,18.6719761 13.9176627,19.2031873 C12.695877,19.7343984 11.4386961,20 10.1460823,20 C8.67639814,20 7.32183001,19.769812 6.08233732,19.309429 C4.84284462,18.8490459 3.77158486,18.1894687 2.8685259,17.3306773 C1.96546693,16.4718859 1.26162271,15.431613 0.756972112,14.2098274 C0.252321514,12.9880417 -4.40536496e-13,11.6246202 -4.40536496e-13,10.1195219 C-4.40536496e-13,8.61442364 0.252321514,7.25100212 0.756972112,6.02921647 C1.26162271,4.80743081 1.96546693,3.7671579 2.8685259,2.90836653 C3.77158486,2.04957517 4.84284462,1.38999788 6.08233732,0.929614874 C7.32183001,0.469231873 8.67639814,0.239043825 10.1460823,0.239043825 C10.6772935,0.239043825 11.2306301,0.28773745 11.8061089,0.385126162 C12.3815876,0.482514874 12.9482044,0.637449137 13.5059761,0.849933599 C14.0637478,1.06241806 14.5993777,1.34572643 15.1128818,1.6998672 C15.6263859,2.05400797 16.086762,2.4878239 16.4940239,3.00132802 L13.3067729,5.60424967 Z M18.6365649,10.1195219 C18.6365649,8.61442364 18.8888864,7.25100212 19.393537,6.02921647 C19.8981876,4.80743081 20.6020318,3.7671579 21.5050907,2.90836653 C22.4081497,2.04957517 23.4794095,1.38999788 24.7189022,0.929614874 C25.9583949,0.469231873 27.312963,0.239043825 28.7826472,0.239043825 C30.2523314,0.239043825 31.6068995,0.469231873 32.8463922,0.929614874 C34.0858849,1.38999788 35.1571447,2.04957517 36.0602036,2.90836653 C36.9632626,3.7671579 37.6671068,4.80743081 38.1717574,6.02921647 C38.676408,7.25100212 38.9287295,8.61442364 38.9287295,10.1195219 C38.9287295,11.6246202 38.676408,12.9880417 38.1717574,14.2098274 C37.6671068,15.431613 36.9632626,16.4718859 36.0602036,17.3306773 C35.1571447,18.1894687 34.0858849,18.8490459 32.8463922,19.309429 C31.6068995,19.769812 30.2523314,20 28.7826472,20 C27.312963,20 25.9583949,19.769812 24.7189022,19.309429 C23.4794095,18.8490459 22.4081497,18.1894687 21.5050907,17.3306773 C20.6020318,16.4718859 19.8981876,15.431613 19.393537,14.2098274 C18.8888864,12.9880417 18.6365649,11.6246202 18.6365649,10.1195219 Z M22.9393537,10.1195219 C22.9393537,11.0048738 23.0765812,11.8149587 23.3510403,12.5498008 C23.6254994,13.2846429 24.0194751,13.9220867 24.5329792,14.4621514 C25.0464833,15.0022161 25.6617937,15.4227519 26.3789287,15.7237716 C27.0960638,16.0247912 27.8972953,16.1752988 28.7826472,16.1752988 C29.6679991,16.1752988 30.4692306,16.0247912 31.1863656,15.7237716 C31.9035007,15.4227519 32.5188111,15.0022161 33.0323152,14.4621514 C33.5458193,13.9220867 33.939795,13.2846429 34.2142541,12.5498008 C34.4887132,11.8149587 34.6259407,11.0048738 34.6259407,10.1195219 C34.6259407,9.25187703 34.4887132,8.44621886 34.2142541,7.70252324 C33.939795,6.95882762 33.5458193,6.3169571 33.0323152,5.77689243 C32.5188111,5.23682776 31.9035007,4.8162919 31.1863656,4.51527224 C30.4692306,4.21425259 29.6679991,4.06374502 28.7826472,4.06374502 C27.8972953,4.06374502 27.0960638,4.21425259 26.3789287,4.51527224 C25.6617937,4.8162919 25.0464833,5.23682776 24.5329792,5.77689243 C24.0194751,6.3169571 23.6254994,6.95882762 23.3510403,7.70252324 C23.0765812,8.44621886 22.9393537,9.25187703 22.9393537,10.1195219 Z M41.1775122,10.1195219 C41.1775122,8.61442364 41.4298337,7.25100212 41.9344843,6.02921647 C42.4391349,4.80743081 43.1429791,3.7671579 44.0460381,2.90836653 C44.949097,2.04957517 46.0203568,1.38999788 47.2598495,0.929614874 C48.4993422,0.469231873 49.8539103,0.239043825 51.3235945,0.239043825 C52.7932787,0.239043825 54.1478468,0.469231873 55.3873395,0.929614874 C56.6268322,1.38999788 57.698092,2.04957517 58.601151,2.90836653 C59.5042099,3.7671579 60.2080541,4.80743081 60.7127047,6.02921647 C61.2173553,7.25100212 61.4696768,8.61442364 61.4696768,10.1195219 C61.4696768,11.6246202 61.2173553,12.9880417 60.7127047,14.2098274 C60.2080541,15.431613 59.5042099,16.4718859 58.601151,17.3306773 C57.698092,18.1894687 56.6268322,18.8490459 55.3873395,19.309429 C54.1478468,19.769812 52.7932787,20 51.3235945,20 C49.8539103,20 48.4993422,19.769812 47.2598495,19.309429 C46.0203568,18.8490459 44.949097,18.1894687 44.0460381,17.3306773 C43.1429791,16.4718859 42.4391349,15.431613 41.9344843,14.2098274 C41.4298337,12.9880417 41.1775122,11.6246202 41.1775122,10.1195219 Z M45.480301,10.1195219 C45.480301,11.0048738 45.6175285,11.8149587 45.8919876,12.5498008 C46.1664467,13.2846429 46.5604224,13.9220867 47.0739265,14.4621514 C47.5874306,15.0022161 48.202741,15.4227519 48.9198761,15.7237716 C49.6370111,16.0247912 50.4382426,16.1752988 51.3235945,16.1752988 C52.2089464,16.1752988 53.0101779,16.0247912 53.727313,15.7237716 C54.444448,15.4227519 55.0597584,15.0022161 55.5732625,14.4621514 C56.0867666,13.9220867 56.4807423,13.2846429 56.7552014,12.5498008 C57.0296605,11.8149587 57.166888,11.0048738 57.166888,10.1195219 C57.166888,9.25187703 57.0296605,8.44621886 56.7552014,7.70252324 C56.4807423,6.95882762 56.0867666,6.3169571 55.5732625,5.77689243 C55.0597584,5.23682776 54.444448,4.8162919 53.727313,4.51527224 C53.0101779,4.21425259 52.2089464,4.06374502 51.3235945,4.06374502 C50.4382426,4.06374502 49.6370111,4.21425259 48.9198761,4.51527224 C48.202741,4.8162919 47.5874306,5.23682776 47.0739265,5.77689243 C46.5604224,6.3169571 46.1664467,6.95882762 45.8919876,7.70252324 C45.6175285,8.44621886 45.480301,9.25187703 45.480301,10.1195219 Z M64.8871182,0.717131474 L69.0305445,0.717131474 L69.0305445,8.52589641 L76.3346614,0.717131474 L81.752988,0.717131474 L73.3864542,9.45551129 L82.4701195,19.5219124 L76.6799469,19.5219124 L69.0305445,10.5976096 L69.0305445,19.5219124 L64.8871182,19.5219124 L64.8871182,0.717131474 Z M84.2939354,0.717131474 L88.4373617,0.717131474 L88.4373617,19.5219124 L84.2939354,19.5219124 L84.2939354,0.717131474 Z M92.6516158,0.717131474 L98.2824259,0.717131474 L106.277114,13.7848606 L106.330235,13.7848606 L106.330235,0.717131474 L110.473661,0.717131474 L110.473661,19.5219124 L105.055334,19.5219124 L96.8481629,6.13545817 L96.7950421,6.13545817 L96.7950421,19.5219124 L92.6516158,19.5219124 L92.6516158,0.717131474 Z M131.766268,18.1938911 C130.544483,18.8313445 129.269595,19.2917206 127.941567,19.5750332 C126.613539,19.8583458 125.258971,20 123.877822,20 C122.408138,20 121.05357,19.769812 119.814077,19.309429 C118.574584,18.8490459 117.503325,18.1894687 116.600266,17.3306773 C115.697207,16.4718859 114.993362,15.431613 114.488712,14.2098274 C113.984061,12.9880417 113.73174,11.6246202 113.73174,10.1195219 C113.73174,8.61442364 113.984061,7.25100212 114.488712,6.02921647 C114.993362,4.80743081 115.697207,3.7671579 116.600266,2.90836653 C117.503325,2.04957517 118.574584,1.38999788 119.814077,0.929614874 C121.05357,0.469231873 122.408138,0.239043825 123.877822,0.239043825 C125.38292,0.239043825 126.768475,0.420538247 128.034529,0.783532537 C129.300582,1.14652683 130.411682,1.77069057 131.367862,2.6560425 L128.446215,5.84329349 C127.87959,5.25896122 127.242146,4.8162919 126.533865,4.51527224 C125.825583,4.21425259 124.940244,4.06374502 123.877822,4.06374502 C122.99247,4.06374502 122.191239,4.21425259 121.474104,4.51527224 C120.756969,4.8162919 120.141658,5.23682776 119.628154,5.77689243 C119.11465,6.3169571 118.720674,6.95882762 118.446215,7.70252324 C118.171756,8.44621886 118.034529,9.25187703 118.034529,10.1195219 C118.034529,11.0048738 118.171756,11.8149587 118.446215,12.5498008 C118.720674,13.2846429 119.11465,13.9220867 119.628154,14.4621514 C120.141658,15.0022161 120.756969,15.4227519 121.474104,15.7237716 C122.191239,16.0247912 122.99247,16.1752988 123.877822,16.1752988 C124.780881,16.1752988 125.559979,16.0734849 126.215139,15.8698539 C126.8703,15.666223 127.39265,15.4581684 127.782205,15.2456839 L127.782205,12.1912351 L124.409031,12.1912351 L124.409031,8.36653386 L131.766268,8.36653386 L131.766268,18.1938911 Z" id="Combined-Shape"></path>
                <path d="M261.915476,3.72585826 L261.915476,1.16051979 L261.035506,3.72585826 L260.627836,3.72585826 L259.747865,1.16051979 L259.747865,3.72585826 L259.01207,3.72585826 L259.01207,0.0369413197 L259.926842,0.0369413197 L260.831671,2.65199564 L261.761357,0.0369413197 L262.6463,0.0369413197 L262.6463,3.72585826 L261.915476,3.72585826 Z M258.495025,0.0369413197 L258.495025,0.673304349 L257.535509,0.673304349 L257.535509,3.72088667 L256.749998,3.72088667 L256.749998,0.673304349 L255.785511,0.673304349 L255.785511,0.0369413197 L258.495025,0.0369413197 Z" id="™" fill-rule="nonzero"></path>
            </g>
        </g>
    </g>
</svg>