<svg xmlns="http://www.w3.org/2000/svg" xmlns:xlink="http://www.w3.org/1999/xlink" width="37.127" height="37.127" viewBox="0 0 37.127 37.127">
  <defs>
    <clipPath id="stat-region">
      <rect width="37.127" height="37.127" fill="#de973b"/>
    </clipPath>
  </defs>
  <g transform="translate(0 0)" clip-path="url(#stat-region)">
    <path d="M37.127,18.564A18.564,18.564,0,1,1,18.564,0,18.563,18.563,0,0,1,37.127,18.564" transform="translate(0 0)" fill="#de973b"/>
    <path d="M24.446,15.254c.042.075-.025.234-.081.385a.207.207,0,0,0,.219.278.461.461,0,0,1,.434.2l.334.487a.172.172,0,0,1,.025.142l-.092.356a.152.152,0,0,0,.166.189.744.744,0,0,0,.364-.152l.721-.561.006-.005.956-.89a.1.1,0,0,0,.02-.025l.395-.734a.171.171,0,0,1,.11-.086l1.2-.313a.1.1,0,0,0,.067-.061L29.815,13A.174.174,0,0,1,30,12.889l.652.066a.177.177,0,0,1,.137.093l.59,1.132a.173.173,0,0,1-.034.207l-.933.885a.1.1,0,0,0-.03.078l.082.963a.173.173,0,0,1-.067.153l-.964.741a.1.1,0,0,0-.037.069l-.056.738a.173.173,0,0,1-.083.135l-.378.23a.1.1,0,0,0-.044.064l-.178.87a.1.1,0,0,0,.009.065l.483.933a.173.173,0,0,1-.02.191l-.839,1.011,0,0-1.323,1.81a.1.1,0,0,0-.011.095l.589,1.394a.117.117,0,0,1,.01.03l.384,1.75a.177.177,0,0,1-.063.175.184.184,0,0,1-.116.036h-.742a.173.173,0,0,1-.146-.079l-.773-1.194a.226.226,0,0,1-.023-.053l-.133-.534a.1.1,0,0,0-.073-.071l-.953-.207-.009,0-1.275-.157a.1.1,0,0,0-.061.013l-.735.436a.19.19,0,0,1-.027.013l-.773.294a.179.179,0,0,1-.076.011l-1.686-.133a.1.1,0,0,0-.065.018L19.052,26a.1.1,0,0,0-.04.078l0,.994a.174.174,0,0,1-.075.143.171.171,0,0,1-.1.031.162.162,0,0,1-.062-.011l-1.023-.386a.174.174,0,0,1-.095-.086l-.681-1.381a.1.1,0,0,0-.047-.045l-.717-.319a.1.1,0,0,0-.1.015l-.3.255a.174.174,0,0,1-.256-.033L14.89,24.3a.092.092,0,0,0-.033-.029l-1.326-.724a.089.089,0,0,0-.045-.012l-1.4,0a.168.168,0,0,1-.091-.026l-1.669-1.033a.09.09,0,0,0-.032-.013l-1.117-.22a.174.174,0,0,1-.1-.056L7.9,20.827a.173.173,0,0,1-.034-.057L7.406,19.4a.13.13,0,0,1-.006-.025l-.224-1.27V18.1l-.181-1.3A.169.169,0,0,1,7,16.732l.328-1.088.007-.022.861-2.2a.1.1,0,0,0,.006-.041l-.071-1.09a.174.174,0,0,1,.256-.165l.543.288a.1.1,0,0,0,.135-.048l.086-.2a.174.174,0,0,1,.2-.1l2.112.532.007,0,2.441.419h.005l2.836.331h.007l2.96.1a.18.18,0,0,1,.062.014l.513.214a.1.1,0,0,0,.035.007l.45.009a.161.161,0,0,1,.058.011l.514.193a.087.087,0,0,0,.03.005l.577.023a.174.174,0,0,1,.146.257l-.039.071a.1.1,0,0,0,.12.136l.451-.176a.175.175,0,0,1,.195.048l.273.315a.1.1,0,0,0,.1.03l.64-.177a.175.175,0,0,1,.146.025Z" transform="translate(-0.631 -1.087)" fill="#de973b" stroke="#fff" stroke-linecap="round" stroke-linejoin="round" stroke-width="1"/>
  </g>
</svg> 