<svg xmlns="http://www.w3.org/2000/svg" width="119" height="75" viewBox="0 0 119 75"><g transform="translate(-636 -389)"><g transform="translate(-48 19)"><path d="M35.217,2.679a3,3,0,0,1,4.567,0l31,36.375A3,3,0,0,1,68.5,44H6.5a3,3,0,0,1-2.283-4.946Z" transform="translate(803 370) rotate(90)" fill="#275894"/><path d="M75,75H0V0H75l25,21.307V53.693L75,75Z" transform="translate(684 370)" fill="#275894"/><path d="M22.4,21.95l-3.25-3.2a1.309,1.309,0,0,0-1.025-.375A1.476,1.476,0,0,0,17.1,18.8a1.45,1.45,0,0,0,0,2.1l5.7,5.75a1.238,1.238,0,0,0,1.025.425A1.669,1.669,0,0,0,24.9,26.65l5.85-5.8a1.309,1.309,0,0,0,.375-1.025A1.476,1.476,0,0,0,30.7,18.8a1.45,1.45,0,0,0-2.1,0l-3.2,3.15v-8.5a1.359,1.359,0,0,0-.45-1.025A1.481,1.481,0,0,0,23.9,12a1.454,1.454,0,0,0-1.5,1.5Zm-6.9,12H32.55a1.359,1.359,0,0,0,1.025-.45A1.481,1.481,0,0,0,34,32.45a1.454,1.454,0,0,0-1.5-1.5H15.45a1.359,1.359,0,0,0-1.025.45A1.481,1.481,0,0,0,14,32.45a1.454,1.454,0,0,0,1.5,1.5ZM24,44.3a20.679,20.679,0,0,1-8.025-1.55A19.467,19.467,0,0,1,5.25,32.025,20.679,20.679,0,0,1,3.7,24a20.549,20.549,0,0,1,1.55-7.975,19.733,19.733,0,0,1,4.275-6.45,20.064,20.064,0,0,1,6.45-4.3A20.393,20.393,0,0,1,24,3.7a20.265,20.265,0,0,1,7.975,1.575A20.081,20.081,0,0,1,44.3,24a20.393,20.393,0,0,1-1.575,8.025,20.064,20.064,0,0,1-4.3,6.45,19.733,19.733,0,0,1-6.45,4.275A20.549,20.549,0,0,1,24,44.3ZM24,24Zm0,16.9A16.57,16.57,0,0,0,40.9,24,16.57,16.57,0,0,0,24,7.1,16.57,16.57,0,0,0,7.1,24,16.57,16.57,0,0,0,24,40.9Z" transform="translate(701.3 383.3)" fill="#fff"/></g></g></svg>