<svg xmlns="http://www.w3.org/2000/svg" xmlns:xlink="http://www.w3.org/1999/xlink" width="37.127" height="37.127" viewBox="0 0 37.127 37.127">
  <defs>
    <clipPath id="stat-antennae">
      <rect width="37.127" height="37.127" fill="#de973b"/>
    </clipPath>
  </defs>
  <g transform="translate(0 0)" clip-path="url(#stat-antennae)">
    <path d="M37.127,18.564A18.564,18.564,0,1,1,18.564,0,18.563,18.563,0,0,1,37.127,18.564" transform="translate(0 0)" fill="#de973b"/>
    <path d="M21.379,15.767a.776.776,0,0,1,.608.295,2.132,2.132,0,0,1,.508,1.252l-1.16,1.16h-2.32l-1.16-1.16a2.132,2.132,0,0,1,.508-1.252.775.775,0,0,1,.609-.295Z" transform="translate(-1.61 -1.422)" fill="#de973b" stroke="#fff" stroke-linecap="round" stroke-linejoin="round" stroke-width="1"/>
    <line x1="3.867" transform="translate(16.63 19.372)" fill="none" stroke="#fff" stroke-linecap="round" stroke-linejoin="round" stroke-width="1"/>
    <line x1="5.413" transform="translate(15.857 22.079)" fill="none" stroke="#fff" stroke-linecap="round" stroke-linejoin="round" stroke-width="1"/>
    <line x1="5.413" transform="translate(15.857 24.785)" fill="none" stroke="#fff" stroke-linecap="round" stroke-linejoin="round" stroke-width="1"/>
    <line x1="5.413" transform="translate(15.857 27.492)" fill="none" stroke="#fff" stroke-linecap="round" stroke-linejoin="round" stroke-width="1"/>
    <path d="M22.954,17.467A3.388,3.388,0,0,1,24.887,19.4" transform="translate(-2.07 -1.575)" fill="#de973b" stroke="#fff" stroke-linecap="round" stroke-linejoin="round" stroke-width="1"/>
    <path d="M17.662,17.467A3.388,3.388,0,0,0,15.729,19.4" transform="translate(-1.419 -1.575)" fill="#de973b" stroke="#fff" stroke-linecap="round" stroke-linejoin="round" stroke-width="1"/>
    <path d="M25.4,20.867a2.792,2.792,0,0,1,.87,1.933" transform="translate(-2.291 -1.882)" fill="#de973b" stroke="#fff" stroke-linecap="round" stroke-linejoin="round" stroke-width="1"/>
    <path d="M15.324,20.867a2.792,2.792,0,0,0-.87,1.933" transform="translate(-1.304 -1.882)" fill="#de973b" stroke="#fff" stroke-linecap="round" stroke-linejoin="round" stroke-width="1"/>
    <path d="M26.128,24.108a1.571,1.571,0,0,1,.206,1.369" transform="translate(-2.357 -2.174)" fill="#de973b" stroke="#fff" stroke-linecap="round" stroke-linejoin="round" stroke-width="1"/>
    <path d="M14.653,24.108a1.571,1.571,0,0,0-.206,1.369" transform="translate(-1.297 -2.174)" fill="#de973b" stroke="#fff" stroke-linecap="round" stroke-linejoin="round" stroke-width="1"/>
    <path d="M26.128,27a2.37,2.37,0,0,1,.206,1.829" transform="translate(-2.357 -2.435)" fill="#de973b" stroke="#fff" stroke-linecap="round" stroke-linejoin="round" stroke-width="1"/>
    <path d="M14.651,27a2.37,2.37,0,0,0-.206,1.829" transform="translate(-1.295 -2.435)" fill="#de973b" stroke="#fff" stroke-linecap="round" stroke-linejoin="round" stroke-width="1"/>
    <path d="M26.086,29.013a3.894,3.894,0,0,0-2.707,1.1" transform="translate(-2.109 -2.616)" fill="#de973b" stroke="#fff" stroke-linecap="round" stroke-linejoin="round" stroke-width="1"/>
    <path d="M14.454,29.013a3.894,3.894,0,0,1,2.707,1.1" transform="translate(-1.304 -2.616)" fill="#de973b" stroke="#fff" stroke-linecap="round" stroke-linejoin="round" stroke-width="1"/>
    <path d="M26.086,25.613A3.212,3.212,0,0,0,23.379,27.1" transform="translate(-2.109 -2.31)" fill="#de973b" stroke="#fff" stroke-linecap="round" stroke-linejoin="round" stroke-width="1"/>
    <path d="M14.454,25.613A3.212,3.212,0,0,1,17.161,27.1" transform="translate(-1.304 -2.31)" fill="#de973b" stroke="#fff" stroke-linecap="round" stroke-linejoin="round" stroke-width="1"/>
    <path d="M26.086,22.992a3.738,3.738,0,0,0-2.707,1.16" transform="translate(-2.109 -2.073)" fill="#de973b" stroke="#fff" stroke-linecap="round" stroke-linejoin="round" stroke-width="1"/>
    <path d="M14.454,22.992a3.738,3.738,0,0,1,2.707,1.16" transform="translate(-1.304 -2.073)" fill="#de973b" stroke="#fff" stroke-linecap="round" stroke-linejoin="round" stroke-width="1"/>
    <path d="M24.849,19.592a5.613,5.613,0,0,0-2.32,1.547" transform="translate(-2.032 -1.767)" fill="#de973b" stroke="#fff" stroke-linecap="round" stroke-linejoin="round" stroke-width="1"/>
    <path d="M15.729,19.592a5.613,5.613,0,0,1,2.32,1.547" transform="translate(-1.419 -1.767)" fill="#de973b" stroke="#fff" stroke-linecap="round" stroke-linejoin="round" stroke-width="1"/>
    <path d="M24.889,30.217a5.713,5.713,0,0,1-2.272,2.32H17.2a5.719,5.719,0,0,1-2.272-2.32" transform="translate(-1.347 -2.725)" fill="#de973b" stroke="#fff" stroke-linecap="round" stroke-linejoin="round" stroke-width="1"/>
    <path d="M17.429,32.767c0,1.321,2.03,2.32,2.707,2.32s2.707-1,2.707-2.32" transform="translate(-1.572 -2.955)" fill="#de973b" stroke="#fff" stroke-linecap="round" stroke-linejoin="round" stroke-width="1"/>
    <path d="M25.985,21.6a8.379,8.379,0,0,1,1.915-.313" transform="translate(-2.344 -1.92)" fill="#de973b" stroke="#fff" stroke-linecap="round" stroke-linejoin="round" stroke-width="1"/>
    <path d="M14.633,21.6a8.379,8.379,0,0,0-1.915-.313" transform="translate(-1.147 -1.92)" fill="#de973b" stroke="#fff" stroke-linecap="round" stroke-linejoin="round" stroke-width="1"/>
    <path d="M26.392,24.68a6.237,6.237,0,0,1,2.285.429" transform="translate(-2.38 -2.226)" fill="#de973b" stroke="#fff" stroke-linecap="round" stroke-linejoin="round" stroke-width="1"/>
    <path d="M14.189,24.68a6.237,6.237,0,0,0-2.285.429" transform="translate(-1.074 -2.226)" fill="#de973b" stroke="#fff" stroke-linecap="round" stroke-linejoin="round" stroke-width="1"/>
    <path d="M26.426,27.825a3.961,3.961,0,0,1,1.964.271" transform="translate(-2.383 -2.507)" fill="#de973b" stroke="#fff" stroke-linecap="round" stroke-linejoin="round" stroke-width="1"/>
    <path d="M14.187,27.825a3.961,3.961,0,0,0-1.964.271" transform="translate(-1.102 -2.507)" fill="#de973b" stroke="#fff" stroke-linecap="round" stroke-linejoin="round" stroke-width="1"/>
    <path d="M24.866,31.606a2.514,2.514,0,0,1,1.708,1.249" transform="translate(-2.243 -2.85)" fill="#de973b" stroke="#fff" stroke-linecap="round" stroke-linejoin="round" stroke-width="1"/>
    <path d="M15.772,31.606a2.514,2.514,0,0,0-1.708,1.249" transform="translate(-1.268 -2.85)" fill="#de973b" stroke="#fff" stroke-linecap="round" stroke-linejoin="round" stroke-width="1"/>
    <path d="M22.073,34.65a1.028,1.028,0,0,1,.8.607" transform="translate(-1.991 -3.125)" fill="#de973b" stroke="#fff" stroke-linecap="round" stroke-linejoin="round" stroke-width="1"/>
    <path d="M18.656,34.65a1.028,1.028,0,0,0-.8.607" transform="translate(-1.61 -3.125)" fill="#de973b" stroke="#fff" stroke-linecap="round" stroke-linejoin="round" stroke-width="1"/>
    <path d="M24.016,18.06a4.738,4.738,0,0,1,3.287-.189" transform="translate(-2.166 -1.592)" fill="#de973b" stroke="#fff" stroke-linecap="round" stroke-linejoin="round" stroke-width="1"/>
    <path d="M16.465,18.06a4.738,4.738,0,0,0-3.287-.189" transform="translate(-1.189 -1.592)" fill="#de973b" stroke="#fff" stroke-linecap="round" stroke-linejoin="round" stroke-width="1"/>
    <path d="M15.408,5.491s-.435,6.336,3.339,9.349" transform="translate(-1.388 -0.495)" fill="#de973b" stroke="#fff" stroke-linecap="round" stroke-linejoin="round" stroke-width="1"/>
    <path d="M25.3,5.491s.435,6.336-3.339,9.349" transform="translate(-1.981 -0.495)" fill="#de973b" stroke="#fff" stroke-linecap="round" stroke-linejoin="round" stroke-width="1"/>
  </g>
</svg> 