<svg xmlns="http://www.w3.org/2000/svg" xmlns:xlink="http://www.w3.org/1999/xlink" width="37.127" height="37.127" viewBox="0 0 37.127 37.127">
  <defs>
    <clipPath id="stat-legs">
      <rect width="37.127" height="37.127" fill="#de973b" />
    </clipPath>
  </defs>
  <g transform="translate(0 0)" clip-path="url(#stat-legs)">
    <path d="M37.127,18.564A18.564,18.564,0,1,1,18.564,0,18.563,18.563,0,0,1,37.127,18.564" transform="translate(0 0)" fill="#de973b" />
    <path d="M28.513,15.186c2.218-2.736.258-5.435-.924-5.435-1.546,0-3.7,1.7-2.219,4.548" transform="translate(-2.243 -0.879)" fill="#de973b" stroke="#fff" stroke-linecap="round" stroke-linejoin="round" stroke-width="1" />
    <path d="M28.882,9.931l.842-2.218L31.5,6.825" transform="translate(-2.605 -0.615)" fill="#de973b" stroke="#fff" stroke-linecap="round" stroke-linejoin="round" stroke-width="1" />
    <path d="M23.469,6.825l1.792.941L26.074,9.9" transform="translate(-2.117 -0.615)" fill="#de973b" stroke="#fff" stroke-linecap="round" stroke-linejoin="round" stroke-width="1" />
    <path d="M25.277,14.749a2.969,2.969,0,0,0-1.443,1.59" transform="translate(-2.15 -1.33)" fill="#de973b" stroke="#fff" stroke-linecap="round" stroke-linejoin="round" stroke-width="1" />
    <path d="M23.575,16.5a3.307,3.307,0,0,0-2.625,1.294" transform="translate(-1.89 -1.488)" fill="#de973b" stroke="#fff" stroke-linecap="round" stroke-linejoin="round" stroke-width="1" />
    <path d="M20.766,17.908a2.51,2.51,0,0,0-1.849.148" transform="translate(-1.706 -1.605)" fill="#de973b" stroke="#fff" stroke-linecap="round" stroke-linejoin="round" stroke-width="1" />
    <path d="M18.595,18.07a4.131,4.131,0,0,0-3.253.555" transform="translate(-1.384 -1.619)" fill="#de973b" stroke="#fff" stroke-linecap="round" stroke-linejoin="round" stroke-width="1" />
    <path d="M15.06,18.691a3.368,3.368,0,0,0-2.848,1.959" transform="translate(-1.101 -1.685)" fill="#de973b" stroke="#fff" stroke-linecap="round" stroke-linejoin="round" stroke-width="1" />
    <path d="M12.067,20.845a1.833,1.833,0,0,0-1.442,2.071" transform="translate(-0.956 -1.88)" fill="#de973b" stroke="#fff" stroke-linecap="round" stroke-linejoin="round" stroke-width="1" />
    <path d="M10.49,23.121a2.319,2.319,0,0,0-1.367,2.4" transform="translate(-0.821 -2.085)" fill="#de973b" stroke="#fff" stroke-linecap="round" stroke-linejoin="round" stroke-width="1" />
    <path d="M9.069,25.762a2.52,2.52,0,0,0,.48,3.623" transform="translate(-0.767 -2.323)" fill="#de973b" stroke="#fff" stroke-linecap="round" stroke-linejoin="round" stroke-width="1" />
    <path d="M9.652,29.451a2.311,2.311,0,0,0,3.106-2.958" transform="translate(-0.871 -2.389)" fill="#de973b" stroke="#fff" stroke-linecap="round" stroke-linejoin="round" stroke-width="1" />
    <path d="M9.124,25.762a2.434,2.434,0,0,0,3.586.665" transform="translate(-0.823 -2.323)" fill="#de973b" stroke="#fff" stroke-linecap="round" stroke-linejoin="round" stroke-width="1" />
    <path d="M10.627,23.121a2.067,2.067,0,0,0,2.866,1.553" transform="translate(-0.958 -2.085)" fill="#de973b" stroke="#fff" stroke-linecap="round" stroke-linejoin="round" stroke-width="1" />
    <path d="M12.212,20.845A2.264,2.264,0,0,0,14.5,22.916" transform="translate(-1.101 -1.88)" fill="#de973b" stroke="#fff" stroke-linecap="round" stroke-linejoin="round" stroke-width="1" />
    <path d="M15.333,18.691a2.752,2.752,0,0,0,1.109,3" transform="translate(-1.374 -1.685)" fill="#de973b" stroke="#fff" stroke-linecap="round" stroke-linejoin="round" stroke-width="1" />
    <path d="M18.876,18.082a2.58,2.58,0,0,0,.37,3.253" transform="translate(-1.665 -1.631)" fill="#de973b" stroke="#fff" stroke-linecap="round" stroke-linejoin="round" stroke-width="1" />
    <path d="M25.42,14.736a3.043,3.043,0,0,1,3.143.887" transform="translate(-2.293 -1.317)" fill="#de973b" stroke="#fff" stroke-linecap="round" stroke-linejoin="round" stroke-width="1" />
    <path d="M28.709,15.725a2.186,2.186,0,0,1-1.664,2.362" transform="translate(-2.439 -1.418)" fill="#de973b" stroke="#fff" stroke-linecap="round" stroke-linejoin="round" stroke-width="1" />
    <path d="M22.688,20.845a2.476,2.476,0,0,1-3.364.74" transform="translate(-1.743 -1.88)" fill="#de973b" stroke="#fff" stroke-linecap="round" stroke-linejoin="round" stroke-width="1" />
    <path d="M19.075,21.658a2.482,2.482,0,0,1-2.514.3" transform="translate(-1.494 -1.953)" fill="#de973b" stroke="#fff" stroke-linecap="round" stroke-linejoin="round" stroke-width="1" />
    <path d="M16.4,21.983a1.622,1.622,0,0,1-1.664,1.035" transform="translate(-1.329 -1.982)" fill="#de973b" stroke="#fff" stroke-linecap="round" stroke-linejoin="round" stroke-width="1" />
    <path d="M14.646,23.121a1.278,1.278,0,0,1-.869,1.553" transform="translate(-1.243 -2.085)" fill="#de973b" stroke="#fff" stroke-linecap="round" stroke-linejoin="round" stroke-width="1" />
    <path d="M13.713,24.828a1.45,1.45,0,0,1-.647,1.516" transform="translate(-1.178 -2.239)" fill="#de973b" stroke="#fff" stroke-linecap="round" stroke-linejoin="round" stroke-width="1" />
    <path d="M26.682,18.32a2.55,2.55,0,0,1-3.66,2.3" transform="translate(-2.076 -1.652)" fill="#de973b" stroke="#fff" stroke-linecap="round" stroke-linejoin="round" stroke-width="1" />
    <path d="M20.949,17.919a4.509,4.509,0,0,1,1.886,2.662" transform="translate(-1.889 -1.616)" fill="#de973b" stroke="#fff" stroke-linecap="round" stroke-linejoin="round" stroke-width="1" />
    <path d="M23.835,16.5a5.2,5.2,0,0,1,2.92,1.659" transform="translate(-2.15 -1.488)" fill="#de973b" stroke="#fff" stroke-linecap="round" stroke-linejoin="round" stroke-width="1" />
    <path d="M24.091,15.456a3.335,3.335,0,0,1-1.7-2.718" transform="translate(-2.02 -1.149)" fill="#de973b" stroke="#fff" stroke-linecap="round" stroke-linejoin="round" stroke-width="1" />
    <path d="M21.807,16.818A2.551,2.551,0,0,1,20.3,14.75" transform="translate(-1.831 -1.33)" fill="#de973b" stroke="#fff" stroke-linecap="round" stroke-linejoin="round" stroke-width="1" />
    <path d="M18.832,17.86a1.754,1.754,0,0,1-.7-2.237" transform="translate(-1.621 -1.409)" fill="#de973b" stroke="#fff" stroke-linecap="round" stroke-linejoin="round" stroke-width="1" />
    <path d="M15.871,18.135a2.933,2.933,0,0,1,0-2.512" transform="translate(-1.406 -1.409)" fill="#de973b" stroke="#fff" stroke-linecap="round" stroke-linejoin="round" stroke-width="1" />
    <path d="M13.016,19.382a2.936,2.936,0,0,1-.222-2.885" transform="translate(-1.129 -1.488)" fill="#de973b" stroke="#fff" stroke-linecap="round" stroke-linejoin="round" stroke-width="1" />
    <path d="M11.338,20.989a1.653,1.653,0,0,1-1.08-1.932" transform="translate(-0.921 -1.718)" fill="#de973b" stroke="#fff" stroke-linecap="round" stroke-linejoin="round" stroke-width="1" />
    <path d="M9.549,23.634a1.973,1.973,0,0,1-.9-2.454" transform="translate(-0.768 -1.91)" fill="#de973b" stroke="#fff" stroke-linecap="round" stroke-linejoin="round" stroke-width="1" />
    <path d="M8.569,26.2a2.264,2.264,0,0,1-1.68-2.132" transform="translate(-0.621 -2.17)" fill="#de973b" stroke="#fff" stroke-linecap="round" stroke-linejoin="round" stroke-width="1" />
    <path d="M8.613,28.7A2.013,2.013,0,0,1,6.4,27.754" transform="translate(-0.577 -2.503)" fill="#de973b" stroke="#fff" stroke-linecap="round" stroke-linejoin="round" stroke-width="1" />
    <path d="M28.831,16.327a3.5,3.5,0,0,0,2.664-1.719" transform="translate(-2.6 -1.317)" fill="#de973b" stroke="#fff" stroke-linecap="round" stroke-linejoin="round" stroke-width="1" />
    <path d="M28.418,17.408a2.7,2.7,0,0,0,3.04.613" transform="translate(-2.563 -1.57)" fill="#de973b" stroke="#fff" stroke-linecap="round" stroke-linejoin="round" stroke-width="1" />
    <path d="M27.045,18.32a3.3,3.3,0,0,0,2.4,1.52" transform="translate(-2.439 -1.652)" fill="#de973b" stroke="#fff" stroke-linecap="round" stroke-linejoin="round" stroke-width="1" />
    <path d="M25.731,20.695a2.515,2.515,0,00,2.4,1.172" transform="translate(-2.321 -1.866)" fill="#de973b" stroke="#fff" stroke-linecap="round" stroke-linejoin="round" stroke-width="1" />
    <path d="M22.469,21.454a3.258,3.258,0,0,0,2.333,1.7" transform="translate(-2.027 -1.935)" fill="#de973b" stroke="#fff" stroke-linecap="round" stroke-linejoin="round" stroke-width="1" />
    <path d="M20.746,22a2.414,2.414,0,0,0,1.1,1.8" transform="translate(-1.871 -1.984)" fill="#de973b" stroke="#fff" stroke-linecap="round" stroke-linejoin="round" stroke-width="1" />
    <path d="M17.942,22.2a5.379,5.379,0,0,0,1.073,2.388" transform="translate(-1.618 -2.002)" fill="#de973b" stroke="#fff" stroke-linecap="round" stroke-linejoin="round" stroke-width="1" />
    <path d="M15.342,23.071a2.017,2.017,0,0,0,1.627,1.771" transform="translate(-1.384 -2.08)" fill="#de973b" stroke="#fff" stroke-linecap="round" stroke-linejoin="round" stroke-width="1" />
    <path d="M13.684,25.762A2.153,2.153,0,0,0,15.7,27.093" transform="translate(-1.234 -2.323)" fill="#de973b" stroke="#fff" stroke-linecap="round" stroke-linejoin="round" stroke-width="1" />
    <path d="M12.885,28.733a2.387,2.387,0,0,0,1.841,1.128" transform="translate(-1.162 -2.591)" fill="#de973b" stroke="#fff" stroke-linecap="round" stroke-linejoin="round" stroke-width="1" />
    <path d="M11.1,29.942A2.594,2.594,0,0,0,12.1,31.981" transform="translate(-1.001 -2.7)" fill="#de973b" stroke="#fff" stroke-linecap="round" stroke-linejoin="round" stroke-width="1" />
    <path d="M9.491,29.744c-.164.844-.934,1.264-1.627,1.775" transform="translate(-0.709 -2.682)" fill="#de973b" stroke="#fff" stroke-linecap="round" stroke-linejoin="round" stroke-width="1" />
  </g>
</svg>
