<svg xmlns="http://www.w3.org/2000/svg" xmlns:xlink="http://www.w3.org/1999/xlink" width="415.631" height="74.307" viewBox="0 0 415.631 74.307">
<defs>
<clipPath id="clip-path">
	<rect width="415.631" height="74.307" fill="none" />
</clipPath>
</defs>
<g transform="translate(0 0)">
<g transform="translate(0 0)" clip-path="url(#clip-path)">
	<path d="M545.219,82.326a2.016,2.016,0,0,1-1.549-.724,2.6,2.6,0,0,1,0-3.443,2.018,2.018,0,0,1,3.1,0,2.6,2.6,0,0,1,0,3.443,2.016,2.016,0,0,1-1.548.724" transform="translate(-179.047 -25.533)" fill="#20aadd" />
	<path d="M559.668,76.183a7.8,7.8,0,0,1-4.155-1.1,7.723,7.723,0,0,1-2.831-3.038,10.121,10.121,0,0,1,0-8.878,7.843,7.843,0,0,1,13.908,0,10.169,10.169,0,0,1,.011,8.878,7.566,7.566,0,0,1-6.933,4.142m0-4.036a3.586,3.586,0,0,0,2.03-.581,3.921,3.921,0,0,0,1.367-1.6,5.836,5.836,0,0,0-.011-4.712,3.938,3.938,0,0,0-1.389-1.614,3.831,3.831,0,0,0-4.059,0,3.938,3.938,0,0,0-1.388,1.614,5.33,5.33,0,0,0-.5,2.361,5.156,5.156,0,0,0,.513,2.351,4.033,4.033,0,0,0,1.4,1.6,3.639,3.639,0,0,0,2.04.581" transform="translate(-181.895 -19.46)" fill="#20aadd" />
	<path d="M578.176,59.4h3.952V76.015h-3.952Zm3.4,11.347V66.709h2.585a1.988,1.988,0,0,0,.94-.214,1.633,1.633,0,0,0,.641-.593,1.592,1.592,0,0,0,.235-.855,1.531,1.531,0,0,0-.5-1.175,1.862,1.862,0,0,0-1.314-.463h-2.585V59.4l2.8-.023a5.808,5.808,0,0,1,2.991.712A5.341,5.341,0,0,1,589.4,62.1a5.794,5.794,0,0,1,.737,2.944A5.857,5.857,0,0,1,589.4,68a5.228,5.228,0,0,1-2.04,2.018,6.055,6.055,0,0,1-2.991.724Zm4.636,5.27-3.333-6.528,2.969-2.469,4.892,9Z" transform="translate(-190.639 -19.577)" fill="#20aadd" />
	<path d="M606.055,76.172a7.56,7.56,0,0,1-4.08-1.1,7.64,7.64,0,0,1-2.777-3.038,10.367,10.367,0,0,1,0-8.9,7.646,7.646,0,0,1,2.777-3.039,7.565,7.565,0,0,1,4.08-1.1,7.067,7.067,0,0,1,2.682.475,6.369,6.369,0,0,1,2.019,1.294,8.045,8.045,0,0,1,1.453,1.887l-3.29,2.16a3.69,3.69,0,0,0-1.763-1.555,2.859,2.859,0,0,0-1.1-.226,3.407,3.407,0,0,0-1.965.582,3.971,3.971,0,0,0-1.346,1.6,5.419,5.419,0,0,0-.491,2.374,5.719,5.719,0,0,0,.47,2.374,3.786,3.786,0,0,0,1.357,1.638,3.655,3.655,0,0,0,2.083.593,3.246,3.246,0,0,0,1.517-.344,2.614,2.614,0,0,0,1.046-.973,2.74,2.74,0,0,0,.385-1.461l3.76-.783a9.048,9.048,0,0,1-.876,4.2,5.831,5.831,0,0,1-2.4,2.516,7.28,7.28,0,0,1-3.536.831m-.277-6.267V66.581h7.093v2.444l-2.244.879Z" transform="translate(-197.239 -19.449)" fill="#20aadd" />
	<path d="M35.956,25.717a18.822,18.822,0,0,0-10.031-2.56,13.527,13.527,0,0,0-8.463,2.56,13.058,13.058,0,0,0-2.915,3.135l-.511-4.7H0v57.8H14.861V61.152a12.82,12.82,0,0,0,2.6,2.709,13.523,13.523,0,0,0,8.463,2.56,18.816,18.816,0,0,0,10.031-2.56,16.5,16.5,0,0,0,6.4-7.43,27.807,27.807,0,0,0,2.229-11.642,27.742,27.742,0,0,0-2.229-11.683,16.547,16.547,0,0,0-6.4-7.389M28.113,48.876a7.547,7.547,0,0,1-2.518,2.807,6.459,6.459,0,0,1-3.633,1.032,6.655,6.655,0,0,1-3.674-1.032,7.089,7.089,0,0,1-2.518-2.807,9.651,9.651,0,0,1,0-8.175,6.714,6.714,0,0,1,2.559-2.766,7.083,7.083,0,0,1,3.715-.991,6.663,6.663,0,0,1,3.633.991A6.931,6.931,0,0,1,28.154,40.7a8.86,8.86,0,0,1,.909,4.087,8.543,8.543,0,0,1-.95,4.087" transform="translate(0 -7.635)" fill="#20aadd" />
	<path d="M95.767,53.83a8.687,8.687,0,0,1-4.748,1.28,7.934,7.934,0,0,1-3.674-.867,6.285,6.285,0,0,1-2.725-2.972,9.8,9.8,0,0,1-.817-2.766h28.93q0-8.586-2.766-14.2a19.005,19.005,0,0,0-7.6-8.38,22.118,22.118,0,0,0-11.188-2.766,24.759,24.759,0,0,0-11.807,2.724,20.089,20.089,0,0,0-8.008,7.6,21.737,21.737,0,0,0-2.89,11.31A21.511,21.511,0,0,0,71.41,56.1a20.233,20.233,0,0,0,8.133,7.6,25.241,25.241,0,0,0,11.889,2.725,29.336,29.336,0,0,0,7.885-1.115,20.261,20.261,0,0,0,7.266-3.715A14.762,14.762,0,0,0,111.33,54.7L98.285,50.651a5.376,5.376,0,0,1-2.518,3.179M86.479,34.923a5.853,5.853,0,0,1,4.128-1.444,5.918,5.918,0,0,1,4.83,1.94,9.861,9.861,0,0,1,1.877,4H84.173c.027-.121.048-.254.076-.372a8.065,8.065,0,0,1,2.229-4.128" transform="translate(-22.579 -7.636)" fill="#20aadd" />
	<path d="M163.084,42.767a20.514,20.514,0,0,0-6.6-2.766l-3.385-.826a15.57,15.57,0,0,1-3.674-1.362,1.865,1.865,0,0,1-.413-3.262,3.3,3.3,0,0,1,2.188-.661,6.9,6.9,0,0,1,3.344.743,4.165,4.165,0,0,1,1.94,2.394l11.476-4.376a15.073,15.073,0,0,0-3.3-4.954,14.583,14.583,0,0,0-5.491-3.344,24.559,24.559,0,0,0-8.215-1.2q-8.009,0-12.674,3.467a11.52,11.52,0,0,0-4.665,9.826,12.474,12.474,0,0,0,2.807,8.092,15.1,15.1,0,0,0,8.339,4.871l3.385.826a11.249,11.249,0,0,1,3.55,1.362,2.3,2.3,0,0,1,1.156,1.94,1.894,1.894,0,0,1-.826,1.651,3.661,3.661,0,0,1-2.147.578,8.424,8.424,0,0,1-2.89-.619,4.666,4.666,0,0,1-2.559-2.849l-11.808,4.624A11.1,11.1,0,0,0,136.127,62a18.018,18.018,0,0,0,6.069,3.262,24.671,24.671,0,0,0,7.678,1.156,30.065,30.065,0,0,0,10.074-1.528,15.126,15.126,0,0,0,6.687-4.376,10.36,10.36,0,0,0,2.394-6.894,12.363,12.363,0,0,0-1.568-6.275,13.635,13.635,0,0,0-4.376-4.582" transform="translate(-43.727 -7.636)" fill="#20aadd" />
	<path d="M271.641,18.3l-6.795,20.971L258.513,18.3H243.9l-6.585,21.663L230.771,18.3H208.15V5.42H193.288V18.3H187.1V30.685h6.192V46.537q0,6.77,3.716,10.4T208.4,60.573a14.939,14.939,0,0,0,5.945-1.321A19.027,19.027,0,0,0,219.3,56.28L214.26,45.546a8.01,8.01,0,0,1-1.568.826,4.48,4.48,0,0,1-1.652.413,2.479,2.479,0,0,1-2.229-.991,6.181,6.181,0,0,1-.66-3.3V30.685h11.64l9.826,28.9h14.531l7.042-23.79,6.994,23.79h14.531L286.832,18.3Z" transform="translate(-61.69 -1.787)" fill="#20aadd" />
	<path d="M363.407,25.924a25.88,25.88,0,0,0-23.283,0,20.165,20.165,0,0,0-7.926,7.637,21.833,21.833,0,0,0-2.849,11.228,21.571,21.571,0,0,0,2.89,11.229,20.431,20.431,0,0,0,7.968,7.637,24.029,24.029,0,0,0,11.682,2.766,23.62,23.62,0,0,0,11.559-2.766,20.221,20.221,0,0,0,7.885-7.637,21.828,21.828,0,0,0,2.849-11.229,21.833,21.833,0,0,0-2.849-11.228,20.164,20.164,0,0,0-7.926-7.637" transform="translate(-108.594 -7.636)" fill="#20aadd" />
	<path d="M412.944,32.326V24.555H398.083V65.837h14.861V45.113a4.062,4.062,0,0,1,2.023-3.385,14.662,14.662,0,0,1,5.366-2.105,35.208,35.208,0,0,1,7.225-.7V24.389a17.35,17.35,0,0,0-8.587,2.312,17.828,17.828,0,0,0-6.027,5.625" transform="translate(-131.258 -8.042)" fill="#20aadd" />
	<rect width="14.861" height="57.794" transform="translate(298.777)" fill="#20aadd" />
	<path d="M500.026,0V20.67a12.9,12.9,0,0,0-2.518-2.589,13.528,13.528,0,0,0-8.463-2.56,18.815,18.815,0,0,0-10.031,2.56,16.545,16.545,0,0,0-6.4,7.39,27.751,27.751,0,0,0-2.229,11.682A27.815,27.815,0,0,0,472.614,48.8a16.506,16.506,0,0,0,6.4,7.431,18.815,18.815,0,0,0,10.031,2.56,13.528,13.528,0,0,0,8.463-2.56,12.939,12.939,0,0,0,2.819-3.01l.443,4.578h14.118V0Zm-3.344,44.048a6.651,6.651,0,0,1-3.673,1.032,6.506,6.506,0,0,1-3.592-1.032,7.083,7.083,0,0,1-2.518-2.807,8.92,8.92,0,0,1,0-8.174,6.9,6.9,0,0,1,2.477-2.766,6.509,6.509,0,0,1,3.55-.991,7.026,7.026,0,0,1,3.757.991,6.816,6.816,0,0,1,2.518,2.766,8.308,8.308,0,0,1,.826,2.8v2.565a8.3,8.3,0,0,1-.826,2.8,7.1,7.1,0,0,1-2.518,2.807" transform="translate(-155.098 0)" fill="#20aadd" />
	<path d="M362.363,56.89a.209.209,0,0,1-.137-.248,1.2,1.2,0,0,0,.044-.318,1.253,1.253,0,0,0-.415-.922.2.2,0,0,1,.021-.318,1.5,1.5,0,0,0,.653-1.222,1.445,1.445,0,0,0-.271-.841.2.2,0,0,1,.056-.283,3.654,3.654,0,0,0,1.465-3.022,3.565,3.565,0,0,0-1.468-2.875c-.072-.042-.139-.083-.2-.123-.548-.369-.31-1.088.383-1.216a2.116,2.116,0,0,0,1.957-1.812c.251-2.117-1.5-3.365-2.653-3.949a2.12,2.12,0,0,0-1.912,0c-1.151.584-2.9,1.832-2.653,3.949A2.116,2.116,0,0,0,359.19,45.5c.693.128.932.847.383,1.216-.06.04-.125.081-.2.123a3.566,3.566,0,0,0-1.467,2.875,3.653,3.653,0,0,0,1.464,3.022.2.2,0,0,1,.057.283,1.445,1.445,0,0,0-.271.841,1.5,1.5,0,0,0,.653,1.222.2.2,0,0,1,.021.318,1.251,1.251,0,0,0-.415.922,1.222,1.222,0,0,0,.043.318.208.208,0,0,1-.137.248c-1.5.615-3.372,1.966-1.918,4.681,1.684,3.143,2.776,4.43,3.217,4.407a4.067,4.067,0,0,1,.443,0c.44.023,1.532-1.264,3.216-4.407,1.455-2.715-.418-4.065-1.918-4.681" transform="translate(-117.672 -13.029)" fill="#fff" />
	<path d="M355.282,50.458l-4.367-3.07a1.71,1.71,0,0,1-.664-.936l-.933-3.315a.7.7,0,0,0-.511-.489l-.007,0c-1.279-.385-2.622-.253-3.922-.574a.221.221,0,0,1,.056-.436c1.139-.007,1.963.166,3.077.194a.572.572,0,0,1,.1.009c.4.07.756.135,1.012.182a1.042,1.042,0,0,1,.813.742l.952,3.382a1.366,1.366,0,0,0,.53.748l4.266,3Z" transform="translate(-113.66 -13.729)" fill="#fff" />
	<path d="M341.52,62.016a29.443,29.443,0,0,0,6.38-8.028l.009-.016.169-.261a.345.345,0,0,1,.534-.056l2.723,2.54c1.224-.518,2.606-1.1,2.728-1.128l.334-.084.168.67-.326.082c-.18.062-1.837.758-2.849,1.187a.346.346,0,0,1-.379-.074l-1.469-1.469-.187-.188c-.238-.242-.353-.357-.634-.634l-.065-.065a.229.229,0,0,0-.355.038l0,0-.01.017c-1.592,3.05-3.547,5.808-6.492,7.5a.2.2,0,0,1-.276-.039" transform="translate(-112.608 -17.658)" fill="#fff" />
	<path d="M350.663,70.986a37.991,37.991,0,0,0,.547-4.457c0-.135.005-.271.005-.407a43.534,43.534,0,0,1-.287-5.331.51.51,0,0,1,.634-.462c1.6.414,3.055,1.564,4.6,1.153.806-.231,1.151-3.107,1.727-2.187.345.691-.576,2.3-1.266,2.762-1.354.729-2.991-.239-4.569-.855a.357.357,0,0,0-.484.348c.068,1.763.442,3.451.363,5.278q-.011.2-.029.4a11.185,11.185,0,0,1-.942,3.6.237.237,0,0,1-.3.151" transform="translate(-115.622 -19.491)" fill="#fff" />
	<path d="M358.648,39.092c-1.351-.576-3.078-1.037-4-2.3s-.231-2.992-.538-4.569a.209.209,0,0,1,.105-.206.207.207,0,0,1,.3.143c.243,1.409-.1,2.9.588,4.056.921,1.266,2.532,1.611,3.882,2.279Z" transform="translate(-116.759 -10.547)" fill="#fff" />
	<path d="M364.908,50.458l4.367-3.07a1.71,1.71,0,0,0,.663-.936l.933-3.315a.7.7,0,0,1,.511-.489l.007,0c1.279-.385,2.622-.253,3.922-.574a.221.221,0,0,0-.056-.436c-1.139-.007-1.963.166-3.077.194a.572.572,0,0,0-.1.009c-.4.07-.756.135-1.012.182a1.043,1.043,0,0,0-.813.742l-.952,3.382a1.366,1.366,0,0,1-.53.748l-4.266,3Z" transform="translate(-120.188 -13.729)" fill="#fff" />
	<path d="M377.648,62.016a29.448,29.448,0,0,1-6.38-8.028l-.009-.016-.169-.261a.345.345,0,0,0-.534-.056l-2.723,2.54c-1.224-.518-2.606-1.1-2.728-1.128l-.334-.084-.168.67.326.082c.18.062,1.837.758,2.849,1.187a.345.345,0,0,0,.379-.074l1.469-1.469.187-.188c.238-.242.353-.357.634-.634l.065-.065a.229.229,0,0,1,.355.038l0,0,.01.017c1.592,3.05,3.547,5.808,6.492,7.5a.2.2,0,0,0,.276-.039" transform="translate(-120.219 -17.658)" fill="#fff" />
	<path d="M371.332,70.986a38,38,0,0,1-.547-4.457c0-.135-.005-.271-.005-.407a43.516,43.516,0,0,0,.287-5.331.51.51,0,0,0-.634-.462c-1.6.414-3.055,1.564-4.6,1.153-.806-.231-1.151-3.107-1.727-2.187-.345.691.576,2.3,1.266,2.762,1.354.729,2.991-.239,4.569-.855a.357.357,0,0,1,.484.348c-.068,1.763-.442,3.451-.363,5.278q.011.2.029.4a11.181,11.181,0,0,0,.942,3.6.237.237,0,0,0,.3.151" transform="translate(-120.031 -19.491)" fill="#fff" />
	<path d="M364.537,39.092c1.351-.576,3.078-1.037,4-2.3s.231-2.992.538-4.569a.209.209,0,0,0-.105-.206.207.207,0,0,0-.3.143c-.243,1.409.1,2.9-.588,4.056-.921,1.266-2.532,1.611-3.882,2.279Z" transform="translate(-120.083 -10.547)" fill="#fff" />
</g>
</g>
</svg>