<?xml version="1.0" encoding="UTF-8"?>
<!DOCTYPE svg  PUBLIC '-//W3C//DTD SVG 1.1//EN'  'http://www.w3.org/Graphics/SVG/1.1/DTD/svg11.dtd'>
<svg width="240px" height="80px" clip-rule="evenodd" fill-rule="evenodd" image-rendering="optimizeQuality" shape-rendering="geometricPrecision" text-rendering="geometricPrecision" version="1.1" viewBox="0 0 83.72 27.94" xml:space="preserve" xmlns="http://www.w3.org/2000/svg">
 <defs>
  <style type="text/css">
   <![CDATA[
    .fil3 {fill:#2C669E;fill-rule:nonzero}
    .fil5 {fill:#2D669E;fill-rule:nonzero}
    .fil4 {fill:#549B40;fill-rule:nonzero}
    .fil2 {fill:#EB4711;fill-rule:nonzero}
    .fil1 {fill:#F8CA00;fill-rule:nonzero}
    .fil0 {fill:#737373;fill-rule:nonzero;fill-opacity:0.258824}
   ]]>
  </style>
 </defs>
 
  
  
   
    <path class="fil0" d="m35.66 10.08c1.56 0 3.02 0.43 4.26 1.18l-0.01-10.24 4.21-0.05 0.03 26.45h-4.2v-2.06c-1.25 0.76-2.72 1.2-4.29 1.2-2.28 0-4.34-0.92-5.83-2.42-1.49-1.49-2.41-3.55-2.41-5.82 0-2.28 0.92-4.34 2.41-5.83s3.55-2.41 5.83-2.41zm3.01 5.22c-0.77-0.77-1.83-1.25-3.01-1.25s-2.24 0.48-3.02 1.25c-0.77 0.77-1.24 1.84-1.24 3.02 0 1.17 0.47 2.24 1.24 3.01 0.78 0.77 1.84 1.25 3.02 1.25s2.24-0.48 3.01-1.25c0.78-0.77 1.25-1.84 1.25-3.01 0-1.18-0.47-2.25-1.25-3.02z"/>
    <polygon class="fil0" points="26.78 5.31 26.8 3.14 26.26 3.14 22.6 3.06 22.56 5.25"/>
    <polygon class="fil0" points="22.59 27.18 26.81 27.1 26.8 8.11 22.6 8.44"/>
    <polygon class="fil0" points="62.53 26.88 66.73 26.97 66.9 2.6 62.67 2.62"/>
    <path class="fil0" d="m52.94 10.08c1.56 0 3.02 0.43 4.26 1.18l-0.01-10.24 4.21-0.05 0.03 26.45h-4.2l-0.01-2.06c-1.24 0.76-2.71 1.2-4.28 1.2-2.28 0-4.34-0.92-5.83-2.42-1.49-1.49-2.41-3.55-2.41-5.82 0-2.28 0.92-4.34 2.41-5.83s3.55-2.41 5.83-2.41zm3.01 5.22c-0.77-0.77-1.84-1.25-3.01-1.25-1.18 0-2.25 0.48-3.02 1.25s-1.25 1.84-1.25 3.02c0 1.17 0.48 2.24 1.25 3.01s1.84 1.25 3.02 1.25c1.17 0 2.24-0.48 3.01-1.25s1.25-1.84 1.25-3.01c0-1.18-0.48-2.25-1.25-3.02z"/>
    <polygon class="fil0" points="0.48 27.25 2.01 27.25 3.62 27.25 5.22 27.25 5.15 17.26 18.27 27.48 20.7 24.22 7.8 14.1 19.2 3.24 16.1 0.37 5.37 10.64 5.49 1.4 3.62 1.4 2.01 1.4 0.48 1.4"/>
    <path class="fil0" d="m80.23 21.01s-0.73 3-4.37 3c-4.54 0-4.17-3.74-4.17-3.74s12.41 1.77 11.66-5.71c-1.46-8.24-8.93-7.19-8.93-7.19-6.48 1.19-6.86 8.8-6.86 8.8s-1.62 11.77 8.08 11.77c5.54 0 8.08-4.78 8.08-4.78l-3.49-2.15zm-4.83-9.58c3.87 0 3.79 4.44 3.79 4.44-2.51 0.56-7.5 0.27-7.5 0.27s-0.17-4.71 3.71-4.71z"/>
   
   <path class="fil1" d="m35.18 9.7c1.56 0 3.02 0.43 4.27 1.19l-0.02-10.24 4.21-0.06 0.03 26.45h-4.2v-2.06c-1.25 0.76-2.72 1.2-4.29 1.2-2.27 0-4.33-0.92-5.82-2.41-1.5-1.49-2.42-3.55-2.42-5.83 0-2.27 0.92-4.33 2.42-5.83 1.49-1.49 3.55-2.41 5.82-2.41zm3.02 5.23c-0.77-0.77-1.84-1.25-3.02-1.25-1.17 0-2.24 0.48-3.01 1.25s-1.25 1.83-1.25 3.01 0.48 2.24 1.25 3.02c0.77 0.77 1.84 1.24 3.01 1.24 1.18 0 2.25-0.47 3.02-1.24 0.77-0.78 1.25-1.84 1.25-3.02s-0.48-2.24-1.25-3.01z"/>
   <polygon class="fil2" points="26.31 4.93 26.32 2.76 25.78 2.76 22.12 2.69 22.08 4.87"/>
   <polygon class="fil2" points="22.11 26.81 26.33 26.73 26.32 7.73 22.12 8.07"/>
   <polygon class="fil3" points="62.14 26.51 66.34 26.6 66.5 2.23 62.27 2.24"/>
   <path class="fil4" d="m52.54 9.7c1.56 0 3.02 0.43 4.27 1.19l-0.02-10.24 4.22-0.06 0.03 26.45h-4.21v-2.06c-1.25 0.76-2.72 1.2-4.29 1.2-2.27 0-4.33-0.92-5.82-2.41s-2.42-3.55-2.42-5.83c0-2.27 0.93-4.33 2.42-5.83 1.49-1.49 3.55-2.41 5.82-2.41zm3.02 5.23c-0.77-0.77-1.84-1.25-3.02-1.25-1.17 0-2.24 0.48-3.01 1.25s-1.25 1.83-1.25 3.01 0.48 2.24 1.25 3.02c0.77 0.77 1.84 1.24 3.01 1.24 1.18 0 2.25-0.47 3.02-1.24 0.77-0.78 1.25-1.84 1.25-3.02s-0.48-2.24-1.25-3.01z"/>
   <polygon class="fil5" points="0 26.88 1.53 26.88 3.14 26.88 4.74 26.88 4.68 16.88 17.8 27.1 20.22 23.85 7.32 13.73 18.72 2.87 15.63 0 4.89 10.26 5.01 1.02 3.14 1.02 1.53 1.02 0 1.02"/>
   <path class="fil2" d="m79.84 20.63s-0.73 3-4.37 3c-4.54 0-4.17-3.74-4.17-3.74s12.41 1.78 11.66-5.7c-1.46-8.24-8.94-7.2-8.94-7.2-6.47 1.2-6.85 8.8-6.85 8.8s-1.62 11.78 8.08 11.78c5.54 0 8.08-4.79 8.08-4.79l-3.49-2.15zm-4.84-9.57c3.88 0 3.79 4.43 3.79 4.43-2.51 0.56-7.49 0.27-7.49 0.27s-0.17-4.7 3.7-4.7z"/>
  
 
</svg>
