<?xml version="1.0" encoding="UTF-8"?>
<!DOCTYPE svg  PUBLIC '-//W3C//DTD SVG 1.1//EN'  'http://www.w3.org/Graphics/SVG/1.1/DTD/svg11.dtd'>
<svg width="139px" height="170px" clip-rule="evenodd" fill-rule="evenodd" image-rendering="optimizeQuality" shape-rendering="geometricPrecision" text-rendering="geometricPrecision" version="1.1" viewBox="0 0 3.4 4.16" xml:space="preserve" xmlns="http://www.w3.org/2000/svg" xmlns:xlink="http://www.w3.org/1999/xlink">
 <defs>
  <style type="text/css">
   
    .fil0 {fill:#FEFEFE}
    .fil9 {fill:#A94947}
    .fil7 {fill:#B33C3A}
    .fil19 {fill:#B54E4C}
    .fil5 {fill:#BF2A31}
    .fil10 {fill:#C05351}
    .fil14 {fill:#C25452}
    .fil30 {fill:#C4555A}
    .fil12 {fill:#C55653}
    .fil20 {fill:#D45551}
    .fil8 {fill:#D75E5C}
    .fil16 {fill:#DB605E}
    .fil6 {fill:#DF6260}
    .fil18 {fill:#E36461}
    .fil29 {fill:#EB716F}
    .fil17 {fill:#F17774}
    .fil28 {fill:#F57775}
    .fil15 {fill:#F76D6A}
    .fil13 {fill:#FF8987}
    .fil1 {fill:url(#a)}
    .fil22 {fill:url(#c)}
    .fil24 {fill:url(#k)}
    .fil3 {fill:url(#j)}
    .fil32 {fill:url(#i)}
    .fil23 {fill:url(#h)}
    .fil11 {fill:url(#g)}
    .fil25 {fill:url(#f)}
    .fil27 {fill:url(#e)}
    .fil31 {fill:url(#d)}
    .fil21 {fill:url(#b)}
    .fil4 {fill:url(#n)}
    .fil2 {fill:url(#m)}
    .fil26 {fill:url(#l)}
   
  </style>
  <linearGradient id="a" x1="2.75" x2="2.86" y1="2.55" y2="2.71" gradientUnits="userSpaceOnUse">
   <stop stop-color="#FF8987" offset="0"/>
   <stop stop-color="#DC5D5A" offset=".67843"/>
   <stop stop-color="#B9302C" offset="1"/>
  </linearGradient>
  <linearGradient id="c" x1=".55" x2=".56" y1="1.29" y2="1.4" gradientUnits="userSpaceOnUse">
   <stop stop-color="#F7A9A8" offset="0"/>
   <stop stop-color="#D86D6A" offset=".67843"/>
   <stop stop-color="#B9302C" offset="1"/>
  </linearGradient>
  <linearGradient id="k" x1=".9" x2="1.11" y1="2.55" y2="2.57" gradientUnits="userSpaceOnUse">
   <stop stop-color="#F76D6A" offset="0"/>
   <stop stop-color="#BF4341" offset="1"/>
  </linearGradient>
  <linearGradient id="j" x1="1.47" x2="1.56" y1=".38" y2=".36" gradientUnits="userSpaceOnUse" xlink:href="#c">
  </linearGradient>
  <linearGradient id="i" x1="1.11" x2="1.29" y1="3.59" y2="3.68" gradientUnits="userSpaceOnUse" xlink:href="#a">
  </linearGradient>
  <linearGradient id="h" x1=".36" x2=".47" y1="1.15" y2="1.15" gradientUnits="userSpaceOnUse" xlink:href="#c">
  </linearGradient>
  <linearGradient id="g" x1="2.34" x2="2.32" y1="2.68" y2="2.89" gradientUnits="userSpaceOnUse" xlink:href="#a">
  </linearGradient>
  <linearGradient id="f" x1=".71" x2=".68" y1="2.44" y2="2.66" gradientUnits="userSpaceOnUse" xlink:href="#a">
  </linearGradient>
  <linearGradient id="e" x1=".29" x2=".48" y1="2.76" y2="2.82" gradientUnits="userSpaceOnUse" xlink:href="#a">
  </linearGradient>
  <linearGradient id="d" x1="1.74" x2="1.92" y1="3.7" y2="3.63" gradientUnits="userSpaceOnUse" xlink:href="#a">
  </linearGradient>
  <radialGradient id="b" cx=".33" cy=".77" r=".08" gradientTransform="matrix(1.612 .066653 -.065858 1.5928 0 0)" gradientUnits="userSpaceOnUse">
   <stop stop-color="#F76D6A" offset="0"/>
   <stop stop-color="#BF2A31" offset="1"/>
  </radialGradient>
  <radialGradient id="n" cx="1.37" cy=".08" r=".07" gradientTransform="matrix(1.7807 .1269 -.12742 1.788 -1 0)" gradientUnits="userSpaceOnUse" xlink:href="#b">
  </radialGradient>
  <radialGradient id="m" cx="2.55" cy="2.75" r=".04" gradientTransform="matrix(1.3158 -0 -0 1.2915 -1 -1)" gradientUnits="userSpaceOnUse" xlink:href="#b">
  </radialGradient>
  <radialGradient id="l" cx=".4" cy="2.48" r=".04" gradientTransform="matrix(1.3882 -0 -0 1.3889 0 -1)" gradientUnits="userSpaceOnUse" xlink:href="#b">
  </radialGradient>
 </defs>
 
  
  
   <ellipse class="fil0" cx="1.55" cy="1.37" rx=".4" ry=".51"/>
   <ellipse class="fil0" cx="2.28" cy="1.48" rx=".32" ry=".42"/>
   
    <path class="fil1" d="m3 2.59-0.28 0.23c-0.09-0.01-0.14-0.05-0.12-0.15l0.28-0.22c0.08-0.04 0.16 0.07 0.12 0.14z"/>
    <path class="fil2" d="m2.72 2.82c0.01-0.07-0.04-0.13-0.1-0.14-0.08-0.02-0.14 0.03-0.15 0.09-0.02 0.08 0.04 0.14 0.09 0.15 0.08 0.02 0.14-0.04 0.16-0.1z"/>
    <path class="fil3" d="m1.52 0.21 0.08 0.32-0.09 0.02-0.08-0.32c0.03-0.03 0.06-0.04 0.09-0.02z"/>
    <path class="fil4" d="m1.43 0.24c0.01-0.02 0.03-0.02 0.04-0.02 0.02-0.01 0.04-0.01 0.06 0 0.02-0.01 0.06-0.08 0.04-0.15-0.06-0.12-0.24-0.08-0.23 0.06 0 0.05 0.04 0.1 0.09 0.11z"/>
    <ellipse class="fil5" transform="matrix(8.8947e-14 -1.9191 2.625 3.9727e-14 1.5818 .63783)" rx=".07" ry=".11"/>
    <ellipse class="fil5" cx="2.69" cy=".95" rx=".09" ry=".11"/>
    <path class="fil6" d="m3.07 2.12c-0.01 0.01 0.01 0.03 0.02 0.06 0.01 0.02 0.03 0.04 0.04 0.06h0.01c0.01-0.01 0.02-0.01 0.02-0.02 0.01-0.02 0.01-0.02 0.01-0.04-0.01-0.01-0.02-0.02-0.02-0.03-0.03-0.04-0.01-0.04-0.07-0.03-0.01-0.01-0.01-0.01-0.01 0z"/>
    <path class="fil6" d="m3.24 2.42-0.01 0.01c0.01 0.01 0.03 0.04 0.04 0.06 0.01 0.01 0.01 0.02 0.02 0.03 0.01 0.03 0.01 0.02 0.02 0.02s0.01 0 0.01-0.01c0.01-0.02 0.01-0.01 0.02-0.03 0-0.02-0.03-0.08-0.05-0.09l-0.04 0.01c-0.01-0.01-0.01-0.01-0.01 0z"/>
    <path class="fil7" d="m1.36 2.1 0.01 0.01h0.01l-0.01 0.04h0.05c0.01 0 0.01 0 0.01 0.01 0.06 0 0.16 0 0.21 0.01 0.01 0.01 0.02 0.01 0.03 0.01 0.02 0 0-0.01 0.04 0v-0.05l-0.01-0.01c-0.02-0.01 0 0-0.01-0.01h-0.01c0.01 0.02 0 0.03 0 0.06l-0.22-0.03v-0.03c-0.03 0-0.03 0-0.03-0.02 0.03-0.01 0.09 0 0.12 0h-0.1c-0.12-0.01-0.07-0.01-0.1-0.02 0.01 0.02 0.02 0.02 0.01 0.03z"/>
    <path class="fil7" d="m1.71 2.08-0.02-0.01v0.01l-0.23-0.02v-0.03l-0.08-0.01v0.04c0.06 0 0.05 0.01 0.06 0.02 0.04-0.01 0.11 0 0.14 0l0.1 0.02c0.03-0.01 0.03-0.01 0.03-0.02z"/>
    <path class="fil7" d="m1.35 2.06v0.01c0.03 0.01-0.02 0.01 0.1 0.02h0.1c0.04 0 0.1 0.02 0.13 0.02h0.01c0.02 0 0.02-0.01 0.02-0.03 0 0.01 0 0.01-0.03 0.02l-0.1-0.02c-0.03 0-0.1-0.01-0.14 0-0.01-0.01 0-0.02-0.06-0.02v-0.04h-0.02l-0.01 0.04z"/>
    <path class="fil7" d="m1.35 2.17h0.05c0.05 0 0.14 0 0.18 0.01 0.03 0 0.07 0.01 0.1 0.01l0.01 0.01 0.02-0.02c-0.04-0.01-0.02 0-0.04 0-0.01 0-0.02 0-0.03-0.01-0.05-0.01-0.15-0.01-0.21-0.01 0-0.01 0-0.01-0.01-0.01h-0.05l0.01-0.04h-0.01l-0.01-0.01c-0.01 0.01-0.01 0.01-0.01 0.03v0.04z"/>
    <path class="fil8" d="m1.28 3.37 0.01 0.01-0.32 0.04c0.01 0 0.04 0.01 0.06 0.01s0.04 0 0.06 0.01v-0.02l0.01-0.01 0.03-0.01h0.09c0.06 0.01 0.16 0.01 0.2 0.03l0.02 0.01-0.01 0.05c0.02 0 0.05 0 0.07 0.01h0.07c0-0.01-0.01-0.02 0.01-0.02 0.01-0.01 0.03 0 0.05-0.01 0.05 0 0.24 0.01 0.27 0.03 0.01 0.02 0.01 0 0.01 0.01v0.01h0.01c0.05-0.01 0.16-0.01 0.18-0.03 0.01-0.01 0.01-0.01 0.01-0.02l0.05-0.4c0.01-0.05 0.02-0.15 0.03-0.2l0.03-0.19v-0.01c0-0.05 0.03-0.2 0.02-0.21v-0.01c0 0.03-0.03 0.21-0.03 0.26-0.04 0.25-0.08 0.52-0.11 0.77l-0.82-0.11z"/>
    <path class="fil5" d="m1.88 3.56v0.01c0.02 0 0.03 0 0.03-0.01v-0.04-0.01s0-0.01-0.01-0.01c-0.03-0.02-0.22-0.03-0.27-0.03-0.02 0.01-0.04 0-0.05 0.01-0.02 0-0.01 0.01-0.01 0.02v0.05c0.01 0 0.02 0 0.03 0.01v-0.01h0.04s0.16-0.01 0.23 0h0.01v0.01z"/>
    <path class="fil9" d="m1.84 3.78c-0.02 0-0.01 0.01-0.02-0.03-0.01-0.01-0.01-0.02-0.02-0.02 0-0.03-0.01-0.04-0.02-0.07-0.02-0.04-0.04-0.08-0.05-0.12h0.05-0.02-0.06c0 0.02 0.1 0.26 0.11 0.27l0.03-0.03z"/>
    <path class="fil10" d="m2.56 2.84v-0.01l0.01-0.02c-0.02 0-0.16-0.01-0.19-0.01-0.05-0.01-0.12-0.01-0.18-0.02v-0.01c-0.01 0.02-0.01 0.04 0 0.05 0.02 0 0.34 0.03 0.36 0.02z"/>
    <path class="fil7" d="m1.39 2.23c0.04 0 0.03 0 0.04 0.01 0.05 0 0.15 0.01 0.21 0.02h0.03c0.01 0 0-0.01 0.03 0v-0.04c0-0.01 0-0.01-0.01-0.02l-0.01-0.01v0.02h-0.01c-0.01 0 0-0.01-0.01 0v0.03l-0.21-0.01v-0.04h-0.01l-0.02-0.01c0.01-0.01 0.02-0.01 0.04-0.01 0.05 0 0.08 0.01 0.12 0.01-0.04-0.01-0.13-0.01-0.18-0.01-0.01 0.01-0.01 0-0.02 0.01l0.01 0.01v0.04z"/>
    <path class="fil5" d="m1.22 3.4h-0.09l-0.03 0.01-0.01 0.01v0.02 0.02 0.01h0.01 0.01s0.01 0 0.01 0.01h0.01 0.01 0.02 0.01c0-0.01 0-0.01 0.02-0.01v-0.01h0.07v0.01h0.01 0.01 0.01 0.01 0.02 0.01 0.01v0.01h0.01 0.01v0.01h0.04v0.01h0.03v-0.01l0.01-0.05-0.02-0.01c-0.04-0.02-0.14-0.02-0.2-0.03z"/>
    <path class="fil7" d="m1.68 2.19c-0.03 0-0.07-0.01-0.1-0.01-0.04 0-0.07-0.01-0.12-0.01-0.02 0-0.03 0-0.04 0.01l0.02 0.01h0.01v0.04l0.21 0.01v-0.03c0.01-0.01 0 0 0.01 0h0.01v-0.02z"/>
    <path class="fil7" d="m1.65 2.27c-0.03 0-0.08-0.01-0.11-0.01h-0.06-0.04c-0.02 0-0.01-0.01-0.02 0.01h0.02 0.01v0.04l0.2 0.02c0.01-0.04 0.01-0.04 0-0.06z"/>
    <path class="fil5" d="m1.87 2.82c0.04 0 0.21 0.02 0.24 0.02l0.01-0.25-0.21-0.04-0.04 0.27z"/>
    <path class="fil7" d="m1.69 2.07c-0.06-0.01-0.16-0.03-0.23-0.04v0.03l0.23 0.02v-0.01z"/>
    <path class="fil7" d="m1.68 2.11c-0.03 0-0.09-0.02-0.13-0.02-0.03 0-0.09-0.01-0.12 0 0 0.02 0 0.02 0.03 0.02v0.03l0.22 0.03c0-0.03 0.01-0.04 0-0.06z"/>
    <path class="fil5" d="m2.27 1.38c0.06-0.02 0.11 0.04 0.12 0.09 0.01 0.06-0.02 0.12-0.07 0.13-0.12 0.04-0.18-0.17-0.05-0.22zm0-0.08c-0.09 0.01-0.15 0.11-0.14 0.22 0.01 0.09 0.08 0.18 0.19 0.17 0.09-0.01 0.15-0.11 0.14-0.22-0.01-0.09-0.09-0.18-0.19-0.17z"/>
    <path class="fil5" d="m1.48 1.41c0.03 0.09 0.16 0.05 0.13-0.05s-0.16-0.05-0.13 0.05z"/>
    <path class="fil11" d="m2.51 2.89-0.44-0.03 0.08-0.19 0.36 0.03c0.09 0.03 0.08 0.17 0 0.19z"/>
    <path class="fil12" d="m3.08 2.12c0.06-0.01 0.04-0.01 0.07 0.03 0 0.01 0.01 0.02 0.02 0.03 0 0.02 0 0.02-0.01 0.04 0.01 0 0.01 0 0.02-0.01h0.02c0.02 0 0.03 0 0.03-0.02s-0.04-0.07-0.05-0.08c-0.01-0.02-0.04-0.01-0.07-0.01l-0.01 0.01c-0.01 0-0.01 0-0.02 0.01z"/>
    <path class="fil13" d="m0.83 2.46c0.01 0.01 0.06 0.01 0.1 0.01 0.01-0.02 0.04-0.03 0.07-0.03 0.13-0.01 0.1 0.15 0.1 0.17s0 0.03-0.01 0.04c-0.01 0.03-0.05 0.05-0.09 0.05s-0.07-0.02-0.09-0.04l0.02-0.01c-0.04-0.01-0.39-0.03-0.4-0.02h0.01 0.01l0.19 0.01c0.17 0.02 0.13-0.01 0.14 0.08 0.01 0.05 0.02 0.09 0.02 0.14l0.06 0.53v0.01c0.05 0 0.29-0.04 0.32-0.03-0.01-0.03 0-0.49 0-0.53 0-0.07-0.01-0.51 0-0.54h0.02-0.01l-0.41 0.04c-0.06 0.01-0.02 0.03-0.02 0.12h-0.03z"/>
    <path class="fil14" d="m3.02 2.34c0 0.01 0 0.01 0.01 0.01h0.02c0.03-0.01 0.04-0.01 0.04 0.01 0.01-0.01 0-0.01 0.01-0.02v-0.01h-0.07-0.01v0.01z"/>
    <path class="fil15" d="m2.25 1.2c0.16-0.02 0.27 0.12 0.29 0.26 0.02 0.16-0.07 0.31-0.21 0.32-0.15 0.03-0.26-0.11-0.28-0.25-0.02-0.16 0.07-0.31 0.2-0.33zm-0.75-0.21c0.2-0.03 0.35 0.16 0.38 0.35 0.02 0.21-0.1 0.41-0.29 0.44-0.21 0.03-0.36-0.17-0.38-0.35-0.03-0.22 0.1-0.42 0.29-0.44zm-0.53-0.4 0.11 1.33c0.09 0.01 0.32 0.05 0.42 0.07l0.92 0.19c0.04 0 0.16 0.03 0.19 0.03v-0.03c0.01-0.01 0.01-0.02 0.01-0.03 0.01-0.12 0.03-0.25 0.04-0.37 0-0.05 0.01-0.1 0.02-0.15 0.01-0.09 0.02-0.19 0.03-0.29 0-0.05 0.01-0.1 0.01-0.14 0.01-0.04 0.02-0.13 0.02-0.16l0.02-0.19 0.02-0.2c0.01-0.06 0.01-0.03 0-0.06-0.08 0-0.16-0.01-0.24-0.01h-0.06c-0.07 0-0.17-0.01-0.25-0.01-0.02 0-0.03-0.01-0.06-0.01h-0.12-0.06-0.07c-0.03 0-0.08-0.01-0.12-0.01l-0.35-0.01h-0.01-0.03c-0.04-0.01-0.06 0-0.1-0.01h-0.05-0.15c-0.02 0-0.02-0.01-0.05-0.01l-0.05 0.01c0 0.01-0.04 0.04-0.04 0.06z"/>
    <path class="fil16" d="m0.57 2.55c0.03 0.01 0.16 0.01 0.2 0.01 0.06 0.01 0.13 0.02 0.2 0.02v-0.05c0-0.03-0.02-0.05-0.04-0.06-0.04 0-0.09 0-0.1-0.01l-0.28-0.02c0 0.02 0.01 0.03 0.02 0.05s0.01 0.04 0 0.06z"/>
    <path class="fil16" d="m1.84 3.78c0.01-0.02 0.07-0.06 0.09-0.09 0-0.02-0.02-0.05-0.02-0.06-0.01-0.02-0.02-0.05-0.03-0.06v-0.01c-0.03-0.01-0.07-0.02-0.1-0.02h-0.05c0.01 0.04 0.03 0.08 0.05 0.12 0.01 0.03 0.02 0.04 0.02 0.07 0.01 0 0.01 0.01 0.02 0.02 0.01 0.04 0 0.03 0.02 0.03z"/>
    <path class="fil13" d="m0.45 0.75 0.09 0.93c0 0.02 0 0.05 0.01 0.08l0.01 0.12c0 0.02 0 0.02 0.02 0.02l0.13 0.01h0.14c0.06 0.01 0.25 0.02 0.28 0.02-0.01-0.01 0 0 0-0.01l-0.12-1.33v-0.06l-0.56 0.22z"/>
    <path class="fil17" d="m2.86 2.44 0.02 0.04v0.01 0.01 0.01h0.01v0.01 0.01h0.01v0.01h0.01v0.01 0.01h0.01v0.01c0.02 0 0.03 0.01 0.03 0.02h0.01v0.01l0.01 0.01h0.01s-0.01 0 0 0.01c0.05 0.03 0.14 0.04 0.17 0.02 0.02-0.01 0.03-0.01 0.05-0.02 0.04-0.02 0.07-0.05 0.11-0.08-0.01 0-0.01 0.01-0.02-0.02-0.01-0.01-0.01-0.02-0.02-0.03-0.01-0.02-0.03-0.05-0.04-0.06l0.01-0.01c-0.02 0-0.03 0.01-0.05 0.02-0.04 0.03-0.04 0.04-0.08 0-0.01-0.02-0.01-0.03-0.02-0.04 0-0.01 0-0.01-0.01-0.02-0.02-0.01-0.05 0-0.07 0 0-0.02 0-0.03 0.01-0.04v-0.01h0.01c0.01-0.02 0.07-0.05 0.08-0.07 0.01 0 0.01 0 0.02-0.01l0.01-0.01h-0.01c-0.01-0.02-0.03-0.04-0.04-0.06-0.01-0.03-0.03-0.05-0.02-0.06-0.03 0-0.07 0.03-0.09 0.05-0.06 0.04-0.1 0.08-0.12 0.15 0 0.03-0.01 0.09 0 0.12z"/>
    <path class="fil16" d="m1.35 2.06 0.01-0.04h0.02l0.08 0.01c0.07 0.01 0.17 0.03 0.23 0.04l0.02 0.01c0 0.02 0 0.03-0.02 0.03 0.01 0.01-0.01 0 0.01 0.01l0.01 0.01 0.11 0.02c0.04 0 0.08 0 0.11 0.01 0.08 0 0.15 0.01 0.23 0.02 0.07 0.01 0.14 0.02 0.22 0.02 0.05 0 0.18 0.02 0.22 0.02l0.01-0.01c-0.03 0-0.15-0.03-0.19-0.03l-0.92-0.19c-0.1-0.02-0.29-0.06-0.37-0.07 0 0.01-0.01 0 0 0.01-0.03 0-0.22-0.01-0.28-0.02h-0.14l-0.13-0.01 0.58 0.12c0.06 0.01 0.13 0.02 0.19 0.04z"/>
    <path class="fil18" d="m2.29 3.59-0.31 0.06c0 0.03 0.04 0.12 0.05 0.15l0.32-0.06c-0.01-0.02-0.05-0.15-0.06-0.15z"/>
    <path class="fil19" d="m0.57 2.55c0 0.02-0.01 0.03-0.01 0.05l0.39 0.03 0.01-0.02c0.01-0.02 0.02-0.06 0.01-0.08v0.05c-0.07 0-0.14-0.01-0.2-0.02-0.04 0-0.17 0-0.2-0.01z"/>
    <path class="fil7" d="m1.42 2.32 0.27 0.04c0.01-0.04 0.02-0.05-0.01-0.08l-0.03-0.01c0.01 0.02 0.01 0.02 0 0.06l-0.2-0.02v-0.04h-0.01-0.02c0.01-0.02 0-0.01 0.02-0.01h0.04 0.06c-0.02-0.01-0.17-0.02-0.17 0.01 0 0.01 0 0 0.01 0v0.04c0.02 0 0.04 0 0.04 0.01z"/>
    <path class="fil7" d="m1.34 2.31 0.08 0.01c0-0.01-0.02-0.01-0.04-0.01v-0.04c-0.01 0-0.01 0.01-0.01 0 0-0.03 0.15-0.02 0.17-0.01 0.03 0 0.08 0.01 0.11 0.01l0.03 0.01c0.01-0.01 0.01 0 0.02-0.02-0.03-0.01-0.02 0-0.03 0h-0.03c-0.06-0.01-0.16-0.02-0.21-0.02-0.01-0.01 0-0.01-0.04-0.01h-0.01c-0.01 0-0.01 0-0.01-0.01v-0.03h-0.01-0.01c-0.01 0.06-0.02 0.04 0.01 0.07-0.02 0.01-0.02 0.02-0.02 0.05z"/>
    <path class="fil16" d="m3.32 2.53c0 0.01 0 0.01-0.01 0.01-0.04 0.03-0.07 0.06-0.11 0.08-0.02 0.01-0.03 0.01-0.05 0.02 0.08 0 0.15-0.04 0.21-0.08 0.01-0.01 0-0.01 0.02-0.02s0.02-0.02 0.02-0.04c-0.01 0.01-0.02 0.01-0.03 0.02-0.03 0-0.02 0-0.05 0.01z"/>
    <path class="fil14" d="m3.25 2.42 0.04-0.01c0.02 0.01 0.05 0.07 0.05 0.09-0.01 0.02-0.01 0.01-0.02 0.03 0.03-0.01 0.02-0.01 0.05-0.01 0.01-0.01 0.02-0.01 0.03-0.02 0-0.01-0.01-0.03-0.02-0.04-0.03-0.07-0.02-0.07-0.1-0.06-0.02 0.01-0.02 0.01-0.03 0.02z"/>
    <path class="fil14" d="m3.14 2.24-0.01 0.01c-0.01 0.01-0.01 0.01-0.02 0.01-0.01 0.02-0.07 0.05-0.08 0.07h0.07c0.01-0.02 0.01-0.02 0.02-0.03l0.08-0.05c0.02-0.02 0.01-0.01 0.02-0.03-0.01 0.01-0.02 0.01-0.04 0.01-0.02 0.01-0.02 0.01-0.04 0.01z"/>
    <path class="fil8" d="m0.96 3.4 0.01 0.02 0.32-0.04-0.01-0.01c-0.03-0.01-0.27 0.03-0.32 0.03z"/>
    <path class="fil12" d="m3.09 2.4v-0.04c0-0.02-0.01-0.02-0.04-0.01h-0.02c-0.01 0-0.01 0-0.01-0.01-0.01 0.01-0.01 0.02-0.01 0.04 0.02 0 0.05-0.01 0.07 0 0.01 0.01 0.01 0.01 0.01 0.02z"/>
    <path class="fil14" d="m3.16 2.22c0 0.01-0.01 0.01-0.02 0.02 0.02 0 0.02 0 0.04-0.01 0.02 0 0.03 0 0.04-0.01 0.01 0 0.01 0 0.01-0.01s0.01-0.01 0-0.01v-0.01c0 0.02-0.01 0.02-0.03 0.02h-0.02c-0.01 0.01-0.01 0.01-0.02 0.01z"/>
    <path class="fil7" d="m1.36 2.19h0.01v0.03c0 0.01 0 0.01 0.01 0.01h0.01v-0.04l-0.01-0.01c0.01-0.01 0.01 0 0.02-0.01h-0.05l0.01 0.01v0.01z"/>
    <circle class="fil5" transform="matrix(-2.4717 .17798 .35586 4.9419 .78203 1.3185)" r=".04"/>
    <polygon class="fil5" points="0.77 1.13 0.7 1.14 0.73 1.51 0.8 1.5"/>
    <circle class="fil20" transform="matrix(-2.4667 .17762 .35514 4.932 .71984 1.3269)" r=".04"/>
    <path class="fil21" d="m0.35 0.93 0.01-0.01h0.09c0.12-0.05 0.08-0.24-0.06-0.23-0.1 0.01-0.16 0.14-0.06 0.22 0 0 0.01 0 0.01 0.01 0.02 0 0.01-0.01 0.01 0.01z"/>
    <path class="fil22" d="m0.72 1.38-0.34 0.03-0.01-0.1 0.34-0.04c0.03 0.04 0.03 0.07 0.01 0.11z"/>
    <path class="fil23" d="m0.46 0.92 0.02 0.38c-0.02 0.07-0.06 0.09-0.1 0.11l-0.03-0.49c0.03-0.03 0.07-0.03 0.11 0z"/>
    <path class="fil24" d="m0.91 2.47c0.03 0 0.04 0.01 0.05 0.03 0.02 0.03 0.01 0.1-0.01 0.13 0 0.01-0.01 0.01-0.02 0.02s-0.01 0-0.03 0.01c0.04 0.02 0.05 0.04 0.11 0.04 0.04-0.01 0.07-0.02 0.09-0.06s0.02-0.08 0.01-0.12c0-0.01-0.01-0.04-0.02-0.05 0-0.01 0 0-0.01-0.01l-0.02-0.03c-0.06-0.01-0.12 0-0.15 0.04z"/>
    <path class="fil25" d="m0.93 2.66-0.52-0.03 0.06-0.19 0.49 0.02c0.03 0.06 0.02 0.14-0.03 0.2z"/>
    <path class="fil26" d="m0.32 2.55c0.01 0.06 0.07 0.11 0.14 0.1 0.16-0.02 0.13-0.26-0.03-0.24-0.06 0.01-0.11 0.07-0.11 0.14z"/>
    <path class="fil27" d="m0.51 2.64-0.1 0.4-0.17-0.05 0.1-0.38c0.04-0.08 0.17-0.05 0.17 0.03z"/>
    <path class="fil15" d="m1.91 2.77c-0.02 0-0.01 0.01-0.01-0.01h0.01c0.02-0.01-0.02 0 0 0h0.01l0.12 0.02c0.05 0 0.04 0 0.03 0.02-0.01 0.01-0.1-0.02-0.14-0.02 0 0-0.02 0-0.02-0.01zm0-0.1 0.18 0.03-0.01 0.04-0.17-0.03v-0.04zm0.02-0.1 0.17 0.03-0.01 0.06c-0.02 0.01-0.14-0.02-0.17-0.03l0.01-0.06zm-0.65 0.8 0.82 0.11c0.03-0.25 0.07-0.52 0.11-0.77 0-0.05 0.03-0.23 0.03-0.26 0-0.02-0.02-0.02-0.06-0.02-0.02-0.01-0.05-0.01-0.07-0.01-0.05-0.01-0.09-0.02-0.14-0.02-0.03-0.01-0.24-0.04-0.28-0.04l-0.27-0.04-0.08-0.01c-0.02-0.01-0.02-0.01-0.04-0.01h-0.02c-0.01 0.03 0 0.47 0 0.54 0 0.04-0.01 0.5 0 0.53z"/>
    <path class="fil13" d="m0.04 3.34c0.04-0.02 0.11 0 0.14 0.01 0.03 0 0.05-0.01 0.06-0.04 0.01-0.04-0.04-0.01-0.07-0.01 0-0.01-0.02-0.01-0.02-0.01 0-0.02 0-0.02 0.01-0.04l-0.02-0.11c0.01-0.04 0.02-0.07 0.05-0.11 0.02-0.02 0.05-0.05 0.1-0.06h-0.02-0.01l-0.01-0.01c0 0.01 0.01 0 0 0.01-0.02-0.01-0.06 0.01-0.08 0.01-0.01 0.01-0.05 0.02-0.05 0.03-0.04 0.01-0.08 0.08-0.09 0.11s-0.03 0.12-0.03 0.16v0.01c0 0.03 0.02 0.04 0.04 0.05z"/>
    <path class="fil13" d="m0.5 3.43 0.02-0.02c0.05-0.08 0-0.07-0.06-0.06 0-0.04-0.03-0.01-0.03-0.01h-0.02c-0.01-0.04 0.03-0.13 0.01-0.15v0.01l-0.02 0.02-0.08 0.01c-0.01 0.04-0.02 0.09-0.02 0.13h0.09l0.01 0.04 0.1 0.03z"/>
    <path class="fil13" d="m0.29 3.17c0.01 0.01 0.01 0.02 0.01 0.03 0.02 0 0 0 0.05-0.01h0.05l0.01-0.02c0-0.01 0-0.01-0.01-0.02s-0.01-0.01-0.03-0.02c-0.04-0.02-0.07 0-0.09 0.03l0.01 0.01z"/>
    <path class="fil8" d="m0.14 3.14-0.02 0.11-0.01 0.04c0.03 0.05 0.1 0.06 0.12 0.04 0.01-0.01 0.02-0.04 0.02-0.06 0.01-0.03 0.01-0.08 0.03-0.11s0.05-0.05 0.09-0.03c0.02 0.01 0.02 0.01 0.03 0.02s0.01 0.01 0.01 0.02v0.01c0.01 0 0.01 0 0.01 0.01 0.02 0.02-0.02 0.11-0.01 0.15 0 0.01 0 0.01-0.01 0.02 0.04 0.03 0.08 0.04 0.12 0.03h0.01v-0.01c0.01-0.02 0.02-0.09 0.03-0.11 0-0.08-0.01-0.16-0.06-0.22-0.01-0.02-0.04-0.05-0.06-0.06h-0.01c-0.01-0.01-0.01-0.01-0.02-0.01h-0.01l-0.01-0.01h-0.01-0.01-0.06-0.01-0.01c-0.05 0.01-0.08 0.04-0.1 0.06-0.03 0.04-0.04 0.07-0.05 0.11z"/>
    <path class="fil28" d="m0.3 3.2c0.02 0.03-0.02 0.14-0.01 0.18l0.02 0.02c0 0.01 0.01 0.02 0.03 0.02 0.05 0.02 0.09 0.03 0.13 0.01h0.03l-0.1-0.03-0.01-0.04h-0.09c0-0.04 0.01-0.09 0.02-0.13l0.08-0.01 0.02-0.02v-0.01c0-0.01 0-0.01-0.01-0.01v-0.01l-0.01 0.02h-0.05c-0.05 0.01-0.03 0.01-0.05 0.01z"/>
    <path class="fil29" d="m0.04 3.34c0.02 0.01 0.05 0.02 0.07 0.02s0.05-0.01 0.07-0.01c-0.03-0.01-0.1-0.03-0.14-0.01z"/>
    <path class="fil29" d="m0.33 3.42c0.02 0 0.05 0.01 0.07 0.02 0.02 0 0.05-0.01 0.07-0.01-0.03-0.01-0.09-0.03-0.13-0.02 0 0-0.01 0-0.01 0.01z"/>
    <path class="fil14" d="m3.15 2.46-0.05-0.03-0.01-0.06h-0.01l-0.07 0.01c0 0.12 0.09 0.12 0.14 0.08z"/>
    <ellipse class="fil30" transform="matrix(1.978 .095493 -.081446 .73478 1.7391 3.5532)" rx=".09" ry=".02"/>
    <path class="fil31" d="m1.88 3.55 0.09 0.21-0.16 0.09-0.13-0.3c0.1-0.02 0.19 0 0.2 0z"/>
    <path class="fil13" d="m1.77 3.86c-0.1 0.09-0.11 0.06-0.06 0.18l0.03 0.05 0.29-0.29-0.05-0.15c-0.01 0-0.19 0.18-0.21 0.21z"/>
    <path class="fil7" d="m2.03 3.8-0.29 0.29 0.31-0.05c0.01-0.01 0.15-0.16 0.17-0.17 0.03-0.03 0.12-0.11 0.13-0.13l-0.32 0.06z"/>
    <ellipse class="fil30" transform="matrix(1.9621 .14434 -.080788 .84567 1.2596 3.4822)" rx=".09" ry=".02"/>
    <polygon class="fil13" points="1.2 3.8 0.88 3.7 1.18 3.91 1.48 4.01"/>
    <path class="fil32" d="m1.36 3.49-0.15 0.36c-0.06-0.01-0.11-0.03-0.17-0.07l0.13-0.31c0.07 0 0.17 0 0.19 0.02z"/>
    <polygon class="fil13" points="0.87 3.7 0.79 3.86 1.11 4.07 1.18 3.91"/>
    <polygon class="fil18" points="1.18 3.91 1.11 4.07 1.41 4.16 1.48 4.01"/>
   
  
 
</svg>
