<?xml version="1.0" encoding="UTF-8"?>
<svg width="282px" height="42px" viewBox="0 0 282 42" version="1.1" xmlns="http://www.w3.org/2000/svg" xmlns:xlink="http://www.w3.org/1999/xlink">
  <defs></defs>
  <g id="Artboard" stroke="none" stroke-width="1" fill="none" fill-rule="evenodd">
    <g id="sci-hubs-logo-white" fill="#FFFFFF" fill-rule="nonzero">
      <path d="M57.77,9.48 L56,9.08 C55.06,8.88 54.56,8.59 54.56,7.9 C54.56,7.21 55.28,6.65 56.34,6.64 C57.3273369,6.52842719 58.2200229,7.23364913 58.34,8.22 L61.47,8.22 C61.15,4.85 58.13,4.06 56.1,4.07 C53.15,4.07 51.1,5.66 51.1,8.17 C51.1,10.17 52.27,11.32 54.74,11.85 L56.8,12.31 C57.87,12.51 58.13,12.95 58.13,13.38 C58.13,14.06 57.52,14.49 56.36,14.49 C54.89,14.49 53.93,13.83 53.72,12.73 L50.7,12.73 C51,15.82 53.55,17.15 56.37,17.14 C59.5,17.14 61.56,15.56 61.56,13.06 C61.55,10.89 60.05,10 57.77,9.48 Z" id="Shape"></path>
      <path d="M67.73,14.54 C67.172525,14.5415703 66.6396929,14.3103933 66.259993,13.9022158 C65.880293,13.4940384 65.688187,12.945907 65.73,12.39 C65.6911059,11.8357564 65.8845208,11.2903114 66.2638916,10.8843847 C66.6432624,10.4784579 67.1743951,10.248637 67.73,10.25 C68.5684926,10.1890824 69.3201468,10.7646347 69.48,11.59 L72.3,11.59 C72.0628444,9.27941683 70.037366,7.57235425 67.72,7.73 C65.9786284,7.61598017 64.3184598,8.48030233 63.4131812,9.97222938 C62.5079027,11.4641564 62.5079027,13.3358436 63.4131812,14.8277706 C64.3184598,16.3196977 65.9786284,17.1840198 67.72,17.07 C70.0368797,17.2157831 72.0529744,15.5003341 72.28,13.19 L69.48,13.19 C69.3204744,14.0168616 68.5702729,14.5955885 67.73,14.54 Z" id="Shape"></path>
      <rect id="Rectangle-path" transform="translate(75.443019, 12.485124) rotate(-0.110000) translate(-75.443019, -12.485124) " x="73.9530194" y="8.01512426" width="2.98" height="8.94"></rect>
      <path d="M75.41,3.24 C74.4851632,3.27285534 73.7587538,4.0434189 73.7804655,4.96858441 C73.8021772,5.89374993 74.563934,6.62938934 75.4892939,6.61882443 C76.4146539,6.60825952 77.1594166,5.85542006 77.16,4.93 C77.1602892,4.47119213 76.9740236,4.03198495 76.643989,3.7132658 C76.3139544,3.39454665 75.8685187,3.22371087 75.41,3.24 Z" id="Shape"></path>
      <path d="M83.31,7.73 C82.0445587,7.6583263 80.8077703,8.1248319 79.9048921,9.01437653 C79.0020138,9.90392117 78.5171602,11.1336324 78.57,12.4 C78.5355124,13.6877883 79.0473479,14.9300791 79.9789944,15.819811 C80.9106409,16.7095429 82.1751614,17.1636903 83.46,17.07 C85.67,17.07 87.38,15.9 87.8,14.07 L84.85,14.07 C84.5409314,14.5088825 84.0256349,14.7551639 83.49,14.72 C82.5666863,14.7845677 81.7275297,14.1845707 81.49,13.29 L87.86,13.29 L87.86,13.23 C87.9034687,12.898548 87.9201894,12.5641349 87.91,12.23 C87.9543113,11.0058369 87.4804231,9.81972806 86.6047765,8.96311731 C85.72913,8.10650657 84.5328937,7.65879801 83.31,7.73 Z M81.44,11.53 C81.5860953,10.6201243 82.3892118,9.9630289 83.31,10 C84.2059525,9.93598784 84.9902957,10.5962542 85.08,11.49 L81.44,11.53 Z" id="Shape"></path>
      <path d="M94.8,7.73 C93.8973748,7.72552846 93.0223252,8.04082973 92.33,8.62 L92.33,8 L89.33,8 L89.33,16.94 L92.33,16.94 L92.33,11.34 C92.7312566,10.8137062 93.3397744,10.4857625 94,10.44 C95,10.44 95.62,11.05 95.62,12.32 L95.62,16.94 L98.62,16.94 L98.62,11.84 C98.62,9.29 97.07,7.72 94.8,7.73 Z" id="Shape"></path>
      <path d="M104.91,14.54 C104.352525,14.5415703 103.819693,14.3103933 103.439993,13.9022158 C103.060293,13.4940384 102.868187,12.945907 102.91,12.39 C102.871106,11.8357564 103.064521,11.2903114 103.443892,10.8843847 C103.823262,10.4784579 104.354395,10.248637 104.91,10.25 C105.748493,10.1890824 106.500147,10.7646347 106.66,11.59 L109.48,11.59 C109.242844,9.27941683 107.217366,7.57235425 104.9,7.73 C103.158628,7.61598017 101.49846,8.48030233 100.593181,9.97222938 C99.6879027,11.4641564 99.6879027,13.3358436 100.593181,14.8277706 C101.49846,16.3196977 103.158628,17.1840198 104.9,17.07 C107.21688,17.2157831 109.232974,15.5003341 109.46,13.19 L106.64,13.19 C106.481395,14.008893 105.742886,14.5851861 104.91,14.54 Z" id="Shape"></path>
      <path d="M115.46,7.73 C114.194559,7.6583263 112.95777,8.1248319 112.054892,9.01437653 C111.152014,9.90392117 110.66716,11.1336324 110.72,12.4 C110.685512,13.6877883 111.197348,14.9300791 112.128994,15.819811 C113.060641,16.7095429 114.325161,17.1636903 115.61,17.07 C117.82,17.07 119.53,15.9 119.95,14.07 L117,14.07 C116.690931,14.5088825 116.175635,14.7551639 115.64,14.72 C114.716686,14.7845677 113.87753,14.1845707 113.64,13.29 L120,13.29 L120,13.23 C120.043599,12.8985597 120.06032,12.5641362 120.05,12.23 C120.094084,11.0076768 119.621532,9.82327018 118.748137,8.96700032 C117.874742,8.11073046 116.681211,7.66172294 115.46,7.73 Z M113.59,11.53 C113.749966,10.6281812 114.555174,9.98572796 115.47,10.03 C116.365952,9.96598784 117.150296,10.6262542 117.24,11.52 L113.59,11.53 Z" id="Shape"></path>
      <polygon id="Shape" points="129.62 14.2 129.6 4.42 126.49 4.42 126.52 16.95 135.82 16.93 135.81 14.19"></polygon>
      <path d="M141.53,7.73 C140.264559,7.6583263 139.02777,8.1248319 138.124892,9.01437653 C137.222014,9.90392117 136.73716,11.1336324 136.79,12.4 C136.755512,13.6877883 137.267348,14.9300791 138.198994,15.819811 C139.130641,16.7095429 140.395161,17.1636903 141.68,17.07 C143.89,17.07 145.6,15.9 146.02,14.07 L143.07,14.07 C142.760931,14.5088825 142.245635,14.7551639 141.71,14.72 C140.786686,14.7845677 139.94753,14.1845707 139.71,13.29 L146.08,13.29 L146.08,13.23 C146.123383,12.8985402 146.140103,12.5641341 146.13,12.23 C146.174311,11.0058369 145.700423,9.81972806 144.824777,8.96311731 C143.94913,8.10650657 142.752894,7.65879801 141.53,7.73 Z M139.66,11.53 C139.819966,10.6281812 140.625174,9.98572796 141.54,10.03 C142.435952,9.96598784 143.220296,10.6262542 143.31,11.52 L139.66,11.53 Z" id="Shape"></path>
      <path d="M154.23,8 L154.23,8.48 C153.496612,8.02041551 152.645347,7.78414607 151.78,7.8 C150.570462,7.82341435 149.420789,8.33071708 148.588206,9.20840571 C147.755624,10.0860943 147.309626,11.260909 147.35,12.47 C147.317799,13.6783317 147.769853,14.8494187 148.605589,15.7227159 C149.441325,16.596013 150.59142,17.0990822 151.8,17.12 C152.666353,17.1328646 153.517694,16.8930991 154.25,16.43 L154.25,17 L157.25,17 L157.25,8.06 L154.23,8 Z M152.38,14.67 C151.153928,14.67 150.16,13.6760721 150.16,12.45 C150.16,11.2239279 151.153928,10.23 152.38,10.23 C153.09678,10.2060841 153.784012,10.516447 154.24,11.07 L154.24,13.83 C153.790004,14.3935518 153.100829,14.7122026 152.38,14.69 L152.38,14.67 Z" id="Shape"></path>
      <path d="M165.3,7.86 C164.169302,7.83796194 163.072278,8.24532594 162.23,9 L162.23,8 L159.23,8 L159.23,16.94 L162.23,16.94 L162.23,11.84 C163.058357,11.0615255 164.164052,10.6473404 165.3,10.69 L165.3,7.86 Z" id="Shape"></path>
      <path d="M172.25,7.73 C171.347375,7.72552846 170.472325,8.04082973 169.78,8.62 L169.78,8 L166.78,8 L166.78,16.94 L169.78,16.94 L169.78,11.34 C170.177063,10.8124554 170.781698,10.4809988 171.44,10.43 C172.44,10.43 173.06,11.04 173.06,12.31 L173.06,16.93 L176.06,16.93 L176.06,11.83 C176.07,9.29 174.52,7.72 172.25,7.73 Z" id="Shape"></path>
      <path d="M179.5,3.24 C178.575163,3.27285534 177.848754,4.0434189 177.870466,4.96858441 C177.892177,5.89374993 178.653934,6.62938934 179.579294,6.61882443 C180.504654,6.60825952 181.249417,5.85542006 181.25,4.93 C181.250289,4.47119213 181.064024,4.03198495 180.733989,3.7132658 C180.403954,3.39454665 179.958519,3.22371087 179.5,3.24 Z" id="Shape"></path>
      <rect id="Rectangle-path" transform="translate(179.542828, 12.495267) rotate(-0.110000) translate(-179.542828, -12.495267) " x="178.052828" y="8.02526673" width="2.98" height="8.94"></rect>
      <path d="M188.56,7.73 C187.657375,7.72552846 186.782325,8.04082973 186.09,8.62 L186.09,8 L183.09,8 L183.09,16.94 L186.09,16.94 L186.09,11.34 C186.487063,10.8124554 187.091698,10.4809988 187.75,10.43 C188.75,10.43 189.37,11.04 189.37,12.31 L189.37,16.93 L192.37,16.93 L192.37,11.83 C192.37,9.29 190.82,7.72 188.56,7.73 Z" id="Shape"></path>
      <path d="M200.61,8 L200.61,8.35 C199.878216,7.90578493 199.035959,7.67702383 198.18,7.69 C195.711287,7.69000005 193.71,9.69128721 193.71,12.16 C193.71,14.6287128 195.711287,16.6299999 198.18,16.63 C199.032138,16.6442014 199.872101,16.4264332 200.61,16 L200.61,16.85 C200.654764,17.344171 200.48139,17.8332345 200.135366,18.1888698 C199.789343,18.5445052 199.305212,18.7312113 198.81,18.7 C197.925775,18.8281575 197.097314,18.2376582 196.93,17.36 L194,17.36 C194.15,19.68 196.13,21.22 198.83,21.22 C201.53,21.22 203.62,19.59 203.61,16.79 L203.61,8 L200.61,8 Z M198.78,14.25 C197.654038,14.261658 196.723248,13.375191 196.68,12.25 C196.632993,11.6745908 196.836928,11.106938 197.23937,10.6929981 C197.641811,10.2790583 198.203495,10.0592168 198.78,10.09 C199.487265,10.0743041 200.163664,10.379419 200.62,10.92 L200.62,13.39 C200.175502,13.9530114 199.497328,14.2810416 198.78,14.28 L198.78,14.25 Z" id="Shape"></path>
      <polygon id="Shape" points="218 9.44 212.89 9.44 212.89 4.4 209.77 4.4 209.77 16.95 212.89 16.95 212.89 12.24 218 12.24 218 16.95 221.12 16.95 221.12 4.4 218 4.4"></polygon>
      <path d="M229.39,13.65 C228.992803,14.1640793 228.397495,14.487143 227.75,14.54 C226.75,14.54 226.11,13.93 226.11,12.66 L226.11,8 L223.11,8 L223.11,13.11 C223.11,15.66 224.66,17.23 226.93,17.23 C227.822558,17.2312052 228.688095,16.9238511 229.38,16.36 L229.38,16.95 L232.38,16.95 L232.38,8 L229.38,8 L229.39,13.65 Z" id="Shape"></path>
      <path d="M239.85,7.83 C238.984727,7.8147232 238.133623,8.05094787 237.4,8.51 L237.4,3.85 L234.4,3.85 L234.4,16.95 L237.4,16.95 L237.4,16.49 C238.133623,16.9490521 238.984727,17.1852768 239.85,17.17 C241.064841,17.1465836 242.219599,16.6371736 243.055932,15.755735 C243.892265,14.8742964 244.340371,13.6943957 244.3,12.48 C244.334927,11.2709083 243.883777,10.0982639 243.047463,9.22436321 C242.21115,8.35046255 241.059459,7.84822833 239.85,7.83 Z M239.26,14.71 C238.544612,14.7378975 237.85703,14.4310733 237.4,13.88 L237.4,11.12 C237.854944,10.5639535 238.541833,10.2500526 239.26,10.27 C240.431031,10.3485502 241.340752,11.3213372 241.340752,12.495 C241.340752,13.6686628 240.431031,14.6414498 239.26,14.72 L239.26,14.71 Z" id="Shape"></path>
      <path d="M33,30 C35.81,31.38 43.82,38.28 43.82,38.28 L36.6,31.42 L42.85,35.93 C38.28,31.68 34.85,25.69 34.85,20.37 C34.85,15.71 37.73,10.81 42.43,6.2 C40.6474429,7.89559499 38.7782732,9.49774045 36.83,11 C38.8026378,7.96878645 41.0307467,5.1117219 43.49,2.46 C43.49,2.46 34.27,10.63 33.3,10.22 C32.56,9.91 35.85,5.07 35.85,5.07 L32.41,8.82 L38.67,0 C38.67,0 30.89,9 30.11,8.56 C29.54,8.26 33.28,3.85 34.38,2.16 C32.59,4.32 29.16,9 25.84,9 C23.95,9 21.94,5.83 21.93,5.81 C21.88,5.94 20.48,9 18.58,9 C15.72,9 12.52,3.62 11.42,2.12 C11.72,2.71 14.77,7.12 15.01,7.78 C15.16,8.2 15.11,8.65 14.37,8.31 C11.9,7.21 5.21,0.4 5.21,0.4 C7.46420467,3.10210935 9.52593909,5.95913194 11.38,8.95 C11.88,9.9 8.23,6.08 8.23,6.08 C8.23,6.08 12.07,11.23 10.82,10.73 C8,9.35 0,2.45 0,2.45 L7.26,9.32 L1,4.81 C5.57,9.06 9.31,14.91 9.31,20.39 C9.31,25.2 6.21,29.87 1.55,34.39 C3.2870084,32.7489959 5.1060045,31.1970084 7,29.74 C5.03963111,32.7662106 2.82495266,35.6198673 0.38,38.27 C0.38,38.27 9.6,30.1 10.57,30.51 C11.31,30.82 8.02,35.66 8.02,35.66 L11.45,31.92 L5.2,40.75 C5.2,40.75 12.05,32.43 14.12,32.09 C14.76,31.99 10.99,36.2 10.12,38 C12.55,34.92 15.66,31.62 18.03,31.62 C19.92,31.62 21.93,34.88 21.94,34.9 C21.94,34.82 23.31,31.72 25.22,31.72 C27.13,31.72 30.56,35.25 33.22,37.93 C31.52,35.98 29.22,33.61 29.04,32.93 C28.89,32.51 28.81,32.06 29.55,32.4 C32.02,33.54 38.7,40.35 38.7,40.35 C36.4458473,37.6478503 34.3841156,34.7908314 32.53,31.8 C32.03,30.85 35.68,34.67 35.68,34.67 C35.68,34.67 31.78,29.51 33,30 Z M16.59,24.82 C14.66,24.82 12.93,23.91 12.73,21.82 L14.86,21.82 C15,22.57 15.65,23.03 16.66,23.03 C17.45,23.03 17.87,22.74 17.87,22.27 C17.87,21.98 17.69,21.68 16.96,21.54 L15.55,21.23 C13.86,20.87 13.07,20.07 13.07,18.71 C13.07,17 14.45,15.92 16.47,15.92 C17.85,15.92 19.92,16.46 20.13,18.76 L18,18.76 C17.916696,18.0809503 17.2991681,17.5976677 16.62,17.68 C15.89,17.68 15.4,17.98 15.4,18.54 C15.4,19.1 15.74,19.21 16.4,19.35 L17.6,19.63 C19.16,19.97 20.18,20.63 20.18,22.07 C20.14,23.75 18.73,24.82 16.59,24.82 Z M24.36,23.06 C24.9350916,23.1008984 25.4501896,22.70599 25.56,22.14 L27.48,22.14 C27.3217335,23.7171893 25.9416308,24.8849685 24.36,24.78 C22.5982116,24.78 21.17,23.3517884 21.17,21.59 C21.17,19.8282116 22.5982116,18.4 24.36,18.4 C25.9276893,18.293671 27.3018878,19.4388364 27.48,21 L25.56,21 C25.4501896,20.43401 24.9350916,20.0391016 24.36,20.08 C23.5977105,20.1430335 23.0111404,20.7801088 23.0111404,21.545 C23.0111404,22.3098912 23.5977105,22.9469665 24.36,23.01 L24.36,23.06 Z M30.66,24.65 L28.66,24.65 L28.66,18.55 L30.66,18.55 L30.66,24.65 Z M29.66,17.59 C29.0292534,17.568027 28.534072,17.0418197 28.5504237,16.4109024 C28.5667753,15.779985 29.0885492,15.2801344 29.7195872,15.2908634 C30.3506252,15.3015923 30.8551055,15.8188914 30.85,16.45 C30.84784,16.7657838 30.7159185,17.0667846 30.4851835,17.2823894 C30.2544485,17.4979942 29.9452052,17.6092295 29.63,17.59 L29.66,17.59 Z" id="Shape"></path>
    </g>
    <path d="M51,36.2936596 L51,23.6807564 L57.3588929,23.6807564 C58.069671,23.6807564 58.7011116,23.791063 59.2532338,24.0116796 C59.805356,24.2322962 60.268624,24.5348516 60.6430517,24.9193548 C61.0174794,25.3038581 61.2998825,25.7513879 61.4902695,26.2619577 C61.6806565,26.7725276 61.7758485,27.3114543 61.7758485,27.8787542 C61.7758485,28.446054 61.6806565,28.9818291 61.4902695,29.4860957 C61.2998825,29.9903622 61.0174794,30.4347404 60.6430517,30.8192436 C60.268624,31.2037468 59.805356,31.5063022 59.2532338,31.7269188 C58.7011116,31.9475354 58.069671,32.057842 57.3588929,32.057842 L54.2746395,32.057842 L54.2746395,36.2936596 L51,36.2936596 Z M56.9210051,29.2213571 C57.3652414,29.2213571 57.7301442,29.1047472 58.0157247,28.8715239 C58.3013051,28.6383007 58.4440932,28.3073807 58.4440932,27.8787542 C58.4440932,27.437521 58.3013051,27.1002978 58.0157247,26.8670745 C57.7301442,26.6338513 57.3652414,26.5172414 56.9210051,26.5172414 L54.2746395,26.5172414 L54.2746395,29.2213571 L56.9210051,29.2213571 Z M67.1518255,36.5205784 C66.3648927,36.5205784 65.6636445,36.3913621 65.04806,36.1329255 C64.4324755,35.8744889 63.9089192,35.5246592 63.4773754,35.083426 C63.0458316,34.6421928 62.7158324,34.1316306 62.4873681,33.5517241 C62.2589037,32.9718176 62.1446732,32.3604037 62.1446732,31.7174638 C62.1446732,31.074524 62.2589037,30.4631101 62.4873681,29.8832036 C62.7158324,29.3032971 63.0458316,28.7958865 63.4773754,28.3609566 C63.9089192,27.9260267 64.4324755,27.5793487 65.04806,27.3209121 C65.6636445,27.0624755 66.3648927,26.9332592 67.1518255,26.9332592 C67.9387583,26.9332592 68.6431795,27.0624755 69.2651102,27.3209121 C69.887041,27.5793487 70.4137704,27.9260267 70.8453142,28.3609566 C71.276858,28.7958865 71.6068571,29.3032971 71.8353215,29.8832036 C72.0637858,30.4631101 72.1780163,31.074524 72.1780163,31.7174638 C72.1780163,32.3604037 72.0637858,32.9718176 71.8353215,33.5517241 C71.6068571,34.1316306 71.276858,34.6421928 70.8453142,35.083426 C70.4137704,35.5246592 69.887041,35.8744889 69.2651102,36.1329255 C68.6431795,36.3913621 67.9387583,36.5205784 67.1518255,36.5205784 Z M67.1518255,33.948832 C67.7991412,33.948832 68.2973129,33.7313704 68.6463557,33.2964405 C68.9953985,32.8615106 69.1699172,32.3351903 69.1699172,31.7174638 C69.1699172,31.112344 68.9953985,30.592327 68.6463557,30.1573971 C68.2973129,29.7224672 67.7991412,29.5050056 67.1518255,29.5050056 C66.5045098,29.5050056 66.0126842,29.7224672 65.6763338,30.1573971 C65.3399835,30.592327 65.1718109,31.112344 65.1718109,31.7174638 C65.1718109,32.3351903 65.3399835,32.8615106 65.6763338,33.2964405 C66.0126842,33.7313704 66.5045098,33.948832 67.1518255,33.948832 Z M79.476892,36.2936596 L77.4588002,33.0600667 L76.5830246,34.1001112 L76.5830246,36.2936596 L73.6510799,36.2936596 L73.6510799,23.6807564 L76.5830246,23.6807564 L76.5830246,30.8097887 L79.381699,27.160178 L82.9228789,27.160178 L79.5340078,31.320356 L83.0942263,36.2936596 L79.476892,36.2936596 Z M90.01233,36.2936596 L90.01233,35.2347052 C89.6315561,35.6759384 89.212711,36.0005551 88.7557823,36.2085651 C88.2988536,36.416575 87.810201,36.5205784 87.28981,36.5205784 C86.7186491,36.5205784 86.1855736,36.416575 85.6905674,36.2085651 C85.1955613,36.0005551 84.764024,35.6916965 84.3959425,35.28198 C84.0278611,34.8722634 83.7391118,34.3711561 83.5296862,33.7786429 C83.3202605,33.1861298 83.2155492,32.499077 83.2155492,31.7174638 C83.2155492,30.9736707 83.3202605,30.3055276 83.5296862,29.7130145 C83.7391118,29.1205013 84.024688,28.619394 84.3864232,28.2096774 C84.7481585,27.7999609 85.1796958,27.484799 85.6810481,27.2641824 C86.1824005,27.0435658 86.7186491,26.9332592 87.28981,26.9332592 C87.7975086,26.9332592 88.282988,27.0372626 88.746263,27.2452725 C89.209538,27.4532825 89.6252099,27.7842024 89.9932914,28.2380423 L89.9932914,27.160178 L92.9252361,27.160178 L92.9252361,36.2936596 L90.01233,36.2936596 Z M88.2417401,33.948832 C88.5590517,33.948832 88.8858777,33.8731932 89.222228,33.7219132 C89.5585783,33.5706333 89.821943,33.3689297 90.01233,33.1167964 L90.01233,30.3370412 C89.821943,30.0849079 89.5585783,29.8863559 89.222228,29.7413793 C88.8858777,29.5964027 88.5590517,29.5239155 88.2417401,29.5239155 C87.6578867,29.5239155 87.1755803,29.7193158 86.7948063,30.1101224 C86.4140324,30.5009289 86.2236483,31.036704 86.2236483,31.7174638 C86.2236483,32.3982236 86.4140324,32.940302 86.7948063,33.3437152 C87.1755803,33.7471285 87.6578867,33.948832 88.2417401,33.948832 Z M100.662,36.5205784 C100.141609,36.5205784 99.652956,36.416575 99.1960273,36.2085651 C98.7390986,36.0005551 98.3202535,35.6696352 97.9394796,35.2157953 L97.9394796,39.7730812 L95.0075349,39.7730812 L95.0075349,27.160178 L97.9394796,27.160178 L97.9394796,28.2191324 C98.307561,27.7778992 98.72006,27.4532825 99.1769887,27.2452725 C99.6339174,27.0372626 100.128916,26.9332592 100.662,26.9332592 C101.233161,26.9332592 101.766236,27.0372626 102.261242,27.2452725 C102.756248,27.4532825 103.184613,27.7621411 103.546348,28.1718576 C103.908083,28.5815742 104.190486,29.0826815 104.393566,29.6751947 C104.596645,30.2677078 104.698183,30.9484574 104.698183,31.7174638 C104.698183,32.499077 104.596645,33.1861298 104.393566,33.7786429 C104.190486,34.3711561 103.908083,34.8722634 103.546348,35.28198 C103.184613,35.6916965 102.756248,36.0005551 102.261242,36.2085651 C101.766236,36.416575 101.233161,36.5205784 100.662,36.5205784 Z M99.6910309,33.948832 C100.262192,33.948832 100.741325,33.7502801 101.128445,33.3531702 C101.515566,32.9560603 101.709123,32.4108303 101.709123,31.7174638 C101.709123,31.036704 101.515566,30.4977773 101.128445,30.1006674 C100.741325,29.7035575 100.262192,29.5050056 99.6910309,29.5050056 C99.3737193,29.5050056 99.0468933,29.5806444 98.7105429,29.7319244 C98.3741926,29.8832043 98.1171741,30.0849079 97.9394796,30.3370412 L97.9394796,33.1167964 C98.1171741,33.356323 98.3741926,33.554875 98.7105429,33.7124583 C99.0468933,33.8700416 99.3737193,33.948832 99.6910309,33.948832 Z M112.358792,36.2936596 L112.358792,35.1968854 C112.066866,35.5246587 111.65754,35.827214 111.130802,36.1045606 C110.604065,36.3819072 109.953586,36.5205784 109.179346,36.5205784 C108.125871,36.5205784 107.357989,36.2558425 106.875675,35.7263626 C106.393361,35.1968828 106.152208,34.50983 106.152208,33.6651835 L106.152208,27.160178 L109.084153,27.160178 L109.084153,32.4738598 C109.084153,33.028553 109.217422,33.4130505 109.483963,33.6273637 C109.750505,33.841677 110.124927,33.948832 110.607241,33.948832 C111.026092,33.948832 111.378303,33.8542835 111.663883,33.6651835 C111.949464,33.4760836 112.181098,33.27438 112.358792,33.0600667 L112.358792,27.160178 L115.290737,27.160178 L115.290737,36.2936596 L112.358792,36.2936596 Z M107.256447,25.7797553 L107.256447,24.1724138 L114.167459,24.1724138 L114.167459,25.7797553 L107.256447,25.7797553 Z M130.859457,36.2936596 L130.231183,34.4783092 L125.224031,34.4783092 L124.595757,36.2936596 L120.88323,36.2936596 L125.661919,23.6807564 L129.774257,23.6807564 L134.571984,36.2936596 L130.859457,36.2936596 Z M127.718088,26.8954394 L126.099807,31.6418242 L129.336369,31.6418242 L127.718088,26.8954394 Z M141.18547,36.2936596 L139.167379,33.0600667 L138.291603,34.1001112 L138.291603,36.2936596 L135.359658,36.2936596 L135.359658,23.6807564 L138.291603,23.6807564 L138.291603,30.8097887 L141.090277,27.160178 L144.631457,27.160178 L141.242586,31.320356 L144.802805,36.2936596 L141.18547,36.2936596 Z M149.93128,36.5205784 C149.144347,36.5205784 148.443099,36.3913621 147.827514,36.1329255 C147.21193,35.8744889 146.688374,35.5246592 146.25683,35.083426 C145.825286,34.6421928 145.495287,34.1316306 145.266822,33.5517241 C145.038358,32.9718176 144.924128,32.3604037 144.924128,31.7174638 C144.924128,31.074524 145.038358,30.4631101 145.266822,29.8832036 C145.495287,29.3032971 145.825286,28.7958865 146.25683,28.3609566 C146.688374,27.9260267 147.21193,27.5793487 147.827514,27.3209121 C148.443099,27.0624755 149.144347,26.9332592 149.93128,26.9332592 C150.718213,26.9332592 151.422634,27.0624755 152.044565,27.3209121 C152.666495,27.5793487 153.193225,27.9260267 153.624769,28.3609566 C154.056312,28.7958865 154.386312,29.3032971 154.614776,29.8832036 C154.84324,30.4631101 154.957471,31.074524 154.957471,31.7174638 C154.957471,32.3604037 154.84324,32.9718176 154.614776,33.5517241 C154.386312,34.1316306 154.056312,34.6421928 153.624769,35.083426 C153.193225,35.5246592 152.666495,35.8744889 152.044565,36.1329255 C151.422634,36.3913621 150.718213,36.5205784 149.93128,36.5205784 Z M149.93128,33.948832 C150.578596,33.948832 151.076767,33.7313704 151.42581,33.2964405 C151.774853,32.8615106 151.949372,32.3351903 151.949372,31.7174638 C151.949372,31.112344 151.774853,30.592327 151.42581,30.1573971 C151.076767,29.7224672 150.578596,29.5050056 149.93128,29.5050056 C149.283964,29.5050056 148.792139,29.7224672 148.455788,30.1573971 C148.119438,30.592327 147.951265,31.112344 147.951265,31.7174638 C147.951265,32.3351903 148.119438,32.8615106 148.455788,33.2964405 C148.792139,33.7313704 149.283964,33.948832 149.93128,33.948832 Z M156.430534,36.2936596 L156.430534,27.160178 L159.362479,27.160178 L159.362479,28.2758621 C159.514789,28.0867621 159.698827,27.9102715 159.914598,27.7463849 C160.13037,27.5824983 160.365177,27.4406754 160.619027,27.3209121 C160.872876,27.2011488 161.136241,27.1034487 161.409129,27.0278087 C161.682017,26.9521687 161.958074,26.9143493 162.237308,26.9143493 L162.237308,29.7130145 C162.148461,29.6878011 162.043749,29.6688914 161.923171,29.6562848 C161.802592,29.6436781 161.666151,29.6373749 161.513841,29.6373749 C161.323454,29.6373749 161.123551,29.6562846 160.914125,29.6941046 C160.704699,29.7319245 160.49845,29.7886537 160.29537,29.8642937 C160.092291,29.9399336 159.908253,30.028179 159.743251,30.1290323 C159.578249,30.2298856 159.451326,30.3433438 159.362479,30.4694105 L159.362479,36.2936596 L156.430534,36.2936596 Z M169.688492,36.2936596 L169.688492,35.2347052 C169.307718,35.6759384 168.888873,36.0005551 168.431945,36.2085651 C167.975016,36.416575 167.486363,36.5205784 166.965972,36.5205784 C166.394811,36.5205784 165.861736,36.416575 165.36673,36.2085651 C164.871724,36.0005551 164.440186,35.6916965 164.072105,35.28198 C163.704023,34.8722634 163.415274,34.3711561 163.205849,33.7786429 C162.996423,33.1861298 162.891712,32.499077 162.891712,31.7174638 C162.891712,30.9736707 162.996423,30.3055276 163.205849,29.7130145 C163.415274,29.1205013 163.70085,28.619394 164.062586,28.2096774 C164.424321,27.7999609 164.855858,27.484799 165.35721,27.2641824 C165.858563,27.0435658 166.394811,26.9332592 166.965972,26.9332592 C167.473671,26.9332592 167.95915,27.0372626 168.422425,27.2452725 C168.8857,27.4532825 169.301372,27.7842024 169.669454,28.2380423 L169.669454,27.160178 L172.601398,27.160178 L172.601398,36.2936596 L169.688492,36.2936596 Z M167.917902,33.948832 C168.235214,33.948832 168.56204,33.8731932 168.89839,33.7219132 C169.234741,33.5706333 169.498105,33.3689297 169.688492,33.1167964 L169.688492,30.3370412 C169.498105,30.0849079 169.234741,29.8863559 168.89839,29.7413793 C168.56204,29.5964027 168.235214,29.5239155 167.917902,29.5239155 C167.334049,29.5239155 166.851743,29.7193158 166.470969,30.1101224 C166.090195,30.5009289 165.899811,31.036704 165.899811,31.7174638 C165.899811,32.3982236 166.090195,32.940302 166.470969,33.3437152 C166.851743,33.7471285 167.334049,33.948832 167.917902,33.948832 Z M180.90932,36.2936596 L180.90932,31.0177976 C180.90932,30.4504977 180.772878,30.0565454 180.49999,29.8359288 C180.227102,29.6153122 179.862199,29.5050056 179.40527,29.5050056 C178.961034,29.5050056 178.596131,29.5995541 178.310551,29.7886541 C178.02497,29.977754 177.793336,30.1794576 177.615642,30.3937709 L177.615642,36.2936596 L174.683697,36.2936596 L174.683697,27.160178 L177.615642,27.160178 L177.615642,28.2758621 C177.894876,27.9480888 178.301029,27.6423818 178.834112,27.3587319 C179.367196,27.075082 180.020848,26.9332592 180.795088,26.9332592 C181.83587,26.9332592 182.603753,27.2042984 183.098759,27.7463849 C183.593765,28.2884714 183.841265,28.9818274 183.841265,29.8264739 L183.841265,36.2936596 L180.90932,36.2936596 Z M189.731284,40 C188.931659,40 188.201853,39.892845 187.541845,39.6785317 C186.881837,39.4642184 186.253569,39.1175404 185.657023,38.6384872 L186.932609,36.5583982 C187.287998,36.9365981 187.710017,37.2076373 188.198676,37.3715239 C188.687336,37.5354105 189.1982,37.6173526 189.731284,37.6173526 C189.972441,37.6173526 190.229459,37.588988 190.502347,37.5322581 C190.775235,37.4755281 191.029081,37.3683731 191.263891,37.2107898 C191.498702,37.0532065 191.692259,36.8388964 191.844569,36.5678532 C191.996878,36.2968099 192.073032,35.9469803 192.073032,35.5183537 L192.073032,34.8186874 C191.311484,35.7011538 190.403986,36.1423804 189.350512,36.1423804 C188.792043,36.1423804 188.265314,36.0478319 187.770308,35.8587319 C187.275302,35.669632 186.843764,35.3828347 186.475683,34.9983315 C186.107602,34.6138283 185.818852,34.1316306 185.609427,33.5517241 C185.400001,32.9718176 185.29529,32.2973713 185.29529,31.5283648 C185.29529,30.7719651 185.400001,30.1101252 185.609427,29.5428254 C185.818852,28.9755255 186.104428,28.4964795 186.466164,28.105673 C186.827899,27.7148664 187.256263,27.4217659 187.751269,27.2263626 C188.246275,27.0309593 188.779351,26.9332592 189.350512,26.9332592 C189.870903,26.9332592 190.362728,27.0372626 190.826003,27.2452725 C191.289278,27.4532825 191.70495,27.7842024 192.073032,28.2380423 L192.073032,27.160178 L194.985938,27.160178 L194.985938,35.4805339 C194.985938,36.413427 194.817765,37.172967 194.481415,37.7591769 C194.145065,38.3453867 193.719873,38.805523 193.205829,39.1395996 C192.691784,39.4736761 192.126978,39.7005927 191.511393,39.820356 C190.895809,39.9401192 190.302445,40 189.731284,40 Z M190.321481,33.570634 C190.6261,33.570634 190.949753,33.4981468 191.292449,33.3531702 C191.635146,33.2081936 191.895337,33.0096416 192.073032,32.7575083 L192.073032,30.3181313 C191.895337,30.065998 191.635146,29.867446 191.292449,29.7224694 C190.949753,29.5774928 190.6261,29.5050056 190.321481,29.5050056 C189.737627,29.5050056 189.255321,29.675193 188.874547,30.0155729 C188.493773,30.3559528 188.303389,30.8602117 188.303389,31.5283648 C188.303389,32.2091246 188.493773,32.7196868 188.874547,33.0600667 C189.255321,33.4004466 189.737627,33.570634 190.321481,33.570634 Z M203.255782,36.2936596 L203.255782,35.2347052 C202.875008,35.6759384 202.456163,36.0005551 201.999235,36.2085651 C201.542306,36.416575 201.053653,36.5205784 200.533262,36.5205784 C199.962101,36.5205784 199.429026,36.416575 198.93402,36.2085651 C198.439014,36.0005551 198.007476,35.6916965 197.639395,35.28198 C197.271313,34.8722634 196.982564,34.3711561 196.773138,33.7786429 C196.563713,33.1861298 196.459002,32.499077 196.459002,31.7174638 C196.459002,30.9736707 196.563713,30.3055276 196.773138,29.7130145 C196.982564,29.1205013 197.26814,28.619394 197.629876,28.2096774 C197.991611,27.7999609 198.423148,27.484799 198.9245,27.2641824 C199.425853,27.0435658 199.962101,26.9332592 200.533262,26.9332592 C201.040961,26.9332592 201.52644,27.0372626 201.989715,27.2452725 C202.45299,27.4532825 202.868662,27.7842024 203.236744,28.2380423 L203.236744,27.160178 L206.168688,27.160178 L206.168688,36.2936596 L203.255782,36.2936596 Z M201.485192,33.948832 C201.802504,33.948832 202.12933,33.8731932 202.46568,33.7219132 C202.802031,33.5706333 203.065395,33.3689297 203.255782,33.1167964 L203.255782,30.3370412 C203.065395,30.0849079 202.802031,29.8863559 202.46568,29.7413793 C202.12933,29.5964027 201.802504,29.5239155 201.485192,29.5239155 C200.901339,29.5239155 200.419033,29.7193158 200.038259,30.1101224 C199.657485,30.5009289 199.467101,31.036704 199.467101,31.7174638 C199.467101,32.3982236 199.657485,32.940302 200.038259,33.3437152 C200.419033,33.7471285 200.901339,33.948832 201.485192,33.948832 Z M213.131961,36.2936596 L213.131961,23.6807564 L219.490853,23.6807564 C220.201631,23.6807564 220.833072,23.791063 221.385194,24.0116796 C221.937317,24.2322962 222.400585,24.5348516 222.775012,24.9193548 C223.14944,25.3038581 223.431843,25.7513879 223.62223,26.2619577 C223.812617,26.7725276 223.907809,27.3114543 223.907809,27.8787542 C223.907809,28.446054 223.812617,28.9818291 223.62223,29.4860957 C223.431843,29.9903622 223.14944,30.4347404 222.775012,30.8192436 C222.400585,31.2037468 221.937317,31.5063022 221.385194,31.7269188 C220.833072,31.9475354 220.201631,32.057842 219.490853,32.057842 L216.4066,32.057842 L216.4066,36.2936596 L213.131961,36.2936596 Z M219.052966,29.2213571 C219.497202,29.2213571 219.862105,29.1047472 220.147685,28.8715239 C220.433266,28.6383007 220.576054,28.3073807 220.576054,27.8787542 C220.576054,27.437521 220.433266,27.1002978 220.147685,26.8670745 C219.862105,26.6338513 219.497202,26.5172414 219.052966,26.5172414 L216.4066,26.5172414 L216.4066,29.2213571 L219.052966,29.2213571 Z M231.435148,36.2936596 L231.435148,35.1968854 C231.143221,35.5246587 230.733895,35.827214 230.207158,36.1045606 C229.680421,36.3819072 229.029942,36.5205784 228.255702,36.5205784 C227.202227,36.5205784 226.434344,36.2558425 225.952031,35.7263626 C225.469717,35.1968828 225.228564,34.50983 225.228564,33.6651835 L225.228564,27.160178 L228.160509,27.160178 L228.160509,32.4738598 C228.160509,33.028553 228.293777,33.4130505 228.560319,33.6273637 C228.826861,33.841677 229.201283,33.948832 229.683597,33.948832 C230.102448,33.948832 230.454659,33.8542835 230.740239,33.6651835 C231.025819,33.4760836 231.257453,33.27438 231.435148,33.0600667 L231.435148,27.160178 L234.367093,27.160178 L234.367093,36.2936596 L231.435148,36.2936596 Z M226.332803,25.7797553 L226.332803,24.1724138 L233.243815,24.1724138 L233.243815,25.7797553 L226.332803,25.7797553 Z M239.914417,36.5205784 C238.975175,36.5205784 238.261234,36.2936619 237.772574,35.839822 C237.283914,35.3859822 237.039588,34.717839 237.039588,33.8353726 L237.039588,29.6941046 L235.5165,29.6941046 L235.5165,27.160178 L237.039588,27.160178 L237.039588,24.6640712 L239.952494,24.6640712 L239.952494,27.160178 L241.818277,27.160178 L241.818277,29.6941046 L239.952494,29.6941046 L239.952494,33.0222469 C239.952494,33.2869869 240.025475,33.5076002 240.171438,33.6840934 C240.317401,33.8605867 240.517305,33.948832 240.771154,33.948832 C240.936156,33.948832 241.088463,33.9267707 241.228081,33.8826474 C241.367698,33.8385241 241.46289,33.7849466 241.51366,33.7219132 L242.084818,35.9154616 C241.907123,36.0919549 241.637412,36.2369294 241.275677,36.3503893 C240.913942,36.4638493 240.460193,36.5205784 239.914417,36.5205784 Z M249.402732,36.2936596 L249.402732,35.2347052 C249.021958,35.6759384 248.603113,36.0005551 248.146184,36.2085651 C247.689255,36.416575 247.200603,36.5205784 246.680212,36.5205784 C246.109051,36.5205784 245.575975,36.416575 245.080969,36.2085651 C244.585963,36.0005551 244.154426,35.6916965 243.786344,35.28198 C243.418263,34.8722634 243.129514,34.3711561 242.920088,33.7786429 C242.710662,33.1861298 242.605951,32.499077 242.605951,31.7174638 C242.605951,30.9736707 242.710662,30.3055276 242.920088,29.7130145 C243.129514,29.1205013 243.41509,28.619394 243.776825,28.2096774 C244.13856,27.7999609 244.570098,27.484799 245.07145,27.2641824 C245.572802,27.0435658 246.109051,26.9332592 246.680212,26.9332592 C247.18791,26.9332592 247.67339,27.0372626 248.136665,27.2452725 C248.59994,27.4532825 249.015612,27.7842024 249.383693,28.2380423 L249.383693,27.160178 L252.315638,27.160178 L252.315638,36.2936596 L249.402732,36.2936596 Z M247.632142,33.948832 C247.949454,33.948832 248.27628,33.8731932 248.61263,33.7219132 C248.94898,33.5706333 249.212345,33.3689297 249.402732,33.1167964 L249.402732,30.3370412 C249.212345,30.0849079 248.94898,29.8863559 248.61263,29.7413793 C248.27628,29.5964027 247.949454,29.5239155 247.632142,29.5239155 C247.048289,29.5239155 246.565982,29.7193158 246.185208,30.1101224 C245.804434,30.5009289 245.61405,31.036704 245.61405,31.7174638 C245.61405,32.3982236 245.804434,32.940302 246.185208,33.3437152 C246.565982,33.7471285 247.048289,33.948832 247.632142,33.948832 Z M255.863909,26.3470523 C255.394288,26.3470523 254.997654,26.1831681 254.673997,25.8553949 C254.350339,25.5276216 254.188512,25.1305177 254.188512,24.6640712 C254.188512,24.1976247 254.350339,23.8036724 254.673997,23.4822024 C254.997654,23.1607325 255.394288,23 255.863909,23 C256.33353,23 256.730164,23.1607325 257.053822,23.4822024 C257.37748,23.8036724 257.539306,24.1976247 257.539306,24.6640712 C257.539306,25.1305177 257.37748,25.5276216 257.053822,25.8553949 C256.730164,26.1831681 256.33353,26.3470523 255.863909,26.3470523 Z M254.397937,36.2936596 L254.397937,27.160178 L257.329881,27.160178 L257.329881,36.2936596 L254.397937,36.2936596 Z M265.580687,36.2936596 L265.580687,35.2347052 C265.199913,35.6759384 264.781068,36.0005551 264.32414,36.2085651 C263.867211,36.416575 263.378558,36.5205784 262.858167,36.5205784 C262.287006,36.5205784 261.753931,36.416575 261.258925,36.2085651 C260.763919,36.0005551 260.332381,35.6916965 259.9643,35.28198 C259.596218,34.8722634 259.307469,34.3711561 259.098043,33.7786429 C258.888618,33.1861298 258.783907,32.499077 258.783907,31.7174638 C258.783907,30.9736707 258.888618,30.3055276 259.098043,29.7130145 C259.307469,29.1205013 259.593045,28.619394 259.954781,28.2096774 C260.316516,27.7999609 260.748053,27.484799 261.249405,27.2641824 C261.750758,27.0435658 262.287006,26.9332592 262.858167,26.9332592 C263.365866,26.9332592 263.851345,27.0372626 264.31462,27.2452725 C264.777895,27.4532825 265.193567,27.7842024 265.561649,28.2380423 L265.561649,27.160178 L268.493593,27.160178 L268.493593,36.2936596 L265.580687,36.2936596 Z M263.810097,33.948832 C264.127409,33.948832 264.454235,33.8731932 264.790585,33.7219132 C265.126936,33.5706333 265.3903,33.3689297 265.580687,33.1167964 L265.580687,30.3370412 C265.3903,30.0849079 265.126936,29.8863559 264.790585,29.7413793 C264.454235,29.5964027 264.127409,29.5239155 263.810097,29.5239155 C263.226244,29.5239155 262.743938,29.7193158 262.363164,30.1101224 C261.98239,30.5009289 261.792006,31.036704 261.792006,31.7174638 C261.792006,32.3982236 261.98239,32.940302 262.363164,33.3437152 C262.743938,33.7471285 263.226244,33.948832 263.810097,33.948832 Z M274.973809,36.5205784 C274.186876,36.5205784 273.485628,36.3913621 272.870044,36.1329255 C272.254459,35.8744889 271.730903,35.5246592 271.299359,35.083426 C270.867815,34.6421928 270.537816,34.1316306 270.309352,33.5517241 C270.080887,32.9718176 269.966657,32.3604037 269.966657,31.7174638 C269.966657,31.074524 270.080887,30.4631101 270.309352,29.8832036 C270.537816,29.3032971 270.867815,28.7958865 271.299359,28.3609566 C271.730903,27.9260267 272.254459,27.5793487 272.870044,27.3209121 C273.485628,27.0624755 274.186876,26.9332592 274.973809,26.9332592 C275.760742,26.9332592 276.465163,27.0624755 277.087094,27.3209121 C277.709025,27.5793487 278.235754,27.9260267 278.667298,28.3609566 C279.098842,28.7958865 279.428841,29.3032971 279.657305,29.8832036 C279.88577,30.4631101 280,31.074524 280,31.7174638 C280,32.3604037 279.88577,32.9718176 279.657305,33.5517241 C279.428841,34.1316306 279.098842,34.6421928 278.667298,35.083426 C278.235754,35.5246592 277.709025,35.8744889 277.087094,36.1329255 C276.465163,36.3913621 275.760742,36.5205784 274.973809,36.5205784 Z M274.973809,33.948832 C275.621125,33.948832 276.119297,33.7313704 276.468339,33.2964405 C276.817382,32.8615106 276.991901,32.3351903 276.991901,31.7174638 C276.991901,31.112344 276.817382,30.592327 276.468339,30.1573971 C276.119297,29.7224672 275.621125,29.5050056 274.973809,29.5050056 C274.326493,29.5050056 273.834668,29.7224672 273.498318,30.1573971 C273.161967,30.592327 272.993795,31.112344 272.993795,31.7174638 C272.993795,32.3351903 273.161967,32.8615106 273.498318,33.2964405 C273.834668,33.7313704 274.326493,33.948832 274.973809,33.948832 Z" id="Pokapū-Akoranga-Pūta" fill="#FFFFFF"></path>
  </g>
</svg>
